<svg viewBox="0 0 131 19" fill="none" xmlns="http://www.w3.org/2000/svg">
<path d="M3.75418 14.318C6.19366 15.8157 9.07571 16.1134 12.2472 15.3289C16.7361 18.4097 23.8891 17.1061 26.7352 16.1078C35.1273 19.5309 47.4565 18.1102 52.173 16.8265C59.199 20.2496 63.8268 16.7549 65.4532 14.8294C80.2858 17.9102 99.0889 16.113 105.92 14.8294C107.286 15.8563 114.219 16.3273 118.041 16.1847C121.457 15.8995 128.629 15.0722 129.995 14.0453C131.362 13.0183 128.535 13.3666 127.152 13.2953C128.128 11.7549 122.743 11.3212 119.409 11.2499C118.433 8.68255 115.04 8.8896 113.414 9.46012C112.047 7.57741 109.138 8.67566 107.918 9.46012C106.357 6.72164 102.306 7.02853 100.924 7.67037C101.119 4.76073 98.5249 4.48913 97.0611 4.8457C96.866 2.10722 93.2391 2.421 91.4501 2.92021C89.1081 0.866416 86.7336 2.49235 85.8391 3.56204C80.9599 -0.887991 77.3006 2.13575 76.0808 4.20387C72.3727 2.49235 69.6763 6.65455 68.7005 8.4374C65.5779 4.67199 61.5247 4.56038 59.9796 5.48744C50.2213 -2.04341 38.8367 -0.217714 34.3641 1.63649C24.4106 -1.7866 11.1882 3.34801 11.6761 6.34327C5.82112 4.46056 4.68271 7.55561 4.84538 9.33848C-1.98542 10.5366 -0.8811 14.9598 3.75418 14.318Z" fill="url(#fill)"/>
<defs>
<linearGradient id="fill" x1="65.1794" y1="0" x2="65.1794" y2="18.2689" gradientUnits="userSpaceOnUse">
<stop stop-color="#CFF4FD"/>
<stop  offset="1" stop-color="#E2FFFF" stop-opacity="0"/>
</linearGradient>
</defs>
</svg>
