<svg viewBox="0 0 451 83" fill="none" xmlns="http://www.w3.org/2000/svg">
<path d="M6.59722 45.1471C0.140387 67.8803 47.5736 76.7946 74.8079 77.9412H405.867C407.283 77.9412 411.864 77.8036 418.86 77.2532C425.856 76.7028 427.684 66.7164 428.267 63.3529C433.681 63.4293 444.263 62.7729 445.262 57.8194C444.263 42.4766 429.431 43.8476 421.019 45.1471C424.267 32.0754 412.771 33.4513 411.772 37.1205C407.974 20.6089 394.124 22.2144 387.128 24.9663C372.536 5.70277 347.568 8.83685 336.907 12.8118C325.514 -0.764398 309.839 6.39067 303.426 11.6652C293.632 5.97789 287.685 13.1176 285.936 17.3984C270.145 14.463 265.647 27.1831 264.814 33.91C258.418 25.6542 250.54 32.6104 247.958 37.1205C244.96 25.5623 227.72 26.8007 219.475 28.8647C216.676 22.26 205.649 24.1253 200.486 25.8835C187.893 17.6276 182.079 24.431 180.747 28.8647C161.358 15.8387 145.847 25.055 140.1 32.1643C134.503 32.1643 137.851 39.2069 137.851 39.2069C132.654 36.2715 121.188 47.6329 118.106 51.5314C115.708 41.2575 106.623 36.9676 102.042 37.1205C94.6465 26.8466 80.8045 30.6994 74.8079 33.91C48.8229 22.7188 34.3312 34.2923 30.3336 41.4779C14.9424 38.5425 8.09636 42.701 6.59722 45.1471Z" fill="url(#fill)"/>
<path fill-rule="evenodd" clip-rule="evenodd" d="M74.7027 82.9412L74.5976 82.9368C60.6967 82.3515 41.4779 79.7906 26.372 74.3425C18.8679 71.6361 11.8666 68.0393 7.12802 63.1979C2.15894 58.1209 -0.407322 51.5083 1.78744 43.781L1.97513 43.1202L2.33409 42.5345C4.01567 39.7906 7.49633 37.6074 12.0161 36.4506C16.0686 35.4133 21.3359 35.0828 27.9984 36.0222C34.7736 27.4627 50.5564 18.9214 74.6514 28.4366C78.1369 26.9118 82.8571 25.5368 87.8222 25.4592C93.4641 25.3709 99.7858 26.9926 104.578 32.3094C107.619 32.8016 110.942 34.2217 113.876 36.4036C116.008 37.9891 118.037 40.0491 119.692 42.6066C121.079 41.3163 122.599 40.0099 124.163 38.8235C126.281 37.216 128.728 35.6349 131.211 34.6794C131.427 34.5964 131.653 34.5143 131.888 34.4354C131.985 33.199 132.341 31.7229 133.324 30.3519C134.431 28.8068 135.942 27.9133 137.557 27.4839C141.206 23.6152 146.937 19.7066 154.22 18.0835C161.45 16.4722 169.91 17.1829 178.951 21.9639C180.341 20.3324 182.199 18.8676 184.606 17.9461C189.335 16.1353 194.945 16.8795 201.194 20.4535C203.999 19.7124 207.565 19.1118 211.053 19.2414C214.34 19.3637 218.667 20.2239 221.685 23.2948C225.961 22.5521 231.35 22.1606 236.442 22.9421C240.687 23.5935 245.398 25.2115 248.784 28.6599C250.057 27.6418 251.491 26.7465 253.055 26.1035C255.368 25.1527 258.157 24.6859 261.109 25.4568C261.348 25.5194 261.585 25.5891 261.82 25.666C262.773 23.3037 264.121 20.8858 266.006 18.7352C269.845 14.3547 275.532 11.5344 283.199 12.0217C284.608 9.95759 286.607 7.86673 289.257 6.41131C293.104 4.29809 297.793 3.82152 302.896 5.85295C306.672 3.34351 311.89 0.915673 317.692 0.206406C324.467 -0.621692 331.944 0.937716 338.373 7.07203C344.321 5.35562 352.525 4.17681 361.139 5.21021C370.621 6.34775 380.814 10.2093 388.828 19.1706C392.603 18.1937 397.324 17.7241 401.971 18.9974C407.134 20.4123 411.638 23.8258 414.491 29.7376C416.084 29.4814 417.821 29.5517 419.515 30.0947C422.184 30.9504 424.545 32.935 425.751 36.0644C426.164 37.1376 426.419 38.2832 426.53 39.4911C429.925 39.2864 433.748 39.4092 437.309 40.4393C440.464 41.3517 443.636 43.0337 446.087 45.996C448.551 48.9724 449.948 52.8318 450.252 57.4943L450.295 58.1571L450.163 58.8083C449.548 61.8583 447.504 63.8382 445.587 65.0305C443.698 66.2051 441.503 66.9047 439.515 67.351C437.137 67.8848 434.602 68.152 432.336 68.2725C431.915 69.8852 431.324 71.7185 430.493 73.4861C428.823 77.0352 425.464 81.7491 419.252 82.2378C412.182 82.794 407.46 82.9412 405.867 82.9412H74.7027ZM428.267 63.3529C433.681 63.4293 444.263 62.7729 445.262 57.8194C444.449 45.3373 434.481 43.9174 426.263 44.5216C424.379 44.6601 422.588 44.9048 421.019 45.1471C421.529 43.0951 421.676 41.3991 421.556 40.0122C421.215 36.041 418.696 34.6031 416.29 34.5949C414.184 34.5877 412.165 35.6765 411.772 37.1205C411.288 35.0155 410.64 33.205 409.864 31.6538C404.554 21.0368 393.232 22.5652 387.128 24.9663C372.536 5.70275 347.567 8.83683 336.907 12.8118C325.514 -0.764417 309.839 6.39065 303.426 11.6652C293.632 5.97787 287.685 13.1176 285.936 17.3984C274.042 15.1873 268.554 21.8589 266.215 28.161C265.448 30.2254 265.02 32.2502 264.814 33.91C263.374 32.051 261.858 30.9633 260.345 30.4453C257.214 29.3736 254.093 30.7407 251.667 32.761C250.059 34.1005 248.756 35.7272 247.958 37.1205C247.442 35.1291 246.502 33.5175 245.259 32.2246C239.286 26.0135 226.299 27.1563 219.475 28.8647C216.676 22.26 205.649 24.1253 200.485 25.8834C191.79 20.1828 186.327 21.6622 183.34 24.5838C182.001 25.8933 181.159 27.4925 180.747 28.8647C179.264 27.8682 177.803 27.0018 176.368 26.2548C159.042 17.2365 145.407 25.5989 140.1 32.1643C138.35 32.1643 137.475 32.8527 137.098 33.7992C136.269 35.8797 137.851 39.2068 137.851 39.2068C136.46 38.4211 134.619 38.6598 132.611 39.5055C129.099 40.9842 125.074 44.3186 122.036 47.278C120.321 48.9493 118.921 50.501 118.106 51.5314C117.645 49.5545 116.936 47.7993 116.059 46.2545C112.378 39.7711 105.742 36.997 102.042 37.1205C94.6465 26.8466 80.8045 30.6994 74.8079 33.91C48.8229 22.7188 34.3312 34.2922 30.3335 41.4779C14.9424 38.5425 8.09633 42.701 6.59719 45.1471C0.140358 67.8802 47.5736 76.7945 74.8079 77.9412H405.867C407.283 77.9412 411.864 77.8036 418.86 77.2532C425.856 76.7028 427.684 66.7163 428.267 63.3529Z" fill="url(#stroke)"/>
<defs>
<linearGradient id="fill" x1="225.631" y1="5" x2="225.631" y2="77.9412" gradientUnits="userSpaceOnUse">
<stop stop-color="#DAF9FF"/>
<stop offset="1" stop-color="#DAF9FF" stop-opacity="0"/>
</linearGradient>
<linearGradient id="stroke" x1="225.646" y1="0.0012207" x2="225.646" y2="82.9412" gradientUnits="userSpaceOnUse">
<stop stop-color="#CFF4FD"/>
<stop  offset="1" stop-color="#E2FFFF" stop-opacity="0"/>
</linearGradient>
</defs>
</svg>
