<svg viewBox="0 0 178 21" fill="none" xmlns="http://www.w3.org/2000/svg">
<path d="M3.04563 17.6516C3.84608 18.5979 9.61701 18.0459 12.2852 17.6516C14.6865 18.9133 25.1918 17.7462 30.3614 17.3519C31.5621 18.2982 34.3637 17.7462 35.6144 17.3519C36.2147 19.2444 41.7012 18.6662 44.3694 18.1405C47.5712 19.8753 51.5401 19.1262 53.1243 18.5347C58.3273 21.0581 64.9644 19.4547 67.6325 18.3376C68.6331 21.3341 83.8917 19.849 91.396 18.7319C94.3977 19.8359 98.8168 19.1919 100.651 18.7319C102.652 20.6244 104.487 19.2576 105.154 18.3376C109.556 21.0187 113.158 19.1919 114.409 17.9433C121.013 20.7822 126.166 18.6005 127.917 17.1548C132.319 19.205 135.588 17.8776 136.672 16.9576C137.872 18.2193 143.009 17.8776 145.427 17.549C150.229 19.2839 156.099 18.1405 158.434 17.3519C161.035 18.7713 164.354 16.1033 165.688 14.5919H168.44C172.042 15.5382 175.777 15.2491 177.195 14.9862C177.598 13.9742 171.605 13.2387 171.605 13.2387C171.605 12.2924 167.696 12.9759 165.862 13.2387C166.062 12.2924 162.701 11.702 161.117 11.7677C161.517 9.87518 158.29 10.8462 156.372 11.4377C156.289 11.3062 155.823 10.367 155.623 10.0516C154.623 9.26306 151.13 10.912 149.88 11.4377C150.68 10.0182 149.298 8.76009 148.381 8.8258C149.382 6.06583 144.426 6.3119 143.926 6.3119C142.125 4.89248 140.141 6.61426 139.641 7.6C140.041 4.13031 136.838 4.20914 134.921 4.73484C134.12 1.58064 131.085 2.23767 129.668 2.96047C129.668 -1.61324 115.66 -0.19369 115.66 2.5663C111.657 2.09316 110.49 4.20916 110.407 5.32631C109.606 4.53784 108.072 4.99778 107.405 5.32631C106.605 2.64528 102.235 3.55202 100.151 4.34052C97.5495 2.76341 96.0653 4.99764 95.6484 6.3119C92.8468 4.89248 91.8129 6.90332 91.6461 8.08617C90.4454 6.82443 89.3115 7.95473 88.8946 8.67759C87.2937 7.5736 85.3926 8.21759 84.6422 8.67759C81.4403 7.88899 79.9728 9.00617 79.6393 9.66334C76.6376 9.03249 75.2202 10.3205 74.8866 11.0434C67.0822 4.7349 49.2412 8.56543 50.492 11.5226C46.4897 9.78773 44.3328 11.8107 43.9993 12.9935C39.997 11.101 38.0069 14.6035 37.5066 16.1806C35.5055 14.0121 33.0117 15.0509 33.0117 15.4452C26.408 12.4486 16.6201 14.4898 12.7846 15.9355C8.18199 14.8315 2.46704 16.4319 0.0489998 17.3519C-0.351227 18.4559 1.79492 17.8488 3.04563 17.6516Z" fill="url(#fill)"/>
<defs>
<linearGradient id="fill" x1="88.607" y1="0" x2="88.607" y2="20.1032" gradientUnits="userSpaceOnUse">
<stop stop-color="#CFF4FD"/>
<stop  offset="1" stop-color="#E2FFFF" stop-opacity="0"/>
</linearGradient>
</defs>
</svg>
