<svg viewBox="0 0 293 112" fill="none" xmlns="http://www.w3.org/2000/svg">
<path d="M5.03289 92.955C5.52336 99.1758 11.8978 106.832 17.7819 106.832H263.447C288.945 102.238 289.435 86.8935 286.493 79.7952C288.062 68.6933 281.59 64.1632 278.157 63.2859C274.823 46.633 257.971 42.47 249.962 42.47C248.197 34.4309 242.362 37.0466 239.665 39.3594C236.33 35.7225 232.882 37.844 231.574 39.3594C233.535 30.7458 227.978 27.1568 224.954 26.439C225.15 19.5481 218.498 18.7825 215.147 19.2611C214.559 13.5187 208.201 14.1568 205.095 15.1936C202.938 6.19721 196.514 7.9359 193.572 9.92979C192.787 4.57031 187.524 5.46352 184.991 6.58006C175.772 1.98612 169.708 8.4942 167.829 12.3225C161.748 6.00587 151.565 8.09543 147.234 9.92979C136.446 9.73838 131.951 17.5065 131.052 21.4145C123.207 23.1373 120.919 28.6722 120.755 31.2243C117.225 24.7162 112.256 26.4391 110.213 28.114C107.074 23.1373 104.165 24.9237 103.103 26.439C96.8261 22.6107 91.3342 28.0341 89.3728 31.2243C79.762 32.1814 78.0131 39.1202 78.34 42.47C73.4365 38.259 69.432 40.7154 68.0427 42.47C62.3546 37.6847 58.9712 42.7092 57.9905 45.8196C49.7527 43.3313 48.6739 51.0037 49.1642 55.151C16.5561 59.2185 4.27467 83.3382 5.03289 92.955Z" fill="url(#fill)"/>
<path fill-rule="evenodd" clip-rule="evenodd" d="M263.893 111.832H17.7819C12.7915 111.832 8.47705 108.734 5.64615 105.547C2.74142 102.276 0.400898 97.82 0.0483099 93.348C-0.47604 86.6975 3.27656 76.9619 10.8899 68.6048C18.0723 60.7208 28.9994 53.6641 44.232 50.8544C44.4691 49.0742 44.9897 47.1868 45.9838 45.4802C47.0858 43.5884 48.8435 41.8173 51.4288 40.9207C52.6288 40.5045 53.8767 40.322 55.1506 40.3341C56.0062 39.0788 57.1381 37.8559 58.6065 36.9407C60.3209 35.8722 62.4679 35.2557 64.8809 35.5824C65.8753 35.717 66.8336 36.0004 67.7545 36.4064C68.7183 35.9072 69.8133 35.5135 71.0271 35.3051C72.2462 35.0957 73.4946 35.0883 74.7497 35.2949C75.1022 34.5461 75.5286 33.8009 76.0391 33.0746C78.2288 29.9593 81.6973 27.5712 86.5455 26.5959C87.934 24.8851 89.8687 23.0615 92.2743 21.7839C95.0995 20.2834 98.642 19.54 102.378 20.6661C103.356 20.1838 104.506 19.857 105.824 19.8423C108.006 19.8181 109.892 20.6463 111.482 21.9718C112.663 21.6512 113.973 21.4953 115.372 21.6204C116.733 21.7422 118.032 22.115 119.246 22.7292C121.048 20.5649 123.63 18.5933 127.183 17.328C129.529 11.9833 135.354 5.15474 146.279 4.93181C148.979 3.93225 152.824 3.02938 156.925 3.06977C160.01 3.10016 163.489 3.67585 166.729 5.34994C167.984 4.05051 169.515 2.82485 171.325 1.87041C175.163 -0.153801 179.947 -0.778774 185.215 1.2238C186.831 0.794835 188.805 0.547422 190.811 0.903325C192.461 1.19617 194.294 1.93385 195.817 3.47792C195.854 3.51563 195.891 3.5536 195.927 3.59184C197.367 3.29111 198.95 3.21174 200.591 3.53408C203.958 4.19529 206.569 6.30811 208.294 9.53449C209.515 9.46532 210.808 9.52335 212.088 9.79087C213.787 10.1459 215.715 10.9271 217.311 12.5317C217.83 13.0539 218.277 13.626 218.653 14.24C220.235 14.4041 221.937 14.8032 223.554 15.5835C225.26 16.4071 226.971 17.7096 228.211 19.6854C228.841 20.69 229.297 21.7849 229.585 22.9516C231.199 23.8546 232.827 25.1666 234.157 26.9704C235.303 28.524 236.152 30.3396 236.607 32.3957C237.701 32.5037 238.786 32.8063 239.833 33.3112C241.409 32.5438 243.289 31.9729 245.316 32.0351C247.493 32.1019 249.73 32.9129 251.548 34.7564C252.384 35.6043 253.054 36.5911 253.586 37.6779C257.92 38.1525 263.25 39.4949 268.237 42.2604C274.263 45.602 279.904 51.1125 282.399 59.6155C284.457 60.6968 286.581 62.4013 288.289 64.8285C290.776 68.3616 292.191 73.1459 291.6 79.1904C293.142 83.8178 293.498 90.3924 290.006 96.6804C286.098 103.717 278 109.291 264.333 111.753L263.893 111.832ZM286.493 79.7953C289.435 86.8935 288.945 102.238 263.447 106.832H17.7819C11.8977 106.832 5.52331 99.1758 5.03284 92.955C4.27462 83.3382 16.556 59.2185 49.1642 55.151C48.6738 51.0037 49.7526 43.3313 57.9905 45.8196C58.936 42.8208 62.1149 38.0428 67.4393 41.9923C67.6374 42.1393 67.8385 42.2983 68.0426 42.47C68.1004 42.397 68.1627 42.3228 68.2294 42.2479C69.1778 41.1836 71.0154 39.981 73.3875 40.1634C74.8605 40.2766 76.5396 40.9239 78.3399 42.47C78.2034 41.0711 78.4289 39.0464 79.4378 37.0927C80.8448 34.368 83.7755 31.7817 89.3728 31.2243C91.3342 28.0341 96.8261 22.6107 103.103 26.439C103.958 25.2188 106.011 23.8227 108.417 25.9242C108.999 26.4323 109.602 27.145 110.213 28.114C110.583 27.8102 111.05 27.5048 111.587 27.2472C112.966 26.5858 114.809 26.2399 116.673 27.0459C118.085 27.6565 119.509 28.9281 120.755 31.2243C120.839 29.9173 121.48 27.8279 123.139 25.869C124.72 24.0028 127.225 22.255 131.052 21.4145C131.951 17.5065 136.446 9.73838 147.234 9.9298C150.685 8.46841 157.849 6.84505 163.695 9.43925C165.186 10.1013 166.592 11.0381 167.829 12.3225C168.427 11.1028 169.451 9.61117 170.866 8.29317C173.892 5.47423 178.709 3.44972 184.991 6.58006C186.527 5.90304 189.067 5.30813 191.003 6.13952C192.26 6.67924 193.263 7.82008 193.572 9.9298C194.767 9.12016 196.535 8.3526 198.359 8.32877C200.515 8.30061 202.749 9.31158 204.203 12.5205C204.548 13.2825 204.849 14.1683 205.095 15.1936C205.726 14.9829 206.491 14.7887 207.315 14.6612C210.403 14.183 214.314 14.6409 215.064 18.6766C215.098 18.8637 215.126 19.0584 215.147 19.2611C215.416 19.2227 215.706 19.1923 216.012 19.1724C219.521 18.9448 225.135 20.101 224.954 26.439C227.125 26.9544 230.602 28.9497 231.665 33.2221C232.082 34.9004 232.127 36.93 231.574 39.3594C232.519 38.264 234.583 36.852 236.914 37.5269C237.808 37.7857 238.74 38.3514 239.665 39.3594C242.362 37.0466 248.197 34.4309 249.962 42.47C257.971 42.47 274.823 46.633 278.157 63.2859C281.59 64.1632 288.062 68.6933 286.493 79.7953Z" fill="url(#stroke)"/>
<defs>
<linearGradient id="fill" x1="146.36" y1="5" x2="146.36" y2="106.832" gradientUnits="userSpaceOnUse">
<stop stop-color="#DAF9FF"/>
<stop offset="1" stop-color="#DAF9FF" stop-opacity="0"/>
</linearGradient>
<linearGradient id="stroke" x1="146.36" y1="0" x2="146.36" y2="111.832" gradientUnits="userSpaceOnUse">
<stop stop-color="#CFF4FD"/>
<stop  offset="1" stop-color="#E2FFFF" stop-opacity="0"/>
</linearGradient>
</defs>
</svg>
