<svg viewBox="0 0 583 173" fill="none" xmlns="http://www.w3.org/2000/svg">
<path d="M48.0208 166.838H526.563C550.787 163.682 572.6 143.788 574.764 130.913C578.966 105.911 573.281 100.49 569.573 93.0464C574.517 67.8021 561.416 65.2129 554.248 67.0739C551.282 62.2192 543.454 61.9765 539.911 62.4619C540.159 59.3064 538.181 56.3936 534.473 54.209C531.507 52.4613 529.118 54.9372 528.294 56.3936C527.898 53.675 524.009 53.8044 522.114 54.209C520.335 49.1601 512.721 48.6261 512.227 51.7816C511.238 49.4514 507.86 49.1925 506.295 49.3543C504.713 45.0822 501.186 45.7942 499.621 46.6842C498.434 40.0819 490.887 40.6968 487.262 41.8296C487.657 29.79 471.937 29.4501 470.206 34.5475C468.624 26.7801 460.319 25.6473 456.364 26.0519C454.782 19.6437 444.499 18.7698 442.769 21.9254C439.803 20.7603 431.811 22.4109 428.186 23.3818C425.813 15.8085 415.497 14.8861 410.636 15.3716C411.427 10.9054 406.516 10.5979 403.962 11.0024C400.402 7.507 395.558 11.326 393.58 13.6724C391.603 7.84698 386.824 8.81777 384.682 10.0313C382.506 7.11847 378.173 8.81765 376.277 10.0313C374.893 7.11847 369.274 7.52305 366.637 8.08945C363.473 5.37074 359.552 9.86953 357.986 12.4588C354.031 11.4878 351.889 13.9961 351.312 15.3716C346.369 12.653 344.309 16.5043 343.897 18.7698C339.349 17.0223 340.642 20.6309 340.395 23.3818C333.474 20.8574 324.04 27.5083 321.65 30.4211C316.905 25.3722 307.881 30.4211 307.881 30.4211C307.09 19.1582 301.958 17.3134 298.663 17.7988C297.872 12.5557 291.906 12.8632 289.022 13.6724C287.836 7.84698 282.761 8.81777 280.371 10.0313C275.032 3.81738 262.986 6.14759 257.63 8.08945C246.557 6.14758 235.055 13.7532 230.688 17.7988C220.603 13.1383 211.325 17.9606 207.947 20.9542C190.941 5.61342 179.768 14.5622 176.308 20.9542C168.794 12.6042 164.443 18.1224 163.207 21.9253C150.552 14.7404 148.212 22.168 148.624 26.78C132.804 25.809 128.355 36.732 128.108 42.3149C120.989 36.8777 114.76 43.9332 112.535 48.1406C106.405 45.422 102.071 50.8917 100.67 53.9663C94.7381 47.7523 88.8057 52.9953 86.5811 56.3936C82.2307 52.8982 79.0009 56.7173 77.9297 59.0637C70.6132 57.1218 66.9714 61.9765 66.065 64.6466C53.2116 65.2291 51.6461 77.3497 52.47 83.3371C-6.26026 79.2592 -11.0555 154.944 48.0208 166.838Z" fill="url(#fill)"/>
<path fill-rule="evenodd" clip-rule="evenodd" d="M526.953 172.837H47.4227L46.8365 172.719C14.5369 166.216 -1.26064 141.8 0.0779755 118.75C0.741998 107.316 5.657 96.3005 14.774 88.4455C22.6794 81.6343 33.4029 77.4869 46.4892 77.1951C46.7947 74.6366 47.4812 71.9045 48.7549 69.316C51.1573 64.4335 55.54 60.371 62.2628 59.0655C63.2476 57.6618 64.5614 56.2802 66.2431 55.1482C68.6839 53.5053 71.691 52.5343 75.1319 52.6227C75.9595 51.7476 76.9601 50.9218 78.1496 50.2721C79.7876 49.3775 81.8428 48.7969 84.1651 49.0383C84.4384 49.0667 84.7084 49.1058 84.9752 49.155C86.3841 47.8971 88.0976 46.7352 90.0888 45.9724C92.2589 45.141 94.8508 44.7582 97.6295 45.4001C98.1444 45.519 98.649 45.6693 99.1431 45.8494C99.819 45.1773 100.57 44.5362 101.397 43.9593C103.674 42.3721 106.573 41.275 109.827 41.4141C111.285 39.6035 113.162 37.7874 115.434 36.4453C117.521 35.2119 120.133 34.2722 123.122 34.3412C123.398 34.3476 123.672 34.3624 123.945 34.3856C124.897 32.1953 126.267 29.9802 128.162 27.972C131.698 24.2242 136.725 21.5577 143.342 20.8855C144.032 18.7845 145.289 16.6705 147.491 15.0728C151.318 12.2954 156.008 12.4294 160.904 14.2234C162.047 13.0097 163.496 11.934 165.312 11.2586C168.828 9.95105 172.263 10.5863 175.416 12.4348C178.028 9.96694 181.499 7.83468 185.82 6.93133C192.612 5.51171 200.242 7.37357 208.306 13.466C213.362 10.6772 221.047 8.40321 229.54 10.9583C232.097 9.02127 235.414 6.92401 239.18 5.22806C244.184 2.97457 250.481 1.20582 257.068 1.94953C260.204 0.967648 264.521 0.0516273 268.94 0.00229851C272.821 -0.0410202 277.706 0.585722 281.761 3.31446C283.149 3.06996 284.697 3.01199 286.294 3.32262C288.193 3.69205 290.185 4.59941 291.837 6.32274C292.111 6.60844 292.366 6.90666 292.603 7.21611C293.719 7.23012 294.888 7.3528 296.053 7.63792C297.775 8.05916 299.739 8.90046 301.411 10.5268C301.921 11.0225 302.374 11.5624 302.768 12.1409C304.717 12.6554 306.701 13.6945 308.471 15.479C310.275 17.2979 311.617 19.6514 312.525 22.5017C314.786 22.094 317.891 21.9124 320.946 22.9881C322.639 21.7151 324.621 20.4763 326.701 19.4656C328.97 18.3633 331.884 17.2748 335.041 16.9305C335.731 15.2209 337.201 13.2743 339.958 12.5588C340.05 12.5349 340.142 12.5129 340.234 12.4928C340.782 11.7592 341.449 11.0559 342.259 10.4364C343.8 9.25725 345.763 8.47365 348.031 8.43776C348.492 8.43046 348.948 8.45424 349.399 8.50603C350.895 7.36936 352.801 6.49037 355.102 6.27605C355.992 5.25308 357.052 4.2282 358.254 3.38047C359.524 2.48483 361.352 1.50286 363.601 1.2882C365.012 1.1535 366.414 1.34015 367.731 1.84472C369.179 1.68227 370.857 1.61743 372.528 1.78585C373.661 1.89992 375.461 2.19081 377.24 3.05088C377.98 2.82592 378.766 2.6452 379.581 2.53652C381.291 2.30841 383.541 2.37852 385.689 3.35055C387.099 3.07199 388.684 2.99957 390.342 3.3234C391.926 3.63257 393.378 4.26243 394.656 5.18593C395.034 4.98538 395.424 4.79786 395.825 4.62704C397.403 3.95451 399.434 3.42082 401.703 3.6437C403.099 3.78091 404.444 4.19265 405.688 4.87258C407.25 4.87588 409.066 5.097 410.799 5.79672C412.269 6.39012 413.996 7.46388 415.233 9.34677C417.426 9.50103 419.829 9.88904 422.175 10.641C425.243 11.6243 428.707 13.4169 431.22 16.5308C432.403 16.2977 433.657 16.0805 434.906 15.9086C436.465 15.694 438.139 15.5328 439.719 15.5249C440.139 15.5228 440.607 15.5304 441.105 15.5603C442.197 14.9797 443.289 14.6523 444.154 14.4687C446.319 14.0088 448.668 14.0722 450.852 14.5296C453.828 15.1527 457.601 16.8122 460.059 20.0896C462.109 20.2877 464.373 20.7786 466.567 21.7326C468.665 22.6446 470.749 24.0165 472.461 25.9497C475.116 25.2714 478.089 25.2667 480.89 25.9181C483.885 26.6145 487.074 28.1575 489.515 30.9359C490.597 32.1684 491.466 33.5701 492.095 35.1176C493.241 35.127 494.426 35.2366 495.606 35.4878C497.6 35.9126 499.836 36.8008 501.752 38.5572C502.256 39.0182 502.714 39.5182 503.126 40.054C503.44 40.0839 503.76 40.129 504.083 40.191C506.346 40.6254 508.298 41.7937 509.79 43.5538C510.234 43.6341 510.687 43.7377 511.14 43.8686C511.499 43.9719 511.892 44.1035 512.306 44.2703C514.145 43.721 516.044 43.7242 517.69 44.0027C520.171 44.4226 523.07 45.673 525.25 48.0224C525.812 48.0607 526.389 48.1335 526.966 48.2513C527.337 48.3268 527.753 48.4348 528.195 48.5831C530.804 47.3379 534.19 47.0777 537.519 49.0396C540.448 50.7652 543.139 53.2294 544.654 56.355C545.919 56.4401 547.248 56.6126 548.58 56.9043C551.031 57.4413 554.038 58.5111 556.551 60.6535C560.99 60.3489 566.424 61.3614 570.705 65.6631C576.061 71.0441 577.877 79.843 575.848 92.0664C575.93 92.2161 576.015 92.3689 576.102 92.5249C577.639 95.2994 579.736 99.0851 580.954 103.933C582.587 110.433 582.86 118.941 580.681 131.907C579.928 136.386 577.602 140.915 574.567 145.059C571.481 149.273 567.406 153.441 562.676 157.211C553.259 164.719 540.753 171.04 527.338 172.787L526.953 172.837ZM569.573 93.0463C570.055 94.0144 570.571 94.9483 571.094 95.8955C574.592 102.231 578.419 109.163 574.764 130.913C572.6 143.788 550.787 163.682 526.563 166.837H48.0207C-8.95641 155.366 -6.52045 84.5572 46.4141 83.1981C48.3643 83.148 50.3831 83.1922 52.47 83.3371C52.2418 81.6791 52.1969 79.5507 52.5241 77.3273C53.3787 71.5216 56.7709 65.0678 66.065 64.6465C66.9713 61.9765 70.6131 57.1218 77.9297 59.0637C78.8899 56.9601 81.5851 53.673 85.2672 55.5334C85.6923 55.7482 86.1307 56.0317 86.581 56.3935C87.0029 55.7491 87.5581 55.0383 88.2214 54.3518C89.9972 52.5142 92.5474 50.8512 95.3869 51.1038C97.0795 51.2544 98.8749 52.0856 100.67 53.9663C101.319 52.5421 102.597 50.604 104.392 49.2039C106.471 47.5814 109.244 46.6813 112.535 48.1406C114.121 45.142 117.74 40.6968 122.266 40.3583C124.09 40.2218 126.062 40.7527 128.107 42.3149C128.183 40.6111 128.65 38.4099 129.712 36.2012C131.642 32.1867 135.538 28.1473 142.624 27.0248C144.414 26.7413 146.407 26.6439 148.624 26.7799C148.534 25.7793 148.574 24.6462 148.821 23.5585C149.523 20.4674 151.895 17.7433 157.71 19.4715C159.28 19.9381 161.1 20.7292 163.207 21.9253C163.582 20.7709 164.245 19.4584 165.195 18.4238C166.645 16.8457 168.766 15.914 171.562 17.1756C172.972 17.8117 174.554 19.0051 176.308 20.9542C177.143 19.4118 178.427 17.7205 180.134 16.2575C185.5 11.6578 195.045 9.31518 207.947 20.9542C211.325 17.9605 220.603 13.1383 230.688 17.7988C235.055 13.7532 246.557 6.14754 257.63 8.08941C262.986 6.14755 275.032 3.81734 280.371 10.0313C282.568 8.91536 287.037 8.00472 288.664 12.395C288.806 12.7791 288.927 13.2037 289.022 13.6724C289.508 13.5362 290.08 13.4142 290.701 13.3305C293.768 12.9169 298.005 13.4381 298.663 17.7988C301.234 17.42 304.923 18.4599 306.796 24.2851C307.323 25.9258 307.707 27.946 307.881 30.421C307.881 30.421 310.535 28.9361 313.721 28.3822C315.881 28.0067 318.285 28.0589 320.273 29.2909C320.76 29.593 321.223 29.966 321.65 30.421C322.155 29.8064 322.972 29.0254 324.014 28.1993C326.785 26.0015 331.14 23.4845 335.389 22.932C337.113 22.7079 338.819 22.807 340.395 23.3817C340.447 22.8033 340.431 22.1868 340.415 21.5903C340.374 20.0176 340.336 18.5829 341.56 18.3449C341.753 18.3074 341.978 18.2996 342.239 18.3259C342.68 18.3702 343.224 18.5115 343.897 18.7698C344.024 18.0715 344.307 17.2225 344.784 16.4617C345.654 15.0708 347.169 13.9746 349.55 14.6325C350.092 14.7823 350.678 15.0229 351.312 15.3715C351.407 15.1458 351.544 14.8896 351.724 14.6233C352.641 13.2666 354.68 11.6471 357.986 12.4587C359.551 9.86949 363.473 5.3707 366.637 8.08941C369.066 7.56758 374.027 7.1831 375.875 9.40378C376.033 9.59344 376.168 9.8021 376.277 10.0313C376.881 9.64459 377.733 9.2086 378.683 8.8882C380.715 8.20303 383.199 8.04654 384.682 10.0313C385.809 9.39279 387.666 8.82149 389.461 9.27191C391.077 9.67757 392.643 10.912 393.58 13.6724C394.634 12.4222 396.501 10.754 398.555 9.99676C400.355 9.33281 402.299 9.36932 403.962 11.0023C405.94 10.689 409.332 10.8029 410.393 12.945C410.702 13.5687 410.814 14.3644 410.636 15.3715C412.221 15.2132 414.386 15.2046 416.667 15.5275C421.38 16.1948 426.586 18.278 428.185 23.3817C431.811 22.4108 439.803 20.7602 442.769 21.9253C444.499 18.7698 454.782 19.6436 456.364 26.0518C459.033 25.7788 463.683 26.2059 466.911 28.8994C468.466 30.1974 469.692 32.0216 470.206 34.5475C470.791 32.8236 472.977 31.7215 475.598 31.4837C479.189 31.1577 483.597 32.4539 485.828 35.9951C486.784 37.5118 487.34 39.4403 487.262 41.8295C488.814 41.3445 491.085 40.9545 493.268 41.1851C494.753 41.342 496.196 41.7859 497.346 42.6822C498.454 43.5463 499.288 44.8309 499.621 46.6842C500.405 46.2385 501.681 45.8374 502.958 46.0846C504.231 46.331 505.505 47.2215 506.295 49.3543C506.417 49.3416 506.55 49.3316 506.692 49.3249C508.373 49.2454 511.316 49.6331 512.227 51.7816C512.472 50.2161 514.47 49.5587 516.638 49.9102C518.84 50.2671 521.218 51.6649 522.114 54.2089C522.643 54.0961 523.327 54.0047 524.046 53.9905C525.907 53.9537 528.009 54.4332 528.294 56.3935C529.058 55.0422 531.171 52.8133 533.841 53.8946C534.048 53.9787 534.259 54.0828 534.473 54.2089C537.043 55.723 538.782 57.5869 539.525 59.639C539.854 60.5477 539.987 61.4934 539.911 62.4619C541.39 62.2593 543.614 62.1836 545.919 62.5166C549.14 62.9818 552.519 64.2446 554.248 67.0738C561.416 65.2129 574.517 67.802 569.573 93.0463Z" fill="url(#stroke)"/>
<defs>
<linearGradient id="fill" x1="291.124" y1="6.00024" x2="291.124" y2="166.838" gradientUnits="userSpaceOnUse">
<stop stop-color="#DAF9FF"/>
<stop offset="1" stop-color="#DAF9FF" stop-opacity="0"/>
</linearGradient>
<linearGradient id="stroke" x1="291.123" y1="0.000244141" x2="291.123" y2="172.837" gradientUnits="userSpaceOnUse">
<stop stop-color="#CFF4FD"/>
<stop offset="1" stop-color="#E2FFFF" stop-opacity="0"/>
</linearGradient>
</defs>
</svg>
