<svg viewBox="0 0 494 102" fill="none" xmlns="http://www.w3.org/2000/svg">
<path d="M39.8773 62.4246C8.25348 64.7303 3.64167 86.2818 5.28875 96.7693H479.041C490.041 92.5 497.541 71 469.517 63.6256C469.714 61.8964 466.964 59.3826 465.564 58.3418C465.959 45.2764 457.328 44.0916 452.964 45.1323C451.185 37.0625 442.175 35.2052 437.893 35.2852C423.464 23.9491 413.104 29.441 409.728 33.604C406.961 23.4207 399.516 24.8777 396.139 26.8792C387.443 22.6521 382.633 25.7584 381.316 27.8399C379.339 17.6565 367.151 17.8326 361.304 19.1935C354.386 9.39437 346.892 11.4279 344.01 13.6695C338.871 4.44681 327.868 7.90526 323.009 10.7873C309.569 -0.933109 295.503 7.82529 290.15 13.6695C273.548 6.75257 262.315 14.4701 258.773 19.1935C253.239 11.8923 244.609 14.3901 240.985 16.5517C223.444 3.8225 214.797 20.3944 214.55 19.9141C214.352 13.1893 207.549 13.5894 204.173 14.6301C193.895 11.1716 188.526 16.7117 187.126 19.9141C167.855 10.5474 163.75 28.9307 164.149 29.2809C156.243 22.1717 152.29 28.4002 151.302 32.403C144.187 30.8659 142.243 35.6055 142.161 38.1674C130.302 36.8224 128.655 43.3711 129.313 46.8136C122.396 38.5516 113.913 43.3711 110.537 46.8136C100.852 43.9315 96.7837 50.8964 95.9602 54.7391C84.1013 51.0885 69.8118 58.9164 65.2824 63.2395C63.5035 57.6675 58.2422 59.2223 54.701 60.7434C47.5856 54.4028 41.8538 59.2223 39.8773 62.4246Z" fill="url(#fill)"/>
<path fill-rule="evenodd" clip-rule="evenodd" d="M1.01272 101.769L0.349297 97.545C-0.636087 91.2707 0.236259 81.8946 6.01279 73.6578C11.6649 65.5983 21.5528 59.2752 37.2379 57.639C38.7948 55.8857 41.0134 54.1365 43.8544 53.238C47.5496 52.0694 51.6022 52.5562 55.5341 55.0996C57.1344 54.6068 59.0238 54.2258 60.9491 54.3402C62.6516 54.4414 64.5489 54.937 66.2691 56.2042C69.0249 54.4159 72.4477 52.6495 76.1662 51.2993C81.0554 49.5239 86.9533 48.2875 92.8778 49.0009C93.8067 47.3581 95.0899 45.7174 96.8053 44.3475C99.9566 41.8307 104.147 40.5684 109.17 41.3777C111.372 39.699 114.325 38.1021 117.727 37.5007C120.555 37.0006 123.538 37.226 126.419 38.4491C126.718 38.0375 127.052 37.6346 127.425 37.2439C130.007 34.5371 133.755 33.1257 138.488 32.9994C139.012 31.9943 139.718 31.006 140.655 30.1186C142.602 28.2734 145.124 27.2505 148.056 27.12C149.066 25.3108 150.555 23.4994 152.7 22.3059C154.84 21.1147 157.383 20.7008 160.093 21.34C160.567 21.4519 161.037 21.5935 161.503 21.7635C162.292 20.3451 163.332 18.8462 164.683 17.4614C167.031 15.055 170.326 13.0022 174.689 12.4206C177.927 11.989 181.48 12.4034 185.356 13.7586C186.61 12.4398 188.203 11.2099 190.146 10.2716C193.929 8.44515 198.703 7.88107 204.301 9.43999C206.433 8.99212 209.23 8.78565 211.921 9.55054C213.173 9.90659 214.492 10.5019 215.685 11.4501C216.597 10.7009 217.639 9.95878 218.812 9.29226C221.722 7.6389 225.434 6.45918 229.86 6.78815C233.508 7.05935 237.361 8.33478 241.401 10.8157C243.6 9.95728 246.299 9.30826 249.19 9.32402C252.312 9.34103 255.658 10.1484 258.687 12.2371C264.748 7.39897 275.309 3.34451 288.951 7.88385C292.24 5.03477 296.881 2.14357 302.343 0.788667C308.854 -0.826329 316.361 -0.190858 323.601 4.90063C326.336 3.72802 329.752 2.75399 333.314 2.68984C337.494 2.61459 342.014 3.8335 345.542 7.41271C347.4 6.86981 349.537 6.64061 351.841 6.96497C355.835 7.52739 359.809 9.67306 363.392 13.7643C366.534 13.387 370.37 13.3883 374.033 14.352C377.513 15.2674 381.057 17.1517 383.491 20.4696C386.836 19.4235 391.125 19.4725 396.078 21.3984C398.379 20.5449 401.315 20.0551 404.377 20.822C407.273 21.5473 409.738 23.247 411.619 25.8658C413.76 24.7625 416.297 23.9412 419.174 23.6566C425.17 23.0635 432.141 24.841 439.64 30.3348C442.231 30.5115 445.48 31.162 448.553 32.6555C451.479 34.078 454.431 36.3781 456.304 39.8625C458.721 39.9786 461.4 40.6446 463.854 42.3087C467.84 45.0106 470.222 49.6303 470.54 56.0128C471.009 56.4576 471.485 56.9473 471.931 57.4659C472.42 58.0348 472.963 58.7417 473.422 59.5514C486.924 63.8269 493.568 71.9434 493.91 81.1766C494.243 90.1696 488.306 98.5367 480.85 101.43L479.978 101.769H1.01272ZM469.517 63.6255C469.714 61.8963 466.964 59.3825 465.564 58.3417C465.949 45.5953 457.744 44.1564 453.291 45.0601C453.179 45.0827 453.07 45.1068 452.963 45.1322C452.934 44.9964 452.902 44.8624 452.868 44.7302C450.883 37.0005 442.103 35.2064 437.893 35.2851C427.353 27.0039 418.984 27.703 413.922 30.3041C412.055 31.2637 410.638 32.482 409.728 33.6039C409.159 31.5116 408.393 29.9106 407.506 28.7049C404.073 24.0423 398.822 25.2889 396.139 26.8791C391.673 24.7083 388.232 24.4715 385.763 25.0368C383.424 25.5722 381.957 26.8272 381.316 27.8398C380.921 25.8078 380.12 24.1883 379.044 22.9084C374.728 17.7739 365.984 18.104 361.304 19.1934C355.705 11.263 349.729 11.0825 346.126 12.4903C345.277 12.822 344.559 13.242 344.01 13.6694C343.298 12.3932 342.475 11.3598 341.571 10.5341C335.943 5.39283 327.196 8.30398 323.009 10.7872C309.569 -0.933208 295.503 7.82519 290.15 13.6694C277.345 8.33457 267.734 11.7052 262.383 15.6933C260.796 16.876 259.583 18.1131 258.773 19.1934C257.636 17.6934 256.369 16.607 255.041 15.8463C249.904 12.9043 243.864 14.8341 240.985 16.5516C230.267 8.77399 222.87 11.9353 218.68 15.4621C218.396 15.7009 218.127 15.9414 217.873 16.1802C216.539 17.4334 215.609 18.6423 215.077 19.3331C214.882 19.5868 214.74 19.7706 214.652 19.8611C214.629 19.8849 214.61 19.9023 214.594 19.9127C214.572 19.9275 214.557 19.9284 214.55 19.914C214.484 17.6934 213.699 16.2497 212.554 15.3495C212.411 15.2363 212.261 15.1318 212.107 15.0354C209.768 13.5752 206.294 13.9761 204.173 14.63C194.441 11.3552 189.11 16.1485 187.383 19.3857C187.286 19.5673 187.2 19.7439 187.126 19.914C186.24 19.4834 185.386 19.1114 184.563 18.7936C173.781 14.63 168.324 19.7723 165.863 24.2127C164.425 26.8048 164.009 29.1576 164.149 29.2808C162.446 27.7498 160.927 26.8373 159.581 26.388C154.678 24.751 152.077 29.2621 151.302 32.403C145.019 31.0456 142.768 34.5828 142.271 37.1928C142.205 37.5384 142.17 37.8677 142.161 38.1673C140.546 37.9841 139.12 37.9473 137.864 38.0292C134.182 38.269 131.955 39.5282 130.681 41.1068C129.199 42.9441 129.007 45.214 129.313 46.8135C127.741 44.9351 126.087 43.7328 124.431 43.0369C118.803 40.6718 113.146 44.1536 110.537 46.8135C102.201 44.333 98.0265 49.1465 96.4999 52.9859C96.2527 53.6075 96.0749 54.2036 95.9602 54.739C94.8095 54.3848 93.6359 54.1386 92.4505 53.9869C84.0392 52.9099 75.0363 56.5857 69.4216 60.123C67.6733 61.2245 66.2535 62.3125 65.2824 63.2394C64.5872 61.0619 63.3603 59.9728 61.912 59.5448C59.6541 58.8774 56.8583 59.8166 54.701 60.7433C47.5856 54.4027 41.8538 59.2222 39.8773 62.4245C8.25348 64.7302 3.64167 86.2817 5.28875 96.7692H479.041C490.041 92.4999 497.541 70.9999 469.517 63.6255Z" fill="url(#stroke)"/>
<defs>
<linearGradient id="fill" x1="246.962" y1="5" x2="246.962" y2="96.7693" gradientUnits="userSpaceOnUse">
<stop stop-color="#DAF9FF"/>
<stop offset="1" stop-color="#DAF9FF" stop-opacity="0"/>
</linearGradient>
<linearGradient id="stroke" x1="246.962" y1="0.0012207" x2="246.962" y2="101.769" gradientUnits="userSpaceOnUse">
<stop stop-color="#CFF4FD"/>
<stop  offset="1" stop-color="#E2FFFF" stop-opacity="0"/>
</linearGradient>
</defs>
</svg>
