<svg viewBox="0 0 678 118" fill="none" xmlns="http://www.w3.org/2000/svg">
<path d="M7.04955 101.108C8.273 97.3199 12.4916 96.4418 15.4601 98.5157C13.2579 93.3277 26.839 90.2201 29.3127 95.9233C30.8624 93.6175 34.2601 94.8864 34.2601 97.4787C36.0545 94.8435 46.1338 95.9233 46.1338 101.108C50.8644 101.684 58.5022 98.5157 69.3865 104.219C73.2199 101.995 77.797 98.5157 84.2286 104.219C87.0017 102.654 91.9097 94.586 97.5865 101.108C97.6681 98.9669 97.8573 94.7375 104.513 95.9233C107.368 93.8645 111.368 89.7965 113.913 95.9233C114.81 93.1234 120.822 84.3424 128.26 87.1093C131.686 84.4741 135.187 79.8507 143.102 81.4061C146.854 81.0767 151.018 74.666 155.965 81.4061C158.657 79.265 161.408 74.666 174.271 74.666C176.636 74.1719 179.713 66.3705 188.618 69.9998C188.788 69.1752 189.608 63.7781 194.06 65.3335C194.06 65.3335 193.071 60.3848 196.534 58.4076C199.997 56.4304 200.987 58.4076 200.987 58.4076C200.987 58.4076 206.129 53.3978 210.582 54.533C215.082 46.2802 221.708 50.4277 224.734 50.3492C225.615 48.4569 229.885 47.7055 231.876 47.7055C231.876 42.533 237.803 43.3382 239.576 44.8548C243.082 35.033 250.625 38.2862 253.898 39.41C254.418 36.8176 256.866 36.2992 259.353 37.3361C261.082 24.533 275.525 27.3465 277.176 28.7893C279.65 25.4113 281.731 26.4016 283.879 27.0599C285.673 25.2482 290.486 22.7119 295.379 27.0599C297.989 25.66 304.531 24.0459 309.816 28.7893C309.979 26.8129 312.214 22.6131 319.848 21.6249C321.561 19.072 327.14 14.9546 335.753 18.9073C338.2 17.425 344.072 15.8934 347.987 21.6249C349.129 19.3191 352.979 15.5475 359.243 18.9073C361.364 16.4369 367.465 12.7311 374.903 17.6721C376.127 15.1193 380.14 10.3595 386.404 11.7429C388.932 8.94306 395.31 4.38089 400.596 8.5313C403.695 6.30787 412.741 4.75668 418.026 12.6622C418.434 9.45059 419.651 2.79298 426.661 5.93494C426.661 5.93494 432.169 0.174789 436.174 8.5313C441.181 5.93495 445.186 10.648 444.185 14.3136C454.199 12.6622 452.09 23.2854 452.09 23.2854C455.701 19.5501 465.697 22.6921 459.206 33.689C465.016 30.4165 467.335 37.064 466.252 40.8493C468.972 37.5547 481.419 33.6719 489.748 38.4019C493.173 36.9196 500.612 34.3597 502.765 42.0676C506.599 39.1853 515.783 34.2127 519.789 45.7332C524.275 43.8392 536.311 45.7332 536.311 57.2537C538.677 54.1244 547.289 50.8499 554.336 59.3483C559.638 55.8897 576.589 53.7249 581.874 63.0139C586.849 60.461 593.503 57.7266 598.396 65.6323C602.23 64.3147 611.851 64.0005 613.417 73.4872C616.598 70.6049 624.933 73.4872 624.933 80.2947C629.827 76.8361 639.871 76.1832 644.96 84.484C648.631 83.3311 659.514 82.0617 660.102 92.5365C663.486 90.2443 671.418 92.5365 673.179 99.3123C676.197 110.924 663.986 113.033 658.253 113.033H15.4601C7.04954 113.033 -0.371526 107.33 7.04955 101.108Z" fill="url(#fill)"/>
<path fill-rule="evenodd" clip-rule="evenodd" d="M465.991 35.9502C466.528 37.3794 466.648 39.0567 466.353 40.4407C466.324 40.58 466.29 40.7164 466.252 40.8492C466.338 40.7457 466.433 40.6416 466.537 40.5372C467.357 39.7163 468.743 38.8772 470.489 38.1585C475.585 36.06 483.738 34.9891 489.748 38.4019C492.468 37.2246 497.721 35.3675 500.846 38.5147C501.655 39.3301 502.322 40.4814 502.765 42.0675C503.678 41.3814 504.894 40.5768 506.271 39.9045C510.253 37.9598 515.584 37.1213 518.827 43.4548C519.173 44.1302 519.495 44.8872 519.789 45.7331C520.023 45.6341 520.278 45.5455 520.551 45.468C524.691 44.2931 532.933 45.6906 535.517 52.5696C536.022 53.9143 536.311 55.4684 536.311 57.2536C537.053 56.273 538.407 55.278 540.135 54.6357C543.921 53.2282 549.497 53.5131 554.336 59.3483C559.638 55.8896 576.589 53.7249 581.874 63.0139C586.849 60.461 593.503 57.7265 598.396 65.6322C601.598 64.5318 608.836 64.1313 612.048 69.5551C612.682 70.6257 613.159 71.9232 613.417 73.4871C614.367 72.6265 615.776 72.2798 617.286 72.3981C619.682 72.5859 622.331 73.9449 623.797 76.2794C624.501 77.4002 624.933 78.7458 624.933 80.2947C626.008 79.5345 627.333 78.9099 628.799 78.486C634.002 76.9815 640.989 78.0076 644.96 84.4839C648.067 83.508 656.343 82.4486 659.167 88.5001C659.679 89.5974 660.012 90.9286 660.102 92.5365C661.109 91.8539 662.52 91.5778 664.051 91.7056C667.663 92.0068 671.943 94.554 673.179 99.3122C676.197 110.923 663.986 113.033 658.253 113.033H15.4601C7.04952 113.033 -0.371549 107.33 7.04953 101.108C7.74003 98.97 9.38463 97.7589 11.2201 97.4824C12.6367 97.269 14.167 97.6122 15.4601 98.5156C14.8212 97.0106 15.5106 95.6806 16.8718 94.6901C19.1442 93.0364 23.2889 92.3287 26.2512 93.3313C27.6312 93.7984 28.7546 94.6366 29.3127 95.9232C29.8423 95.1353 30.5877 94.7648 31.3396 94.7219C31.5559 94.7095 31.7728 94.7243 31.9852 94.7641C33.1948 94.9905 34.2601 96.0271 34.2601 97.4787C34.8567 96.6025 36.369 96.137 38.1223 96.0965C41.6425 96.0152 46.1338 97.647 46.1338 101.108C47.07 101.222 48.12 101.189 49.2865 101.108C49.5623 101.089 49.8447 101.067 50.1335 101.043C50.3332 101.027 50.536 101.01 50.7419 100.993C55.3453 100.61 61.5174 100.096 69.3864 104.219C69.6673 104.056 69.9522 103.886 70.2415 103.714C73.9006 101.535 78.2682 98.9335 84.2286 104.219C84.8595 103.863 85.6011 103.17 86.437 102.389C88.4286 100.529 90.9562 98.1673 93.8022 98.6655C95.0117 98.8773 96.2787 99.6054 97.5865 101.108C97.6322 99.9069 97.7118 98.0488 98.9477 96.858C99.915 95.9259 101.591 95.4026 104.513 95.9232C104.829 95.695 105.16 95.442 105.501 95.1809C107.204 93.8779 109.17 92.3739 110.957 92.738C112.04 92.9589 113.059 93.8668 113.913 95.9232C114.203 95.0165 115.03 93.4823 116.269 91.9163C118.854 88.6469 123.231 85.2384 128.26 87.1092C128.814 86.6832 129.37 86.2053 129.946 85.7099C132.933 83.1407 136.466 80.1021 143.102 81.4061C144.232 81.3069 145.398 80.6567 146.613 79.98C149.255 78.5072 152.123 76.9091 155.32 80.5947C155.534 80.841 155.749 81.1109 155.965 81.4061C156.361 81.0918 156.757 80.7245 157.186 80.3266C157.715 79.837 158.293 79.301 158.981 78.7602C161.542 76.7464 165.619 74.6659 174.271 74.6659C174.928 74.5287 175.64 73.8273 176.517 72.9637C178.284 71.2227 180.721 68.8225 184.727 69.0562C185.885 69.1237 187.175 69.4117 188.618 69.9997C188.626 69.9625 188.635 69.9159 188.645 69.8611C188.768 69.2259 189.106 67.4813 190.085 66.2783C190.136 66.2156 190.189 66.1544 190.244 66.0948C191.054 65.2123 192.26 64.7046 194.06 65.3335C194.06 65.3335 193.644 63.2514 194.297 61.2487C194.65 60.1638 195.317 59.1023 196.534 58.4075C198.657 57.1953 199.851 57.4695 200.456 57.8632C200.838 58.1116 200.987 58.4075 200.987 58.4075C200.987 58.4075 202.308 57.1204 204.191 55.9988C206.023 54.9077 208.386 53.9731 210.582 54.5329C214.08 48.1178 218.862 49.1954 222.24 49.9565C223.208 50.1746 224.06 50.3666 224.734 50.3491C225.615 48.4568 229.885 47.7054 231.876 47.7054C231.876 44.4383 234.24 43.5561 236.429 43.7316C237.706 43.8339 238.923 44.2961 239.576 44.8548C240.105 43.3718 240.727 42.187 241.412 41.2478C243.913 37.8172 247.261 37.6655 250.062 38.2419C251.315 38.4998 252.459 38.9036 253.368 39.2246C253.555 39.2905 253.732 39.353 253.898 39.4099C253.974 39.0325 254.09 38.699 254.242 38.4079C254.672 37.5818 255.385 37.0968 256.246 36.9164C257.166 36.7238 258.256 36.8785 259.353 37.336C259.554 35.8423 259.929 34.5612 260.437 33.4656C264.151 25.4458 274.967 27.371 276.999 28.6593C277.068 28.7035 277.128 28.7469 277.176 28.7892C277.541 28.2915 277.897 27.8886 278.245 27.5655C280.092 25.8557 281.741 26.3808 283.41 26.9124C283.566 26.9621 283.722 27.0119 283.879 27.0599C285.673 25.2482 290.486 22.7118 295.379 27.0599C297.42 25.9653 301.863 24.74 306.231 26.5242C307.45 27.0221 308.663 27.7543 309.816 28.7892C309.891 27.8736 310.412 26.4808 311.707 25.1512C313.208 23.6108 315.751 22.1552 319.848 21.6248C321.561 19.072 327.14 14.9545 335.753 18.9073C337.638 17.7654 341.555 16.5943 345.045 18.7364C346.086 19.3751 347.088 20.3084 347.987 21.6248C348.458 20.6752 349.387 19.477 350.755 18.6307C352.71 17.422 355.559 16.9311 359.243 18.9073C361.012 16.8464 365.551 13.926 371.326 15.8824C372.473 16.2713 373.67 16.8528 374.903 17.672C375.23 16.9906 375.755 16.1519 376.469 15.3148C378.429 13.0158 381.812 10.7287 386.404 11.7429C388.932 8.943 395.31 4.38084 400.596 8.53125C403.097 6.73666 409.473 5.38 414.618 9.08018C415.847 9.9644 417.007 11.1374 418.026 12.6622C418.194 11.3391 418.499 9.43118 419.291 7.86451C420.42 5.62827 422.539 4.0873 426.661 5.93489C426.661 5.93489 431.757 0.605392 435.71 7.63628C435.867 7.91484 436.021 8.21279 436.174 8.53125C436.32 8.45546 436.466 8.3859 436.61 8.32236C439.655 6.98195 442.276 8.32067 443.538 10.3872C444.265 11.5787 444.541 13.0121 444.185 14.3135C445.854 14.0383 447.186 14.104 448.247 14.4046C450.543 15.0548 451.571 16.8037 452 18.5794C452.562 20.9094 452.09 23.2853 452.09 23.2853C453.132 22.2077 454.705 21.7025 456.261 21.7932C459.203 21.9648 462.081 24.2682 461.179 28.8623C460.905 30.2582 460.282 31.8656 459.206 33.6889C461.177 32.5789 462.746 32.6103 463.917 33.2841C464.873 33.8346 465.564 34.814 465.991 35.9502ZM465.143 29.4299C466.678 30.093 467.828 31.2036 468.624 32.3772C469.012 32.9486 469.338 33.5642 469.603 34.2071C471.297 33.5607 473.201 33.0295 475.203 32.6769C479.647 31.8942 485.072 31.9128 489.923 34.025C491.796 33.3447 494.346 32.6535 496.949 32.7942C498.829 32.8958 500.914 33.4389 502.763 34.8789C503.339 35.3278 503.859 35.8379 504.324 36.4047C506.258 35.4383 508.569 34.6261 511.013 34.5042C513.421 34.3842 516.023 34.935 518.372 36.6904C519.869 37.809 521.117 39.3067 522.131 41.1504C525.078 40.9088 528.459 41.4457 531.433 42.8424C534.652 44.3543 537.547 46.95 539.105 50.7576C540.441 50.2997 541.89 50.0109 543.391 49.9445C547.262 49.773 551.442 51.0591 555.201 54.4706C556.466 53.9769 557.846 53.5703 559.254 53.2533C561.98 52.6395 565.102 52.2969 568.246 52.403C573.22 52.5708 579.107 53.9259 583.087 58.0194C585.158 57.1549 587.594 56.4139 590.146 56.4011C593.805 56.3828 597.244 57.8364 600.075 61.1512C602.402 60.817 605.212 60.8521 607.927 61.6832C610.012 62.3211 612.141 63.4615 613.891 65.3631C614.709 66.2515 615.406 67.2643 615.968 68.3989C618.165 68.2573 620.385 68.8146 622.122 69.6626C624.219 70.6861 626.224 72.3854 627.509 74.696C629.948 73.9649 632.652 73.6907 635.34 74.0069C639.384 74.4825 643.502 76.3139 646.646 80.0091C648.948 79.6473 651.871 79.5427 654.696 80.2791C656.891 80.8513 659.207 81.9821 661.024 84.0742C661.931 85.1186 662.645 86.3231 663.158 87.6761C665.134 87.6525 667.128 88.1148 668.834 88.8513C672.388 90.385 675.808 93.5237 677.051 98.306C677.983 101.894 677.832 105.154 676.584 107.973C675.349 110.765 673.232 112.688 671.013 113.982C666.728 116.482 661.409 117.033 658.253 117.033H15.4601C10.5956 117.033 5.34823 115.424 2.34194 112.076C0.728105 110.279 -0.338424 107.821 0.0965144 104.989C0.461904 102.609 1.8033 100.529 3.67419 98.7593C5.39681 94.9505 8.98161 93.2773 12.5087 93.456C12.8504 92.9748 13.2334 92.5535 13.624 92.1904C15.3367 90.598 17.6686 89.6657 19.8192 89.2189C22.0148 88.7627 24.5269 88.7054 26.8404 89.3317C27.942 89.63 29.098 90.1177 30.1433 90.8582C31.3258 90.6142 32.5461 90.7017 33.6498 91.0753C34.4394 91.3425 35.1956 91.7653 35.859 92.3219C35.995 92.2958 36.126 92.2731 36.2508 92.2535C37.9868 91.9804 39.9125 92.0645 41.7088 92.4498C43.4843 92.8307 45.4439 93.5733 47.0505 94.8764C47.7952 95.4803 48.4852 96.2289 49.0228 97.1161C49.2939 97.0972 49.5873 97.0746 49.906 97.0485C50.0683 97.0353 50.2356 97.0213 50.4077 97.0069C51.8177 96.8891 53.5498 96.7444 55.445 96.7409C59.3309 96.7336 63.9351 97.3113 69.197 99.6794C70.7746 98.7702 72.8536 97.7165 75.1277 97.309C78.0432 96.7866 81.0404 97.2872 84.0691 99.1279C84.9876 98.274 86.2622 97.1178 87.7306 96.2191C89.2766 95.2729 91.403 94.3816 93.911 94.6443C94.4019 94.6957 94.8803 94.7883 95.346 94.9194C95.3617 94.8983 95.3774 94.8772 95.3933 94.8561C97.2249 92.4329 100.063 91.527 103.394 91.757C103.737 91.4957 104.122 91.2062 104.524 90.9233C105.432 90.2839 106.702 89.4709 108.167 89.0261C109.603 88.5902 111.419 88.4594 113.235 89.3054C114.047 88.2929 114.984 87.2961 116.018 86.4023C118.668 84.1119 122.624 81.9746 127.252 82.7211C130.119 80.2022 134.968 76.0873 143.019 77.331C143.026 77.3284 143.033 77.3256 143.04 77.3228C143.301 77.2178 143.627 77.0564 144.086 76.8064C144.22 76.7338 144.373 76.6478 144.543 76.5526C145.345 76.1036 146.515 75.4485 147.676 75.0115C149.218 74.4312 151.265 74.0042 153.54 74.6834C154.462 74.9585 155.316 75.3838 156.111 75.9362C156.991 75.2111 158.064 74.4349 159.407 73.7113C162.572 72.0072 166.842 70.8066 173.13 70.6775C173.222 70.5911 173.33 70.4865 173.46 70.3596C173.534 70.2867 173.615 70.2076 173.7 70.123C174.385 69.4462 175.421 68.423 176.664 67.5336C178.123 66.4896 180.008 65.5133 182.378 65.1696C183.551 64.9996 184.772 64.9947 186.042 65.169C186.134 64.9998 186.232 64.83 186.337 64.6609C187 63.5962 188.085 62.3345 189.79 61.6095C189.902 61.5619 190.014 61.5175 190.127 61.4763C190.501 59.4157 191.581 56.6291 194.551 54.9338C196.566 53.7833 198.596 53.2736 200.495 53.6477C200.957 53.3144 201.479 52.9626 202.049 52.6188C203.534 51.7239 205.853 50.5715 208.495 50.3891C209.587 48.9362 210.83 47.7973 212.223 46.9695C214.273 45.7517 216.36 45.3789 218.204 45.3757C219.983 45.3726 221.613 45.7182 222.749 45.9711C222.9 46.0048 223.039 46.0361 223.167 46.0651C223.212 46.0751 223.255 46.0848 223.297 46.0942C223.494 45.9524 223.687 45.8271 223.869 45.7169C224.812 45.1449 225.837 44.7547 226.748 44.4837C227.369 44.2989 228.008 44.1491 228.634 44.0321C228.95 43.3494 229.368 42.7137 229.898 42.1426C231.259 40.6777 232.983 40.0387 234.467 39.816C235.529 39.6567 236.58 39.6889 237.544 39.8376C238.32 38.5836 239.22 37.519 240.249 36.6487C242.198 34.9998 244.364 34.2542 246.425 34.0477C248.503 33.8394 250.541 34.1967 252.173 34.6363C252.868 34.0063 253.699 33.5204 254.641 33.2113C255.211 33.0244 255.786 32.9132 256.357 32.8643C257.167 30.6974 258.375 28.9 259.906 27.4715C262.238 25.2968 265.037 24.2363 267.594 23.7821C270.142 23.3293 272.623 23.4439 274.59 23.7691C275.136 23.8593 275.663 23.9691 276.159 24.095C277.378 23.143 278.755 22.5562 280.314 22.425C281.272 22.3444 282.222 22.4701 283.028 22.6474C284.333 21.8082 285.972 21.0897 287.852 20.7974C290.417 20.3987 293.232 20.8304 295.952 22.5102C299.096 21.4997 303.706 20.9793 308.236 23.0196C310.15 20.7629 313.248 18.8038 317.713 17.9218C320.87 14.5763 327.203 11.4331 335.627 14.53C337.28 13.8784 339.348 13.4231 341.581 13.5694C343.693 13.7077 345.857 14.3833 347.832 15.7859C348.506 15.2828 349.267 14.8307 350.116 14.4662C352.55 13.4204 355.397 13.23 358.467 14.2317C359.98 13.1185 361.919 12.1261 364.193 11.6097C367.034 10.9647 370.262 11.0959 373.635 12.478C374.43 11.5809 375.384 10.7024 376.494 9.93752C378.712 8.40877 381.603 7.31716 385.003 7.51877C386.568 6.13512 388.657 4.69395 391.052 3.78899C393.854 2.72981 397.352 2.33847 400.746 3.94232C403.046 3.01191 405.935 2.53032 408.879 2.81719C411.289 3.05197 413.807 3.80849 416.149 5.28945C416.303 5.03534 416.469 4.78634 416.647 4.54467C417.715 3.09358 419.326 1.77014 421.589 1.29439C423.019 0.993951 424.484 1.07933 425.953 1.45416C426.757 0.965333 427.824 0.452053 429.091 0.185258C430.85 -0.185272 432.959 -0.0633954 435.026 1.15251C436.146 1.81154 437.13 2.71904 437.993 3.84139C440.682 3.54157 443.186 4.42147 445.064 6.06147C446.316 7.15518 447.308 8.61743 447.86 10.2504C449.29 10.444 450.606 10.8958 451.779 11.6357C454.054 13.0711 455.185 15.2088 455.728 17.0456C455.802 17.293 455.866 17.5395 455.922 17.7839C458.076 17.7925 460.228 18.4876 461.919 19.8263C463.916 21.407 465.204 23.8013 465.336 26.7179C465.376 27.6006 465.31 28.5056 465.143 29.4299ZM172.711 71.0416C172.711 71.0411 172.721 71.0332 172.742 71.0201C172.721 71.0356 172.711 71.0421 172.711 71.0416Z" fill="url(#stroke)"/>
<defs>
<linearGradient id="fill" x1="338.826" y1="4" x2="338.826" y2="113.033" gradientUnits="userSpaceOnUse">
<stop stop-color="#DAF9FF"/>
<stop offset="1" stop-color="#DAF9FF" stop-opacity="0"/>
</linearGradient>
<linearGradient id="stroke" x1="338.825" y1="0.000488281" x2="338.825" y2="117.033" gradientUnits="userSpaceOnUse">
<stop stop-color="#CFF4FD"/>
<stop  offset="1" stop-color="#E2FFFF" stop-opacity="0"/>
</linearGradient>
</defs>
</svg>
