<svg viewBox="0 0 295 92" fill="none" xmlns="http://www.w3.org/2000/svg">
<path d="M22.4922 37.4347C-4.5292 47.7775 5.64551 73.8695 14.2356 86.0928H279.946C286.951 85.5287 288.703 78.4924 288.703 75.0448C292.706 54.5473 255.176 42.371 242.666 48.9528C231.057 36.1653 211.756 34.849 204.25 38.6101C204.45 34.661 201.634 33.9871 199.632 33.9087C195.629 29.3955 189.251 30.2741 187.5 31.371C187.7 24.6012 184.787 23.2525 182.369 23.3309C178.365 15.0566 170.693 15.182 167.357 16.279C165.956 8.945 159.767 7.73832 156.848 8.05173C148.442 3.35046 140.502 7.81671 137.583 10.6375C135.381 5.37207 122.321 8.28679 122.321 10.6375C114.715 8.19284 110.145 14.7903 108.81 18.3945C96.0003 10.6845 87.4602 16.1223 84.7914 19.8049C68.3785 24.6942 65.167 33.5954 64.75 37.4347C54.9422 32.1693 50.0838 41.1611 49.5 45.5489C44.6962 35.7703 38.0044 36.3378 35.5025 38.6101C32.7002 36.3535 25.6613 36.8863 22.4922 37.4347Z" fill="url(#fill)"/>
<path fill-rule="evenodd" clip-rule="evenodd" d="M11.6382 91.0929L10.1448 88.9678C5.56245 82.4474 0.286345 71.9093 0.0111966 61.187C-0.129255 55.7137 1.03539 50.0367 4.42669 44.9199C7.82288 39.7957 13.1787 35.6459 20.7048 32.7652L21.1596 32.5911L21.6395 32.5081C23.4887 32.188 26.3857 31.8799 29.295 31.9732C30.7543 32.0199 32.3472 32.1712 33.8748 32.5295C34.3461 32.64 34.8483 32.7787 35.363 32.9561C37.6578 32.0864 40.3809 31.9417 43.1096 32.782C45.0478 33.3789 46.8857 34.4282 48.5778 35.93C49.1328 35.2689 49.748 34.6405 50.4262 34.0636C52.3412 32.4345 54.8291 31.166 57.8496 30.8857C59.0472 30.7746 60.2624 30.8248 61.489 31.0317C62.2942 29.33 63.4307 27.5222 65.012 25.7181C68.4521 21.793 73.8009 18.1058 81.9032 15.4682C84.0954 13.1205 87.5183 10.8707 91.9688 9.93462C96.2834 9.02711 101.301 9.40467 106.813 11.7564C107.712 10.5486 108.806 9.36322 110.105 8.3318C112.813 6.18187 116.431 4.72502 120.686 5.19271C121.296 4.81604 121.919 4.51973 122.482 4.28622C124.261 3.54938 126.447 3.03094 128.615 2.80782C130.76 2.58701 133.279 2.61453 135.62 3.27162C136.36 3.47923 137.157 3.77429 137.943 4.18563C142.667 1.40282 150.053 -0.782877 157.982 3.01041C160.102 3.04989 162.683 3.56112 165.131 4.9445C167.354 6.2003 169.338 8.10894 170.708 10.7503C172.386 10.7294 174.215 10.9416 176.073 11.5088C179.561 12.574 182.973 14.8453 185.528 18.7695C186.971 19.2167 188.452 20.0579 189.713 21.5298C190.687 22.666 191.372 24.0009 191.821 25.4888C192.262 25.4935 192.712 25.5152 193.168 25.5561C195.918 25.8026 199.138 26.7777 201.909 29.1511C203.077 29.385 204.435 29.8442 205.696 30.7562C206.35 31.2285 206.913 31.7725 207.386 32.3771C211.96 31.4729 217.47 31.576 222.909 32.6748C229.974 34.102 237.632 37.34 243.92 43.1273C247.682 42.0749 252.018 41.9656 256.211 42.3969C261.984 42.9904 268.252 44.6849 273.959 47.2982C279.631 49.8956 285.066 53.5479 288.855 58.2631C292.637 62.9696 294.85 68.8695 293.695 75.5437C293.62 77.9072 293.005 81.1843 291.274 84.1623C289.301 87.5591 285.782 90.6391 280.347 91.0768L280.147 91.0929H11.6382ZM288.703 75.0449C292.706 54.5474 255.176 42.3711 242.666 48.9529C233.102 38.4177 218.316 35.6687 209.207 37.1303C207.26 37.4428 205.572 37.9477 204.25 38.6102C204.37 36.2327 203.398 35.0423 202.168 34.4542C201.354 34.0655 200.429 33.94 199.632 33.9088C197.569 31.5827 194.875 30.6889 192.509 30.519C190.284 30.3592 188.349 30.8395 187.5 31.3711C187.567 29.0981 187.283 27.4363 186.785 26.2343C185.8 23.8565 183.975 23.2789 182.369 23.331C179.198 16.7783 173.727 15.4936 169.93 15.7875C168.933 15.8647 168.051 16.0508 167.357 16.2791C167.132 15.1007 166.783 14.0805 166.344 13.1994C164.051 8.59658 159.298 7.78878 156.848 8.05183C151.118 4.84702 145.604 5.90237 141.75 7.79252C139.95 8.67511 138.512 9.73971 137.583 10.6376C137.208 9.73948 136.516 9.07935 135.627 8.61382C131.622 6.51569 123.611 8.37044 122.46 10.2054C122.369 10.3503 122.321 10.495 122.321 10.6376C120.479 10.0455 118.815 9.98383 117.332 10.2815C114.807 10.7884 112.806 12.337 111.344 14.0837C110.119 15.5471 109.271 17.1495 108.81 18.3946C107.251 17.4561 105.755 16.7124 104.325 16.1366C94.0081 11.9825 87.1353 16.5707 84.7914 19.805C73.527 23.1606 68.4808 28.4059 66.2886 32.6076C65.2866 34.528 64.8808 36.2305 64.75 37.4348C62.9824 36.4859 61.3757 36.0001 59.9257 35.8668C56.2922 35.533 53.6434 37.4136 51.9169 39.7714C50.5093 41.6938 49.7149 43.9335 49.5 45.549C48.375 43.2591 47.1466 41.5366 45.8927 40.2704C41.7919 36.1297 37.4185 36.87 35.5024 38.6102C32.7002 36.3536 25.6613 36.8864 22.4921 37.4348C-4.52924 47.7776 5.64547 73.8696 14.2356 86.0929H279.946C286.951 85.5288 288.703 78.4925 288.703 75.0449Z" fill="url(#stroke)"/>
<defs>
<linearGradient id="fill" x1="147" y1="6" x2="147" y2="86.0928" gradientUnits="userSpaceOnUse">
<stop stop-color="#DAF9FF"/>
<stop offset="1" stop-color="#DAF9FF" stop-opacity="0"/>
</linearGradient>
<linearGradient id="stroke" x1="147.001" y1="0.980713" x2="147.001" y2="91.0929" gradientUnits="userSpaceOnUse">
<stop stop-color="#CFF4FD"/>
<stop  offset="1" stop-color="#E2FFFF" stop-opacity="0"/>
</linearGradient>
</defs>
</svg>
