<svg viewBox="0 0 71 14" fill="none" xmlns="http://www.w3.org/2000/svg">
<path d="M6.57827 13.1568H61.0584C63.4143 13.1568 62.39 11.6733 61.8992 11.1386C64.4514 11.8718 67.3572 11.5968 68.4206 11.1386C72.7398 10.4054 70.3207 9.12034 67.5961 9.6249C67.9887 6.14229 64.5214 6.39164 62.3946 6.8498C62.5909 3.91699 58.6862 4.00583 56.6411 4.69321C55.8231 3.4712 52.0275 0.935536 43.3892 0.568934C34.7509 0.202332 33.3305 4.25988 33.1669 6.0929C24.7249 2.24358 20.6095 6.1717 19.7915 8.61572C15.276 5.3163 13.431 7.86824 13.1038 9.6249C7.803 8.7084 6.91376 11.3307 7.15916 12.4C6.66835 11.5598 3.71755 10.7332 0.966845 12.1477C-1.48404 13.408 2.81538 13.3859 6.57827 13.1568Z" fill="url(#fill)"/>
<defs>
<linearGradient id="fill" x1="35.5145" y1="0.545654" x2="35.5145" y2="13.2782" gradientUnits="userSpaceOnUse">
<stop stop-color="#CFF4FD"/>
<stop  offset="1" stop-color="#E2FFFF" stop-opacity="0"/>
</linearGradient>
</defs>
</svg>
