<svg viewBox="0 0 477 115" fill="none" xmlns="http://www.w3.org/2000/svg">
<path d="M36.2115 63.8803C21.2195 61.2018 -7.21434 100.586 13.0247 108L452.79 107.522C456.622 108.319 467.097 94.92 469.846 80.3317C474.251 56.9479 452.347 43.2182 439.354 37.9568C434.605 26.4907 416.358 29.8727 410.362 33.2208C408.563 23.4632 402.567 25.4926 398.819 27.8843C388.824 23.8667 383.952 28.247 383.119 30.4789C381.72 19.7647 368.918 18.0787 362.339 19.0354C357.341 11.5737 349.096 12.5782 345.597 14.0132C337.602 4.82952 328.44 8.43298 324.859 11.3827C307.668 1.05128 294.708 8.8316 290.377 14.0132C272.986 5.97765 261.809 15.1292 258.394 20.7094C251.997 13.6305 243.902 15.5278 240.653 17.3614C228.26 7.60397 217.666 14.4118 213.918 19.0354C212.718 13.2958 205.089 14.0929 201.424 15.209C191.23 11.7652 186.516 17.441 185.433 20.7094C173.04 15.9264 164.611 24.6156 161.945 29.5581C155.149 22.8619 149.785 29.0001 147.953 32.9062C143.155 31.1843 140.124 36.653 139.208 39.6025C130.212 36.7327 128.187 43.668 127.937 47.4944C119.941 39.6501 110.556 44.226 107.225 47.4944C98.2294 43.668 93.6485 51.4803 92.4825 55.8647C80.8886 50.1251 68.3287 58.2563 63.4979 63.0393C61.2991 58.8303 54.0863 60.4883 50.7547 61.8435C42.5591 57.0605 37.7107 61.4887 36.2115 63.8803Z" fill="url(#fill)"/>
<path fill-rule="evenodd" clip-rule="evenodd" d="M11.9635 114.001L10.961 113.634C7.35942 112.315 4.45686 110.119 2.52904 107.08C0.63457 104.095 -0.0353873 100.745 0.00142934 97.5331C0.0729778 91.2918 2.80375 84.6609 6.30285 79.0006C9.86755 73.2341 14.6657 67.7667 19.7577 63.8469C23.608 60.883 28.4799 58.1566 33.5399 57.7898C34.9331 56.4847 36.7688 55.248 39.0743 54.4794C42.6894 53.2742 46.8233 53.4308 51.2167 55.3532C53.047 54.8305 55.2165 54.4073 57.4122 54.3564C59.0129 54.3193 61.2037 54.4886 63.3334 55.3381C66.0798 53.3158 69.518 51.2987 73.3798 49.8759C77.9897 48.1776 83.5283 47.2229 89.2548 48.4361C90.237 46.8651 91.4922 45.3179 93.0653 44.0006C94.9742 42.4018 97.4169 41.0956 100.38 40.6409C102.218 40.3589 104.104 40.4276 106.014 40.8345C108.407 39.271 111.48 37.9198 114.93 37.3953C118.04 36.9225 121.417 37.137 124.755 38.3975C125.075 37.9296 125.431 37.4721 125.826 37.0317C127.441 35.2309 129.649 33.8039 132.453 33.215C133.534 32.988 134.641 32.8981 135.767 32.9311C136.345 32.0331 137.025 31.1446 137.814 30.3292C139.441 28.6481 141.838 27.0467 144.78 26.6567C146.168 24.8482 148.044 23.0462 150.447 21.8685C152.68 20.7743 155.394 20.2216 158.356 20.8294C159.083 20.9787 159.792 21.191 160.482 21.461C162.262 19.5496 164.49 17.6907 167.152 16.2283C171.421 13.8823 176.722 12.6199 182.705 13.7188C183.87 12.385 185.346 11.1421 187.162 10.1622C191.049 8.06381 195.921 7.47081 201.558 8.98268C203.8 8.49722 206.667 8.19331 209.489 8.61816C211.086 8.85858 212.923 9.37095 214.65 10.4292C216.912 8.93367 219.626 7.6564 222.714 6.95464C228.398 5.66317 234.886 6.43471 241.452 10.5833C245.761 9.30145 251.841 8.9667 257.628 12.3754C260.078 10.1256 263.242 8.03114 267.076 6.62307C273.148 4.39379 280.588 4.00101 289.033 6.99058C296.029 1.31997 308.951 -3.42958 324.646 4.42141C327.057 3.1999 330.045 2.25951 333.378 2.15108C338.01 2.00034 342.91 3.47839 347.369 7.32208C349.458 6.96097 351.858 6.86215 354.358 7.26414C357.993 7.84866 361.817 9.50259 365.008 12.8131C368.624 12.7332 372.897 13.2446 376.856 14.7925C380.054 16.0429 383.262 18.0874 385.613 21.1537C389.056 20.0256 393.37 19.8934 398.281 21.3475C400.467 20.3456 403.351 19.5192 406.433 20.1005C409.818 20.7388 412.242 22.7302 413.887 25.4716C417.404 24.5132 421.497 23.9213 425.498 24.0359C431.678 24.2131 439.52 26.2257 443.712 33.2872C450.414 36.2463 458.87 41.1442 465.509 48.2531C473.005 56.2788 478.386 67.4119 475.742 81.4426C474.19 89.6827 470.507 97.4366 466.69 103.064C464.783 105.875 462.704 108.363 460.642 110.172C459.62 111.068 458.433 111.949 457.124 112.582C456.061 113.096 454.378 113.709 452.405 113.522L11.9635 114.001ZM452.79 107.522C456.622 108.319 467.097 94.92 469.846 80.3317C474.251 56.9479 452.347 43.2182 439.354 37.9568C435.685 29.0986 423.961 29.1024 416.052 31.1061C413.723 31.696 411.726 32.4593 410.362 33.2208C409.871 30.5605 409.069 28.7763 408.085 27.6368C405.46 24.5967 401.545 26.1446 398.819 27.8843C394.357 26.0908 390.916 25.9708 388.4 26.5862C385.279 27.3494 383.58 29.2433 383.119 30.4789C382.78 27.8853 381.773 25.8208 380.348 24.1947C375.887 19.1033 367.326 18.3103 362.339 19.0354C357.341 11.5737 349.096 12.5782 345.597 14.0132C337.602 4.82951 328.44 8.43297 324.859 11.3827C307.668 1.05127 294.708 8.83158 290.377 14.0132C277.328 7.98402 267.778 11.6306 262.38 16.1846C260.583 17.7001 259.247 19.3161 258.394 20.7094C256.867 19.019 255.242 17.8405 253.61 17.0507C248.407 14.533 243.126 15.9656 240.653 17.3614C231.859 10.4371 223.97 11.855 218.791 14.9144C216.671 16.1662 215.006 17.6929 213.918 19.0354C213.405 16.5806 211.716 15.3215 209.663 14.7717C206.917 14.036 203.522 14.5703 201.424 15.209C191.872 11.9822 187.132 16.7618 185.681 20.0657C185.584 20.2879 185.501 20.5034 185.433 20.7094C184.723 20.4353 184.025 20.2054 183.341 20.0165C175.52 17.8568 169.447 21.0603 165.627 24.7791C163.952 26.4092 162.711 28.1383 161.945 29.5581C160.076 27.7165 158.315 26.8456 156.707 26.6321C152.466 26.0693 149.281 30.0744 147.953 32.9062C143.245 31.2165 140.238 36.451 139.261 39.4345C139.243 39.4914 139.225 39.5474 139.208 39.6025C139.118 39.5739 139.029 39.5463 138.941 39.5196C134.349 38.1324 131.616 39.3463 130.02 41.3615C128.567 43.1944 128.055 45.6901 127.937 47.4944C126.137 45.7286 124.267 44.5922 122.411 43.9285C116.023 41.644 109.806 44.9617 107.225 47.4944C101.479 45.0504 97.5348 47.3545 95.1307 50.4808C93.7708 52.2492 92.9037 54.2807 92.4825 55.8647C90.5844 54.9251 88.6605 54.3572 86.7488 54.0855C79.7961 53.0974 73.0055 56.0274 68.2125 59.2409C66.2736 60.5408 64.6615 61.8872 63.4979 63.0393C63.0571 62.1955 62.4149 61.5876 61.6427 61.1656C58.5632 59.4828 53.4184 60.76 50.7547 61.8435C42.5591 57.0604 37.7107 61.4887 36.2114 63.8803C21.2194 61.2018 -7.21435 100.586 13.0247 108L452.79 107.522Z" fill="url(#stroke)"/>
<defs>
<linearGradient id="fill" x1="238.211" y1="6.30029" x2="238.211" y2="108" gradientUnits="userSpaceOnUse">
<stop stop-color="#DAF9FF"/>
<stop offset="1" stop-color="#DAF9FF" stop-opacity="0"/>
</linearGradient>
<linearGradient id="stroke" x1="238.212" y1="0.288818" x2="238.212" y2="114.001" gradientUnits="userSpaceOnUse">
<stop stop-color="#CFF4FD"/>
<stop  offset="1" stop-color="#E2FFFF" stop-opacity="0"/>
</linearGradient>
</defs>
</svg>
