<svg viewBox="0 0 204 54" fill="none" xmlns="http://www.w3.org/2000/svg">
<path d="M14.7361 44.5C10.0524 44.682 6.65051 47.9523 6 50H198.943C199.692 44 192.903 41.3542 189.732 40.6716C188.366 30.2966 175.502 28.3096 169.241 28.613C166.509 24.0625 154.818 27.604 150.021 29.5C151.768 26.75 147.415 24.8258 146.277 24.75C147.822 23.9158 150.002 21.25 147.774 19.5C144.066 16.5877 139.399 18.9054 137.041 19.9671C135.48 15.9627 131.853 16.4916 130.552 17.25C129.576 10.3333 120.534 9.34938 115.818 9.72858C103.328 -0.64643 92.7252 5.40566 88.9847 9.72858C80.7884 1.53778 74.3484 7.83256 72.1529 12.0038C66.6887 10.0016 65.9803 14.4439 65.655 17.25C58.8247 16.5219 54.508 24.1383 53.8575 27.7028C48.5884 26.9748 45.6755 30.5057 45.1876 32.25C30.1609 26.9715 22.1732 34.6012 19.9777 39C16.0747 38.818 14.6548 42.7557 14.7361 44.5Z" fill="url(#fill)"/>
<path fill-rule="evenodd" clip-rule="evenodd" d="M0.532349 53.9999L2.18778 48.7889C2.85709 46.682 4.56756 44.7137 6.51301 43.3081C7.85862 42.3358 9.50753 41.4896 11.394 40.9851C11.6925 40.2039 12.0925 39.4326 12.5949 38.7209C13.6728 37.1938 15.338 35.8047 17.5738 35.2494C19.3301 32.7319 22.1803 30.0585 26.1811 28.3255C30.713 26.3625 36.4858 25.7055 43.4464 27.5332C45.1167 25.6762 47.6611 24.0653 50.9644 23.687C51.763 21.8433 52.946 19.8947 54.4535 18.2043C56.3139 16.1182 58.9678 14.1158 62.3131 13.4403C62.6173 12.4332 63.0722 11.371 63.7674 10.4365C64.7176 9.15887 66.1299 8.07946 68.0455 7.67177C68.7943 7.51241 69.552 7.47019 70.3105 7.52203C71.8555 5.53604 74.0692 3.53259 76.9362 2.47677C79.1209 1.67225 81.6206 1.45149 84.2745 2.18736C85.8411 2.62175 87.374 3.36451 88.8696 4.40868C91.3182 2.54915 94.5903 0.897202 98.4821 0.268036C104.061 -0.63381 110.517 0.63134 117.131 5.66305C119.698 5.61848 122.941 5.91606 125.935 6.987C128.639 7.95431 131.526 9.72972 133.203 12.7331C133.644 12.7571 134.093 12.8153 134.544 12.9129C135.993 13.2261 137.36 13.9239 138.504 15.0284C139.327 14.7422 140.239 14.4789 141.19 14.307C143.814 13.8326 147.2 13.9625 150.245 16.3542C151.487 17.3296 152.375 18.672 152.643 20.2844C152.847 21.5094 152.65 22.6231 152.325 23.5283C152.544 23.7417 152.766 23.9815 152.98 24.2487C155.088 23.6123 157.487 23.0163 159.838 22.6794C161.965 22.3747 164.311 22.2423 166.464 22.6277C167.929 22.8898 169.588 23.4503 170.974 24.5886C174.392 24.6431 178.822 25.2451 182.874 26.9514C187.163 28.7573 191.453 32.0267 193.124 37.489C194.734 38.0568 196.562 38.9106 198.204 40.1393C200.917 42.1697 203.523 45.6001 202.912 50.4953L202.475 53.9999H0.532349ZM189.732 40.6716C188.366 30.2965 175.502 28.3095 169.241 28.6129C167.162 25.15 159.895 26.3733 154.425 27.9914C152.708 28.4996 151.167 29.0468 150.021 29.4999C150.637 28.5306 150.495 27.6639 150.003 26.9446C149.678 26.4698 149.201 26.0592 148.688 25.7257C147.775 25.131 146.749 24.7814 146.277 24.7499C147.349 24.1706 148.729 22.7083 148.726 21.2827C148.724 20.6552 148.455 20.0348 147.774 19.4999C145.548 17.7512 142.975 17.8882 140.765 18.5066C139.447 18.8754 138.257 19.4153 137.346 19.8288C137.241 19.8767 137.139 19.923 137.041 19.967C136.946 19.7236 136.843 19.497 136.734 19.2861C135.934 17.741 134.778 17.0432 133.652 16.8126C132.404 16.5569 131.194 16.8754 130.552 17.2499C130.343 15.7693 129.764 14.5606 128.938 13.5788C125.903 9.97445 119.525 9.43046 115.818 9.72849C104.623 0.429172 94.9442 4.32719 90.364 8.34836C89.8342 8.8135 89.3726 9.28029 88.9848 9.72849C88.2591 9.00335 87.5473 8.39174 86.8509 7.88214C79.6814 2.63563 74.154 8.20176 72.153 12.0037C66.6887 10.0015 65.9803 14.4438 65.655 17.2499C58.8247 16.5218 54.508 24.1382 53.8575 27.7027C48.9452 27.024 46.0808 30.0469 45.3201 31.8728C45.2648 32.0055 45.2207 32.1318 45.1876 32.2499C43.8516 31.7806 42.5712 31.4133 41.3456 31.1367C28.7864 28.3026 21.978 34.9923 19.9778 38.9999C16.108 38.8194 14.6792 42.6888 14.7344 44.4549C14.7349 44.4701 14.7354 44.4851 14.7361 44.4999C14.6818 44.502 14.6277 44.5046 14.5737 44.5075C12.7074 44.609 11.0499 45.1991 9.69609 45.9999C7.7134 47.1727 6.38212 48.7972 6.00004 49.9999H198.943C199.021 49.3714 199.017 48.7796 198.943 48.2231C198.834 47.4082 198.576 46.6688 198.208 45.9999C196.428 42.7647 192.084 41.1779 189.732 40.6716Z" fill="url(#stroke)"/>
<defs>
<linearGradient id="fill" x1="102.5" y1="4" x2="102.5" y2="50" gradientUnits="userSpaceOnUse">
<stop stop-color="#DAF9FF"/>
<stop offset="1" stop-color="#DAF9FF" stop-opacity="0"/>
</linearGradient>
<linearGradient id="stroke" x1="101.767" y1="-0.000488281" x2="101.767" y2="53.9999" gradientUnits="userSpaceOnUse">
<stop stop-color="#CFF4FD"/>
<stop  offset="1" stop-color="#E2FFFF" stop-opacity="0"/>
</linearGradient>
</defs>
</svg>
