<svg viewBox="0 0 517 58" fill="none" xmlns="http://www.w3.org/2000/svg">
<path d="M17.223 35.1266C0.883198 37.409 4.02158 49.8305 9.00324 54.0002H512.647C514.839 46.9775 506.267 45.1625 502.282 45.0894C502.282 36.921 495.257 38.5686 491.521 41.129C488.93 36.9153 483.089 37.248 480.515 38.199C473.74 30.2984 463.744 34.9071 459.592 38.199C454.212 27.1381 440.247 29.9326 433.937 32.7125C432.741 25.5141 425.302 26.787 421.732 28.3232C413.961 23.7584 410.345 30.0906 409.183 33.4557C406.791 29.4176 402.221 28.9816 400.56 29.64C396.774 26.1286 393.005 27.2991 391.593 28.3232C389.999 23.0561 384.287 22.6172 381.63 23.0561C376.449 14.8044 363.032 15.6676 356.971 17.1307C350.793 9.58117 336.629 14.7166 330.319 18.228C319.559 7.86937 307.237 15.8139 302.422 21.081C299.233 17.394 294.285 18.8132 292.209 19.9837C283.84 18.4035 280.878 28.5323 280.795 31.9705C280.994 21.0852 272.117 17.0575 267.301 18.228C265.707 11.5563 259.829 14.1313 257.089 16.2528C254.1 13.2681 250.032 15.5944 248.371 17.1307C245.98 12.2147 240.068 13.7656 237.411 15.1555C233.227 11.293 227.531 14.2777 225.206 16.2528C216.239 13.2681 212.337 18.8132 211.507 21.9588C204.333 18.2719 197.949 24.4426 196.455 27.5151C197.252 21.5457 190.185 18.5591 187.445 18.8517C188.641 15.1647 186.182 15.4481 183.691 15.1555C182.894 12.1708 179.541 13.2535 177.383 14.4971C172.6 12.3903 168.748 15.375 167.419 17.1307C166.622 11.1613 160.445 12.4488 157.456 13.8387C155.264 10.3273 149.901 11.6441 147.493 12.7414C144.105 10.459 140.269 11.7904 138.775 12.7414C132.797 10.459 127.649 14.7166 125.823 17.1307C124.627 11.1613 116.524 10.1079 112.621 10.3273C107.839 6.99153 102.99 11.7173 101.164 14.4971C101.164 8.17662 92.6948 6.59653 88.4604 6.59654C83.4788 1.50503 76.4214 5.0603 73.5155 7.47437C68.7331 2.90956 62.888 5.57237 60.5632 7.47437C54.5853 7.47437 53.2568 12.8878 53.3398 15.5945C48.5575 11.732 44.5389 15.7408 43.1275 18.2281C36.1532 16.1212 34.4096 21.5931 34.4096 24.5924C28.4316 19.852 24.4463 23.934 23.2009 26.5675C16.4259 26.0408 16.3927 32.0541 17.223 35.1266Z" fill="url(#fill)"/>
<path fill-rule="evenodd" clip-rule="evenodd" d="M7.55011 58.0002L6.43582 57.0675C3.03726 54.2228 0.273628 48.7305 1.16926 43.2145C1.6416 40.3055 3.12515 37.5194 5.83605 35.3365C7.70028 33.8354 10.0442 32.6973 12.8596 31.9324C12.8976 30.6457 13.1228 29.2796 13.6622 27.9719C14.32 26.3772 15.4736 24.8233 17.3104 23.7758C18.4251 23.1402 19.6591 22.7663 20.9745 22.6146C22.0402 21.2466 23.5514 19.8955 25.5493 19.099C27.5217 18.3127 29.6483 18.1885 31.8213 18.7796C32.1782 18.1093 32.6178 17.4553 33.1561 16.8463C34.318 15.5317 35.9052 14.4792 37.9251 14.0139C39.0431 13.7564 40.2124 13.6969 41.4214 13.8155C42.4189 12.713 43.7079 11.6382 45.2777 10.9054C46.7305 10.2274 48.4745 9.82403 50.4014 10.0551C50.4074 10.0558 50.4134 10.0566 50.4195 10.0573C50.6615 9.49192 50.9517 8.92938 51.2972 8.3826C52.8602 5.90914 55.4638 3.9452 59.1627 3.54785C60.7808 2.47863 63.0104 1.44949 65.5567 1.08878C68.0773 0.731718 70.9068 1.04342 73.5928 2.5696C75.2358 1.61126 77.238 0.739111 79.4195 0.299586C82.7138 -0.364173 86.6398 -0.0502059 90.0486 2.65173C92.3964 2.80954 95.3642 3.33008 98.0346 4.52587C99.5257 5.19355 101.105 6.17192 102.397 7.53131C102.863 7.19909 103.354 6.88777 103.868 6.60729C106.529 5.15617 110.106 4.43068 113.685 6.30115C115.939 6.30936 118.873 6.64161 121.621 7.65517C123.362 8.29715 125.25 9.30901 126.791 10.8426C127.478 10.3795 128.222 9.94568 129.018 9.56547C131.598 8.33269 134.869 7.60777 138.431 8.45663C140.738 7.52543 144.241 6.85941 147.778 8.36196C149.152 7.92971 150.8 7.58644 152.498 7.56212C154.295 7.53638 156.552 7.88663 158.484 9.2226C160.065 8.79058 161.913 8.52693 163.753 8.75537C165.368 8.95593 167.182 9.56668 168.693 10.9946C168.713 11.0127 168.732 11.0309 168.751 11.0491C170.998 9.91911 173.863 9.28425 177.114 10.167C178.215 9.69918 179.521 9.30378 180.872 9.24444C182.017 9.19415 183.482 9.37484 184.851 10.2637C185.348 10.5866 185.777 10.9665 186.142 11.3884C186.806 11.4791 187.865 11.6692 188.876 12.2248C190.069 12.8797 191.073 13.9748 191.516 15.4905C192.868 15.9425 194.303 16.6391 195.624 17.5961C196.473 18.2115 197.317 18.9735 198.06 19.8777C198.65 19.4507 199.276 19.0517 199.931 18.6929C202.551 17.2599 205.863 16.3723 209.445 17.0482C210.344 15.7306 211.562 14.4526 213.151 13.4366C216.093 11.556 219.894 10.8348 224.422 11.8793C225.867 10.9574 227.695 10.0773 229.722 9.61506C232.184 9.05368 235.147 9.08725 237.915 10.6139C239.426 10.1063 241.226 9.73267 243.091 9.77957C245.118 9.83054 247.321 10.4065 249.174 11.8567C249.823 11.5579 250.522 11.301 251.259 11.1163C253.014 10.6767 255.102 10.6403 257.114 11.5019C258.645 10.6957 260.511 10.0189 262.476 9.94568C264.225 9.88047 266.21 10.2978 267.938 11.7C268.754 12.3614 269.413 13.162 269.938 14.0647C273.908 14.3424 278.264 16.4289 281.227 20.3102C282.231 19.1162 283.479 18.0059 285.016 17.1817C286.932 16.1537 289.134 15.6607 291.55 15.8618C292.98 15.2573 294.82 14.7539 296.813 14.7116C298.488 14.6761 300.345 14.9737 302.112 15.854C304.924 13.4773 308.732 11.1053 313.104 9.93157C318.63 8.44794 324.978 8.93146 330.886 13.4461C334.233 11.8624 338.624 10.2594 343.091 9.57725C347.935 8.83753 353.882 9.05826 358.284 12.7817C361.574 12.2173 365.874 11.9157 370.157 12.4851C374.758 13.0968 379.954 14.8112 383.535 18.9292C385.022 18.9509 386.714 19.1852 388.378 19.7911C390.213 20.4591 392.064 21.6098 393.486 23.4095C395.891 23.0349 398.795 23.4128 401.662 25.401C403.027 25.3362 404.48 25.5462 405.824 25.9794C406.603 26.2303 407.399 26.5723 408.179 27.0191C408.868 26.1622 409.69 25.3445 410.665 24.6529C412.27 23.5148 414.278 22.7331 416.644 22.7261C418.409 22.7209 420.203 23.1462 422.013 23.9659C424.089 23.324 426.741 22.8775 429.352 23.2917C431.17 23.5801 433.131 24.3164 434.772 25.8637C435.333 26.3926 435.822 26.9838 436.24 27.6314C439.476 26.6758 443.419 26.0051 447.385 26.2746C452.131 26.5971 457.165 28.321 460.777 32.6756C462.974 31.4977 465.626 30.4709 468.48 30.0454C472.779 29.4047 477.641 30.1453 481.77 33.7837C483.257 33.5559 484.938 33.5144 486.621 33.7739C488.486 34.0613 490.558 34.7598 492.355 36.1553C494.3 35.3473 496.575 34.8276 498.818 35.1192C500.799 35.3767 502.848 36.2977 504.324 38.2615C505.034 39.2063 505.525 40.2788 505.838 41.4382C507.748 41.7755 509.875 42.3948 511.752 43.4582C513.386 44.3834 515.095 45.7977 516.117 47.9211C517.181 50.1331 517.265 52.6284 516.465 55.1919L515.589 58.0002H7.55011ZM502.282 45.0893C502.282 37.636 496.433 38.3553 492.57 40.4835C492.2 40.6876 491.848 40.9048 491.521 41.1289C491.397 40.9276 491.266 40.7367 491.128 40.5557C488.38 36.9484 482.966 37.2933 480.515 38.1989C475.194 31.9934 467.885 33.5052 462.982 36.0348C461.643 36.7257 460.483 37.4926 459.592 38.1989C458.962 36.9023 458.213 35.796 457.373 34.8578C452.265 29.1566 443.767 29.6617 437.749 31.3588C436.31 31.7647 435.012 32.2387 433.937 32.7124C433.674 31.1265 433.107 29.9519 432.346 29.1005C429.651 26.0877 424.516 27.1253 421.732 28.3231C416.594 25.3053 413.273 27.0501 411.276 29.5516C410.252 30.834 409.576 32.3152 409.183 33.4556C408.346 32.0435 407.244 31.0719 406.092 30.4335C403.95 29.2464 401.64 29.2118 400.56 29.6399C398.608 27.8293 396.66 27.2635 395.038 27.2806C393.514 27.2967 392.277 27.8271 391.593 28.3231C391.147 26.8479 390.377 25.7514 389.442 24.9469C387.039 22.879 383.543 22.7401 381.63 23.0561C376.449 14.8043 363.032 15.6675 356.971 17.1306C350.793 9.5811 336.629 14.7165 330.319 18.2279C321.325 9.56943 311.24 13.699 305.359 18.3639C304.205 19.2798 303.212 20.2164 302.422 21.0809C302.033 20.6309 301.617 20.257 301.184 19.9494C298.068 17.7367 294.032 18.956 292.209 19.9836C288.024 19.1933 285.19 21.3319 283.393 24.0975C281.598 26.8615 280.837 30.2518 280.795 31.9705C280.855 28.7058 280.098 26.058 278.88 23.9823C276.048 19.1591 270.722 17.4244 267.348 18.2168C267.332 18.2204 267.317 18.2241 267.301 18.2279C267.294 18.1998 267.288 18.1718 267.281 18.144C265.658 11.578 259.817 14.1402 257.089 16.2527C255.468 14.6346 253.531 14.5775 251.831 15.1092C250.396 15.5582 249.131 16.4272 248.371 17.1306C247.757 15.8681 246.911 15.0322 245.947 14.5104C243.158 13.0006 239.386 14.1224 237.411 15.1554C233.227 11.2929 227.531 14.2776 225.206 16.2527C218.947 14.1693 215.155 16.2422 213.154 18.7539C212.288 19.8404 211.758 21.0089 211.507 21.9587C210.191 21.2824 208.902 20.9378 207.664 20.8449C204.704 20.6227 202.041 21.841 200.021 23.4051C198.282 24.7516 197.019 26.3544 196.455 27.515C196.72 25.527 196.114 23.8698 195.085 22.5544C194.099 21.2939 192.726 20.3473 191.362 19.7241C189.875 19.0449 188.398 18.7499 187.445 18.8517C187.996 17.1517 187.771 16.2958 187.123 15.8383C186.532 15.4202 185.588 15.3348 184.563 15.2421C184.277 15.2163 183.984 15.1898 183.691 15.1554C182.894 12.1707 179.541 13.2534 177.383 14.497C174.889 13.3985 172.648 13.6842 170.886 14.4583C169.269 15.1687 168.055 16.2904 167.419 17.1306C167.171 15.2717 166.401 14.1165 165.368 13.449C163.084 11.973 159.514 12.8816 157.456 13.8387C155.264 10.3272 149.901 11.644 147.493 12.7414C144.105 10.4589 140.269 11.7903 138.775 12.7414C134.993 11.2975 131.544 12.4708 129.057 14.139C127.613 15.1079 126.494 16.2436 125.823 17.1306C125.515 15.5964 124.752 14.387 123.721 13.4404C120.739 10.7038 115.521 10.1642 112.621 10.3273C109.723 8.30534 106.799 9.24514 104.54 10.9182C103.071 12.0053 101.883 13.4021 101.164 14.497C101.164 12.7165 100.491 11.3121 99.4312 10.2133C96.728 7.41168 91.5019 6.59646 88.4604 6.59647C83.4787 1.50495 76.4214 5.06022 73.5155 7.47429C68.7331 2.90949 62.888 5.57229 60.5632 7.47429C57.0938 7.47429 55.1905 9.29765 54.2202 11.3571C53.5187 12.8461 53.305 14.4586 53.3398 15.5944C51.9502 14.472 50.625 14.0143 49.4095 13.9907C46.4422 13.9332 44.1288 16.4635 43.1275 18.228C38.9489 16.9657 36.6479 18.424 35.4747 20.441C34.6898 21.7905 34.4096 23.39 34.4096 24.5923C33.0196 23.4901 31.7373 22.8648 30.5721 22.5875C26.7264 21.672 24.1567 24.5463 23.2009 26.5675C18.0783 26.1692 16.8099 29.5098 16.8548 32.491C16.8693 33.4528 17.0205 34.3771 17.223 35.1265C15.7675 35.3298 14.4666 35.6135 13.3078 35.9647C1.45691 39.5563 4.4653 50.2018 9.00323 54.0002H512.647C514.839 46.9774 506.267 45.1624 502.282 45.0893Z" fill="url(#stroke)"/>
<defs>
<linearGradient id="fill" x1="259" y1="4.00024" x2="259" y2="54.0002" gradientUnits="userSpaceOnUse">
<stop stop-color="#DAF9FF"/>
<stop offset="1" stop-color="#DAF9FF" stop-opacity="0"/>
</linearGradient>
<linearGradient id="stroke" x1="258.999" y1="0.00292969" x2="258.999" y2="58.0002" gradientUnits="userSpaceOnUse">
<stop stop-color="#CFF4FD"/>
<stop  offset="1" stop-color="#E2FFFF" stop-opacity="0"/>
</linearGradient>
</defs>
</svg>
