<svg viewBox="0 0 109 22" fill="none" xmlns="http://www.w3.org/2000/svg">
<path d="M7.52116 16.8052C12.8302 20.2308 20.574 18.947 23.4971 17.8202C53.2655 23.5897 60.9029 20.0171 60.192 17.3127C68.9139 23.9836 78.7492 20.2992 81.9093 17.8202C91.3897 21.4261 96.359 17.104 97.3861 14.7752C105.207 15.9021 107.422 14.8019 108.37 12.9989C109.128 11.5565 105.938 11.1998 104.437 11.1247C104.058 5.35515 100.243 5.49972 97.6357 6.40124C96.8773 1.89379 90.9151 3.49813 88.1499 4.62495C85.3058 0.29769 75.4431 0.907759 71.4929 1.88443C62.2021 -2.62303 52.7762 2.38117 49.4581 5.38615C47.1828 1.59989 43.7627 3.08641 42.1037 4.3635C36.605 2.56052 31.0682 6.83525 29.4881 8.93872C27.7817 6.77513 26.1449 7.51869 25.0388 8.42019C22.9531 7.1581 19.4527 10.3027 18.5047 11.73C13.5748 9.56647 9.71729 12.9721 8.76922 14.7751C5.45954 14.7751 -0.716439 14.2676 1.28054 16.0439C1.65627 16.3781 5.77379 16.8052 7.52116 16.8052Z" fill="url(#fill)"/>
<defs>
<linearGradient id="fill" x1="54.6879" y1="0.0817871" x2="54.6879" y2="21.0945" gradientUnits="userSpaceOnUse">
<stop stop-color="#CFF4FD"/>
<stop  offset="1" stop-color="#E2FFFF" stop-opacity="0"/>
</linearGradient>
</defs>
</svg>
