<svg viewBox="0 0 129 22" fill="none" xmlns="http://www.w3.org/2000/svg">
<path d="M3.67253 13.2337C3.67253 13.2337 2.1487 13.193 1.43005 13.7324C-0.32465 15.0495 2.41516 15.5926 3.67251 15.2286C5.871 16.5054 8.23799 15.9339 9.15403 15.478C14.7502 18.2141 18.287 16.618 19.3696 15.478C20.9685 17.6669 24.3488 16.5634 25.8478 15.7273C27.2468 16.457 28.7531 15.5113 29.336 14.9792C30.5352 16.4385 33.1533 16.1074 34.3192 15.7273C35.3185 18.6459 40.5414 18.5037 43.0397 17.9717C56.4305 24.1736 67.6958 21.2493 71.6931 18.9691C74.691 21.3405 77.9187 19.6105 79.1679 18.4704C81.6662 21.4346 87.6393 20.2374 87.6393 20.4654C92.6359 22.8367 100.172 16.5992 103.336 13.483C107.134 17.1312 115.203 15.3498 118.784 13.9818C122.981 16.3531 127.334 13.9296 129 12.4855C129 11.3911 125.1 12.1602 123.768 12.2362C124.167 10.0473 122.754 9.84185 121.255 10.0699C120.255 8.793 118.205 9.95857 117.539 10.4906C116.739 8.84891 113.888 9.97993 112.555 10.74C112.356 9.4631 110.647 9.26511 109.815 9.49312C108.815 6.20975 105.515 6.19367 103.767 6.64969C100.969 4.46078 98.0236 8.24577 97.1075 10.0699C96.9077 8.42818 93.9544 7.76889 92.8718 7.9969C93.2715 5.62558 91.1919 5.66164 89.5264 5.96565C88.5271 2.8647 84.1134 3.60953 82.0315 4.36957C80.8323 2.54548 77.2607 4.74973 76.1781 5.7378C77.5771 1.36001 73.7039 0.949529 71.039 1.63359C69.64 -0.920156 65.6261 0.113524 63.794 0.949582C60.7961 -0.874511 58.3811 0.645547 57.5483 1.63359C53.9508 0.721541 53.5045 4.50323 53.5045 6.25132C52.5052 3.88018 48.9708 4.52161 47.805 5.28153C46.6058 1.81571 44.1408 3.68552 43.0582 5.05365C40.46 2.68233 38.8111 5.05361 38.0616 6.64961C33.8645 3.9135 32.4105 6.67156 31.8276 8.49564L26.3197 9.38592C21.9227 3.73123 16.7175 7.65716 14.6356 10.2412C12.6369 6.95786 10.6517 9.91333 9.65236 11.7374C7.45387 10.2782 6.829 11.5735 6.66245 12.4855C3.6645 11.5735 3.50597 12.4736 3.67253 13.2337Z" fill="url(#fill)"/>
<defs>
<linearGradient id="fill" x1="64.9299" y1="0.0170898" x2="64.9299" y2="21.6906" gradientUnits="userSpaceOnUse">
<stop stop-color="#CFF4FD"/>
<stop  offset="1" stop-color="#E2FFFF" stop-opacity="0"/>
</linearGradient>
</defs>
</svg>
