<svg viewBox="0 0 89 13" fill="none" xmlns="http://www.w3.org/2000/svg">
<path d="M59.829 11.2057L88.1322 11.5619C90.136 10.3276 82.3305 10.4014 78.7404 10.4749C79.1412 9.94589 76.6567 9.98769 74.9869 9.98769C75.3876 9.10603 73.2362 9.62033 72.2343 9.98769C70.2305 5.40326 63.1686 5.08864 59.829 5.60296C59.829 3.66348 56.4709 3.43381 54.968 3.65419C55.1684 2.59626 53.4002 2.45188 52.0644 2.52533C48.0569 -1.7064 43.3814 0.321353 41.5446 1.8642C40.142 1.33523 38.7035 3.84366 37.952 4.87217C35.3472 1.69837 31.4473 4.49702 29.9445 6.33375C29.1931 5.23168 27.7687 6.0519 27.5182 5.83144C25.3141 4.77351 24.6066 7.42413 24.1891 8.52611C22.1853 7.46818 20.853 9.20274 20.4356 10.2313C19.6341 9.70229 18.6007 10.0109 18.4337 10.2313C17.4318 9.57005 16.9323 10.2776 16.9323 10.7185C3.92004 10.7185 -1.00237 10.471 0.166497 11.2057C5.37629 12.9689 36.1863 12.1496 51.2145 11.5619C58.2277 12.6198 59.9125 11.7934 59.829 11.2057Z" fill="url(#fill)"/>
<defs>
<linearGradient id="fill" x1="44.228" y1="0.000244141" x2="44.228" y2="12.2736" gradientUnits="userSpaceOnUse">
<stop stop-color="#CFF4FD"/>
<stop  offset="1" stop-color="#E2FFFF" stop-opacity="0"/>
</linearGradient>
</defs>
</svg>
