<svg viewBox="0 0 710 119" fill="none" xmlns="http://www.w3.org/2000/svg">
<path d="M22.4135 107.73C19.0238 105.331 14.6648 105.731 13.5847 107.73C10.3671 104.211 3.30419 109.872 7.08468 111.978H691.517C709.463 105.38 702.829 92.897 698.259 86.9829C703.244 67.9909 691.922 64.071 685.774 63.7378C687.17 53.9419 681.157 51.1707 676.92 50.2545C672.135 39.8589 661.467 40.9251 656.732 42.7576C647.959 37.3599 641.572 45.4926 639.827 50.2406C639.429 41.6443 630.747 41.4249 626.842 42.7576C625.048 32.362 616.181 33.9112 612.359 35.9937C614.553 28.197 610.373 26.8478 606.884 26.7645C599.107 16.169 591.181 20.3505 588.191 23.7657C587.393 21.3666 584.535 21.1001 583.206 21.2667C582.408 15.869 575.895 15.3526 572.738 15.7691C565.56 2.97453 553.463 5.44016 548.312 8.2723C537.545 2.87455 535.031 9.50018 534.45 13.9983C526.873 13.7984 526.877 21.7475 527.708 25.7458C519.234 20.7479 516.658 27.9775 516.658 30.263C511.673 29.6632 509.929 34.3446 509.679 36.7603C506.085 31.4775 502.733 32.9948 500.989 35.4938C494.409 33.8944 495.33 41.7432 496.244 45.4916C491.658 39.6941 483.011 45.2566 480.02 48.5052C469.651 38.1096 461.742 44.8401 459.083 49.5049C455.893 43.5074 451.274 47.0059 449.363 49.5049C443.581 40.5087 435.987 45.7564 432.913 49.5049C427.928 46.9059 424.076 51.3243 423.079 53.9898C422.082 47.5926 414.137 47.7556 409.983 48.5052C390.642 32.3121 379.16 44.5903 375.837 52.7535C368.609 44.757 365.085 50.9775 364.372 52.7535C350.614 50.5545 345.18 61 344.183 66.4977C331.223 57.7014 322.167 66.3311 319.259 71.7455C310.287 70.546 310.794 77.1524 311.459 80.9841C302.287 76.9858 293.587 83.4072 291.095 86.7391C282.721 82.7408 277.802 90.5708 276.39 94.9856C273 86.7891 266.337 88.7383 263.429 90.7374C260.189 87.2389 257.198 92.4817 257.198 93.2363C248.226 91.2372 243.87 98.2313 243.289 101.98C241.693 92.1838 233.794 91.3155 230.803 92.4817C231.999 85.4846 227.635 84.3168 225.06 84.4834C223.265 74.6875 219.978 78.7425 217.569 81.7412C207.998 77.1432 204.276 84.6566 203.612 88.9881C198.228 83.5904 194.39 88.5716 193.144 91.737C185.766 87.9386 179.527 93.8155 178.114 97.2307C177.516 90.2337 173.786 89.3214 171.21 89.7378C163.434 84.9399 157.502 90.071 155.508 93.2363C149.726 85.6395 142.963 89.5712 140.304 92.4867C137.114 87.4888 133.658 90.4042 132.329 92.4867C128.74 90.4875 126.679 93.8194 126.098 95.7352C122.907 94.5357 121.944 97.2346 121.861 98.7341C119.468 96.1352 117.374 97.6512 116.627 98.7341C116.627 96.7349 115.297 96.9015 114.633 97.2347C111.442 90.0378 105.66 93.2363 103.168 95.7352C100.376 91.9369 97.5181 94.1526 96.438 95.7352C88.8611 91.337 84.8068 97.068 83.7267 100.483C78.3431 97.0847 72.4841 100.317 70.7394 102.732C67.9479 95.1356 63.1228 97.1514 60.5474 98.7341C58.354 97.3347 56.9749 99.8169 56.5595 101.233C55.5625 100.633 54.1502 101.983 53.5686 102.732C50.7771 98.734 46.4237 101.066 44.5959 102.732C41.605 101.733 37.7003 104.648 36.1217 106.231C30.5387 100.833 24.6567 104.981 22.4135 107.73Z" fill="url(#fill)"/>
<path fill-rule="evenodd" clip-rule="evenodd" d="M7.08476 111.978C5.44593 111.065 5.84479 109.484 7.08476 108.272C8.19751 107.185 9.98763 106.395 11.5903 106.653C12.3215 106.77 13.0137 107.106 13.5848 107.73C13.8336 107.27 14.2565 106.894 14.8015 106.618C16.622 105.695 19.8049 105.884 22.4136 107.73C22.8682 107.173 23.4723 106.558 24.1931 105.978C26.9715 103.738 31.4837 101.999 35.852 105.978C35.942 106.06 36.0319 106.144 36.1218 106.231C36.2028 106.15 36.2898 106.065 36.3826 105.978C38.0985 104.359 41.7585 101.784 44.596 102.732C45.9163 101.529 48.5545 99.9778 50.9698 100.716C51.8982 101 52.7936 101.622 53.5687 102.732C54.0348 102.131 55.0345 101.145 55.9263 101.086C55.9687 101.083 56.0109 101.083 56.0527 101.084C56.229 101.091 56.3996 101.137 56.5596 101.233C56.6307 100.99 56.7301 100.717 56.857 100.437C57.1234 99.8484 57.511 99.232 58.0129 98.8171C58.038 98.7963 58.0635 98.7761 58.0892 98.7563C58.7336 98.2615 59.5576 98.1025 60.5474 98.734C62.1892 97.7251 64.745 96.5403 67.1055 97.7814C68.448 98.4873 69.7274 99.978 70.7395 102.732C71.6126 101.523 73.5161 100.11 75.8747 99.4257C76.8819 99.1334 77.9721 98.974 79.1006 99.0202C80.61 99.082 82.1879 99.5117 83.7268 100.483C84.1654 99.0965 85.0942 97.3281 86.5501 96.0109C88.6799 94.084 91.9376 93.1228 96.4381 95.7352C97.3213 94.441 99.3935 92.7234 101.646 94.2175C102.148 94.5505 102.659 95.043 103.168 95.7352C103.873 95.0279 104.842 94.2645 105.941 93.6967C107.996 92.6353 110.506 92.2572 112.599 94.2059C113.125 94.6951 113.624 95.331 114.084 96.1396C114.274 96.4744 114.457 96.8388 114.633 97.2347C114.685 97.2085 114.741 97.1833 114.801 97.1601C115.161 97.0199 115.636 96.953 116.011 97.1749C116.322 97.3587 116.565 97.7407 116.616 98.4434C116.623 98.5348 116.627 98.6316 116.627 98.734C116.689 98.6435 116.761 98.5499 116.842 98.4559C117.727 97.4264 119.668 96.3525 121.861 98.734C121.892 98.1628 122.052 97.4176 122.413 96.7801C122.923 95.8815 123.835 95.1969 125.356 95.5157C125.378 95.5203 125.4 95.5251 125.422 95.5301C125.635 95.5783 125.86 95.6459 126.098 95.7352C126.174 95.4842 126.276 95.2089 126.403 94.9244C127.245 93.0378 129.21 90.7494 132.329 92.4866C133.266 91.0184 135.26 89.1362 137.473 89.905C138.399 90.2267 139.363 91.0124 140.305 92.4866C141.404 91.2812 143.205 89.902 145.348 89.2358C147.028 88.7134 148.92 88.6294 150.848 89.4117C152.408 90.0444 153.992 91.2438 155.508 93.2363C156.339 91.9171 157.854 90.2566 159.902 89.1155C162.767 87.5187 166.675 86.9394 171.21 89.7378C172.473 89.5336 174.014 89.6488 175.326 90.6441C176.691 91.6787 177.81 93.6643 178.115 97.2307C178.798 95.5782 180.611 93.3496 183.137 91.9193C185.299 90.6949 187.982 90.0556 190.926 90.8639C191.651 91.0629 192.391 91.3496 193.144 91.7369C193.383 91.1278 193.719 90.4514 194.144 89.7947C195.04 88.4081 196.33 87.1092 197.945 86.7159C199.54 86.3274 201.452 86.8223 203.612 88.9881C203.88 87.2401 204.646 84.9739 206.094 83.1946C208.233 80.5649 211.861 78.9987 217.569 81.7412C219.979 78.7425 223.265 74.6875 225.06 84.4833C226.569 84.3857 228.693 84.7465 229.952 86.4707C230.841 87.6882 231.298 89.5857 230.803 92.4817C232.154 91.9549 234.506 91.8433 236.827 92.7817C237.872 93.2046 238.912 93.8408 239.85 94.7483C241.439 96.2858 242.739 98.602 243.289 101.98C243.593 100.019 244.93 97.1704 247.419 95.1852C248.496 94.3271 249.788 93.6303 251.305 93.2363C252.988 92.7992 254.948 92.7348 257.198 93.2363C257.198 93.1727 257.22 93.0774 257.26 92.9581C257.704 91.6606 260.462 87.5335 263.429 90.7374C265.351 89.4161 268.913 88.1167 272.086 89.7535C273.715 90.5933 275.24 92.2061 276.39 94.9856C276.967 93.1819 278.129 90.8081 279.873 88.9038C282.398 86.1471 286.142 84.3743 291.095 86.7391C293.01 84.1795 298.587 79.7968 305.228 79.715C307.232 79.6903 309.333 80.0573 311.459 80.9841C311.137 79.1278 310.852 76.6203 311.664 74.6646C312.528 72.5834 314.634 71.127 319.259 71.7454C321.736 67.1344 328.671 60.1913 338.68 63.6658C340.424 64.2711 342.26 65.1926 344.183 66.4977C344.48 64.8649 345.167 62.7956 346.348 60.7508C349.142 55.9107 354.7 51.2075 364.372 52.7535C364.899 51.4417 366.959 47.7052 370.912 49.0637C372.311 49.5444 373.948 50.6633 375.837 52.7535C376.532 51.0459 377.584 49.1582 378.991 47.3887C384.308 40.6993 394.688 35.6994 409.983 48.5052C412.403 48.0685 416.109 47.8308 418.979 48.9732C421.036 49.7919 422.663 51.3192 423.079 53.9898C423.69 52.3565 425.373 50.065 427.732 49.1332C429.222 48.5443 430.983 48.4984 432.913 49.5048C435.26 46.6426 440.243 42.9061 445.042 45.3047C446.528 46.0473 447.996 47.378 449.363 49.5048C450.369 48.1888 452.127 46.5956 454.031 46.258C454.146 46.2376 454.262 46.2218 454.378 46.2109C455.988 46.06 457.675 46.8569 459.083 49.5048C459.956 47.9743 461.393 46.2215 463.297 44.9241C466.855 42.4999 472.042 41.6658 478.215 46.8435C478.808 47.3407 479.409 47.8933 480.02 48.5052C480.251 48.2537 480.517 47.9884 480.811 47.7156C482.867 45.8128 486.352 43.5441 489.738 43.0606C492.138 42.7177 494.489 43.2725 496.244 45.4916C495.747 43.4519 495.247 40.1982 495.955 37.9132C496.548 35.999 497.989 34.7647 500.989 35.4937C501.798 34.3339 502.954 33.3855 504.32 33.2303C505.897 33.0512 507.753 33.9294 509.679 36.7602C509.849 35.1207 510.707 32.4377 512.799 31.0702C513.418 30.6655 514.145 30.376 514.995 30.2629C515.504 30.1951 516.058 30.1907 516.658 30.2629C516.658 29.9779 516.698 29.6159 516.785 29.2104C517.177 27.3732 518.524 24.6413 521.424 24.1121C523.017 23.8215 525.079 24.1951 527.708 25.7458C527.335 23.9528 527.129 21.3653 527.698 19.0745C528.398 16.2568 530.271 13.888 534.45 13.9983C535.032 9.50014 537.545 2.87451 548.312 8.27226C553.463 5.44012 565.56 2.97449 572.738 15.7691C575.895 15.3526 582.408 15.869 583.206 21.2667C583.789 21.1935 584.668 21.2039 585.537 21.4415C586.647 21.7451 587.743 22.4198 588.191 23.7656C589.297 22.5019 591.08 21.1333 593.28 20.4473C597.027 19.2792 601.985 20.0895 606.884 26.7644C608.998 26.8149 611.365 27.3301 612.415 29.4624C613.098 30.8494 613.224 32.9208 612.359 35.9936C613.932 35.1365 616.36 34.3697 618.797 34.4889C621.267 34.6098 623.747 35.6403 625.358 38.4085C626.02 39.5458 626.535 40.9763 626.842 42.7576C627.78 42.4375 628.994 42.2069 630.302 42.1605C632.366 42.0871 634.666 42.4723 636.49 43.6875C638.323 44.9084 639.676 46.9671 639.827 50.2406C640.556 48.2568 642.096 45.6822 644.281 43.7504C647.326 41.0587 651.624 39.6151 656.732 42.7576C661.467 40.925 672.135 39.8588 676.92 50.2544C680.606 51.0514 685.634 53.2515 685.963 60.2565C686.012 61.3054 685.956 62.462 685.774 63.7377C686.705 63.7882 687.755 63.9209 688.849 64.1759C694.977 65.6041 702.489 70.8673 698.259 86.9828C702.829 92.897 709.463 105.38 691.517 111.978H7.08476ZM14.8239 117.978L14.8518 118.008L14.8682 117.978H110.627V117.983L110.63 117.978H692.585L693.588 117.609C698.717 115.723 702.683 113.205 705.388 109.968C708.177 106.631 709.321 102.887 709.331 99.2414C709.347 93.8927 706.934 89.0566 704.715 85.6981C706.576 76.4372 705.021 69.3341 700.704 64.4086C698.086 61.4221 694.863 59.7227 691.863 58.7841C691.475 55.1252 690.109 52.0471 687.887 49.617C685.775 47.3072 683.235 45.9747 681 45.182C677.679 39.8031 672.854 37.0516 668.032 36.0466C664.122 35.2318 660.314 35.5676 657.302 36.3082C655.027 35.3356 652.703 34.8905 650.385 34.9872C647.218 35.1193 644.491 36.2436 642.303 37.7109C641.646 38.1513 641.025 38.6299 640.442 39.1366C639.233 38.2283 637.935 37.5757 636.659 37.1223C634.771 36.451 632.814 36.1684 630.96 36.1524C630.377 35.0116 629.673 33.9672 628.841 33.0323C626.763 30.6986 624.203 29.4064 621.669 28.8406C620.587 28.599 619.51 28.4873 618.46 28.4764C618.026 27.0197 617.292 25.6557 616.184 24.4417C614.325 22.4049 612.004 21.4957 610.02 21.0892C605.655 16.1031 600.633 13.7878 595.476 14.017C592.754 14.1379 590.35 14.9576 588.348 16.0682C588.194 16.0057 588.042 15.9483 587.893 15.8955C587.746 15.8439 587.6 15.7958 587.454 15.751C585.775 13.0996 583.205 11.5124 580.86 10.6818C579.209 10.0974 577.519 9.80926 575.965 9.70471C571.663 3.82964 566.126 0.98027 560.584 0.216778C555.961 -0.420046 551.619 0.423844 548.282 1.69884C543.023 -0.332483 537.991 -0.415182 533.948 2.63415C531.682 4.34341 530.358 6.62177 529.57 8.74553C528.483 9.12946 527.457 9.6658 526.511 10.3664C524.243 12.0469 522.955 14.2913 522.249 16.3556C522.058 16.913 521.903 17.4765 521.778 18.0403C519.082 18.1909 516.817 19.2377 515.087 20.7288C513.624 21.9908 512.637 23.4812 511.987 24.8357C510.239 25.4404 508.763 26.4394 507.584 27.6386C506.625 27.342 505.602 27.1875 504.516 27.2101C502.122 27.26 500.18 28.1619 498.689 29.3047C497.073 29.4054 495.439 29.8774 493.933 30.917C491.452 32.6309 490.422 35.1408 489.987 37.0182C488.386 37.1317 486.877 37.486 485.578 37.9338C483.591 38.619 481.709 39.6146 480.059 40.7109C475.072 37.2475 469.948 36.2646 465.107 37.5619C462.535 38.2512 460.355 39.5082 458.57 40.9751C456.401 40.0459 454.209 40.0292 452.321 40.4896C451.488 40.693 450.706 40.9883 449.981 41.3433C449.131 40.7003 448.227 40.1556 447.267 39.7196C444.356 38.3972 441.426 38.2998 438.843 38.8636C435.8 39.5278 433.19 41.1025 431.178 42.782C428.298 42.4666 425.641 43.2539 423.504 44.5695C422.073 43.6613 420.567 43.0997 419.186 42.7505C416.613 42.0997 413.958 42.0562 411.745 42.2339C401.834 34.6827 392.667 33.0268 384.86 35.8543C380.197 37.5433 376.647 40.622 374.104 43.8991C371.32 42.5815 368.356 42.3045 365.362 43.5471C363.582 44.2858 362.259 45.4164 361.324 46.4604C354.542 46.3146 349.212 48.7525 345.373 52.3765C343.505 54.14 342.052 56.1221 340.949 58.1068C335.412 56.1048 330.205 56.3914 325.683 58.2379C321.499 59.9467 318.302 62.8247 316.114 65.6394C314.62 65.7393 313.176 66.0451 311.819 66.6204C309.131 67.7605 307.324 69.7342 306.295 71.9696C306.031 72.5437 305.821 73.1285 305.658 73.7143C302.262 73.6782 299.119 74.4623 296.454 75.5788C293.726 76.7218 291.316 78.2826 289.409 79.9009C287.795 79.5945 286.186 79.5525 284.602 79.7821C281.655 80.2093 279.223 81.5145 277.329 83.0661C276.672 83.6046 276.065 84.1837 275.506 84.7883C273.952 83.8642 272.242 83.2915 270.427 83.0788C267.933 82.7867 265.607 83.2217 263.658 83.9343C262.83 83.6729 261.941 83.5319 260.997 83.5465C258.381 83.5867 256.413 84.8124 255.241 85.7966C254.826 86.1453 254.449 86.5131 254.111 86.8838C250.055 86.8897 246.601 88.2411 243.902 90.3195C242.805 89.2813 241.589 88.4326 240.289 87.7717C239.055 87.1439 237.771 86.702 236.494 86.4277C235.943 84.4919 234.93 82.7607 233.377 81.3516C232.282 80.3587 231.091 79.6902 229.919 79.2493C229.549 78.1766 229.102 77.1831 228.549 76.305C227.907 75.2836 226.956 74.1515 225.558 73.3364C224.063 72.465 222.408 72.1649 220.82 72.3583C218.518 72.6387 216.801 73.8963 215.823 74.7604C214.2 74.3733 212.59 74.2241 211.004 74.3408C207.949 74.5655 205.395 75.7493 203.405 77.4103C202.222 78.3979 201.261 79.5297 200.485 80.7098C198.039 80.3429 195.803 80.8845 193.974 81.8727C192.594 82.6183 191.452 83.6049 190.521 84.6602C186.805 84.13 183.361 84.9916 180.563 86.4874C180.381 86.5848 180.201 86.6853 180.023 86.7886C179.74 86.5108 179.44 86.2466 179.124 85.9969C176.972 84.2956 174.625 83.7229 172.614 83.661C167.711 81.2339 162.955 81.3373 158.968 82.9278C157.6 83.4735 156.367 84.1741 155.275 84.955C152.31 83.1315 149.078 82.5173 145.875 82.9813C143.926 83.2636 142.164 83.9193 140.633 84.744C140.617 84.7357 140.6 84.7276 140.584 84.7194C138.414 83.6338 136.152 83.5035 134.136 84.0176C132.661 84.3938 131.407 85.0809 130.371 85.8706C130.052 85.865 129.73 85.8756 129.406 85.9037C127.315 86.0846 125.615 86.9434 124.356 87.943C123.689 88.4718 123.117 89.0598 122.629 89.668C121.323 89.9777 120.217 90.5682 119.317 91.2966C118.916 91.2898 118.509 91.3114 118.098 91.3634C117.262 90.2838 116.279 89.3424 115.129 88.5907C112.81 87.0748 110.307 86.6556 108.05 86.8779C106.288 87.0515 104.677 87.6067 103.276 88.32C101.414 87.5553 99.5182 87.4766 97.81 87.8714C96.9301 88.0748 96.134 88.3916 95.4214 88.7744C91.4422 87.5812 87.6561 88.0973 84.466 90.0912C83.0674 90.9654 81.9177 92.0416 80.985 93.1803C78.5598 92.8187 76.2274 93.0745 74.193 93.6661C73.5905 93.8414 72.9983 94.0504 72.4218 94.2891C70.7706 92.708 68.7509 91.6597 66.3477 91.3425C63.8296 91.01 61.5662 91.6167 59.86 92.3403C59.3484 92.3028 58.8206 92.3149 58.28 92.3856C56.2697 92.6482 54.7752 93.6296 53.8051 94.5299C53.5928 94.727 53.3936 94.9308 53.2067 95.1392C51.229 94.425 49.304 94.415 47.6866 94.698C45.8676 95.0164 44.2486 95.7315 42.928 96.5321C40.5178 96.6133 38.4241 97.4837 37.069 98.1859C36.6631 98.3962 36.2689 98.6197 35.8886 98.8516C32.6856 97.3752 29.3605 97.2934 26.3532 98.1604C24.4294 98.715 22.7319 99.6217 21.3064 100.639C19.8402 100.221 18.3608 100.041 16.9512 100.084C15.8539 100.117 14.4663 100.313 13.0803 100.833C12.1319 100.625 11.1857 100.567 10.2904 100.626C7.90587 100.781 5.77021 101.731 4.17115 102.9C2.68658 103.984 0.841244 105.872 0.211144 108.562C-0.13437 110.037 -0.110373 111.819 0.705522 113.575C1.5122 115.311 2.84157 116.482 4.16507 117.219L5.52644 117.978H14.8239Z" fill="url(#stroke)"/>
<defs>
<linearGradient id="fill" x1="354.666" y1="6" x2="354.666" y2="111.978" gradientUnits="userSpaceOnUse">
<stop stop-color="#DAF9FF"/>
<stop offset="1" stop-color="#DAF9FF" stop-opacity="0"/>
</linearGradient>
<linearGradient id="stroke" x1="354.666" y1="-0.000488281" x2="354.666" y2="118.008" gradientUnits="userSpaceOnUse">
<stop stop-color="#CFF4FD"/>
<stop  offset="1" stop-color="#E2FFFF" stop-opacity="0"/>
</linearGradient>
</defs>
</svg>
