<svg width="50" height="16" viewBox="0 0 50 16" fill="none" xmlns="http://www.w3.org/2000/svg">
<path d="M0.0820312 12.8142C0.0820312 14.4493 3.03928 14.2525 4.5179 13.9497C6.68654 15.7665 10.6788 15.0094 12.4039 14.4038C24.2329 17.4922 27.8473 15.3879 28.1759 13.9497C32.316 17.2197 36.6369 15.6149 38.2798 14.4038C42.4199 16.4022 44.1121 14.4795 44.4407 13.2683C47.9894 14.3584 49.3694 13.2683 49.6159 12.5871C51.1931 6.77353 46.6586 5.79402 44.4407 6.17251C44.6379 2.9024 41.4066 3.86623 39.8459 4.69889C40.3387 3.41208 40.0048 0.869282 32.1189 0.324262C24.2329 -0.220757 23.3814 3.90164 23.7921 6.17251C19.4548 0.177259 12.7265 4.97663 14.4069 8.38292C12.4354 4.38611 8.48262 7.5855 9.96124 9.85655C6.01825 7.81272 4.5179 11.4517 4.5179 11.2246C4.5179 10.9975 0.0820312 10.7704 0.0820312 12.8142Z" fill="url(#fill)"/>
<defs>
<linearGradient id="fill" x1="25.0121" y1="0.275146" x2="25.0121" y2="15.9966" gradientUnits="userSpaceOnUse">
<stop stop-color="#CFF4FD"/>
<stop  offset="1" stop-color="#E2FFFF" stop-opacity="0"/>
</linearGradient>
</defs>
</svg>
