<svg viewBox="0 0 342 65" fill="none" xmlns="http://www.w3.org/2000/svg">
<path d="M6.01646 55.5905C6.18768 57.9948 11.9377 59.0633 15.0052 58.9965H329.183C335.518 59.1568 335.961 53.7205 335.39 50.9824C337.444 46.4945 333.82 43.6361 331.752 42.7679C328.499 33.9523 322.517 35.6004 319.021 37.5372C318.151 31.1859 312.491 31.843 310.967 34.9091C307.543 32.024 304.64 35.2105 303.784 36.8802C302.072 32.8731 295.155 32.483 293.228 33.3512C289.462 24.0548 283.954 26.1385 281.671 28.3424C279.103 15.1992 270.899 16.4547 267.118 18.7254C264.208 9.58927 255.918 10.1102 252.137 11.5127C245.973 5.10134 239.296 7.77279 236.728 9.90993C225.77 2.37663 216.753 7.4389 213.614 10.9117C209.676 6.10321 204.696 8.37389 202.699 10.1103C200.987 6.10321 198.847 7.7728 197.99 9.10848C193.881 4.29995 190.286 7.10492 189.002 9.10848C177.188 5.26168 172.719 12.0565 171.221 16.7314C162.489 12.0831 159.312 19.6471 158.813 23.5207C148.711 21.2767 146.263 29.411 146.406 32.9506C143.153 28.9435 139.207 31.7485 138.279 34.1527C132.629 24.5358 127.585 29.3442 125.944 32.9506C124.403 28.1421 120.944 28.5428 119.232 29.3442C114.095 22.9329 108.388 27.4743 106.177 30.5464C103.609 29.5847 102.11 31.7485 101.682 32.9506C99.9703 31.0272 97.418 33.151 96.7759 34.1527C94.5501 29.3443 91.1242 29.8117 89.2694 30.9471C71.9768 22.4521 59.7128 32.4026 56.2885 38.4132C48.1558 31.4008 35.3991 38.7726 35.8271 44.9835C26.0679 39.8544 23.8587 43.9492 24.0727 46.9545C15.8544 45.3517 13.842 48.7223 13.842 50.4587C7.6355 50.2583 5.80245 52.5852 6.01646 55.5905Z" fill="url(#fill)"/>
<path fill-rule="evenodd" clip-rule="evenodd" d="M3.5703 62.0259C2.2625 61.0901 0.255022 59.1551 0.0315246 56.0166C-0.175364 53.1114 0.631961 49.5619 3.85422 47.0736C5.63596 45.6976 7.75987 44.9729 9.99806 44.6536C10.7719 43.7203 11.7526 42.8881 12.9377 42.2227C14.9333 41.1021 17.2788 40.5655 19.9115 40.5357C20.7898 39.2965 22.0478 38.1849 23.8192 37.4153C26.4967 36.2522 29.4677 36.3295 32.5479 37.1788C32.751 36.9133 32.9587 36.6594 33.1686 36.4175C35.1055 34.186 37.7045 32.391 40.5254 31.2071C44.5762 29.5069 49.8002 28.8268 54.7588 30.644C57.4224 27.9165 61.0292 25.3323 65.4228 23.641C72.0705 21.082 80.3253 20.6435 89.4917 24.4619C90.9368 24.1308 92.5876 24.0615 94.3412 24.5007C95.7765 24.8601 97.0615 25.5034 98.1927 26.3753C98.588 26.288 99.0099 26.2231 99.4545 26.1921C99.4662 26.1831 99.4778 26.1742 99.4895 26.1653C100.647 25.2829 102.057 24.6395 103.622 24.4036C105.216 22.8943 107.317 21.4274 109.851 20.6517C112.025 19.9864 114.576 19.8229 117.222 20.6994C118.66 21.1755 119.98 21.9097 121.182 22.8551C122.21 22.834 123.315 22.9617 124.456 23.3211C125.032 23.5028 125.579 23.7311 126.097 24.0023C127.05 23.4397 128.148 22.9756 129.389 22.718C133.14 21.9397 136.393 23.2283 139.094 25.6276C139.254 25.5656 139.416 25.5073 139.58 25.4529C140.436 25.1689 141.364 24.985 142.337 24.9435C142.836 23.9964 143.446 23.0672 144.187 22.192C146.662 19.2658 150.173 17.4233 154.507 17.1689C155.279 15.5399 156.363 13.8996 157.865 12.517C159.708 10.819 162.177 9.53331 165.216 9.30351C166.2 9.22907 167.186 9.26964 168.169 9.41356C169.345 7.70298 170.909 6.03112 172.98 4.68891C176.824 2.19833 181.618 1.3483 187.221 2.44859C188.305 1.6821 189.608 1.03714 191.131 0.697579C193.719 0.120889 196.209 0.566467 198.453 1.79558C198.767 1.7231 199.097 1.66769 199.441 1.63409C201.286 1.45419 202.818 1.8885 204.073 2.64392C204.949 2.37241 205.887 2.17347 206.876 2.08205C209.097 1.87679 211.394 2.23872 213.558 3.30255C215.664 2.01575 218.216 0.9367 221.126 0.387531C225.827 -0.499678 231.199 0.0487232 236.763 2.93885C238.505 2.17711 240.548 1.62124 242.794 1.51256C246.385 1.33879 250.194 2.32934 253.737 4.94844C256.084 4.59167 258.833 4.60164 261.612 5.40065C264.868 6.3369 267.883 8.2872 270.136 11.4259C272.23 11.1347 274.553 11.2525 276.919 12.1217C280.672 13.5006 283.523 16.3741 285.442 20.4721C286.23 20.4319 287.053 20.4741 287.907 20.6204C291.606 21.2545 294.516 23.5878 296.698 26.9949C297.729 27.0487 298.814 27.1894 299.9 27.4328C301.006 27.681 302.379 28.1025 303.76 28.8043C305.21 28.0786 307.055 27.5772 309.15 27.7981C309.376 27.822 309.6 27.8537 309.821 27.8929C311.712 26.8703 313.916 26.4397 316.093 26.7526C318.63 27.1173 320.69 28.3549 322.197 30.1483C323.568 29.9485 325.056 29.9306 326.606 30.2274C330.973 31.0635 334.297 34.0404 336.474 38.549C337.764 39.427 339.091 40.6373 340.134 42.2271C341.812 44.7854 342.562 48.0931 341.528 51.653C341.682 53.6996 341.467 56.2832 340.255 58.7351C339.381 60.5023 337.976 62.2053 335.892 63.4009C333.855 64.5702 331.534 65.0456 329.116 64.9965H15.0636C12.9478 65.0339 10.1437 64.7088 7.68162 63.9613C6.45128 63.5878 4.92845 62.9976 3.5703 62.0259ZM15.0051 58.9965H329.183C335.518 59.1567 335.961 53.7205 335.39 50.9823C337.444 46.4944 333.82 43.636 331.751 42.7678C329.981 37.9693 327.402 36.271 324.855 36.032C322.723 35.832 320.614 36.6546 319.021 37.5371C318.705 35.227 317.754 33.844 316.6 33.167C315.154 32.3191 313.389 32.5781 312.146 33.5095C311.653 33.8792 311.243 34.3547 310.967 34.909C310.281 34.331 309.616 33.9967 308.984 33.8451C308.895 33.8237 308.807 33.8059 308.719 33.7916C306.323 33.4016 304.444 35.5922 303.784 36.8801C302.967 34.9688 300.967 33.8805 298.888 33.359C296.726 32.8166 294.479 32.8876 293.394 33.2839C293.335 33.3054 293.28 33.3278 293.228 33.3512C292.989 32.7596 292.742 32.2142 292.489 31.7119C290.93 28.6099 289.151 27.1546 287.453 26.6627C285.104 25.9826 282.912 27.1447 281.671 28.3423C281.186 25.8565 280.498 23.8857 279.677 22.3395C277.492 18.2239 274.361 17.1158 271.568 17.3078C269.861 17.425 268.281 18.0272 267.118 18.7253C266.391 16.4427 265.328 14.763 264.083 13.5491C260.347 9.90451 254.973 10.4605 252.137 11.5126C245.973 5.10126 239.296 7.77271 236.728 9.90985C228.217 4.05864 220.876 5.80612 216.552 8.5055C215.309 9.28151 214.315 10.1362 213.614 10.9116C212.948 10.0984 212.252 9.48771 211.546 9.04263C210.198 8.19287 208.812 7.94687 207.524 8.04839C205.498 8.20811 203.714 9.2281 202.699 10.1102C202.016 8.51187 201.265 7.81671 200.554 7.64329C200.246 7.56795 199.945 7.59107 199.66 7.68136C198.958 7.90432 198.357 8.53692 197.99 9.1084C196.539 7.41011 195.152 6.66151 193.908 6.49189C191.63 6.18123 189.832 7.81246 189.002 9.1084C181.023 6.51041 176.394 8.76623 173.768 11.9447C172.506 13.4726 171.707 15.2137 171.22 16.7313C169.512 15.8218 168.016 15.3798 166.711 15.2863C162.439 14.9801 160.216 18.4095 159.286 21.3922C159.048 22.154 158.895 22.8867 158.813 23.5206C157.742 23.2828 156.758 23.1615 155.853 23.139C152.125 23.0462 149.754 24.6304 148.319 26.6441C146.817 28.7526 146.34 31.3319 146.406 32.9505C145.425 31.7431 144.382 31.1542 143.378 30.9864C142.314 30.8088 141.294 31.1035 140.437 31.6362C139.418 32.2698 138.631 33.2401 138.279 34.1527C136.852 31.7237 135.464 30.215 134.159 29.3747C132.876 28.5479 131.673 28.3682 130.594 28.5958C128.429 29.0526 126.763 31.1512 125.944 32.9505C124.905 29.7077 122.993 28.834 121.333 28.8548C120.532 28.8648 119.789 29.0832 119.232 29.3442C114.095 22.9328 108.388 27.4742 106.177 30.5463C105.611 30.3344 105.097 30.2742 104.635 30.3221C103 30.4913 102.016 32.0133 101.682 32.9505C101.398 32.6308 101.09 32.4229 100.772 32.3031C100.391 32.1598 99.9944 32.1425 99.6047 32.2107C98.361 32.4285 97.1834 33.5167 96.7758 34.1527C95.4837 31.3612 93.7871 30.3478 92.2282 30.2109C91.1018 30.112 90.0474 30.4707 89.2693 30.947C76.0496 24.4528 65.7687 28.7385 60.1293 33.8029C58.3918 35.3632 57.0949 36.9975 56.2884 38.4131C55.0578 37.352 53.7212 36.6203 52.3405 36.164C47.2912 34.4955 41.651 36.5116 38.4382 39.578C36.7239 41.2142 35.7006 43.1494 35.827 44.9834C33.4633 43.7411 31.5425 43.0399 29.9917 42.7333C26.9228 42.1265 25.3032 43.065 24.5683 44.413C24.1413 45.1962 24.013 46.1175 24.0726 46.9545C21.5069 46.4541 19.5461 46.4384 18.0625 46.7064C14.9271 47.2729 13.9233 49.1063 13.8468 50.3089C13.8435 50.36 13.8419 50.4099 13.8419 50.4586C13.34 50.4424 12.8666 50.4427 12.4206 50.4586C7.35229 50.6391 5.81966 52.8282 6.01637 55.5904C6.18758 57.9947 11.9376 59.0632 15.0051 58.9965Z" fill="url(#stroke)"/>
<defs>
<linearGradient id="fill" x1="171" y1="6" x2="171" y2="59" gradientUnits="userSpaceOnUse">
<stop stop-color="#DAF9FF"/>
<stop offset="1" stop-color="#DAF9FF" stop-opacity="0"/>
</linearGradient>
<linearGradient id="stroke" x1="171.001" y1="-0.000244141" x2="171.001" y2="64.9999" gradientUnits="userSpaceOnUse">
<stop stop-color="#CFF4FD"/>
<stop  offset="1" stop-color="#E2FFFF" stop-opacity="0"/>
</linearGradient>
</defs>
</svg>
