<svg viewBox="0 0 399 154" fill="none" xmlns="http://www.w3.org/2000/svg">
<path d="M42.4631 126.847C51.8509 138.732 64.9337 146.027 71.6749 147.065C217.234 146.586 319.85 147.305 324.844 147.305C329.837 147.305 330.919 146.346 330.836 145.867C344.218 150.276 355.886 145.308 360.048 142.273C369.868 143.79 388.609 141.763 392.204 122.593C395.8 103.424 375.143 94.997 365.239 93.3197C365.838 82.2012 353.005 72.4048 345.764 69.0501C345.365 59.4652 339.491 63.5169 335.58 66.3125C334.381 54.6189 316.604 55.2899 313.608 59.6031C305.819 42.9254 287.726 46.9031 279.653 50.9767C276.457 48.1012 272.329 51.3761 270.665 53.3729C269.666 51.8394 267.752 52.7339 266.919 53.3729C266.52 49.1556 263.091 49.0597 261.427 49.5389C255.035 42.8295 249.609 46.7434 247.695 49.5389C244.099 47.622 241.037 51.2962 239.955 53.3729C234.961 49.3473 229.219 52.9735 226.972 55.2899C224.974 50.8808 218.429 49.7786 216.431 50.9767C217.43 42.3503 211.242 43.2289 206.998 43.5484C205.2 35.6888 195.929 36.7591 191.518 38.2767C187.124 31.9507 179.034 35.6409 175.539 38.2767C171.944 36.1681 169.047 39.1553 168.049 40.9126C160.459 36.6952 155.011 40.9126 153.762 43.5484C154.162 33.005 146.327 31.8069 141.833 32.5258C135.441 23.8994 125.521 25.5768 121.36 27.4937C119.862 24.139 118.114 18.6278 89.6514 9.28251C66.8812 1.80632 48.705 14.4743 42.4631 21.7428C19.8927 26.9187 19.8522 42.5899 20.9341 50.9767C13.9432 52.8937 13.4438 60.7818 13.9431 64.2962C-6.03076 90.8943 16.4401 105.27 29.1734 109.583C27.1761 119.743 36.9703 125.649 42.4631 126.847Z" fill="url(#fill)"/>
<path fill-rule="evenodd" clip-rule="evenodd" d="M71.2253 153.066L70.7615 152.995C66.2072 152.294 60.4269 149.72 54.7898 146.053C49.4873 142.604 43.8808 137.909 39.0107 132.108C35.6624 130.996 31.8398 128.902 28.759 125.81C25.7712 122.811 23.3264 118.672 22.9548 113.59C16.5381 110.759 8.89334 105.896 4.22091 98.5015C1.22841 93.7658 -0.511913 88.0224 0.134133 81.4038C0.717687 75.4254 3.20664 69.1363 7.80528 62.5434C7.76955 60.3399 8.04301 57.6702 8.97229 55.0392C9.94171 52.2944 11.7088 49.4368 14.6112 47.3945C14.4523 43.1202 14.9133 37.7775 17.4205 32.5577C20.8719 25.3726 27.6889 19.4282 39.2649 16.3536C47.4506 7.90418 67.1121 -4.43303 91.5231 3.58187C105.931 8.31262 114.166 12.2498 119.088 15.7401C121.308 17.314 122.93 18.8487 124.152 20.3901C126.349 19.9749 128.829 19.8063 131.418 20.0922C135.799 20.5757 140.493 22.3754 144.438 26.363C147.034 26.423 150.036 27.0089 152.788 28.7105C154.795 29.9515 156.413 31.6214 157.585 33.6753C160.297 32.9379 163.327 32.8989 166.503 33.8014C166.955 33.466 167.441 33.1512 167.964 32.8685C169.877 31.8328 172.223 31.2812 174.708 31.6828C176.817 30.5043 179.445 29.4202 182.282 28.9853C185.786 28.448 189.929 28.9168 193.407 31.6141C195.769 31.1898 198.519 31.0185 201.242 31.4807C203.519 31.8671 206.048 32.7456 208.256 34.5648C209.234 35.3707 210.084 36.3083 210.793 37.3663C212.243 37.3986 214.13 37.59 216.001 38.3745C218.22 39.3051 220.252 41.0095 221.448 43.6719C221.627 44.0695 221.781 44.4748 221.912 44.8865C222.449 45.0015 222.985 45.1432 223.514 45.311C224.859 45.737 226.36 46.4016 227.788 47.3747C228.699 46.9141 229.685 46.5094 230.73 46.1999C232.985 45.5325 235.605 45.3032 238.272 45.9592C238.643 45.6346 239.038 45.3228 239.458 45.0314C241.057 43.92 243.222 43.0017 245.663 42.9961C247.24 41.7107 249.255 40.5914 251.681 40.0959C255.72 39.2707 259.826 40.3771 263.56 43.3636C264.673 43.4325 265.871 43.6772 267.066 44.2038C268.138 44.676 269.083 45.3187 269.884 46.1058C270.597 45.634 271.373 45.1995 272.203 44.8404C274.261 43.9506 277.058 43.4156 279.874 44.3074C284.538 42.4461 290.821 40.9559 297.27 41.5319C303.979 42.131 310.809 45.0028 315.785 51.5988C316.132 51.5001 316.467 51.415 316.786 51.3413C319.643 50.6813 322.948 50.5338 326.169 51.0233C330.324 51.6544 335.317 53.6144 338.487 57.739C339.401 57.4088 340.419 57.1469 341.5 57.0585C344.272 56.8317 347.341 57.7971 349.418 60.6713C350.394 62.0222 350.982 63.5772 351.329 65.1865C355.02 67.2987 359.225 70.38 362.795 74.1446C366.286 77.8256 369.69 82.7226 370.846 88.45C376.018 89.9004 382.254 92.5329 387.508 96.6925C394.696 102.383 400.418 111.35 398.102 123.699C395.894 135.469 388.811 142.299 380.814 145.71C374.14 148.556 366.96 149 361.467 148.489C355.576 151.908 344.502 155.584 331.82 152.396C331.768 152.414 331.718 152.431 331.668 152.448C329.88 153.054 327.605 153.305 324.844 153.305C324.197 153.305 321.965 153.293 318.26 153.273C292.92 153.141 198.689 152.647 71.6947 153.065L71.2253 153.066ZM330.727 146.196C330.823 146.075 330.852 145.962 330.836 145.867C332.837 146.526 334.799 146.976 336.704 147.253C347.54 148.833 356.509 144.854 360.048 142.273C369.868 143.79 388.609 141.763 392.204 122.593C395.8 103.424 375.143 94.997 365.239 93.3196C365.838 82.2012 353.005 72.4047 345.764 69.05C345.536 63.5773 343.523 62.5503 341.11 63.1967C339.297 63.6825 337.258 65.1131 335.58 66.3124C335.34 63.9709 334.435 62.1252 333.117 60.7052C329.723 57.0476 323.59 56.2145 319.019 57.0093C316.502 57.4469 314.459 58.3781 313.608 59.603C312.655 57.5627 311.548 55.8315 310.324 54.3718C301.542 43.9 286.738 47.4014 279.653 50.9766C278.386 49.8364 276.972 49.6633 275.623 49.994C274.574 50.2512 273.565 50.8133 272.694 51.4623C272.037 51.9519 271.46 52.491 271.004 52.986C270.882 53.1187 270.768 53.2483 270.665 53.3729C270.583 53.2471 270.495 53.1376 270.401 53.043C270.213 52.8522 270.005 52.7218 269.785 52.6397C268.785 52.2665 267.546 52.892 266.919 53.3729C266.677 50.8102 265.315 49.7693 263.911 49.4546C263.004 49.2514 262.08 49.3509 261.427 49.5389C255.035 42.8295 249.609 46.7433 247.695 49.5389C245.694 48.4721 243.858 49.1369 242.437 50.2943C241.304 51.2166 240.435 52.4518 239.955 53.3729C238.983 52.5893 237.982 52.0957 236.985 51.8258C235.286 51.3662 233.596 51.5558 232.069 52.0681C229.886 52.8004 228.036 54.1922 226.972 55.2898C226.208 53.6047 224.781 52.4027 223.196 51.6274C222.945 51.5044 222.69 51.3921 222.432 51.2903C220.069 50.3556 217.544 50.3091 216.432 50.9766C216.78 47.9701 216.255 46.1182 215.243 44.9948C213.479 43.0345 210.233 43.2922 207.56 43.5045C207.369 43.5196 207.182 43.5345 206.998 43.5484C205.2 35.6887 195.929 36.7591 191.518 38.2767C187.124 31.9507 179.034 35.6408 175.539 38.2767C171.944 36.168 169.047 39.1553 168.049 40.9125C164.743 39.0755 161.843 38.8388 159.52 39.3748C156.509 40.0692 154.467 42.0607 153.762 43.5484C153.883 40.3659 153.253 38.035 152.192 36.3511C149.737 32.4564 144.971 32.0239 141.833 32.5257C135.573 24.0772 125.929 25.512 121.624 27.3755C121.534 27.4148 121.446 27.4542 121.36 27.4937C121.319 27.4023 121.278 27.3093 121.236 27.2146C121.08 26.8592 120.913 26.4809 120.708 26.0776C118.961 22.6466 114.427 17.417 89.6514 9.28247C66.8812 1.80627 48.705 14.4743 42.4631 21.7428C19.8927 26.9186 19.8522 42.5899 20.9341 50.9766C13.9432 52.8936 13.4438 60.7817 13.9431 64.2962C-6.03076 90.8942 16.4401 105.27 29.1734 109.583C27.1761 119.743 36.9703 125.649 42.4631 126.847C51.8509 138.732 64.9337 146.027 71.6749 147.065C198.781 146.646 293.141 147.142 318.349 147.274C322.008 147.293 324.211 147.305 324.844 147.305C328.85 147.305 330.338 146.688 330.727 146.196Z" fill="url(#stroke)"/>
<defs>
<linearGradient id="fill" x1="199.31" y1="7" x2="199.31" y2="147.613" gradientUnits="userSpaceOnUse">
<stop stop-color="#DAF9FF"/>
<stop offset="1" stop-color="#DAF9FF" stop-opacity="0"/>
</linearGradient>
<linearGradient id="stroke" x1="199.312" y1="0.986328" x2="199.312" y2="153.617" gradientUnits="userSpaceOnUse">
<stop stop-color="#CFF4FD"/>
<stop  offset="1" stop-color="#E2FFFF" stop-opacity="0"/>
</linearGradient>
</defs>
</svg>
