<svg viewBox="0 0 117 28" fill="none" xmlns="http://www.w3.org/2000/svg">
<path d="M1.26834 20.5161C3.80967 29.4188 22.1397 28.0279 27.4969 24.9156C33.1463 28.7372 38.2082 26.5079 39.9127 24.9156C45.3673 28.7372 49.793 26.7509 51.3353 25.1586C69.2575 30.196 85.6275 27.0145 91.0659 24.9156C107.43 29.953 114.175 27.392 115.961 25.2931C118.629 21.0277 110.166 20.0556 104.972 20.0557C104.582 18.1449 101.385 18.0653 100.005 18.3548C100.59 14.8806 96.9107 15.1493 95.2873 15.4389C93.5827 12.8332 87.0988 12.3453 84.858 12.7659C86.0755 9.29177 80.8609 9.07972 79.6433 10.093C81.262 7.20635 73.5742 6.34534 71.4489 7.90608C71.0593 2.86842 66.8534 2.92817 64.5807 3.79681C61.0741 -0.893299 57.4377 1.8426 56.0578 3.79681C39.1096 -3.84637 28.866 3.07291 25.8628 7.48795C20.9926 4.01378 -2.14071 8.57357 1.26834 20.5161Z" fill="url(#fill)"/>
<defs>
<linearGradient id="fill" x1="58.698" y1="0.373291" x2="58.698" y2="27.8541" gradientUnits="userSpaceOnUse">
<stop stop-color="#CFF4FD"/>
<stop  offset="1" stop-color="#E2FFFF" stop-opacity="0"/>
</linearGradient>
</defs>
</svg>
