<svg viewBox="0 0 140 32" fill="none" xmlns="http://www.w3.org/2000/svg">
<path d="M6.37492 27.7012C8.17466 30.0766 12.9364 30.014 14.8528 29.5898C17.8524 31.4561 20.2325 29.6605 21.149 28.7415C25.1484 30.7775 29.5827 29.6605 31.4157 28.7415C34.2153 30.7775 39.5161 30.5128 41.6825 29.9472C50.6812 31.6439 52.7838 29.4022 52.7004 28.2003C60.4493 31.1696 65.3455 31.9228 68.0951 30.8624C69.7336 30.2305 71.5946 28.013 72.3445 26.9525C79.5435 31.1943 84.3379 28.7199 85.7543 26.9525C90.5536 27.6312 93.0162 27.4516 94.2682 26.4534C103.767 27.231 123.778 27.4615 130.577 26.9525C145.355 25.8461 140.044 25.7047 128.825 25.7047C128.825 24.008 125.504 24.4996 122.837 24.7117C121.837 22.6755 118.054 23.8633 116.555 24.7117C115.755 21.8272 110.792 21.1794 109.042 21.4622C110.242 20.2744 108.289 18.8584 107.289 18.717C108.889 17.1899 105.616 16.4334 103.533 16.2214C103.533 12.6584 92.7582 12.9055 86.5925 12.8347C85.9926 7.57492 80.6767 8.38075 78.0937 9.44114C78.2937 6.21725 74.3442 6.11846 72.3445 6.47205C71.3447 5.11477 68.5951 5.48215 67.3453 5.83551C67.5452 3.96899 64.2624 3.50265 62.5959 3.50279C62.7626 2.72501 62.046 0.957344 57.8466 0.108985C53.6472 -0.739374 50.7643 3.57318 49.8478 5.83551C48.048 4.6478 46.5982 6.89606 46.0983 8.16866C44.0986 7.15067 43.0988 9.44121 42.8488 10.7137C42.4488 7.99906 39.6826 8.73423 38.3494 9.44114C36.9496 6.72617 34.4333 8.30991 33.3502 9.44114C30.7505 7.74442 27.7676 11.8448 26.6011 14.1071C24.8014 12.5801 22.8517 14.7433 22.1018 16.0158C18.7023 13.9798 15.8527 17.854 14.8528 20.0456C11.8533 17.8398 8.27045 20.3991 6.85398 21.9544C5.25421 21.4454 4.35435 23.5805 4.10438 24.7117C2.50461 23.524 0.554784 23.9578 0.104958 24.7117C-0.636482 25.9543 2.66556 27.8271 6.37492 27.7012Z" fill="url(#fill)"/>
<defs>
<linearGradient id="fill" x1="69.8129" y1="0" x2="69.8129" y2="31.3178" gradientUnits="userSpaceOnUse">
<stop stop-color="#CFF4FD"/>
<stop  offset="1" stop-color="#E2FFFF" stop-opacity="0"/>
</linearGradient>
</defs>
</svg>
