<svg width="2360" height="2945" viewBox="0 0 2360 2945" fill="none" xmlns="http://www.w3.org/2000/svg">
<rect x="409.502" y="261.11" width="1572" height="2452" stroke="#FED652" stroke-width="37"/>
<path d="M692.113 201.367C635.581 207.124 400.144 231.104 311.189 239.578C209.769 249.225 104.079 209.69 104.079 209.69C117.981 222.01 178.243 250.569 303.89 261.295C381.66 267.912 462.177 252.808 541.967 237.84C591.075 228.628 639.909 219.467 687.657 215.454L698.431 205.604L696.032 200.968L692.113 201.367Z" fill="#71A138"/>
<path d="M675.13 358.941C677.753 341.198 681.114 321.354 684.618 301.867C684.987 306.387 685.682 310.02 686.757 312.377C695.701 367.05 728.629 402.744 747.106 422.773C749.447 425.31 751.556 427.596 753.355 429.638C767.216 445.396 791.774 459.653 798.066 463.171C798.562 463.473 799.063 463.752 799.575 464.005C799.575 464.005 799.046 463.719 798.066 463.171C789.978 458.225 784.021 446.403 777.293 433.051C773.794 426.107 770.085 418.747 765.761 411.727C752.632 390.4 724.618 315.893 710.624 276.535C700.738 248.71 701.713 225.752 703.128 214.664L698.527 205.807L681.574 222.182C681.574 222.182 635.342 351.13 636.032 407.384C637.34 513.367 663.726 556.959 675.023 575.621C675.261 576.015 675.493 576.398 675.718 576.77C676.086 577.381 676.436 577.962 676.764 578.516C693.333 606.458 724.163 630.257 724.163 630.257C724.163 630.257 649.022 535.652 675.13 358.941Z" fill="#71A138"/>
<path d="M592.048 514.248C581.808 549.445 581.258 593.466 581.796 615.948C582.02 625.061 582.421 630.647 582.421 630.647C551.595 513.167 595.471 356.82 609.102 331.771C612.287 325.916 616.218 318.534 620.503 310.485C634.543 284.113 652.392 250.588 660.326 240.193C660.326 240.193 621.809 411.972 592.048 514.248Z" fill="#71A138"/>
<path d="M673.501 852.583C656.498 830.595 629.409 795.565 615.043 768.273C531.185 608.915 547.878 375.093 547.878 375.093C547.116 376.854 545.9 379.268 544.369 382.306L544.368 382.308C532.832 405.21 503.424 463.593 515.448 545.589C515.819 548.123 516.184 550.621 516.544 553.087L516.544 553.09C529.379 640.981 535.992 686.267 585.547 762.252C626.655 825.299 647.097 842.73 658.489 852.443C661.212 854.765 663.417 856.645 665.264 858.602C666.07 859.455 666.943 860.375 667.869 861.351L667.898 861.381C677.996 872.021 694.416 889.321 699.067 899.886C704.129 911.43 696.574 884.053 686.386 869.579C683.82 865.927 679.234 859.996 673.501 852.583Z" fill="#71A138"/>
<path d="M541.216 813.551L541.217 813.556L541.89 816.88C551.506 864.41 565.594 905.986 580.103 932.848C597.287 964.656 612.395 981.299 612.395 981.299C551.721 932.366 492.712 761.796 476.136 638.344C470.86 599.023 472.33 499.683 483.256 477.328C483.256 477.328 501.049 607.063 504.793 629.57C508.455 651.687 527.665 746.599 541.206 813.503L541.212 813.531L541.216 813.551Z" fill="#71A138"/>
<path d="M501.587 868.112C496.691 840.852 470.166 704.246 460.07 664.424C447.968 616.543 446.377 572.379 446.377 572.379C438.862 604.145 438.661 723.263 461.434 834.904C484.191 946.52 503.753 974.412 513.321 985.799C513.321 985.799 513.139 981.788 512.764 975.017C511.553 953.726 508.236 905.132 501.587 868.112Z" fill="#71A138"/>
<path d="M420.255 807.814C441.458 882.588 462.078 962.404 472.759 1036.17C476.813 1064.17 482.247 1085.75 487.838 1102.22C497.909 1131.84 508.492 1144.95 512.55 1149.18C506.923 1143.51 487.887 1122.18 461.549 1070.02C429.924 1007.39 404.098 892.335 398.817 851.543C393.527 810.758 398.161 768.199 400.446 754.017C402.068 743.957 404.051 718.965 405.906 695.598L405.907 695.589C406.664 686.044 407.4 676.769 408.081 668.896C408.081 668.896 403.838 749.949 420.255 807.814Z" fill="#71A138"/>
<path d="M514.265 1150.83C514.265 1150.83 513.684 1150.32 512.55 1149.18C513.654 1150.34 514.265 1150.83 514.265 1150.83Z" fill="#71A138"/>
<path d="M386.012 947.502C421.098 1073.2 500.475 1172.37 528.91 1202.4C557.355 1232.45 558.124 1260.99 558.124 1260.99C496.254 1252.25 410.134 1143.64 379.662 1066.72C342.984 974.104 358.987 893.373 368.774 854.941C354.561 874.592 321.054 919.112 279.862 961.789C132.303 1114.68 4.40773 1145.47 4.40773 1145.47C3.10813 1143.59 18.5853 1133.95 41.1786 1119.88L42.5597 1119.02C77.9512 1096.94 129.926 1064.4 162.634 1033.71C170.533 1026.29 178.38 1017.7 187.019 1008.24C209.752 983.343 237.971 952.439 287.063 921.201C333.601 891.59 358.235 866.5 369.093 853.691C369.961 850.316 370.773 847.287 371.487 844.626L371.539 844.43C371.539 844.43 371.715 846.505 372.047 850.097C373.227 848.612 374.131 847.406 374.784 846.504C374.117 847.458 373.208 848.75 372.07 850.348C373.74 868.412 379.189 923.083 386.012 947.502Z" fill="#71A138"/>
<path d="M376.133 844.57C376.133 844.57 375.709 845.236 374.784 846.504C375.682 845.237 376.133 844.57 376.133 844.57Z" fill="#71A138"/>
<path d="M292.452 1126.65C299.491 1095.58 308.3 1056.71 317.519 1024.2C331.926 973.325 347.953 939.962 347.953 939.962C340.441 948.26 309.891 1014.66 290.561 1056.67C282.521 1074.14 276.423 1087.4 274.729 1090.5C267.341 1104.12 253.363 1132.23 231.083 1189.4C231.083 1189.4 171.737 1333.71 156.693 1405.53C156.693 1405.53 194.309 1367.62 213.172 1342.28C232.004 1316.94 268.076 1217.2 280.499 1176.34C283.225 1167.37 287.379 1149.03 292.452 1126.65Z" fill="#71A138"/>
<path d="M174.304 750.882C359.987 725.373 408.081 668.896 408.081 668.896C408.081 668.896 407.018 680.357 405.785 683.87C376.409 767.827 257.718 771.158 211.11 772.466C202.674 772.703 196.6 772.874 193.844 773.444C175.873 777.186 117.225 763.753 117.225 763.753C96.4316 760.898 84.4694 751.805 62.9993 726.5C62.9993 726.5 104.855 760.421 174.304 750.882Z" fill="#71A138"/>
<path d="M105.031 542.995C323.301 590.334 456.924 529.142 456.924 529.142L453.238 538.023C453.238 538.023 445.497 568.093 380.445 584.557C348.036 592.767 296.003 596.122 234.332 593.619C124.992 589.16 19.0203 517.917 19.0203 517.917C29.8449 518.013 43.1181 522.877 58.7534 528.608C72.3991 533.609 87.844 539.27 105.031 542.995Z" fill="#71A138"/>
<path d="M277.271 633.321C262.209 635.764 248.928 637.919 240.03 639.582C207.705 645.637 137.849 680.574 137.849 680.574C152.573 677.294 181.389 674.403 181.389 674.403C181.389 674.403 229.24 666.253 280.68 662.162C388.379 653.609 427.236 593.056 427.236 593.056C427.236 593.056 438.661 577.298 431.837 581.674C430.065 582.809 427.68 584.749 424.714 587.162L424.71 587.165L424.706 587.169C416.232 594.063 403.014 604.817 385.779 611.712C368.907 618.458 316.919 626.89 277.271 633.321Z" fill="#71A138"/>
<path d="M621.58 282.918C621.58 282.918 602.668 308.543 597.528 312.32C574.484 313.939 549.607 316.937 523.248 321.89C470.759 331.744 425.168 347.005 387.353 362.991C387.554 362.862 387.757 362.732 387.96 362.601C388.387 362.327 388.816 362.051 389.238 361.784C500.886 291.278 621.58 282.918 621.58 282.918Z" fill="#71A138"/>
<path d="M68.8397 456.291C65.5223 455.701 62.3681 455.14 59.3888 454.668C57.7845 454.43 56.6713 454.412 56.2723 454.664C54.3834 455.867 68.2785 462.733 120.282 475.613C183.352 491.252 296.454 501.767 356.915 490.966C464.881 471.689 506.74 435.733 506.74 435.733L511.373 427.719C487.965 443.838 340.723 449.848 294.819 446.991C255.912 444.577 181.833 453.573 143.746 458.198L143.743 458.199L143.734 458.2C136.904 459.029 131.233 459.718 127.129 460.175C104.767 462.678 84.8928 459.145 68.8397 456.291Z" fill="#71A138"/>
<path d="M330.87 856.651C313.132 871.606 192.404 965.869 105.001 1006.64C70.0698 1022.94 3.5817 1065.67 3.5817 1065.67C16.2952 1052.29 93.5502 990.779 128.29 970.271C163.04 949.764 333.462 837.769 351.278 825.627C368.743 813.713 378.929 795.369 379.311 794.681L379.315 794.674C378.871 795.486 357.853 833.941 330.87 856.651Z" fill="#71A138"/>
<path d="M680.456 225.342C656.819 246.799 634.142 269.622 612.728 294.6C607.909 300.818 602.277 307.827 599.003 311.024C579.854 334.462 561.681 358.905 544.593 384.241C536.423 409.909 517.967 489.068 548.425 614.857C560.495 664.747 572.069 701.687 583.641 730.33C581.678 691.99 582.419 630.65 582.419 630.65C582.419 630.65 582.021 625.064 581.797 615.947C581.797 615.947 589.215 648.158 596.729 686.281C601.99 712.978 606.599 748.505 609.658 782.385C624.573 806.16 640.064 822.257 657.119 839.979L657.349 840.217C658.808 841.734 660.278 843.262 661.761 844.808C688.398 872.595 699.065 899.889 699.065 899.889C694.423 889.336 678.032 872.064 667.933 861.421L667.897 861.383C666.961 860.396 666.079 859.467 665.266 858.605C663.419 856.649 661.214 854.769 658.492 852.449C649.755 845 635.696 833.014 611.073 799.392C611.721 807.923 612.255 816.226 612.661 824.12C614.883 867.725 616.478 914.097 616.478 914.097C616.478 914.097 607.629 893.947 605.006 865.907C603.819 853.19 600.677 837.682 597.103 820.042C593.708 803.285 589.923 784.603 587.053 764.562C586.553 763.8 586.051 763.031 585.545 762.255C535.991 686.272 529.377 640.982 516.543 553.098C516.183 550.63 515.817 548.128 515.446 545.592C504.736 472.558 526.896 418.258 540.022 391.077C519.628 421.854 500.829 453.916 483.815 487.065C452.79 547.479 427.55 611.592 408.403 677.77C408.838 693.06 409.26 725.995 406.387 759.786C403.976 788.141 409.521 813.859 418.268 854.434C423.79 880.047 430.589 911.581 437.468 953.436C455.239 1061.59 514.264 1150.84 514.264 1150.84C514.264 1150.84 493.18 1132.65 461.548 1070.02C429.923 1007.39 404.097 892.339 398.817 851.547C393.526 810.762 398.161 768.203 400.445 754.017C402.068 743.958 404.052 718.958 405.906 695.585C406.247 691.291 406.584 687.052 406.913 682.97C404.895 690.074 402.947 697.202 401.07 704.35C385.577 763.361 378.782 822.268 371.882 882.087C370.578 893.393 369.27 904.733 367.899 916.112C370.138 961.73 381.225 1023.48 417.406 1084.25C487.692 1202.32 558.124 1260.99 558.124 1260.99C496.251 1252.25 410.134 1143.64 379.662 1066.72C361.147 1019.97 356.055 976.253 356.812 939.471C345.307 1008.04 329.542 1144.51 332.809 1178.48C334.608 1197.16 336.321 1210.82 337.713 1221.93C337.873 1223.21 338.03 1224.46 338.181 1225.68C340.132 1241.13 341.384 1251.71 341.279 1265.09C341.279 1265.09 295.836 1190.84 318.865 1052.66C320.274 1044.2 321.605 1035.83 322.894 1027.72L322.895 1027.72L322.9 1027.69L322.9 1027.68C325.467 1011.54 327.869 996.427 330.402 983.704C326.276 995.356 321.824 1009 317.518 1024.2C308.299 1056.71 299.49 1095.58 292.45 1126.65C287.377 1149.03 283.223 1167.37 280.497 1176.34C268.078 1217.21 232.003 1316.94 213.17 1342.29C194.311 1367.62 156.691 1405.54 156.691 1405.54C156.691 1405.54 196.997 1342 223.153 1280.41C243.18 1233.26 276.029 1129.81 292.375 1078.33C297.383 1062.56 300.842 1051.67 301.908 1048.77C311.546 1022.52 323.266 994.874 332.472 974.019C334.226 966.439 336.074 960.086 338.105 955.363C342.657 944.79 351.836 926.725 358.254 914.332C359.112 905.195 360.275 896.653 361.585 888.787C361.812 884.582 362.087 880.367 362.408 876.146C349.224 903.76 327.499 942.826 301.461 965.056C278.883 984.319 259.117 1004.11 240.65 1022.6L240.648 1022.6C223.692 1039.58 207.832 1055.46 191.899 1068.82C139.558 1112.74 10.0537 1153.72 4.40771 1145.47C3.10796 1143.58 18.5877 1133.94 41.184 1119.87L42.5596 1119.02C77.9512 1096.94 129.926 1064.41 162.634 1033.71C170.53 1026.3 178.374 1017.71 187.01 1008.25C209.743 983.351 237.963 952.444 287.063 921.202C327.291 895.601 351.151 873.381 363.897 859.554C365.62 842.839 368.001 826.07 370.863 809.395C359.968 827.975 340.916 859.031 328.211 871.782C318.717 881.304 301.369 893.444 283.034 906.275C265.264 918.71 246.566 931.795 233.193 943.774C206.019 968.127 123.817 1014.71 92.4765 1029.55C61.1428 1044.41 1.63584 1067.7 3.58112 1065.67C16.2946 1052.3 93.5496 990.779 128.289 970.272C163.039 949.765 333.462 837.769 351.277 825.631C359.823 819.805 366.628 812.435 371.392 806.346C377.931 769.032 386.826 732.237 396.087 697.629C409.965 645.806 427.614 595.299 448.709 546.592C441.521 556.739 423.585 573.642 380.444 584.56C348.035 592.774 296.002 596.125 234.335 593.622C124.992 589.163 19.0194 517.92 19.0194 517.92C19.0194 517.92 182.112 600.497 335.27 578.06C406.346 567.654 445.223 543.417 452.121 538.795C461.049 518.616 470.569 498.752 480.659 479.239C487.63 465.754 494.918 452.303 502.514 438.936C489.493 448.162 445.411 475.169 356.914 490.97C296.453 501.771 183.351 491.256 120.281 475.617C68.2779 462.737 54.3828 455.871 56.2717 454.667C56.6707 454.416 57.7839 454.434 59.3882 454.672C59.3882 454.672 101.247 462.836 154.301 470.088C196.912 475.922 248.208 472.496 290.205 469.69C304.621 468.727 317.944 467.838 329.442 467.421C431.209 463.73 489.815 442.609 503.578 437.068C525.196 399.19 549.283 362.008 575.614 326.648C558.084 337.312 534.047 350.144 517.963 351.735C505.895 352.932 490.088 356.087 472.575 359.583C451.688 363.752 428.374 368.405 406.084 370.799C365.104 375.221 340.279 389.324 324.871 399.697C324.871 399.697 328.209 392.852 343.704 383.061C344.492 382.57 345.3 382.067 346.148 381.567C370.313 367.037 387.353 362.996 387.353 362.996C478.01 305.111 575.133 288.485 609.047 284.237C628.815 260.568 649.647 238.025 671.465 217C628.897 221.534 585.547 229.666 541.98 237.839C462.185 252.808 381.664 267.914 303.887 261.294C178.244 250.572 117.982 222.013 104.08 209.692C104.08 209.692 149.466 218.288 202.358 219.195C250.416 220.027 304.84 213.562 334.109 206.969C407.735 190.394 530.928 179.046 583.012 191.973C619.894 201.105 665.418 201.394 688.847 200.766C719.151 173.35 751.234 148.917 784.9 128.443C790.21 125.211 794.477 133.714 789.535 137.393C754.102 163.681 719.644 190.373 686.944 219.508C683.577 238.581 669.106 320.446 660.559 366.791C650.839 419.498 653.007 455.179 667.961 519.973C682.935 584.811 724.164 630.262 724.164 630.262C724.164 630.262 693.33 606.462 676.765 578.517C676.237 577.627 675.655 576.666 675.026 575.628C663.731 556.971 637.34 513.379 636.032 407.388C635.407 356.343 673.413 245.441 680.456 225.342Z" fill="#71A138"/>
<path d="M470.817 788.807C490.324 891.417 513.319 985.801 513.319 985.801C503.754 974.414 484.189 946.522 461.435 834.906C438.658 723.265 438.859 604.147 446.374 572.385C446.374 572.385 451.889 689.256 470.817 788.807Z" fill="#71A138"/>
<path d="M593.741 1048.28L593.731 1048.27L593.729 1048.27L593.724 1048.27C577.983 1037.37 562.302 1026.51 550.274 1017.44C516.492 991.976 512.763 975.02 512.763 975.02C513.138 981.791 513.319 985.801 513.319 985.801C513.319 985.801 539.608 1041.48 586.217 1068.6C614.516 1085.07 658.496 1097.49 658.496 1097.49C650.874 1087.84 622.211 1067.99 593.743 1048.28L593.741 1048.28Z" fill="#71A138"/>
<path d="M614.838 961.273C635.093 975.259 718.713 1039.83 733.27 1057.87C733.27 1057.87 711.69 1042.01 686.751 1033.19C661.809 1024.39 628.586 1005.22 612.392 981.302C612.392 981.302 597.284 964.654 580.1 932.851C580.1 932.851 594.583 947.284 614.838 961.273Z" fill="#71A138"/>
<path d="M700.113 201.367C643.581 207.124 408.144 231.104 319.189 239.578C217.769 249.225 112.079 209.69 112.079 209.69C125.981 222.01 186.243 250.569 311.89 261.295C389.66 267.912 470.177 252.808 549.967 237.84C599.075 228.628 647.909 219.467 695.657 215.454L706.431 205.604L704.032 200.968L700.113 201.367Z" fill="#B1D387"/>
<path d="M683.13 358.941C685.753 341.198 689.114 321.354 692.618 301.867C692.987 306.387 693.682 310.02 694.757 312.377C703.701 367.05 736.629 402.744 755.106 422.773C757.447 425.31 759.556 427.596 761.355 429.638C775.216 445.396 799.774 459.653 806.066 463.171C806.562 463.473 807.063 463.752 807.575 464.005C807.575 464.005 807.046 463.719 806.066 463.171C797.978 458.225 792.021 446.403 785.293 433.051C781.794 426.107 778.085 418.747 773.761 411.727C760.632 390.4 732.618 315.893 718.624 276.535C708.738 248.71 709.713 225.752 711.128 214.664L706.527 205.807L689.574 222.182C689.574 222.182 643.342 351.13 644.032 407.384C645.34 513.367 671.726 556.959 683.023 575.621C683.261 576.015 683.493 576.398 683.718 576.77C684.086 577.381 684.436 577.962 684.764 578.516C701.333 606.458 732.163 630.257 732.163 630.257C732.163 630.257 657.022 535.652 683.13 358.941Z" fill="#B1D387"/>
<path d="M600.048 514.248C589.808 549.445 589.258 593.466 589.796 615.948C590.02 625.061 590.421 630.647 590.421 630.647C559.595 513.167 603.471 356.82 617.102 331.771C620.287 325.916 624.218 318.534 628.503 310.485C642.543 284.113 660.392 250.588 668.326 240.193C668.326 240.193 629.809 411.972 600.048 514.248Z" fill="#B1D387"/>
<path d="M681.501 852.583C664.498 830.595 637.409 795.565 623.043 768.273C539.185 608.915 555.878 375.093 555.878 375.093C555.116 376.854 553.9 379.268 552.369 382.306L552.368 382.308C540.832 405.21 511.424 463.593 523.448 545.589C523.819 548.123 524.184 550.621 524.544 553.087L524.544 553.09C537.379 640.981 543.992 686.267 593.547 762.252C634.655 825.299 655.097 842.73 666.489 852.443C669.212 854.765 671.417 856.645 673.264 858.602C674.07 859.455 674.943 860.375 675.869 861.351L675.898 861.381C685.996 872.021 702.416 889.321 707.067 899.886C712.129 911.43 704.574 884.053 694.386 869.579C691.82 865.927 687.234 859.996 681.501 852.583Z" fill="#B1D387"/>
<path d="M549.216 813.551L549.217 813.556L549.89 816.88C559.506 864.41 573.594 905.986 588.103 932.848C605.287 964.656 620.395 981.299 620.395 981.299C559.721 932.366 500.712 761.796 484.136 638.344C478.86 599.023 480.33 499.683 491.256 477.328C491.256 477.328 509.049 607.063 512.793 629.57C516.455 651.687 535.665 746.599 549.206 813.503L549.212 813.531L549.216 813.551Z" fill="#B1D387"/>
<path d="M509.587 868.112C504.691 840.852 478.166 704.246 468.07 664.424C455.968 616.543 454.377 572.379 454.377 572.379C446.862 604.145 446.661 723.263 469.434 834.904C492.191 946.52 511.753 974.412 521.321 985.799C521.321 985.799 521.139 981.788 520.764 975.017C519.553 953.726 516.236 905.132 509.587 868.112Z" fill="#B1D387"/>
<path d="M428.255 807.814C449.458 882.588 470.078 962.404 480.759 1036.17C484.813 1064.17 490.247 1085.75 495.838 1102.22C505.909 1131.84 516.492 1144.95 520.55 1149.18C514.923 1143.51 495.887 1122.18 469.549 1070.02C437.924 1007.39 412.098 892.335 406.817 851.543C401.527 810.758 406.161 768.199 408.446 754.017C410.068 743.957 412.051 718.965 413.906 695.598L413.907 695.589C414.664 686.044 415.4 676.769 416.081 668.896C416.081 668.896 411.838 749.949 428.255 807.814Z" fill="#B1D387"/>
<path d="M522.265 1150.83C522.265 1150.83 521.684 1150.32 520.55 1149.18C521.654 1150.34 522.265 1150.83 522.265 1150.83Z" fill="#B1D387"/>
<path d="M394.012 947.502C429.098 1073.2 508.475 1172.37 536.91 1202.4C565.355 1232.45 566.124 1260.99 566.124 1260.99C504.254 1252.25 418.134 1143.64 387.662 1066.72C350.984 974.104 366.987 893.373 376.774 854.941C362.561 874.592 329.054 919.112 287.862 961.789C140.303 1114.68 12.4077 1145.47 12.4077 1145.47C11.1081 1143.59 26.5853 1133.95 49.1786 1119.88L50.5597 1119.02C85.9512 1096.94 137.926 1064.4 170.634 1033.71C178.533 1026.29 186.38 1017.7 195.019 1008.24C217.752 983.343 245.971 952.439 295.063 921.201C341.601 891.59 366.235 866.5 377.093 853.691C377.961 850.316 378.773 847.287 379.487 844.626L379.539 844.43C379.539 844.43 379.715 846.505 380.047 850.097C381.227 848.612 382.131 847.406 382.784 846.504C382.117 847.458 381.208 848.75 380.07 850.348C381.74 868.412 387.189 923.083 394.012 947.502Z" fill="#B1D387"/>
<path d="M384.133 844.57C384.133 844.57 383.709 845.236 382.784 846.504C383.682 845.237 384.133 844.57 384.133 844.57Z" fill="#B1D387"/>
<path d="M300.452 1126.65C307.491 1095.58 316.3 1056.71 325.519 1024.2C339.926 973.325 355.953 939.962 355.953 939.962C348.441 948.26 317.891 1014.66 298.561 1056.67C290.521 1074.14 284.423 1087.4 282.729 1090.5C275.341 1104.12 261.363 1132.23 239.083 1189.4C239.083 1189.4 179.737 1333.71 164.693 1405.53C164.693 1405.53 202.309 1367.62 221.172 1342.28C240.004 1316.94 276.076 1217.2 288.499 1176.34C291.225 1167.37 295.379 1149.03 300.452 1126.65Z" fill="#B1D387"/>
<path d="M182.304 750.882C367.987 725.373 416.081 668.896 416.081 668.896C416.081 668.896 415.018 680.357 413.785 683.87C384.409 767.827 265.718 771.158 219.11 772.466C210.674 772.703 204.6 772.874 201.844 773.444C183.873 777.186 125.225 763.753 125.225 763.753C104.432 760.898 92.4694 751.805 70.9993 726.5C70.9993 726.5 112.855 760.421 182.304 750.882Z" fill="#B1D387"/>
<path d="M113.031 542.995C331.301 590.334 464.924 529.142 464.924 529.142L461.238 538.023C461.238 538.023 453.497 568.093 388.445 584.557C356.036 592.767 304.003 596.122 242.332 593.619C132.992 589.16 27.0203 517.917 27.0203 517.917C37.8449 518.013 51.1181 522.877 66.7534 528.608C80.3991 533.609 95.844 539.27 113.031 542.995Z" fill="#B1D387"/>
<path d="M285.271 633.321C270.209 635.764 256.928 637.919 248.03 639.582C215.705 645.637 145.849 680.574 145.849 680.574C160.573 677.294 189.389 674.403 189.389 674.403C189.389 674.403 237.24 666.253 288.68 662.162C396.379 653.609 435.236 593.056 435.236 593.056C435.236 593.056 446.661 577.298 439.837 581.674C438.065 582.809 435.68 584.749 432.714 587.162L432.71 587.165L432.706 587.169C424.232 594.063 411.014 604.817 393.779 611.712C376.907 618.458 324.919 626.89 285.271 633.321Z" fill="#B1D387"/>
<path d="M629.58 282.918C629.58 282.918 610.668 308.543 605.528 312.32C582.484 313.939 557.607 316.937 531.248 321.89C478.759 331.744 433.168 347.005 395.353 362.991C395.554 362.862 395.757 362.732 395.96 362.601C396.387 362.327 396.816 362.051 397.238 361.784C508.886 291.278 629.58 282.918 629.58 282.918Z" fill="#B1D387"/>
<path d="M76.8397 456.291C73.5223 455.701 70.3681 455.14 67.3888 454.668C65.7845 454.43 64.6713 454.412 64.2723 454.664C62.3834 455.867 76.2785 462.733 128.282 475.613C191.352 491.252 304.454 501.767 364.915 490.966C472.881 471.689 514.74 435.733 514.74 435.733L519.373 427.719C495.965 443.838 348.723 449.848 302.819 446.991C263.912 444.577 189.833 453.573 151.746 458.198L151.743 458.199L151.734 458.2C144.904 459.029 139.233 459.718 135.129 460.175C112.767 462.678 92.8928 459.145 76.8397 456.291Z" fill="#B1D387"/>
<path d="M338.87 856.651C321.132 871.606 200.404 965.869 113.001 1006.64C78.0698 1022.94 11.5817 1065.67 11.5817 1065.67C24.2952 1052.29 101.55 990.779 136.29 970.271C171.04 949.764 341.462 837.769 359.278 825.627C376.743 813.713 386.929 795.369 387.311 794.681L387.315 794.674C386.871 795.486 365.853 833.941 338.87 856.651Z" fill="#B1D387"/>
<path d="M688.456 225.342C664.819 246.799 642.142 269.622 620.728 294.6C615.909 300.818 610.277 307.827 607.003 311.024C587.854 334.462 569.681 358.905 552.593 384.241C544.423 409.909 525.967 489.068 556.425 614.857C568.495 664.747 580.069 701.687 591.641 730.33C589.678 691.99 590.419 630.65 590.419 630.65C590.419 630.65 590.021 625.064 589.797 615.947C589.797 615.947 597.215 648.158 604.729 686.281C609.99 712.978 614.599 748.505 617.658 782.385C632.573 806.16 648.064 822.257 665.119 839.979L665.349 840.217C666.808 841.734 668.278 843.262 669.761 844.808C696.398 872.595 707.065 899.889 707.065 899.889C702.423 889.336 686.032 872.064 675.933 861.421L675.897 861.383C674.961 860.396 674.079 859.467 673.266 858.605C671.419 856.649 669.214 854.769 666.492 852.449C657.755 845 643.696 833.014 619.073 799.392C619.721 807.923 620.255 816.226 620.661 824.12C622.883 867.725 624.478 914.097 624.478 914.097C624.478 914.097 615.629 893.947 613.006 865.907C611.819 853.19 608.677 837.682 605.103 820.042C601.708 803.285 597.923 784.603 595.053 764.562C594.553 763.8 594.051 763.031 593.545 762.255C543.991 686.272 537.377 640.982 524.543 553.098C524.183 550.63 523.817 548.128 523.446 545.592C512.736 472.558 534.896 418.258 548.022 391.077C527.628 421.854 508.829 453.916 491.815 487.065C460.79 547.479 435.55 611.592 416.403 677.77C416.838 693.06 417.26 725.995 414.387 759.786C411.976 788.141 417.521 813.859 426.268 854.434C431.79 880.047 438.589 911.581 445.468 953.436C463.239 1061.59 522.264 1150.84 522.264 1150.84C522.264 1150.84 501.18 1132.65 469.548 1070.02C437.923 1007.39 412.097 892.339 406.817 851.547C401.526 810.762 406.161 768.203 408.445 754.017C410.068 743.958 412.052 718.958 413.906 695.585C414.247 691.291 414.584 687.052 414.913 682.97C412.895 690.074 410.947 697.202 409.07 704.35C393.577 763.361 386.782 822.268 379.882 882.087C378.578 893.393 377.27 904.733 375.899 916.112C378.138 961.73 389.225 1023.48 425.406 1084.25C495.692 1202.32 566.124 1260.99 566.124 1260.99C504.251 1252.25 418.134 1143.64 387.662 1066.72C369.147 1019.97 364.055 976.253 364.812 939.471C353.307 1008.04 337.542 1144.51 340.809 1178.48C342.608 1197.16 344.321 1210.82 345.713 1221.93C345.873 1223.21 346.03 1224.46 346.181 1225.68C348.132 1241.13 349.384 1251.71 349.279 1265.09C349.279 1265.09 303.836 1190.84 326.865 1052.66C328.274 1044.2 329.605 1035.83 330.894 1027.72L330.895 1027.72L330.9 1027.69L330.9 1027.68C333.467 1011.54 335.869 996.427 338.402 983.704C334.276 995.356 329.824 1009 325.518 1024.2C316.299 1056.71 307.49 1095.58 300.45 1126.65C295.377 1149.03 291.223 1167.37 288.497 1176.34C276.078 1217.21 240.003 1316.94 221.17 1342.29C202.311 1367.62 164.691 1405.54 164.691 1405.54C164.691 1405.54 204.997 1342 231.153 1280.41C251.18 1233.26 284.029 1129.81 300.375 1078.33C305.383 1062.56 308.842 1051.67 309.908 1048.77C319.546 1022.52 331.266 994.874 340.472 974.019C342.226 966.439 344.074 960.086 346.105 955.363C350.657 944.79 359.836 926.725 366.254 914.332C367.112 905.195 368.275 896.653 369.585 888.787C369.812 884.582 370.087 880.367 370.408 876.146C357.224 903.76 335.499 942.826 309.461 965.056C286.883 984.319 267.117 1004.11 248.65 1022.6L248.648 1022.6C231.692 1039.58 215.832 1055.46 199.899 1068.82C147.558 1112.74 18.0537 1153.72 12.4077 1145.47C11.108 1143.58 26.5877 1133.94 49.184 1119.87L50.5596 1119.02C85.9512 1096.94 137.926 1064.41 170.634 1033.71C178.53 1026.3 186.374 1017.71 195.01 1008.25C217.743 983.351 245.963 952.444 295.063 921.202C335.291 895.601 359.151 873.381 371.897 859.554C373.62 842.839 376.001 826.07 378.863 809.395C367.968 827.975 348.916 859.031 336.211 871.782C326.717 881.304 309.369 893.444 291.034 906.275C273.264 918.71 254.566 931.795 241.193 943.774C214.019 968.127 131.817 1014.71 100.476 1029.55C69.1428 1044.41 9.63584 1067.7 11.5811 1065.67C24.2946 1052.3 101.55 990.779 136.289 970.272C171.039 949.765 341.462 837.769 359.277 825.631C367.823 819.805 374.628 812.435 379.392 806.346C385.931 769.032 394.826 732.237 404.087 697.629C417.965 645.806 435.614 595.299 456.709 546.592C449.521 556.739 431.585 573.642 388.444 584.56C356.035 592.774 304.002 596.125 242.335 593.622C132.992 589.163 27.0194 517.92 27.0194 517.92C27.0194 517.92 190.112 600.497 343.27 578.06C414.346 567.654 453.223 543.417 460.121 538.795C469.049 518.616 478.569 498.752 488.659 479.239C495.63 465.754 502.918 452.303 510.514 438.936C497.493 448.162 453.411 475.169 364.914 490.97C304.453 501.771 191.351 491.256 128.281 475.617C76.2779 462.737 62.3828 455.871 64.2717 454.667C64.6707 454.416 65.7839 454.434 67.3882 454.672C67.3882 454.672 109.247 462.836 162.301 470.088C204.912 475.922 256.208 472.496 298.205 469.69C312.621 468.727 325.944 467.838 337.442 467.421C439.209 463.73 497.815 442.609 511.578 437.068C533.196 399.19 557.283 362.008 583.614 326.648C566.084 337.312 542.047 350.144 525.963 351.735C513.895 352.932 498.088 356.087 480.575 359.583C459.688 363.752 436.374 368.405 414.084 370.799C373.104 375.221 348.279 389.324 332.871 399.697C332.871 399.697 336.209 392.852 351.704 383.061C352.492 382.57 353.3 382.067 354.148 381.567C378.313 367.037 395.353 362.996 395.353 362.996C486.01 305.111 583.133 288.485 617.047 284.237C636.815 260.568 657.647 238.025 679.465 217C636.897 221.534 593.547 229.666 549.98 237.839C470.185 252.808 389.664 267.914 311.887 261.294C186.244 250.572 125.982 222.013 112.08 209.692C112.08 209.692 157.466 218.288 210.358 219.195C258.416 220.027 312.84 213.562 342.109 206.969C415.735 190.394 538.928 179.046 591.012 191.973C627.894 201.105 673.418 201.394 696.847 200.766C727.151 173.35 759.234 148.917 792.9 128.443C798.21 125.211 802.477 133.714 797.535 137.393C762.102 163.681 727.644 190.373 694.944 219.508C691.577 238.581 677.106 320.446 668.559 366.791C658.839 419.498 661.007 455.179 675.961 519.973C690.935 584.811 732.164 630.262 732.164 630.262C732.164 630.262 701.33 606.462 684.765 578.517C684.237 577.627 683.655 576.666 683.026 575.628C671.731 556.971 645.34 513.379 644.032 407.388C643.407 356.343 681.413 245.441 688.456 225.342Z" fill="#B1D387"/>
<path d="M478.817 788.807C498.324 891.417 521.319 985.801 521.319 985.801C511.754 974.414 492.189 946.522 469.435 834.906C446.658 723.265 446.859 604.147 454.374 572.385C454.374 572.385 459.889 689.256 478.817 788.807Z" fill="#B1D387"/>
<path d="M601.741 1048.28L601.731 1048.27L601.729 1048.27L601.724 1048.27C585.983 1037.37 570.302 1026.51 558.274 1017.44C524.492 991.976 520.763 975.02 520.763 975.02C521.138 981.791 521.319 985.801 521.319 985.801C521.319 985.801 547.608 1041.48 594.217 1068.6C622.516 1085.07 666.496 1097.49 666.496 1097.49C658.874 1087.84 630.211 1067.99 601.743 1048.28L601.741 1048.28Z" fill="#B1D387"/>
<path d="M622.838 961.273C643.093 975.259 726.713 1039.83 741.27 1057.87C741.27 1057.87 719.69 1042.01 694.751 1033.19C669.809 1024.39 636.586 1005.22 620.392 981.302C620.392 981.302 605.284 964.654 588.1 932.851C588.1 932.851 602.583 947.284 622.838 961.273Z" fill="#B1D387"/>
<path d="M755.649 164.136C759.085 192.747 773.396 311.901 778.502 356.926C784.316 408.26 764.95 462.181 764.95 462.181C771.148 455.027 785.276 424.231 789.7 360.44C792.427 320.956 783.993 280.266 775.636 239.943C770.492 215.125 765.377 190.447 762.91 166.274L757.768 160.897L755.411 162.153L755.649 164.136Z" fill="#99BD6E"/>
<path d="M836.59 171.394C827.47 170.217 817.266 168.683 807.244 167.073C809.559 166.848 811.416 166.464 812.615 165.899C840.572 160.895 858.592 143.896 868.703 134.356C869.984 133.148 871.139 132.059 872.17 131.129C880.132 123.967 887.231 111.395 888.982 108.175C889.132 107.921 889.271 107.664 889.396 107.403C889.396 107.403 889.254 107.673 888.982 108.175C886.515 112.318 880.504 115.439 873.715 118.965C870.185 120.798 866.443 122.741 862.88 124.994C852.057 131.833 814.094 146.674 794.033 154.106C779.85 159.357 768.071 159.06 762.373 158.437L757.871 160.846L766.412 169.3C766.412 169.3 832.926 191.632 861.764 190.8C916.095 189.228 938.221 175.476 947.693 169.589C947.893 169.465 948.087 169.344 948.276 169.227C948.586 169.035 948.881 168.853 949.163 168.682C963.348 160.042 975.287 144.208 975.287 144.208C975.287 144.208 927.421 183.114 836.59 171.394Z" fill="#99BD6E"/>
<path d="M916.934 212.182C935.069 217.071 957.645 216.972 969.168 216.507C973.839 216.315 976.7 216.064 976.7 216.064C916.726 232.699 836.184 211.797 823.224 205.102C820.194 203.537 816.376 201.608 812.212 199.504C798.569 192.612 781.227 183.851 775.829 179.918C775.829 179.918 864.238 197.971 916.934 212.182Z" fill="#99BD6E"/>
<path d="M1089.72 167.984C1078.59 176.793 1060.86 190.827 1046.99 198.344C965.995 242.225 845.961 235.768 845.961 235.768C846.871 236.14 848.119 236.736 849.689 237.485L849.691 237.486C861.532 243.138 891.72 257.546 933.66 250.747C934.956 250.537 936.234 250.331 937.495 250.127L937.497 250.127C982.453 242.866 1005.62 239.125 1044.15 213.35C1076.13 191.968 1084.89 181.455 1089.77 175.596C1090.94 174.196 1091.89 173.062 1092.87 172.109C1093.3 171.693 1093.77 171.242 1094.26 170.764L1094.28 170.75C1099.65 165.539 1108.38 157.066 1113.75 154.618C1119.63 151.952 1105.66 156.017 1098.32 161.306C1096.47 162.639 1093.47 165.015 1089.72 167.984Z" fill="#99BD6E"/>
<path d="M1070.84 235.384L1070.84 235.384L1072.54 235.014C1096.83 229.731 1118.02 222.232 1131.67 214.646C1147.83 205.661 1156.24 197.859 1156.24 197.859C1131.67 229.039 1044.71 260.418 981.556 269.881C961.439 272.893 910.491 273 898.935 267.653C898.935 267.653 965.304 257.519 976.812 255.428C988.121 253.382 1036.62 242.829 1070.81 235.389L1070.83 235.386L1070.84 235.384Z" fill="#99BD6E"/>
<path d="M1099.15 255.007C1085.22 257.723 1015.4 272.342 995.066 277.802C970.619 284.349 947.988 285.534 947.988 285.534C964.34 289.071 1025.42 288.151 1082.47 275.648C1139.5 263.153 1153.64 252.997 1159.39 248.048C1159.39 248.048 1157.34 248.175 1153.87 248.423C1142.96 249.22 1118.08 251.318 1099.15 255.007Z" fill="#99BD6E"/>
<path d="M1068.93 296.757C1107.09 285.366 1147.84 274.228 1185.57 268.18C1199.89 265.884 1210.91 262.944 1219.31 259.969C1234.41 254.609 1241.04 249.131 1243.18 247.037C1240.32 249.939 1229.54 259.773 1203.02 273.573C1171.18 290.143 1112.41 304.223 1091.53 307.25C1070.67 310.282 1048.81 308.298 1041.51 307.261C1036.34 306.525 1023.51 305.734 1011.51 304.994L1011.51 304.994C1006.61 304.692 1001.85 304.399 997.804 304.121C997.804 304.121 1039.4 305.576 1068.93 296.757Z" fill="#99BD6E"/>
<path d="M1244.01 246.154C1244.01 246.154 1243.75 246.453 1243.18 247.037C1243.76 246.468 1244.01 246.154 1244.01 246.154Z" fill="#99BD6E"/>
<path d="M1140.85 312.919C1205 294.053 1255.17 252.96 1270.32 238.287C1285.49 223.608 1300.11 222.974 1300.11 222.974C1296.16 254.415 1241.21 299.007 1202.03 315.115C1154.86 334.505 1113.32 327.084 1093.53 322.452C1103.73 329.489 1126.85 346.094 1149.08 366.611C1228.74 440.108 1245.62 504.683 1245.62 504.683C1244.67 505.358 1239.59 497.594 1232.18 486.261L1231.73 485.568C1220.11 467.815 1202.98 441.744 1186.96 425.426C1183.09 421.484 1178.62 417.58 1173.69 413.281C1160.73 401.97 1144.65 387.929 1128.21 363.309C1112.63 339.97 1099.55 327.696 1092.89 322.301C1091.15 321.89 1089.59 321.504 1088.22 321.165L1088.12 321.14C1088.12 321.14 1089.18 321.033 1091.02 320.835C1090.25 320.249 1089.63 319.801 1089.16 319.478C1089.65 319.807 1090.32 320.257 1091.15 320.821C1100.4 319.819 1128.38 316.588 1140.85 312.919Z" fill="#99BD6E"/>
<path d="M1088.15 318.81C1088.15 318.81 1088.5 319.02 1089.16 319.478C1088.5 319.033 1088.15 318.81 1088.15 318.81Z" fill="#99BD6E"/>
<path d="M1233.5 358.814C1217.51 355.512 1197.51 351.38 1180.76 346.985C1154.55 340.117 1137.31 332.278 1137.31 332.278C1141.63 336.016 1175.93 350.934 1197.64 360.373C1206.67 364.299 1213.52 367.277 1215.12 368.109C1222.17 371.738 1236.7 378.583 1266.21 389.388C1266.21 389.388 1340.71 418.237 1377.66 425.247C1377.66 425.247 1357.9 406.502 1344.75 397.157C1331.59 387.827 1280.14 370.395 1259.08 364.448C1254.46 363.143 1245.03 361.194 1233.5 358.814Z" fill="#99BD6E"/>
<path d="M1041.84 421.936C1027.17 328.019 997.804 304.121 997.804 304.121C997.804 304.121 1003.69 304.561 1005.5 305.156C1048.8 319.329 1051.53 379.473 1052.6 403.091C1052.79 407.366 1052.93 410.444 1053.24 411.836C1055.32 420.915 1048.93 450.763 1048.93 450.763C1047.65 461.329 1043.09 467.471 1030.29 478.573C1030.29 478.573 1047.33 457.063 1041.84 421.936Z" fill="#99BD6E"/>
<path d="M935.843 458.839C958.247 347.776 925.727 280.558 925.727 280.558L930.313 282.35C930.313 282.35 945.798 286.017 954.796 318.855C959.283 335.215 961.449 361.566 960.693 392.852C959.343 448.323 923.72 502.659 923.72 502.659C923.677 497.17 926.057 490.399 928.862 482.424C931.309 475.463 934.08 467.584 935.843 458.839Z" fill="#99BD6E"/>
<path d="M980.683 370.743C982.064 378.358 983.283 385.073 984.212 389.569C987.593 405.905 1006.1 441.021 1006.1 441.021C1004.3 433.584 1002.57 419 1002.57 419C1002.57 419 997.98 394.811 995.442 368.767C990.134 314.241 958.753 295.061 958.753 295.061C958.753 295.061 950.576 289.404 952.878 292.825C953.475 293.714 954.49 294.907 955.753 296.39L955.754 296.391L955.756 296.394C959.364 300.63 964.991 307.239 968.674 315.918C972.277 324.414 977.046 350.698 980.683 370.743Z" fill="#99BD6E"/>
<path d="M798.068 199.194C798.068 199.194 811.369 208.563 813.349 211.136C814.377 222.805 816.127 235.391 818.892 248.712C824.394 275.237 832.61 298.22 841.13 317.254C841.062 317.153 840.993 317.051 840.925 316.95C840.78 316.735 840.635 316.52 840.495 316.309C803.387 260.311 798.068 199.194 798.068 199.194Z" fill="#99BD6E"/>
<path d="M891.695 477.931C891.421 479.617 891.161 481.221 890.944 482.736C890.835 483.551 890.836 484.116 890.968 484.316C891.602 485.263 895.003 478.16 901.162 451.685C908.641 419.576 913.065 362.146 907.009 331.587C896.201 277.017 877.406 256.104 877.406 256.104L873.257 253.824C881.723 265.553 886.065 340.149 884.992 363.445C884.088 383.191 889.334 420.669 892.032 439.939L892.032 439.94L892.033 439.945C892.517 443.4 892.918 446.27 893.188 448.346C894.663 459.662 893.021 469.768 891.695 477.931Z" fill="#99BD6E"/>
<path d="M1094.74 341.654C1102.56 350.518 1151.92 410.915 1173.58 454.876C1182.23 472.445 1204.71 505.786 1204.71 505.786C1197.74 499.456 1165.54 460.817 1154.73 443.381C1143.92 425.94 1085.03 340.501 1078.65 331.574C1072.4 322.822 1062.9 317.815 1062.55 317.627L1062.54 317.625C1062.96 317.844 1082.86 328.169 1094.74 341.654Z" fill="#99BD6E"/>
<path d="M768.042 169.839C779.247 181.639 791.143 192.94 804.134 203.581C807.363 205.972 811.006 208.766 812.673 210.399C824.854 219.906 837.543 228.909 850.68 237.355C863.911 241.277 904.658 249.954 968.895 233.433C994.373 226.886 1013.21 220.702 1027.8 214.59C1008.16 215.914 976.702 216.064 976.702 216.064C976.702 216.064 973.841 216.314 969.168 216.506C969.168 216.506 985.621 212.469 1005.1 208.332C1018.75 205.436 1036.92 202.794 1054.27 200.953C1066.33 193.188 1074.45 185.196 1083.39 176.397L1083.52 176.279C1084.28 175.526 1085.05 174.768 1085.83 174.003C1099.85 160.26 1113.75 154.618 1113.75 154.618C1108.38 157.062 1099.67 165.52 1094.3 170.731L1094.28 170.749C1093.78 171.233 1093.31 171.688 1092.88 172.107C1091.89 173.061 1090.94 174.195 1089.78 175.594C1086.03 180.088 1080.01 187.318 1062.98 200.09C1067.35 199.688 1071.6 199.346 1075.64 199.073C1097.98 197.572 1121.75 196.366 1121.75 196.366C1121.75 196.366 1111.49 201.024 1097.14 202.595C1090.63 203.306 1082.7 205.032 1073.69 206.995C1065.12 208.86 1055.58 210.939 1045.32 212.566C1044.94 212.826 1044.55 213.087 1044.16 213.35C1005.62 239.125 982.454 242.866 937.501 250.127C936.239 250.331 934.959 250.537 933.662 250.747C896.305 256.803 868.274 246.035 854.225 239.614C870.18 249.689 886.781 258.944 903.923 267.286C935.166 282.496 968.255 294.742 1002.35 303.881C1010.19 303.529 1027.07 303.033 1044.42 304.2C1058.98 305.178 1072.12 302.147 1092.85 297.364C1105.94 294.345 1122.05 290.628 1143.45 286.781C1198.75 276.843 1244.01 246.154 1244.01 246.154C1244.01 246.154 1234.87 256.998 1203.02 273.572C1171.18 290.143 1112.41 304.223 1091.54 307.25C1070.67 310.282 1048.81 308.298 1041.52 307.261C1036.34 306.525 1023.51 305.734 1011.51 304.994C1009.3 304.858 1007.13 304.724 1005.03 304.592C1008.69 305.554 1012.36 306.48 1016.04 307.371C1046.43 314.719 1076.7 317.658 1107.43 320.643C1113.24 321.207 1119.06 321.773 1124.91 322.371C1148.28 320.844 1179.85 314.694 1210.7 295.829C1270.64 259.183 1300.11 222.973 1300.11 222.973C1296.16 254.416 1241.21 299.007 1202.03 315.115C1178.22 324.903 1155.85 327.859 1136.98 327.791C1172.23 333.035 1242.35 339.857 1259.74 337.909C1269.3 336.837 1276.29 335.851 1281.97 335.05C1282.63 334.958 1283.27 334.868 1283.89 334.78C1291.8 333.659 1297.21 332.933 1304.07 332.872C1304.07 332.872 1266.39 356.547 1195.34 346.058C1190.99 345.416 1186.69 344.813 1182.52 344.229L1182.52 344.229L1182.5 344.227L1182.5 344.226C1174.2 343.064 1166.43 341.976 1159.89 340.8C1165.9 342.792 1172.93 344.932 1180.76 346.985C1197.51 351.38 1217.52 355.512 1233.5 358.814C1245.03 361.194 1254.46 363.143 1259.08 364.448C1280.15 370.394 1331.59 387.827 1344.75 397.157C1357.9 406.501 1377.67 425.248 1377.67 425.248C1377.67 425.248 1344.74 405.359 1312.94 392.627C1288.59 382.878 1235.27 367.112 1208.73 359.267C1200.6 356.864 1194.99 355.203 1193.49 354.688C1179.95 350.027 1165.67 344.322 1154.9 339.834C1151 339.01 1147.73 338.127 1145.29 337.138C1139.83 334.921 1130.49 330.423 1124.08 327.275C1119.38 326.919 1115 326.403 1110.95 325.806C1108.79 325.727 1106.63 325.624 1104.46 325.497C1118.73 331.944 1138.95 342.623 1150.57 355.633C1160.64 366.914 1170.96 376.765 1180.6 385.968L1180.6 385.969C1189.45 394.42 1197.73 402.324 1204.72 410.287C1227.68 436.446 1249.8 501.749 1245.62 504.682C1244.67 505.357 1239.59 497.592 1232.18 486.257L1231.73 485.567C1220.11 467.814 1202.98 441.744 1186.96 425.425C1183.09 421.486 1178.62 417.583 1173.7 413.285C1160.74 401.974 1144.65 387.932 1128.21 363.309C1114.74 343.133 1103.14 331.228 1095.94 324.885C1087.36 324.154 1078.74 323.091 1070.16 321.783C1079.78 327.147 1095.87 336.54 1102.52 342.872C1107.48 347.603 1113.85 356.294 1120.59 365.479C1127.12 374.381 1133.99 383.748 1140.24 390.425C1152.96 403.993 1177.55 445.267 1185.43 461.029C1193.32 476.786 1205.77 506.755 1204.71 505.786C1197.74 499.455 1165.54 460.817 1154.73 443.381C1143.92 425.94 1085.03 340.501 1078.66 331.574C1075.6 327.291 1071.76 323.905 1068.6 321.541C1049.41 318.547 1030.46 314.352 1012.64 309.955C985.949 303.363 959.901 294.849 934.746 284.573C940.01 288.13 948.83 297.078 954.798 318.855C959.287 335.215 961.45 361.566 960.695 392.851C959.345 448.323 923.722 502.659 923.722 502.659C923.722 502.659 964.667 419.267 951.852 341.813C945.908 305.869 933.148 286.367 930.719 282.909C920.295 278.557 910.029 273.901 899.937 268.953C892.963 265.534 886.004 261.955 879.085 258.219C883.927 264.741 898.152 286.857 907.011 331.587C913.067 362.146 908.644 419.576 901.165 451.685C895.005 478.16 891.604 485.263 890.971 484.316C890.838 484.116 890.838 483.551 890.946 482.736C890.946 482.736 894.774 461.445 898.039 434.486C900.665 412.833 898.469 386.856 896.671 365.589C896.054 358.289 895.484 351.542 895.172 345.717C892.408 294.155 881.077 264.625 878.118 257.695C858.511 247.06 839.24 235.168 820.884 222.122C826.502 230.918 833.287 242.994 834.241 251.135C834.958 257.242 836.711 265.229 838.653 274.078C840.97 284.631 843.555 296.41 844.973 307.69C847.591 328.428 855.035 340.893 860.486 348.615C860.486 348.615 856.948 346.981 851.795 339.21C851.536 338.815 851.271 338.409 851.008 337.984C843.35 325.858 841.132 317.253 841.132 317.253C810.676 271.789 801.32 222.694 798.852 205.537C786.546 195.718 774.809 185.35 763.842 174.469C766.531 196.011 771.072 217.919 775.635 239.936C783.994 280.261 792.428 320.953 789.7 360.441C785.277 424.23 771.149 455.026 764.951 462.18C764.951 462.18 768.97 439.097 768.983 412.274C768.998 387.903 765.217 360.367 761.586 345.585C752.457 308.401 745.584 246.043 751.766 219.527C756.133 200.751 755.892 177.669 755.369 165.796C741.052 150.668 728.25 134.613 717.464 117.721C715.761 115.057 720.084 112.82 722.013 115.294C735.795 133.032 749.777 150.273 764.995 166.6C774.804 168.144 816.904 174.778 840.74 178.713C867.849 183.189 886.125 181.784 919.22 173.647C952.338 165.499 975.289 144.207 975.289 144.207C975.289 144.207 963.35 160.043 949.163 168.681C948.711 168.956 948.224 169.259 947.697 169.587C938.227 175.473 916.101 189.227 861.766 190.799C835.598 191.554 778.408 173.238 768.042 169.839Z" fill="#99BD6E"/>
<path d="M1058.75 271.286C1111.2 260.516 1159.4 248.049 1159.4 248.049C1153.64 252.996 1139.5 263.154 1082.47 275.647C1025.42 288.152 964.341 289.072 947.991 285.535C947.991 285.535 1007.87 281.736 1058.75 271.286Z" fill="#99BD6E"/>
<path d="M1190.74 206.741L1190.74 206.746L1190.74 206.747L1190.74 206.75C1185.28 214.823 1179.85 222.866 1175.3 229.042C1162.53 246.387 1153.87 248.423 1153.87 248.423C1157.34 248.175 1159.4 248.049 1159.4 248.049C1159.4 248.049 1187.72 234.244 1201.23 210.381C1209.43 195.893 1215.42 173.49 1215.42 173.49C1210.54 177.437 1200.61 192.138 1190.74 206.74L1190.74 206.741Z" fill="#99BD6E"/>
<path d="M1145.95 196.792C1152.95 186.403 1185.34 143.456 1194.46 135.921C1194.46 135.921 1186.52 146.998 1182.21 159.717C1177.91 172.438 1168.37 189.445 1156.24 197.86C1156.24 197.86 1147.83 205.662 1131.67 214.647C1131.67 214.647 1138.95 207.181 1145.95 196.792Z" fill="#99BD6E"/>
<path fill-rule="evenodd" clip-rule="evenodd" d="M2089.63 1849.42L2080.93 1846.4C2092.01 1871.55 2098.43 1901.54 2103.47 1925.08C2106.72 1940.27 2109.39 1952.77 2112.37 1959.53C2049.95 1969.41 2019.15 1940.12 1994.88 1917.05C1988.22 1910.72 1982.06 1904.86 1975.87 1900.41C2032.13 2004.32 2090.54 1987.96 2112.71 1966.79C2114.06 1972.34 2117.17 1985.27 2118.75 1992.57C2055.23 2009.4 1998.79 1980.13 1972.22 1966.34C1966 1963.12 1961.42 1960.74 1958.77 1960C2052.73 2075.2 2104.33 2032.87 2118.39 1997.31C2120.25 2019.48 2124.31 2066.27 2125.7 2076.1C2085.7 2103.49 2019.62 2084.55 1985.88 2074.87C1979.06 2072.92 1973.57 2071.34 1969.87 2070.61C2068.41 2163.52 2113.62 2120.78 2123.9 2087.8C2122.14 2114.45 2118.4 2170.57 2117.52 2181.95C2040.75 2187.21 1995.96 2160.52 1973.69 2147.24C1964.98 2142.05 1959.71 2138.91 1957.33 2140.55C2035.46 2229.48 2094.69 2215.54 2114.54 2197.46C2111.08 2215.29 2103.69 2252.48 2101.79 2258.57C2028.64 2211.4 1952.73 2188.59 1932.6 2194.89C2023.08 2308.88 2080.47 2295.61 2097.86 2274.72C2092.25 2289.54 2080.54 2321 2078.54 2328.36C1978.89 2254.46 1917.5 2251.62 1904.55 2257.5C2002.92 2382.36 2040.15 2363.56 2068.1 2349.44C2069.95 2348.5 2071.76 2347.59 2073.55 2346.74C2066.85 2360.31 2052.19 2389.8 2047.18 2399.22C1978.08 2334.32 1885.04 2336.7 1868.07 2348.32C1942.94 2461.04 2005.51 2453.19 2027.44 2435.18C2020.31 2446.55 2003.88 2471.97 1995.2 2482.7C1891.9 2417.64 1856.43 2417.3 1830.93 2417.05C1828.06 2417.02 1825.31 2416.99 1822.6 2416.87C1897.93 2508.38 1933.84 2505.43 1964.66 2502.9C1970.58 2502.41 1976.3 2501.94 1982.09 2502.16C1969.82 2514.55 1945.05 2540.09 1944.1 2543.14C1851.32 2477.41 1788.52 2465.16 1768.71 2467.25C1774.34 2475.37 1791.56 2497.39 1815.49 2520.5C1773.91 2501.23 1765.31 2500.57 1751.39 2499.51C1746.55 2499.14 1741.07 2498.73 1733.34 2497.46C1795.01 2586.9 1861.65 2601.11 1887.26 2597.03L1853.33 2620.28C1782.01 2549.42 1729.39 2525.61 1692.72 2514.81C1716.01 2564.7 1799.06 2610.07 1837.67 2626.51L1812.21 2643.95C1739.52 2561.21 1696.8 2548.74 1664.65 2539.35C1661.75 2538.5 1658.94 2537.68 1656.2 2536.84C1686.47 2595.78 1753.46 2627.89 1782.68 2641.89C1792.42 2646.56 1797.97 2649.22 1796.55 2650.19C1792.14 2653.21 1782.87 2655.92 1773.36 2658.7C1770.68 2659.48 1767.97 2660.28 1765.35 2661.08C1663.71 2557.21 1640.92 2559.69 1620.52 2561.9C1620.15 2561.94 1619.79 2561.98 1619.43 2562.02C1650.97 2625.41 1715.72 2660.16 1744.16 2669.61C1739.53 2671.79 1727.16 2677.07 1714.73 2680.8C1646.15 2597.59 1604.56 2581.18 1575.98 2581.31C1604.33 2639.7 1667.03 2674.06 1694.84 2683.94C1686.64 2686.07 1667.23 2689.98 1655.19 2688.66C1613.58 2637.85 1558.4 2600.83 1527.57 2606.99C1543.81 2655.72 1604.66 2687.85 1633.05 2697.83C1626.38 2699.41 1607 2702.21 1582.82 2700.81C1543.8 2651.23 1490.59 2623.33 1473.62 2634.96C1491.86 2676.34 1537.16 2698.68 1557.53 2704.68L1519.94 2707.1C1519.49 2707.11 1519.16 2707.13 1518.94 2707.16L1519.94 2707.1C1522.95 2707.02 1531.26 2707.42 1547.71 2709.54C1524.43 2708.94 1381.08 2749.89 1309.53 2771.3C1432.46 2788.84 1546.89 2761.31 1569.63 2709.85L1628.8 2706.73C1567.96 2746.91 1439.04 2833.12 1410.09 2856.54C1510.3 2853.73 1604.87 2754.55 1639.62 2705.31L1691.65 2690.62C1623.71 2745.63 1488.06 2857.29 1488.99 2863.84C1592.9 2850.13 1673.35 2742.55 1700.59 2690.48L1749.91 2676.15C1680.76 2742.97 1538.01 2881.14 1520.18 2899.34C1550.46 2904.94 1629.23 2847.59 1664.83 2818.22C1644.74 2839.46 1602.87 2885.19 1596.16 2898.17C1709.9 2868.15 1791.97 2721.16 1818.78 2651.42L1849.89 2630.11C1810.99 2717.61 1732.63 2902.26 1730.36 2940.92C1834.63 2834.07 1853.91 2657.26 1857.3 2626.13C1857.35 2625.71 1857.39 2625.32 1857.43 2624.95L1900.79 2595.25C1866.69 2678.46 1791 2872.45 1798.9 2908.94C1887.36 2836.38 1909.34 2665.7 1909.28 2589.43L1956.32 2546.74C1926.94 2626.72 1867.11 2823.31 1874.77 2862.96C1948.68 2812.33 1964.03 2624.25 1962.47 2536.54L1982.05 2514.15C1951.54 2747.53 2005.06 2829.08 2045.29 2828.46C2017.04 2768.8 1993.87 2592.34 1985.83 2511.57C1987.36 2511.02 1994.08 2504.12 2008.73 2480.92C1989.82 2725.8 2049.31 2776.32 2077.04 2787.26C2060.22 2746.11 2028.04 2558.47 2014.05 2469.79C2017.08 2465.22 2027.14 2450.65 2043.1 2428.95C2008.77 2676.9 2115.3 2731.12 2139.41 2731.07C2043.73 2582.63 2048.42 2417.82 2056.45 2406.33C2059.92 2638.87 2151.89 2685.11 2195.43 2676.24C2119.76 2599.09 2084.37 2464.85 2072.17 2418.58C2070.36 2411.71 2069.06 2406.77 2068.22 2404.26C2062.75 2387.96 2069.72 2372.58 2079.16 2351.78C2080.99 2347.74 2082.92 2343.49 2084.86 2338.99C2113.17 2608.39 2200.64 2620.3 2226.52 2620.53C2190.77 2594.97 2170.16 2534.71 2157.21 2496.88C2155.45 2491.72 2153.83 2486.99 2152.33 2482.81C2142.34 2454.94 2108.08 2365.98 2092.19 2324.99C2095.48 2313.26 2103.33 2287.14 2108.44 2276.45C2162.35 2549.08 2272.47 2544.08 2314.63 2542.17L2314.71 2542.17C2291.09 2535.9 2213.18 2423.17 2200.54 2401.91C2190.43 2384.89 2137.3 2303.57 2112 2265.04L2124.18 2199.84C2183.73 2399.96 2287.73 2475.36 2333.12 2477.19C2309.65 2457.35 2186.42 2276.41 2127.74 2188.42C2129.86 2172.5 2133.58 2133.54 2131.5 2105.04C2169.17 2218.39 2323.87 2377.29 2358.37 2404.53C2332.21 2373.37 2198.05 2183.66 2134.24 2092.69C2133.75 2083.55 2131.54 2053.54 2126.59 2006.65C2139.11 2080.89 2298.29 2259.64 2346.75 2314.07C2350.83 2318.64 2354.12 2322.34 2356.48 2325.03C2352.53 2302.2 2243.36 2151.8 2176.32 2059.45C2149.06 2021.89 2128.77 1993.93 2125.35 1988.05C2129.15 1975.87 2103.12 1890.56 2089.63 1849.42ZM1808.65 2655.36L1759.09 2672.85C1755.43 2701.69 1720.29 2751.3 1703.18 2772.5L1808.65 2655.36Z" fill="#588521"/>
<path fill-rule="evenodd" clip-rule="evenodd" d="M2076.63 1848.42L2067.93 1845.4C2079.01 1870.55 2085.43 1900.54 2090.47 1924.08C2093.72 1939.27 2096.39 1951.77 2099.37 1958.53C2036.95 1968.41 2006.15 1939.12 1981.88 1916.05C1975.22 1909.72 1969.06 1903.86 1962.87 1899.41C2019.13 2003.32 2077.54 1986.96 2099.71 1965.79C2101.06 1971.34 2104.17 1984.27 2105.75 1991.57C2042.23 2008.4 1985.79 1979.13 1959.22 1965.34C1953 1962.12 1948.42 1959.74 1945.77 1959C2039.73 2074.2 2091.33 2031.87 2105.39 1996.31C2107.25 2018.48 2111.31 2065.27 2112.7 2075.1C2072.7 2102.49 2006.62 2083.55 1972.88 2073.87C1966.06 2071.92 1960.57 2070.34 1956.87 2069.61C2055.41 2162.52 2100.62 2119.78 2110.9 2086.8C2109.14 2113.45 2105.4 2169.57 2104.52 2180.95C2027.75 2186.21 1982.96 2159.52 1960.69 2146.24C1951.98 2141.05 1946.71 2137.91 1944.33 2139.55C2022.46 2228.48 2081.69 2214.54 2101.54 2196.46C2098.08 2214.29 2090.69 2251.48 2088.79 2257.57C2015.64 2210.4 1939.73 2187.59 1919.6 2193.89C2010.08 2307.88 2067.47 2294.61 2084.86 2273.72C2079.25 2288.54 2067.54 2320 2065.54 2327.36C1965.89 2253.46 1904.5 2250.62 1891.55 2256.5C1989.92 2381.36 2027.15 2362.56 2055.1 2348.44C2056.95 2347.5 2058.76 2346.59 2060.55 2345.74C2053.85 2359.31 2039.19 2388.8 2034.18 2398.22C1965.08 2333.32 1872.04 2335.7 1855.07 2347.32C1929.94 2460.04 1992.51 2452.19 2014.44 2434.18C2007.31 2445.55 1990.88 2470.97 1982.2 2481.7C1878.9 2416.64 1843.43 2416.3 1817.93 2416.05C1815.06 2416.02 1812.31 2415.99 1809.6 2415.87C1884.93 2507.38 1920.84 2504.43 1951.66 2501.9C1957.58 2501.41 1963.3 2500.94 1969.09 2501.16C1956.82 2513.55 1932.05 2539.09 1931.1 2542.14C1838.32 2476.41 1775.52 2464.16 1755.71 2466.25C1761.34 2474.37 1778.56 2496.39 1802.49 2519.5C1760.91 2500.23 1752.31 2499.57 1738.39 2498.51C1733.55 2498.14 1728.07 2497.73 1720.34 2496.46C1782.01 2585.9 1848.65 2600.11 1874.26 2596.03L1840.33 2619.28C1769.01 2548.42 1716.39 2524.61 1679.72 2513.81C1703.01 2563.7 1786.06 2609.07 1824.67 2625.51L1799.21 2642.95C1726.52 2560.21 1683.8 2547.74 1651.65 2538.35C1648.75 2537.5 1645.94 2536.68 1643.2 2535.84C1673.47 2594.78 1740.46 2626.89 1769.68 2640.89C1779.42 2645.56 1784.97 2648.22 1783.55 2649.19C1779.14 2652.21 1769.87 2654.92 1760.36 2657.7C1757.68 2658.48 1754.97 2659.28 1752.35 2660.08C1650.71 2556.21 1627.92 2558.69 1607.52 2560.9C1607.15 2560.94 1606.79 2560.98 1606.43 2561.02C1637.97 2624.41 1702.72 2659.16 1731.16 2668.61C1726.53 2670.79 1714.16 2676.07 1701.73 2679.8C1633.15 2596.59 1591.56 2580.18 1562.98 2580.31C1591.33 2638.7 1654.03 2673.06 1681.84 2682.94C1673.64 2685.07 1654.23 2688.98 1642.19 2687.66C1600.58 2636.85 1545.4 2599.83 1514.57 2605.99C1530.81 2654.72 1591.66 2686.85 1620.05 2696.83C1613.38 2698.41 1594 2701.21 1569.82 2699.81C1530.8 2650.23 1477.59 2622.33 1460.62 2633.96C1478.86 2675.34 1524.16 2697.68 1544.53 2703.68L1506.94 2706.1C1506.49 2706.11 1506.16 2706.13 1505.94 2706.16L1506.94 2706.1C1509.95 2706.02 1518.26 2706.42 1534.71 2708.54C1511.43 2707.94 1368.08 2748.89 1296.53 2770.3C1419.46 2787.84 1533.89 2760.31 1556.63 2708.85L1615.8 2705.73C1554.96 2745.91 1426.04 2832.12 1397.09 2855.54C1497.3 2852.73 1591.87 2753.55 1626.62 2704.31L1678.65 2689.62C1610.71 2744.63 1475.06 2856.29 1475.99 2862.84C1579.9 2849.13 1660.35 2741.55 1687.59 2689.48L1736.91 2675.15C1667.76 2741.97 1525.01 2880.14 1507.18 2898.34C1537.46 2903.94 1616.23 2846.59 1651.83 2817.22C1631.74 2838.46 1589.87 2884.19 1583.16 2897.17C1696.9 2867.15 1778.97 2720.16 1805.78 2650.42L1836.89 2629.11C1797.99 2716.61 1719.63 2901.26 1717.36 2939.92C1821.63 2833.07 1840.91 2656.26 1844.3 2625.13C1844.35 2624.71 1844.39 2624.32 1844.43 2623.95L1887.79 2594.25C1853.69 2677.46 1778 2871.45 1785.9 2907.94C1874.36 2835.38 1896.34 2664.7 1896.28 2588.43L1943.32 2545.74C1913.94 2625.72 1854.11 2822.31 1861.77 2861.96C1935.68 2811.33 1951.03 2623.25 1949.47 2535.54L1969.05 2513.15C1938.54 2746.53 1992.06 2828.08 2032.29 2827.46C2004.04 2767.8 1980.87 2591.34 1972.83 2510.57C1974.36 2510.02 1981.08 2503.12 1995.73 2479.92C1976.82 2724.8 2036.31 2775.32 2064.04 2786.26C2047.22 2745.11 2015.04 2557.47 2001.05 2468.79C2004.08 2464.22 2014.14 2449.65 2030.1 2427.95C1995.77 2675.9 2102.3 2730.12 2126.41 2730.07C2030.73 2581.63 2035.42 2416.82 2043.45 2405.33C2046.92 2637.87 2138.89 2684.11 2182.43 2675.24C2106.76 2598.09 2071.37 2463.85 2059.17 2417.58C2057.36 2410.71 2056.06 2405.77 2055.22 2403.26C2049.75 2386.96 2056.72 2371.58 2066.16 2350.78C2067.99 2346.74 2069.92 2342.49 2071.86 2337.99C2100.17 2607.39 2187.64 2619.3 2213.52 2619.53C2177.77 2593.97 2157.16 2533.71 2144.21 2495.88C2142.45 2490.72 2140.83 2485.99 2139.33 2481.81C2129.34 2453.94 2095.08 2364.98 2079.19 2323.99C2082.48 2312.26 2090.33 2286.14 2095.44 2275.45C2149.35 2548.08 2259.47 2543.08 2301.63 2541.17L2301.71 2541.17C2278.09 2534.9 2200.18 2422.17 2187.54 2400.91C2177.43 2383.89 2124.3 2302.57 2099 2264.04L2111.18 2198.84C2170.73 2398.96 2274.73 2474.36 2320.12 2476.19C2296.65 2456.35 2173.42 2275.41 2114.74 2187.42C2116.86 2171.5 2120.58 2132.54 2118.5 2104.04C2156.17 2217.39 2310.87 2376.29 2345.37 2403.53C2319.21 2372.37 2185.05 2182.66 2121.24 2091.69C2120.75 2082.55 2118.54 2052.54 2113.59 2005.65C2126.11 2079.89 2285.29 2258.64 2333.75 2313.07C2337.83 2317.64 2341.12 2321.34 2343.48 2324.03C2339.53 2301.2 2230.36 2150.8 2163.32 2058.45C2136.06 2020.89 2115.77 1992.93 2112.35 1987.05C2116.15 1974.87 2090.12 1889.56 2076.63 1848.42ZM1795.65 2654.36L1746.09 2671.85C1742.43 2700.69 1707.29 2750.3 1690.18 2771.5L1795.65 2654.36Z" fill="#87C141"/>
<path fill-rule="evenodd" clip-rule="evenodd" d="M544.635 279.027C544.443 281.333 545.264 282.754 546.542 283.606C548.381 266.804 550.415 235.47 545.152 203.561C544.467 199.405 543.757 194.702 542.98 189.565L542.98 189.562C535.734 141.596 522.765 55.7528 471.695 24.1627L474.869 19.2898C527.75 52.0027 541.149 140.033 548.588 188.905C549.338 193.829 550.027 198.355 550.689 202.387C556.127 235.482 553.882 267.926 551.986 284.766C554.184 284.704 556.019 284.255 556.019 284.255C563.663 284.128 587.177 262.834 600.555 249.277C601.484 248.335 602.42 247.364 603.372 246.376C616.138 233.125 631.895 216.772 674.457 226.334C730.266 238.89 749.606 291.738 771.291 350.991L771.998 352.923C763.329 335.132 736.392 307.837 695.578 294.791C671.345 287.046 648.778 294.061 648.148 304.103C648.087 305.075 648.232 306.076 648.601 307.095C650.84 313.273 661.325 320.102 684.163 325.205C742.494 338.229 773.422 382.22 775.795 404.14C775.836 404.525 775.869 404.903 775.893 405.273C776.037 407.498 775.865 409.467 775.375 411.12C771.571 423.967 768.916 433.045 766.028 451.394C766.028 451.394 766.028 451.394 766.028 451.394C764.958 458.212 763.857 466.313 762.655 476.369C759.523 502.607 751.482 514.107 737.337 534.338C734.912 537.807 732.306 541.533 729.515 545.635L729.516 545.642C725.856 551.019 721.882 557.031 717.57 563.964C717.191 564.573 716.81 565.189 716.426 565.813C700.142 592.258 681.062 601.476 661.67 610.844C648.301 617.303 634.784 623.832 621.933 636.128C590.442 666.251 546.44 663.346 517.44 660.593C560.905 621.446 556.051 529.203 534.002 511.58C511.934 493.957 488.165 519.988 513.301 557.042C538.431 594.094 516.972 673.639 486.532 680.114C466.922 684.286 450.546 683.51 434.717 681.819C431.001 681.425 427.314 680.981 423.623 680.537L423.617 680.536L423.239 680.491C422.51 680.403 421.782 680.316 421.053 680.229L421.058 680.22C416.918 679.724 412.762 679.246 408.541 678.859C383.628 676.569 369.173 685.455 380.276 701.887C370.713 697.742 354.675 684.074 352.782 656.804C351.275 635.119 331.223 617.517 314.906 603.193C310.709 599.509 306.759 596.042 303.436 592.778C291.383 580.936 291.379 573.532 291.374 561.751C291.372 557.653 291.37 553.025 290.86 547.498C290.11 539.375 287.15 535.658 283.312 530.839C277.029 522.949 268.394 512.107 263.264 474.133C255.005 412.96 310.99 390.329 369.162 372.768C427.342 355.196 433.752 320.7 393.993 314.427C354.242 308.16 302.794 344.546 273.192 390.147C267.7 375.721 278.645 339.642 294.957 306.001C303.692 287.979 314.563 278.956 325.181 270.141C334.383 262.503 343.396 255.021 350.666 241.976C359.864 225.47 371.536 220.447 386.665 213.938C397.295 209.364 409.631 204.056 424.013 193.514C458.849 167.975 481.867 171.765 510.093 191.201C555.339 222.338 547.941 261.17 545.291 275.083L545.29 275.085C544.964 276.796 544.71 278.13 544.635 279.027ZM381.23 258.007C381.23 258.007 412.098 228.235 451.62 232.77C491.144 237.3 524.183 263.295 519.212 279.529C514.247 295.756 496.515 292.709 473.768 277.087C451.027 261.45 434.294 260.104 415.28 265.039C406.866 267.227 393.454 274.586 381.058 281.389C365.446 289.956 351.444 297.64 351.061 292.997C350.392 284.657 370.055 266.733 381.23 258.007ZM417.768 391.548C427.012 394.686 435.695 392.975 442.734 391.587C453.764 389.413 460.757 388.035 459.543 407.366C457.558 439.036 449.82 458.106 410.889 457.899C371.967 457.693 342.608 468.845 331.812 484.98C321.02 501.115 317.224 502.416 314.454 488.699C314.454 488.699 314.696 454.26 344.177 427.454C373.65 400.654 394.032 383.489 417.768 391.548ZM558.76 406.782C581.548 426.488 605.471 474.496 610.22 501.9C612.005 512.2 617.894 522.007 624.064 532.284C634.308 549.344 645.328 567.698 639.642 591.746C630.533 630.272 600.608 604.067 585.642 582.714C573.898 565.942 571.411 538.113 568.918 510.211C568.236 502.576 567.553 494.935 566.68 487.514C562.613 452.971 540.308 419.193 540.308 419.193C523.325 402.717 535.974 387.084 558.76 406.782Z" fill="#4D8348"/>
<path fill-rule="evenodd" clip-rule="evenodd" d="M537.555 263.027C537.363 265.333 538.184 266.754 539.462 267.606C541.301 250.804 543.335 219.47 538.072 187.561C537.387 183.405 536.676 178.702 535.9 173.565L535.9 173.562C528.654 125.596 515.685 39.7528 464.615 8.16275L467.789 3.28977C520.67 36.0027 534.069 124.033 541.508 172.905C542.257 177.829 542.946 182.355 543.609 186.387C549.047 219.482 546.801 251.926 544.906 268.766C547.104 268.704 548.939 268.255 548.939 268.255C556.583 268.128 580.097 246.834 593.475 233.277C594.404 232.335 595.34 231.364 596.292 230.376C609.058 217.125 624.815 200.772 667.377 210.334C723.185 222.89 742.526 275.738 764.211 334.991L764.918 336.923C756.249 319.132 729.312 291.837 688.498 278.791C664.265 271.046 641.698 278.061 641.068 288.103C641.007 289.075 641.152 290.076 641.521 291.095C643.76 297.273 654.245 304.102 677.083 309.205C735.414 322.229 766.342 366.22 768.714 388.14C768.756 388.525 768.789 388.903 768.813 389.273C768.957 391.498 768.785 393.467 768.294 395.12C764.491 407.967 761.836 417.045 758.948 435.394C758.948 435.394 758.948 435.394 758.948 435.394C757.878 442.212 756.777 450.313 755.575 460.369C752.443 486.607 744.402 498.107 730.257 518.338C727.831 521.807 725.226 525.533 722.435 529.635L722.436 529.642C718.776 535.019 714.802 541.031 710.49 547.964C710.111 548.573 709.73 549.189 709.346 549.813C693.062 576.258 673.982 585.476 654.589 594.844C641.221 601.303 627.704 607.832 614.853 620.128C583.362 650.251 539.36 647.346 510.36 644.593C553.825 605.446 548.971 513.203 526.922 495.58C504.854 477.957 481.085 503.988 506.221 541.042C531.351 578.094 509.892 657.639 479.452 664.114C459.842 668.286 443.466 667.51 427.637 665.819C423.921 665.425 420.234 664.981 416.543 664.537L416.537 664.536L416.159 664.491C415.43 664.403 414.702 664.316 413.973 664.229L413.978 664.22C409.838 663.724 405.682 663.246 401.461 662.859C376.548 660.569 362.092 669.455 373.196 685.887C363.633 681.742 347.595 668.074 345.702 640.804C344.195 619.119 324.143 601.517 307.826 587.193C303.629 583.509 299.679 580.042 296.356 576.778C284.303 564.936 284.299 557.532 284.294 545.751C284.292 541.653 284.29 537.025 283.78 531.498C283.03 523.375 280.07 519.658 276.232 514.839C269.948 506.949 261.313 496.107 256.184 458.133C247.925 396.96 303.91 374.329 362.082 356.768C420.262 339.196 426.672 304.7 386.913 298.427C347.162 292.16 295.714 328.546 266.111 374.147C260.62 359.721 271.565 323.642 287.877 290.001C296.612 271.979 307.482 262.956 318.101 254.141C327.303 246.503 336.316 239.021 343.586 225.976C352.784 209.47 364.456 204.447 379.585 197.938C390.215 193.364 402.551 188.056 416.933 177.514C451.769 151.975 474.787 155.765 503.013 175.201C548.259 206.338 540.861 245.17 538.211 259.083L538.21 259.085C537.884 260.796 537.63 262.13 537.555 263.027ZM374.15 242.007C374.15 242.007 405.018 212.235 444.54 216.77C484.064 221.3 517.103 247.295 512.132 263.529C507.167 279.756 489.435 276.709 466.688 261.087C443.947 245.45 427.214 244.104 408.2 249.039C399.785 251.227 386.374 258.586 373.978 265.389C358.366 273.956 344.364 281.64 343.98 276.997C343.312 268.657 362.974 250.733 374.15 242.007ZM410.688 375.548C419.932 378.686 428.615 376.975 435.654 375.587C446.684 373.413 453.677 372.035 452.463 391.366C450.478 423.036 442.74 442.106 403.809 441.899C364.887 441.693 335.528 452.845 324.732 468.98C313.94 485.115 310.144 486.416 307.374 472.699C307.374 472.699 307.616 438.26 337.097 411.454C366.57 384.654 386.952 367.489 410.688 375.548ZM551.68 390.782C574.468 410.488 598.391 458.496 603.14 485.9C604.925 496.2 610.814 506.007 616.984 516.284C627.228 533.344 638.248 551.698 632.562 575.746C623.453 614.272 593.528 588.067 578.562 566.714C566.817 549.942 564.331 522.113 561.838 494.211C561.155 486.576 560.473 478.935 559.6 471.514C555.533 436.971 533.228 403.193 533.228 403.193C516.245 386.717 528.893 371.084 551.68 390.782Z" fill="#69B263"/>
<path d="M566.666 456.753C566.216 457.117 565.729 457.487 565.133 457.584C564.057 457.76 563.097 457.015 562.335 456.322C558.746 453.063 555.293 449.692 551.975 446.215C550.339 444.499 548.717 442.733 547.684 440.679C546.449 438.229 546.159 435.542 546.567 432.888C543.322 441.951 536.781 449.938 527.576 455.371C526.98 455.72 526.301 456.063 525.596 455.96C525.162 455.896 524.778 455.667 524.417 455.438C519.662 452.399 516.056 448.063 513.92 443.242C511.123 436.932 509.729 428.042 513.57 421.837C518.245 414.271 526.192 407.224 533.94 402.154C534.536 401.764 535.208 401.365 535.943 401.418C536.708 401.471 537.31 401.99 537.84 402.48L537.905 402.54C543.427 407.625 549.028 412.784 548.886 420.265C548.833 423.075 548.482 425.85 547.847 428.554C548.473 427.122 549.279 425.748 550.22 424.482C553.753 419.732 558.948 416.182 564.041 412.72C564.527 412.388 565.104 412.039 565.706 412.151C566.163 412.236 566.498 412.57 566.796 412.887C570.037 416.32 572.842 420.072 575.153 424.05C575.522 424.684 575.947 425.372 576.395 426.095L576.396 426.097C578.087 428.826 580.085 432.053 580.48 434.753C581.563 442.172 572.322 452.159 566.666 456.753Z" fill="#715D20"/>
<path d="M612.248 418.658C620.751 428.398 617.943 438.714 612.953 448.908C612.718 449.396 612.46 449.906 611.987 450.229C611.41 450.622 610.636 450.669 609.91 450.698C605.444 450.889 600.745 451.036 596.755 449.246C590.517 446.45 587.918 439.905 585.882 433.975C583.815 427.955 581.726 421.709 582.686 415.478C582.968 413.644 583.62 411.699 585.299 410.602C586.534 409.795 588.137 409.578 589.673 409.505C598.265 409.097 606.98 412.629 612.248 418.658Z" fill="#715D20"/>
<path d="M640.216 426.92C648.193 427.401 655.851 424.376 663.116 421.419C664.53 420.847 666.073 420.148 666.613 418.86C667.282 417.264 666.116 415.563 665.007 414.172C661.619 409.924 658.156 405.608 653.494 402.449C645.941 397.335 636.074 395.804 626.588 395.361C626.136 395.34 625.683 395.321 625.229 395.305C625.557 395.239 625.883 395.167 626.209 395.092C626.874 394.933 627.563 394.751 628.069 394.335C628.583 393.918 628.851 393.317 629.033 392.715C630.43 388.08 627.543 383.365 624.762 379.246C620.977 373.634 616.596 367.59 609.557 365.624C605.296 364.433 600.61 364.964 596.422 366.346C592.233 367.728 588.455 369.911 584.727 372.093C584.184 372.413 583.604 372.768 583.382 373.308C583.184 373.798 583.316 374.338 583.479 374.837C585.581 381.294 593.488 388.467 599.928 391.753C604.195 393.93 608.986 395.333 613.883 395.83C612.085 396.118 610.318 396.531 608.602 397.106C607.324 397.532 605.95 398.177 605.549 399.336C605.211 400.319 605.678 401.363 606.165 402.299C612.688 414.926 623.356 425.902 640.216 426.92Z" fill="#715D20"/>
<path d="M681.495 387.239C682.144 387.039 682.823 386.81 683.276 386.353C684.174 385.44 683.839 384.038 683.389 382.897C679.297 372.523 668.77 363.639 656.413 361.776C649.662 360.764 635.461 360.928 630.689 366.347C626.06 371.599 632.321 378.834 636.078 383.176C636.239 383.362 636.396 383.543 636.547 383.718C646.063 394.776 668.82 391.144 681.495 387.239Z" fill="#715D20"/>
<path d="M478.387 414.356C477.689 417.396 478.344 420.55 479.258 423.548C480.106 426.326 481.172 429.049 482.238 431.765C483.291 434.462 484.934 437.595 488.122 437.962C490.195 438.196 492.142 437.117 493.844 436.043C499.43 432.519 504.661 428.556 509.452 424.208C512.694 421.265 515.793 418.073 517.538 414.262C520.313 408.201 519.356 401.371 518.356 394.893C518.257 394.23 518.094 393.482 517.459 393.124C516.982 392.857 516.379 392.887 515.82 392.931C507.916 393.594 498.4 395.691 492.211 400.318C491.2 401.074 490.124 401.815 489.036 402.566C484.433 405.738 479.601 409.07 478.387 414.356Z" fill="#715D20"/>
<path d="M462.111 382.74C465.363 379.97 469.836 378.659 474.203 377.652C484.458 375.291 492.825 374.325 503.232 376.558C504.298 376.787 505.414 377.063 506.199 377.743C508.364 379.621 506.649 382.833 504.851 384.993C498.626 392.468 491.16 400.281 480.832 401.865C477.372 402.396 473.833 402.17 470.329 401.944C465.647 401.642 460.777 401.29 456.734 399.184C456.052 398.829 455.363 398.38 455.102 397.722C454.863 397.106 455.045 396.429 455.231 395.801C456.608 391.083 458.144 386.113 462.111 382.74Z" fill="#715D20"/>
<path d="M462.644 352.285C454.558 353.837 446.986 358.258 443.161 364.759C442.817 365.343 442.496 366 442.645 366.649C442.781 367.221 443.261 367.679 443.751 368.078C448.082 371.627 454.009 373.153 459.763 374.303C467.905 375.931 476.822 377.008 484.954 374.761C490.295 373.285 495.391 369.26 495.974 364.099C496.537 359.142 490.43 356.362 485.904 354.302C485.638 354.181 485.377 354.062 485.123 353.945C478.766 351.023 469.475 350.973 462.644 352.285Z" fill="#715D20"/>
<path d="M504.204 342.746C504.069 343.033 503.923 343.306 503.764 343.561C502.039 346.334 498.88 347.237 495.662 348.157C494.434 348.508 493.195 348.862 492.026 349.323C486.016 351.697 477.941 352.688 471.957 349.757C468.845 348.235 466.487 345.741 464.458 343.156C460.858 338.583 458.014 333.501 456.488 328.091C456.061 326.572 455.829 324.738 457.107 323.655C457.766 323.092 458.703 322.872 459.594 322.696C469.421 320.745 479.901 321.833 489.089 325.419C496.433 328.288 508.247 333.991 504.204 342.746Z" fill="#715D20"/>
<path d="M508.282 295.525C501.898 291.893 493.968 290.86 486.412 291.465C485.832 291.512 485.23 291.57 484.726 291.829C484.127 292.131 483.733 292.668 483.399 293.207C480.084 298.573 480.991 305.374 484.11 310.837C487.233 316.294 492.282 320.665 497.358 324.813C500.954 327.747 504.904 330.757 509.742 331.385C511.659 331.632 513.732 331.453 515.311 330.458C516.947 329.425 517.808 327.691 518.444 326.002C522.414 315.455 519.437 301.871 508.282 295.525Z" fill="#715D20"/>
<path d="M525.874 268.886C533.778 271.72 542.457 275.214 545.662 282.217C547.117 285.4 548.06 289.258 548.09 293.078C548.251 292.119 548.453 291.164 548.667 290.218C549.846 285.025 551.396 279.894 553.303 274.871C555.111 270.104 557.581 265.081 562.518 262.602C564.167 261.778 566.173 261.285 567.955 261.857C569.547 262.362 570.67 263.611 571.65 264.832C576.289 270.614 579.769 277.251 580.732 284.289C582.408 296.511 575.474 306.932 564.24 313.627C562.998 314.366 561.518 315.079 560.081 314.721C559.16 314.492 558.448 313.865 557.78 313.26C553.657 309.531 549.353 305.515 548.114 300.413C547.861 299.371 547.745 298.317 547.729 297.257C546.968 301.269 544.956 304.928 541.178 307.322C539.824 308.182 538.278 308.856 536.619 309C534.732 309.161 532.871 308.63 531.086 308.079C525.371 306.321 519.444 304.086 515.928 299.729C512.736 295.774 512.031 290.573 512.885 285.77C513.736 280.968 516.007 276.464 518.355 272.069C519.239 270.415 520.431 268.557 522.474 268.264C523.633 268.1 524.788 268.496 525.874 268.886Z" fill="#715D20"/>
<path d="M623.559 290.777C624.781 294.324 622.271 297.983 619.612 300.846C615.417 305.358 610.864 309.695 604.656 311.827C603.683 312.162 602.7 312.533 601.709 312.907C599.355 313.795 596.953 314.701 594.524 315.182C597.062 315.756 599.346 317.137 601.133 319.748C602.613 321.914 603.894 324.322 603.778 326.851C603.623 330.307 600.924 333.223 598.189 335.691C589.978 343.102 581.382 346.208 569.73 345.337C569.048 345.287 568.333 345.214 567.773 344.862C567.207 344.507 566.886 343.917 566.637 343.339C565.568 340.843 565.897 338.344 566.233 335.788C566.31 335.203 566.388 334.614 566.449 334.021C566.869 329.92 567.419 325.531 570.439 322.403C572.415 320.356 575.223 319.106 578.028 318.07C581.149 316.92 584.62 315.691 588.006 315.144C587.135 314.922 586.263 314.596 585.392 314.148C580.76 311.766 578.819 306.382 579.918 301.735C581.021 297.088 584.643 293.174 588.892 290.276C596.236 285.271 606.08 282.859 615.056 284.901C618.698 285.731 622.463 287.591 623.559 290.777Z" fill="#715D20"/>
<path d="M655.491 308.983C656.442 307.003 657.372 304.647 656.12 302.804C655.418 301.763 654.147 301.132 652.885 300.648C649.478 299.34 645.747 298.767 642.032 298.668C631.77 298.395 620.721 302.391 616.129 310.526C614.419 313.554 613.725 316.862 613.033 320.163L613.032 320.165C612.776 321.389 612.519 322.612 612.212 323.819C612.046 324.463 611.816 325.093 611.591 325.708C610.771 327.947 610.03 329.973 612.821 331.67C616.097 333.664 620.988 333.207 625.317 332.803C626.912 332.655 628.43 332.513 629.764 332.503C644.254 332.391 650.174 320.059 655.177 309.637L655.491 308.983Z" fill="#715D20"/>
<path d="M679.076 331.232C681.632 333.787 682.519 336.313 682.287 338.719C681.638 345.47 672.159 351.296 665.801 354.292C657.149 358.367 646.434 357.577 637.104 356.342C634.928 356.052 632.299 355.362 631.872 353.452C631.7 352.678 631.962 351.883 632.236 351.129C634.312 345.429 637.365 339.743 642.676 336.037C646.425 333.423 651.027 331.992 655.586 330.745C656.326 330.542 657.085 330.326 657.856 330.106C665.09 328.042 673.495 325.643 679.076 331.232Z" fill="#715D20"/>
<path d="M627.715 350.264C628.115 353.013 625.155 355.149 622.463 356.56C616.755 359.552 611.053 362.424 604.269 362.383C597.732 362.345 591.511 359.209 586.806 355.395C585.62 354.427 584.415 353.268 584.362 351.842C584.316 350.49 585.326 349.307 586.322 348.283C588.723 345.801 591.332 343.481 594.117 341.342C596.66 339.388 599.501 337.534 602.818 337.053C607.358 336.399 611.778 338.417 615.811 340.371C619.91 342.36 624.185 344.493 626.675 347.993C627.172 348.688 627.596 349.448 627.715 350.264Z" fill="#715D20"/>
<path d="M538.537 313.88C544.623 316.362 551.172 319.243 554.03 324.609C556.698 329.614 560.49 343.675 553.632 347.293C551.99 348.158 549.95 348.079 548.04 347.971C545.311 347.815 542.547 347.654 539.947 346.903C533.222 344.958 528.577 339.254 526.63 333.228C524.68 327.205 524.988 320.809 525.316 314.549C525.398 313.002 525.676 311.166 527.243 310.479C528.557 309.896 530.12 310.444 531.454 310.987C532.374 311.362 533.292 311.738 534.21 312.113C535.653 312.702 537.094 313.292 538.537 313.88Z" fill="#715D20"/>
<path d="M522.463 372.509C514.46 373.519 505.984 370.896 500.428 365.7C498.968 364.336 497.63 362.581 497.948 360.724C498.253 358.92 500.007 357.617 501.689 356.564C507.573 352.885 514.268 350.022 521.42 349.25C526.877 348.66 546.181 350.685 543.976 358.75C543.204 361.586 537.934 365.435 535.324 367.34L535.095 367.507C531.496 370.139 527.092 371.928 522.463 372.509Z" fill="#715D20"/>
<path d="M546.656 351.708C547.007 351.335 547.566 351.174 548.093 351.033C559.552 347.991 571.174 347.299 580.528 354.962C586.965 360.237 586.929 371.714 576.582 372.729C569.893 373.383 562.95 371.793 557.456 368.346C551.96 364.901 547.963 359.626 546.44 353.815C546.252 353.105 546.129 352.274 546.656 351.708Z" fill="#715D20"/>
<path d="M548.694 370.366C550.668 372.954 553.307 378.276 553.601 381.386C554.29 388.632 547.476 395.638 540.466 398.425C536.483 400.009 532.175 400.804 527.904 401.588C527.503 401.661 527.049 401.723 526.718 401.508C526.407 401.306 526.327 400.925 526.274 400.584C525.357 394.467 525.327 388.248 526.182 382.122C526.433 380.321 526.771 378.499 527.606 376.841C528.486 375.081 529.894 373.579 531.284 372.097C533.85 369.36 536.926 366.394 540.939 366.312C544.072 366.25 546.943 368.069 548.694 370.366Z" fill="#715D20"/>
<path d="M586.234 408.56C585.572 409.015 584.655 408.997 583.82 408.933C576.539 408.358 567.129 405.113 562.55 399.744C557.749 394.12 556.606 384.333 556.063 377.55C555.997 376.696 556.014 375.699 556.769 375.165C557.322 374.774 558.093 374.772 558.802 374.786C565.202 374.924 571.973 375.159 577.344 378.245C584.112 382.127 587.026 389.652 587.764 396.766C588.115 400.111 588.082 403.514 587.241 406.794C587.072 407.448 586.837 408.147 586.234 408.56Z" fill="#715D20"/>
<path d="M570.666 439.753C570.216 440.117 569.729 440.487 569.133 440.584C568.057 440.76 567.097 440.015 566.335 439.322C562.746 436.063 559.293 432.692 555.975 429.215C554.339 427.499 552.717 425.733 551.684 423.679C550.449 421.229 550.159 418.542 550.567 415.888C547.322 424.951 540.781 432.938 531.576 438.371C530.98 438.72 530.301 439.063 529.596 438.96C529.162 438.896 528.778 438.667 528.417 438.438C523.662 435.399 520.056 431.063 517.92 426.242C515.123 419.932 513.729 411.042 517.57 404.837C522.245 397.271 530.192 390.224 537.94 385.154C538.536 384.764 539.208 384.365 539.943 384.418C540.708 384.471 541.31 384.99 541.84 385.48L541.905 385.54C547.427 390.625 553.028 395.784 552.886 403.265C552.833 406.075 552.482 408.85 551.847 411.554C552.473 410.122 553.279 408.748 554.22 407.482C557.753 402.732 562.948 399.182 568.041 395.72C568.527 395.388 569.104 395.039 569.706 395.151C570.163 395.236 570.498 395.57 570.796 395.887C574.037 399.32 576.842 403.072 579.153 407.05C579.522 407.684 579.947 408.372 580.395 409.095L580.396 409.097C582.087 411.826 584.085 415.053 584.48 417.753C585.563 425.172 576.322 435.159 570.666 439.753Z" fill="#FFDD74"/>
<path d="M616.248 401.658C624.751 411.398 621.943 421.714 616.953 431.908C616.718 432.396 616.46 432.906 615.987 433.229C615.41 433.622 614.636 433.669 613.91 433.698C609.444 433.889 604.745 434.036 600.755 432.246C594.517 429.45 591.918 422.905 589.882 416.975C587.815 410.955 585.726 404.709 586.686 398.478C586.968 396.644 587.62 394.699 589.299 393.602C590.534 392.795 592.137 392.578 593.673 392.505C602.265 392.097 610.98 395.629 616.248 401.658Z" fill="#FFDD74"/>
<path d="M644.216 409.92C652.193 410.401 659.851 407.376 667.116 404.419C668.53 403.847 670.073 403.148 670.613 401.86C671.282 400.264 670.116 398.563 669.007 397.172C665.619 392.924 662.156 388.608 657.494 385.449C649.941 380.335 640.074 378.804 630.588 378.361C630.136 378.34 629.683 378.321 629.229 378.305C629.557 378.239 629.883 378.167 630.209 378.092C630.874 377.933 631.563 377.751 632.069 377.335C632.583 376.918 632.851 376.317 633.033 375.715C634.43 371.08 631.543 366.365 628.762 362.246C624.977 356.634 620.596 350.59 613.557 348.624C609.296 347.433 604.61 347.964 600.422 349.346C596.233 350.728 592.455 352.911 588.727 355.093C588.184 355.413 587.604 355.768 587.382 356.308C587.184 356.798 587.316 357.338 587.479 357.837C589.581 364.294 597.488 371.467 603.928 374.753C608.195 376.93 612.986 378.333 617.883 378.83C616.085 379.118 614.318 379.531 612.602 380.106C611.324 380.532 609.95 381.177 609.549 382.336C609.211 383.319 609.678 384.363 610.165 385.299C616.688 397.926 627.356 408.902 644.216 409.92Z" fill="#FFDD74"/>
<path d="M685.495 370.239C686.144 370.039 686.823 369.81 687.276 369.353C688.174 368.44 687.839 367.038 687.389 365.897C683.297 355.523 672.77 346.639 660.413 344.776C653.662 343.764 639.461 343.928 634.689 349.347C630.06 354.599 636.321 361.834 640.078 366.176C640.239 366.362 640.396 366.543 640.547 366.718C650.063 377.776 672.82 374.144 685.495 370.239Z" fill="#FFDD74"/>
<path d="M482.387 397.356C481.689 400.396 482.344 403.55 483.258 406.548C484.106 409.326 485.172 412.049 486.238 414.765C487.291 417.462 488.934 420.595 492.122 420.962C494.195 421.196 496.142 420.117 497.844 419.043C503.43 415.519 508.661 411.556 513.452 407.208C516.694 404.265 519.793 401.073 521.538 397.262C524.313 391.201 523.356 384.371 522.356 377.893C522.257 377.23 522.094 376.482 521.459 376.124C520.982 375.857 520.379 375.887 519.82 375.931C511.916 376.594 502.4 378.691 496.211 383.318C495.2 384.074 494.124 384.815 493.036 385.566C488.433 388.738 483.601 392.07 482.387 397.356Z" fill="#FFDD74"/>
<path d="M466.111 365.74C469.363 362.97 473.836 361.659 478.203 360.652C488.458 358.291 496.825 357.325 507.232 359.558C508.298 359.787 509.414 360.063 510.199 360.743C512.364 362.621 510.649 365.833 508.851 367.993C502.626 375.468 495.16 383.281 484.832 384.865C481.372 385.396 477.833 385.17 474.329 384.944C469.647 384.642 464.777 384.29 460.734 382.184C460.052 381.829 459.363 381.38 459.102 380.722C458.863 380.106 459.045 379.429 459.231 378.801C460.608 374.083 462.144 369.113 466.111 365.74Z" fill="#FFDD74"/>
<path d="M466.644 335.285C458.558 336.837 450.986 341.258 447.161 347.759C446.817 348.343 446.496 349 446.645 349.649C446.781 350.221 447.261 350.679 447.751 351.078C452.082 354.627 458.009 356.153 463.763 357.303C471.905 358.931 480.822 360.008 488.954 357.761C494.295 356.285 499.391 352.26 499.974 347.099C500.537 342.142 494.43 339.362 489.904 337.302C489.638 337.181 489.377 337.062 489.123 336.945C482.766 334.023 473.475 333.973 466.644 335.285Z" fill="#FFDD74"/>
<path d="M508.204 325.746C508.069 326.033 507.923 326.306 507.764 326.561C506.039 329.334 502.88 330.237 499.662 331.157C498.434 331.508 497.195 331.862 496.026 332.323C490.016 334.697 481.941 335.688 475.957 332.757C472.845 331.235 470.487 328.741 468.458 326.156C464.858 321.583 462.014 316.501 460.488 311.091C460.061 309.572 459.829 307.738 461.107 306.655C461.766 306.092 462.703 305.872 463.594 305.696C473.421 303.745 483.901 304.833 493.089 308.419C500.433 311.288 512.247 316.991 508.204 325.746Z" fill="#FFDD74"/>
<path d="M512.282 278.525C505.898 274.893 497.968 273.86 490.412 274.465C489.832 274.512 489.23 274.57 488.726 274.829C488.127 275.131 487.733 275.668 487.399 276.207C484.084 281.573 484.991 288.374 488.11 293.837C491.233 299.294 496.282 303.665 501.358 307.813C504.954 310.747 508.904 313.757 513.742 314.385C515.659 314.632 517.732 314.453 519.311 313.458C520.947 312.425 521.808 310.691 522.444 309.002C526.414 298.455 523.437 284.871 512.282 278.525Z" fill="#FFDD74"/>
<path d="M529.874 251.886C537.778 254.72 546.457 258.214 549.662 265.217C551.117 268.4 552.06 272.258 552.09 276.078C552.251 275.119 552.453 274.164 552.667 273.218C553.846 268.025 555.396 262.894 557.303 257.871C559.111 253.104 561.581 248.081 566.518 245.602C568.167 244.778 570.173 244.285 571.955 244.857C573.547 245.362 574.67 246.611 575.65 247.832C580.289 253.614 583.769 260.251 584.732 267.289C586.408 279.511 579.474 289.932 568.24 296.627C566.998 297.366 565.518 298.079 564.081 297.721C563.16 297.492 562.448 296.865 561.78 296.26C557.657 292.531 553.353 288.515 552.114 283.413C551.861 282.371 551.745 281.317 551.729 280.257C550.968 284.269 548.956 287.928 545.178 290.322C543.824 291.182 542.278 291.856 540.619 292C538.732 292.161 536.871 291.63 535.086 291.079C529.371 289.321 523.444 287.086 519.928 282.729C516.736 278.774 516.031 273.573 516.885 268.77C517.736 263.968 520.007 259.464 522.355 255.069C523.239 253.415 524.431 251.557 526.474 251.264C527.633 251.1 528.788 251.496 529.874 251.886Z" fill="#FFDD74"/>
<path d="M627.559 273.777C628.781 277.324 626.271 280.983 623.612 283.846C619.417 288.358 614.864 292.695 608.656 294.827C607.683 295.162 606.7 295.533 605.709 295.907C603.355 296.795 600.953 297.701 598.524 298.182C601.062 298.756 603.346 300.137 605.133 302.748C606.613 304.914 607.894 307.322 607.778 309.851C607.623 313.307 604.924 316.223 602.189 318.691C593.978 326.102 585.382 329.208 573.73 328.337C573.048 328.287 572.333 328.214 571.773 327.862C571.207 327.507 570.886 326.917 570.637 326.339C569.568 323.843 569.897 321.344 570.233 318.788C570.31 318.203 570.388 317.614 570.449 317.021C570.869 312.92 571.419 308.531 574.439 305.403C576.415 303.356 579.223 302.106 582.028 301.07C585.149 299.92 588.62 298.691 592.006 298.144C591.135 297.922 590.263 297.596 589.392 297.148C584.76 294.766 582.819 289.382 583.918 284.735C585.021 280.088 588.643 276.174 592.892 273.276C600.236 268.271 610.08 265.859 619.056 267.901C622.698 268.731 626.463 270.591 627.559 273.777Z" fill="#FFDD74"/>
<path d="M659.491 291.983C660.442 290.003 661.372 287.647 660.12 285.804C659.418 284.763 658.147 284.132 656.885 283.648C653.478 282.34 649.747 281.767 646.032 281.668C635.77 281.395 624.721 285.391 620.129 293.526C618.419 296.554 617.725 299.862 617.033 303.163L617.032 303.165C616.776 304.389 616.519 305.612 616.212 306.819C616.046 307.463 615.816 308.093 615.591 308.708C614.771 310.947 614.03 312.973 616.821 314.67C620.097 316.664 624.988 316.207 629.317 315.803C630.912 315.655 632.43 315.513 633.764 315.503C648.254 315.391 654.174 303.059 659.177 292.637L659.491 291.983Z" fill="#FFDD74"/>
<path d="M683.076 314.232C685.632 316.787 686.519 319.313 686.287 321.719C685.638 328.47 676.159 334.296 669.801 337.292C661.149 341.367 650.434 340.577 641.104 339.342C638.928 339.052 636.299 338.362 635.872 336.452C635.7 335.678 635.962 334.883 636.236 334.129C638.312 328.429 641.365 322.743 646.676 319.037C650.425 316.423 655.027 314.992 659.586 313.745C660.326 313.542 661.085 313.326 661.856 313.106C669.09 311.042 677.495 308.643 683.076 314.232Z" fill="#FFDD74"/>
<path d="M631.715 333.264C632.115 336.013 629.155 338.149 626.463 339.56C620.755 342.552 615.053 345.424 608.269 345.383C601.732 345.345 595.511 342.209 590.806 338.395C589.62 337.427 588.415 336.268 588.362 334.842C588.316 333.49 589.326 332.307 590.322 331.283C592.723 328.801 595.332 326.481 598.117 324.342C600.66 322.388 603.501 320.534 606.818 320.053C611.358 319.399 615.778 321.417 619.811 323.371C623.91 325.36 628.185 327.493 630.675 330.993C631.172 331.688 631.596 332.448 631.715 333.264Z" fill="#FFDD74"/>
<path d="M542.537 296.88C548.623 299.362 555.172 302.243 558.03 307.609C560.698 312.614 564.49 326.675 557.632 330.293C555.99 331.158 553.95 331.079 552.04 330.971C549.311 330.815 546.547 330.654 543.947 329.903C537.222 327.958 532.577 322.254 530.63 316.228C528.68 310.205 528.988 303.809 529.316 297.549C529.398 296.002 529.676 294.166 531.243 293.479C532.557 292.896 534.12 293.444 535.454 293.987C536.374 294.362 537.292 294.738 538.21 295.113C539.653 295.702 541.094 296.292 542.537 296.88Z" fill="#FFDD74"/>
<path d="M526.463 355.509C518.46 356.519 509.984 353.896 504.428 348.7C502.968 347.336 501.63 345.581 501.948 343.724C502.253 341.92 504.007 340.617 505.689 339.564C511.573 335.885 518.268 333.022 525.42 332.25C530.877 331.66 550.181 333.685 547.976 341.75C547.204 344.586 541.934 348.435 539.324 350.34L539.095 350.507C535.496 353.139 531.092 354.928 526.463 355.509Z" fill="#FFDD74"/>
<path d="M550.656 334.708C551.007 334.335 551.566 334.174 552.093 334.033C563.552 330.991 575.174 330.299 584.528 337.962C590.965 343.237 590.929 354.714 580.582 355.729C573.893 356.383 566.95 354.793 561.456 351.346C555.96 347.901 551.963 342.626 550.44 336.815C550.252 336.105 550.129 335.274 550.656 334.708Z" fill="#FFDD74"/>
<path d="M552.694 353.366C554.668 355.954 557.307 361.276 557.601 364.386C558.29 371.632 551.476 378.638 544.466 381.425C540.483 383.009 536.175 383.804 531.904 384.588C531.503 384.661 531.049 384.723 530.718 384.508C530.407 384.306 530.327 383.925 530.274 383.584C529.357 377.467 529.327 371.248 530.182 365.122C530.433 363.321 530.771 361.499 531.606 359.841C532.486 358.081 533.894 356.579 535.284 355.097C537.85 352.36 540.926 349.394 544.939 349.312C548.072 349.25 550.943 351.069 552.694 353.366Z" fill="#FFDD74"/>
<path d="M590.234 391.56C589.572 392.015 588.655 391.997 587.82 391.933C580.539 391.358 571.129 388.113 566.55 382.744C561.749 377.12 560.606 367.333 560.063 360.55C559.997 359.696 560.014 358.699 560.769 358.165C561.322 357.774 562.093 357.772 562.802 357.786C569.202 357.924 575.973 358.159 581.344 361.245C588.112 365.127 591.026 372.652 591.764 379.766C592.115 383.111 592.082 386.514 591.241 389.794C591.072 390.448 590.837 391.147 590.234 391.56Z" fill="#FFDD74"/>
<path d="M817.101 358.599C819.181 350.507 824.412 348.396 829.24 355.931C830.982 359.201 833.922 374.109 833.685 377.299C830.301 394.369 814.059 370.445 817.101 358.599ZM855.121 337.69C845.506 330.05 865.581 325.635 872.042 331.371C876.457 335.291 875.53 340.931 869.363 341.49C866.788 341.51 857.036 338.875 855.121 337.69V337.69ZM737.223 305.082C739.67 311.997 742.92 346.851 726.051 334.838C715.195 327.296 730.937 292.404 737.223 305.082ZM792.446 275.901L792.487 275.808C796.447 267.309 813.101 257.754 821.46 252.892C828.685 248.948 847.516 250.486 844.727 263.315C842.955 271.003 823.009 275.651 816.029 276.989C811.658 278.616 805.732 279.345 801.552 279.615C795.858 279.972 791.208 279.969 792.446 275.901V275.901ZM760.713 218.012L760.846 217.874C769.237 209.314 778.28 197.184 789.572 191.466C798.728 185.74 815.133 186.398 808.285 201.362C804.16 209.21 788.626 217.081 781.557 219.946C770.238 224.963 741.96 236.706 760.713 218.012V218.012ZM799.268 469.644C820.629 480.74 877.794 467.64 882.615 464.173C887.435 460.689 829.383 364.204 846.775 362.825C864.157 361.433 888.016 441.65 893.66 451.563C903.628 469.072 935.099 473.323 944.967 473C965.067 472.332 998.503 462.016 1004.64 461.525C1010.78 461.036 1011.7 401.968 1004.3 389.168C996.881 376.362 969.712 361.697 962.55 362.261C955.396 362.838 914.431 348.153 929.388 342.835C944.338 337.522 1009.67 363.232 1012.93 365.034C1016.2 366.833 1008.92 314.602 1006.4 299.614C1004.4 287.788 988.354 262.473 953.617 268.905C907.9 277.376 879.458 283.903 862.793 270.473C840.622 252.625 934.806 248.633 947.473 251.753C960.141 254.863 974.267 251.679 990.1 255.571C1005.93 259.454 951.474 106.275 911.58 131.087C871.69 155.905 864.295 186.374 845.59 184.775C826.884 183.174 824.993 167.241 844.361 161.172C866.999 154.086 895.176 133.142 911.628 120.785C926.046 109.954 861.673 44.2578 841.208 45.8865C820.752 47.5226 801.154 112.115 788.872 123.826C776.594 135.536 751.642 131.468 764.291 119.128C776.933 106.782 817.071 76.6164 821.255 38.022C821.255 38.022 785.31 9.12742 755.379 25.9343C725.457 42.7486 702.969 87.8141 705.911 140.135C708.854 192.452 687.605 186.377 674.964 186.252C674.964 186.252 556.451 190.789 551.528 250.327C545.001 329.198 615.691 389.7 625.652 398.314C645.072 415.115 656.426 402.067 656.426 402.067C656.426 402.067 640.688 314.74 668.327 273.624C676.162 261.975 687.544 271.434 685.357 280.882C683.164 290.332 660.773 336.419 666.478 363.788C672.193 391.152 697.437 437.738 709.514 446.321C738.204 466.703 772.593 459.843 772.593 459.843C772.593 459.843 765.48 407.421 757.827 381.237C750.164 355.065 750.972 320.042 759.119 319.309C765.574 318.731 767.575 328.34 770.21 348.74C771.684 360.137 777.078 458.122 799.268 469.644" fill="#688E11"/>
<path d="M823.257 353.866C825.392 345.783 830.692 343.656 835.547 351.16C837.297 354.417 840.213 369.287 839.961 372.473C836.472 389.524 820.134 365.703 823.257 353.866ZM861.798 332.858C852.101 325.267 872.426 320.788 878.94 326.49C883.391 330.387 882.431 336.019 876.191 336.6C873.585 336.629 863.731 334.034 861.798 332.858V332.858ZM742.66 300.737C745.108 307.631 748.261 342.409 731.243 330.479C720.291 322.991 736.35 288.105 742.66 300.737ZM798.634 271.409L798.676 271.316C802.715 262.819 819.599 253.22 828.074 248.337C835.397 244.374 854.441 245.841 851.57 258.656C849.748 266.336 829.553 271.048 822.487 272.41C818.059 274.049 812.061 274.798 807.832 275.083C802.071 275.46 797.367 275.474 798.634 271.409V271.409ZM766.756 213.741L766.892 213.602C775.413 205.028 784.607 192.887 796.052 187.138C805.336 181.39 821.929 181.987 814.944 196.948C810.741 204.797 794.996 212.71 787.835 215.596C776.365 220.644 747.714 232.469 766.756 213.741V213.741ZM804.79 464.774C826.355 475.772 884.233 462.49 889.124 459.011C894.013 455.516 835.66 359.417 853.259 357.978C870.848 356.525 894.674 436.509 900.346 446.384C910.362 463.825 942.181 467.954 952.164 467.596C972.5 466.856 1006.36 456.437 1012.57 455.925C1018.78 455.415 1019.95 396.452 1012.51 383.702C1005.05 370.946 977.625 356.406 970.378 356.995C963.138 357.597 921.755 343.087 936.907 337.724C952.049 332.367 1018.04 357.793 1021.34 359.58C1024.63 361.364 1017.46 309.254 1014.97 294.303C1013 282.506 996.865 257.295 961.701 263.842C915.421 272.462 886.624 279.081 869.818 265.736C847.458 248.001 942.75 243.675 955.552 246.743C968.354 249.802 982.656 246.572 998.658 250.4C1014.66 254.218 960.159 101.515 919.707 126.427C879.259 151.344 871.661 181.784 852.745 180.257C833.828 178.727 831.977 162.829 851.592 156.701C874.52 149.545 903.105 128.538 919.795 116.143C934.422 105.28 869.555 39.937 848.847 41.6368C828.148 43.3441 808.074 107.89 795.605 119.624C783.139 131.357 757.914 127.387 770.757 115.023C783.593 102.655 824.312 72.3982 828.693 33.859C828.693 33.859 792.442 5.14735 762.1 22.0321C731.767 38.9242 708.845 83.9891 711.619 136.204C714.395 188.415 692.923 182.428 680.136 182.349C680.136 182.349 560.232 187.308 555.023 246.755C548.117 325.506 619.393 385.641 629.437 394.203C649.017 410.903 660.553 397.838 660.553 397.838C660.553 397.838 644.968 310.727 673.086 269.586C681.057 257.93 692.534 267.33 690.285 276.769C688.031 286.21 665.203 332.294 670.868 359.593C676.544 386.886 701.902 433.296 714.086 441.819C743.03 462.06 777.844 455.088 777.844 455.088C777.844 455.088 770.85 402.787 763.209 376.679C755.558 350.582 756.511 315.62 764.755 314.859C771.287 314.259 773.274 323.843 775.861 344.196C777.308 355.567 782.387 453.354 804.79 464.774" fill="#B8D96A"/>
</svg>
