<svg viewBox="0 0 360 640" fill="none" xmlns="http://www.w3.org/2000/svg">
<rect x="61.8501" y="134.252" width="241.375" height="375.741" stroke="#0000FF" stroke-width="7"/>
<path d="M105.677 125.746C97.0449 126.625 61.0966 130.287 47.5142 131.58C32.0287 133.053 15.8912 127.017 15.8912 127.017C18.0138 128.898 27.2151 133.259 46.3997 134.896C58.2743 135.907 70.5682 133.601 82.7511 131.315C90.2494 129.909 97.7056 128.51 104.996 127.897L106.641 126.393L106.275 125.685L105.677 125.746Z" fill="#71A138"/>
<path d="M103.084 149.806C103.484 147.097 103.997 144.067 104.532 141.091C104.589 141.781 104.695 142.336 104.859 142.696C106.224 151.044 111.252 156.494 114.073 159.552C114.431 159.939 114.753 160.289 115.028 160.6C117.144 163.006 120.894 165.183 121.854 165.72C121.93 165.766 122.007 165.809 122.085 165.848C122.085 165.848 122.004 165.804 121.854 165.72C120.619 164.965 119.71 163.16 118.682 161.121C118.148 160.061 117.582 158.937 116.922 157.866C114.917 154.609 110.64 143.233 108.503 137.223C106.994 132.975 107.142 129.47 107.358 127.776L106.656 126.424L104.067 128.924C104.067 128.924 97.0084 148.613 97.1137 157.202C97.3134 173.385 101.342 180.041 103.067 182.89C103.104 182.95 103.139 183.009 103.173 183.066C103.23 183.159 103.283 183.248 103.333 183.332C105.863 187.599 110.57 191.232 110.57 191.232C110.57 191.232 99.0972 176.787 103.084 149.806Z" fill="#71A138"/>
<path d="M90.3979 173.519C88.8344 178.893 88.7504 185.615 88.8325 189.047C88.8668 190.439 88.928 191.292 88.928 191.292C84.2213 173.354 90.9206 149.482 93.0018 145.657C93.4882 144.763 94.0883 143.636 94.7426 142.407C96.8864 138.38 99.6117 133.262 100.823 131.674C100.823 131.674 94.942 157.903 90.3979 173.519Z" fill="#71A138"/>
<path d="M102.835 225.179C100.239 221.821 96.1024 216.473 93.909 212.306C81.1048 187.974 83.6537 152.272 83.6537 152.272C83.5373 152.541 83.3517 152.909 83.118 153.373L83.1178 153.374C81.3564 156.87 76.8661 165.785 78.7021 178.305C78.7587 178.691 78.8144 179.073 78.8694 179.449L78.8695 179.45C80.8291 192.87 81.8389 199.784 89.4053 211.386C95.6819 221.013 98.8033 223.674 100.543 225.157C100.958 225.512 101.295 225.799 101.577 226.098C101.7 226.228 101.833 226.369 101.975 226.518L101.979 226.522C103.521 228.147 106.028 230.788 106.738 232.401C107.511 234.164 106.358 229.984 104.802 227.774C104.41 227.216 103.71 226.311 102.835 225.179Z" fill="#71A138"/>
<path d="M82.6365 219.219L82.6367 219.22L82.7394 219.727C84.2076 226.985 86.3587 233.333 88.574 237.434C91.1978 242.291 93.5046 244.832 93.5046 244.832C84.2404 237.361 75.2305 211.317 72.6995 192.467C71.894 186.463 72.1185 171.295 73.7867 167.882C73.7867 167.882 76.5035 187.691 77.0752 191.127C77.6343 194.504 80.5674 208.996 82.635 219.212L82.6359 219.216L82.6365 219.219Z" fill="#71A138"/>
<path d="M76.5856 227.55C75.8381 223.388 71.788 202.53 70.2465 196.449C68.3987 189.138 68.1557 182.395 68.1557 182.395C67.0083 187.245 66.9776 205.433 70.4549 222.479C73.9296 239.522 76.9164 243.781 78.3773 245.519C78.3773 245.519 78.3496 244.907 78.2922 243.873C78.1073 240.622 77.6009 233.202 76.5856 227.55Z" fill="#71A138"/>
<path d="M64.1673 218.343C67.4047 229.76 70.5531 241.947 72.184 253.21C72.803 257.485 73.6327 260.78 74.4864 263.295C76.0241 267.818 77.6399 269.819 78.2596 270.466C77.4003 269.6 74.4938 266.343 70.4723 258.378C65.6436 248.816 61.7003 231.248 60.894 225.02C60.0862 218.793 60.7938 212.294 61.1427 210.129C61.3904 208.593 61.6932 204.777 61.9763 201.209L61.9764 201.208C62.0921 199.75 62.2045 198.334 62.3085 197.132C62.3085 197.132 61.6606 209.508 64.1673 218.343Z" fill="#71A138"/>
<path d="M78.5214 270.718C78.5214 270.718 78.4327 270.64 78.2596 270.466C78.4282 270.642 78.5214 270.718 78.5214 270.718Z" fill="#71A138"/>
<path d="M58.9388 239.672C64.296 258.864 76.4158 274.007 80.7575 278.592C85.1008 283.179 85.2181 287.537 85.2181 287.537C75.7714 286.203 62.6218 269.62 57.9692 257.875C52.3689 243.734 54.8124 231.407 56.3067 225.539C54.1365 228.539 49.0206 235.337 42.731 241.853C20.2006 265.198 0.672546 269.899 0.672546 269.899C0.474113 269.612 2.83728 268.14 6.287 265.991L6.49788 265.86C11.9017 262.489 19.8376 257.521 24.8317 252.834C26.0378 251.702 27.236 250.39 28.5551 248.945C32.0261 245.144 36.3347 240.426 43.8304 235.656C50.9362 231.135 54.6976 227.304 56.3555 225.348C56.488 224.833 56.612 224.37 56.721 223.964L56.729 223.934C56.729 223.934 56.7558 224.251 56.8064 224.799C56.9866 224.572 57.1247 224.388 57.2244 224.251C57.1226 224.396 56.9838 224.593 56.81 224.838C57.0651 227.596 57.897 235.943 58.9388 239.672Z" fill="#71A138"/>
<path d="M57.4303 223.955C57.4303 223.955 57.3656 224.057 57.2244 224.251C57.3616 224.057 57.4303 223.955 57.4303 223.955Z" fill="#71A138"/>
<path d="M44.6533 267.025C45.7281 262.282 47.0731 256.346 48.4808 251.382C50.6806 243.615 53.1277 238.52 53.1277 238.52C51.9806 239.787 47.316 249.926 44.3646 256.34C43.137 259.009 42.2058 261.032 41.9473 261.506C40.8192 263.585 38.6849 267.877 35.283 276.607C35.283 276.607 26.2216 298.641 23.9246 309.607C23.9246 309.607 29.6681 303.818 32.5482 299.95C35.4237 296.08 40.9314 280.852 42.8282 274.612C43.2444 273.242 43.8787 270.443 44.6533 267.025Z" fill="#71A138"/>
<path d="M26.6137 209.65C54.9651 205.755 62.3085 197.132 62.3085 197.132C62.3085 197.132 62.1461 198.882 61.9579 199.418C57.4725 212.238 39.3498 212.746 32.2334 212.946C30.9454 212.982 30.0179 213.008 29.5971 213.095C26.8531 213.667 17.8983 211.616 17.8983 211.616C14.7235 211.18 12.897 209.791 9.61875 205.927C9.61875 205.927 16.0095 211.107 26.6137 209.65Z" fill="#71A138"/>
<path d="M16.0365 177.909C49.3636 185.137 69.7661 175.793 69.7661 175.793L69.2034 177.149C69.2034 177.149 68.0214 181.741 58.0887 184.255C53.1403 185.508 45.1955 186.02 35.7792 185.638C19.0843 184.957 2.9037 174.079 2.9037 174.079C4.55649 174.094 6.58314 174.837 8.97045 175.712C11.054 176.475 13.4122 177.34 16.0365 177.909Z" fill="#71A138"/>
<path d="M42.3354 191.7C40.0356 192.073 38.0077 192.402 36.6492 192.656C31.7135 193.581 21.0473 198.915 21.0473 198.915C23.2955 198.414 27.6953 197.973 27.6953 197.973C27.6953 197.973 35.0017 196.728 42.8559 196.104C59.3001 194.798 65.2331 185.552 65.2331 185.552C65.2331 185.552 66.9776 183.146 65.9357 183.814C65.6652 183.988 65.301 184.284 64.848 184.652L64.8475 184.653L64.8469 184.653C63.553 185.706 61.5349 187.348 58.9032 188.401C56.327 189.431 48.3891 190.718 42.3354 191.7Z" fill="#71A138"/>
<path d="M94.9071 138.198C94.9071 138.198 92.0194 142.111 91.2347 142.687C87.7161 142.934 83.9176 143.392 79.893 144.149C71.8786 145.653 64.9174 147.983 59.1435 150.424C59.1743 150.404 59.2052 150.385 59.2362 150.365C59.3014 150.323 59.3669 150.281 59.4314 150.24C76.4785 139.474 94.9071 138.198 94.9071 138.198Z" fill="#71A138"/>
<path d="M10.5105 164.67C10.004 164.58 9.52237 164.494 9.06747 164.422C8.82251 164.386 8.65254 164.383 8.59163 164.421C8.30321 164.605 10.4248 165.653 18.365 167.62C27.9951 170.008 45.2644 171.614 54.496 169.964C70.9811 167.021 77.3725 161.531 77.3725 161.531L78.0799 160.307C74.5058 162.768 52.0237 163.686 45.0148 163.25C39.0741 162.881 27.7633 164.255 21.9478 164.961L21.9474 164.961L21.946 164.961C20.9031 165.088 20.0371 165.193 19.4106 165.263C15.9961 165.645 12.9616 165.106 10.5105 164.67Z" fill="#71A138"/>
<path d="M50.5193 225.8C47.811 228.083 29.3772 242.476 16.0318 248.701C10.6983 251.19 0.546423 257.715 0.546423 257.715C2.48762 255.672 14.2835 246.28 19.5878 243.148C24.8937 240.017 50.9151 222.917 53.6353 221.063C56.302 219.244 57.8573 216.443 57.9156 216.338L57.9162 216.337C57.8484 216.461 54.6393 222.332 50.5193 225.8Z" fill="#71A138"/>
<path d="M103.897 129.407C100.288 132.683 96.8251 136.168 93.5555 139.982C92.8196 140.931 91.9598 142.001 91.4599 142.49C88.5361 146.068 85.7613 149.8 83.1521 153.669C81.9047 157.588 79.0866 169.675 83.7373 188.881C85.5802 196.499 87.3474 202.139 89.1142 206.512C88.8145 200.658 88.9277 191.292 88.9277 191.292C88.9277 191.292 88.867 190.44 88.8327 189.047C88.8327 189.047 89.9653 193.966 91.1126 199.787C91.9159 203.863 92.6197 209.287 93.0867 214.46C95.364 218.091 97.7294 220.548 100.333 223.254L100.369 223.291C100.591 223.522 100.816 223.756 101.042 223.992C105.109 228.234 106.738 232.402 106.738 232.402C106.029 230.791 103.527 228.153 101.985 226.528L101.979 226.522C101.836 226.372 101.702 226.23 101.577 226.098C101.295 225.8 100.959 225.513 100.543 225.158C99.2091 224.021 97.0624 222.191 93.3028 217.057C93.4018 218.36 93.4834 219.628 93.5452 220.833C93.8845 227.491 94.128 234.571 94.128 234.571C94.128 234.571 92.777 231.495 92.3765 227.213C92.1952 225.271 91.7154 222.904 91.1697 220.21C90.6514 217.652 90.0734 214.799 89.6353 211.739C89.559 211.623 89.4822 211.505 89.405 211.387C81.8387 199.785 80.8289 192.87 78.8693 179.451C78.8143 179.074 78.7585 178.692 78.7018 178.305C77.0665 167.154 80.4501 158.863 82.4542 154.713C79.3404 159.412 76.4699 164.307 73.8721 169.369C69.1349 178.593 65.2811 188.382 62.3576 198.487C62.4241 200.822 62.4884 205.85 62.0498 211.01C61.6817 215.339 62.5283 219.266 63.8639 225.461C64.7071 229.372 65.7451 234.187 66.7955 240.578C69.5089 257.092 78.5213 270.718 78.5213 270.718C78.5213 270.718 75.3021 267.942 70.4723 258.379C65.6435 248.816 61.7002 231.249 60.8939 225.021C60.0861 218.793 60.7937 212.295 61.1426 210.129C61.3903 208.593 61.6932 204.776 61.9764 201.207C62.0284 200.552 62.0798 199.904 62.13 199.281C61.8219 200.366 61.5245 201.454 61.2379 202.546C58.8724 211.556 57.8349 220.55 56.7814 229.684C56.5822 231.41 56.3825 233.142 56.1731 234.879C56.5151 241.844 58.2078 251.272 63.7323 260.551C74.4641 278.58 85.2181 287.537 85.2181 287.537C75.7709 286.203 62.6219 269.62 57.9692 257.875C55.1422 250.737 54.3648 244.062 54.4803 238.446C52.7237 248.915 50.3165 269.753 50.8153 274.94C51.09 277.791 51.3515 279.878 51.5641 281.574C51.5886 281.769 51.6125 281.96 51.6356 282.145C51.9334 284.505 52.1247 286.12 52.1086 288.164C52.1086 288.164 45.1701 276.826 48.6862 255.728C48.9015 254.437 49.1046 253.159 49.3014 251.921L49.3016 251.919L49.3023 251.915L49.3024 251.915C49.6942 249.449 50.061 247.142 50.4479 245.199C49.8178 246.978 49.1381 249.061 48.4806 251.383C47.0729 256.346 45.7279 262.282 44.6531 267.025C43.8785 270.443 43.2442 273.242 42.828 274.612C40.9317 280.852 35.4235 296.081 32.548 299.95C29.6684 303.818 23.9244 309.608 23.9244 309.608C23.9244 309.608 30.0785 299.907 34.0723 290.502C37.1301 283.304 42.1458 267.508 44.6416 259.648C45.4063 257.24 45.9344 255.576 46.0972 255.134C47.5687 251.126 49.3582 246.905 50.7639 243.721C51.0318 242.563 51.3139 241.593 51.624 240.872C52.3191 239.258 53.7205 236.499 54.7006 234.607C54.8315 233.212 55.0091 231.908 55.2091 230.707C55.2437 230.065 55.2857 229.421 55.3347 228.777C53.3218 232.993 50.0046 238.958 46.0289 242.352C42.5816 245.293 39.5635 248.315 36.7439 251.138L36.7435 251.138C34.1546 253.731 31.7329 256.155 29.3001 258.196C21.3084 264.902 1.53462 271.158 0.672543 269.899C0.474088 269.611 2.83765 268.139 6.28783 265.991L6.49786 265.86C11.9017 262.489 19.8376 257.522 24.8317 252.835C26.0374 251.703 27.2351 250.391 28.5537 248.947C32.0247 245.145 36.3336 240.426 43.8304 235.656C49.9728 231.747 53.616 228.354 55.5621 226.243C55.8252 223.691 56.1888 221.131 56.6257 218.585C54.9622 221.422 52.0532 226.163 50.1132 228.11C48.6637 229.564 46.0149 231.418 43.2153 233.377C40.502 235.276 37.6471 237.273 35.6053 239.102C31.4561 242.821 18.9049 249.933 14.1196 252.2C9.33529 254.469 0.249314 258.025 0.546334 257.715C2.48753 255.672 14.2834 246.28 19.5877 243.148C24.8936 240.017 50.915 222.917 53.6352 221.064C54.9401 220.174 55.979 219.049 56.7065 218.119C57.7049 212.422 59.0631 206.803 60.4771 201.519C62.5962 193.607 65.2909 185.895 68.5118 178.458C67.4143 180.007 64.6757 182.588 58.0886 184.255C53.1402 185.509 45.1953 186.021 35.7796 185.639C19.0842 184.958 2.90356 174.08 2.90356 174.08C2.90356 174.08 27.8058 186.688 51.1911 183.263C62.0435 181.674 67.9796 177.973 69.0329 177.267C70.3959 174.186 71.8496 171.153 73.3902 168.174C74.4546 166.115 75.5674 164.061 76.7272 162.02C74.739 163.429 68.0082 167.552 54.4959 169.965C45.2643 171.614 27.995 170.009 18.365 167.621C10.4247 165.654 8.30312 164.606 8.59154 164.422C8.65245 164.384 8.82242 164.386 9.06738 164.423C9.06738 164.423 15.4587 165.669 23.5593 166.777C30.0656 167.667 37.8978 167.144 44.3102 166.716C46.5115 166.569 48.5457 166.433 50.3013 166.369C65.8399 165.806 74.7882 162.581 76.8896 161.735C80.1905 155.951 83.8682 150.274 87.8887 144.875C85.2121 146.503 81.5419 148.463 79.0861 148.706C77.2435 148.888 74.8299 149.37 72.1559 149.904C68.9667 150.54 65.407 151.251 62.0035 151.616C55.7464 152.292 51.956 154.445 49.6033 156.029C49.6033 156.029 50.113 154.984 52.4789 153.489C52.5992 153.414 52.7226 153.337 52.852 153.261C56.5417 151.042 59.1436 150.425 59.1436 150.425C72.9858 141.587 87.8151 139.048 92.9934 138.399C96.0119 134.785 99.1927 131.344 102.524 128.133C96.0243 128.825 89.4053 130.067 82.7532 131.315C70.5695 133.601 58.275 135.907 46.3993 134.896C27.2152 133.259 18.0139 128.899 15.8913 127.017C15.8913 127.017 22.8211 128.33 30.8972 128.468C38.235 128.595 46.5449 127.608 51.0139 126.602C62.2557 124.071 81.0657 122.338 89.0182 124.312C94.6497 125.706 101.601 125.75 105.178 125.654C109.805 121.468 114.704 117.738 119.844 114.612C120.655 114.118 121.306 115.416 120.552 115.978C115.142 119.992 109.88 124.068 104.887 128.516C104.373 131.428 102.164 143.928 100.859 151.004C99.3745 159.052 99.7056 164.5 101.989 174.393C104.275 184.293 110.57 191.233 110.57 191.233C110.57 191.233 105.862 187.599 103.333 183.332C103.252 183.196 103.164 183.05 103.068 182.891C101.343 180.043 97.3135 173.387 97.1138 157.203C97.0183 149.409 102.821 132.476 103.897 129.407Z" fill="#71A138"/>
<path d="M71.8875 215.441C74.866 231.108 78.3769 245.52 78.3769 245.52C76.9165 243.781 73.9292 239.522 70.455 222.48C66.9772 205.434 67.0079 187.246 68.1553 182.396C68.1553 182.396 68.9974 200.241 71.8875 215.441Z" fill="#71A138"/>
<path d="M90.6564 255.059L90.6549 255.058L90.6545 255.058L90.6539 255.057C88.2504 253.393 85.8561 251.736 84.0195 250.351C78.8615 246.462 78.292 243.873 78.292 243.873C78.3494 244.907 78.3769 245.52 78.3769 245.52C78.3769 245.52 82.3909 254.02 89.5076 258.162C93.8285 260.677 100.544 262.573 100.544 262.573C99.38 261.099 95.0035 258.069 90.6568 255.059L90.6564 255.059Z" fill="#71A138"/>
<path d="M93.8777 241.774C96.9703 243.91 109.738 253.769 111.961 256.523C111.961 256.523 108.666 254.101 104.858 252.755C101.05 251.412 95.9768 248.485 93.5042 244.833C93.5042 244.833 91.1974 242.291 88.5736 237.435C88.5736 237.435 90.785 239.638 93.8777 241.774Z" fill="#71A138"/>
<path d="M106.898 125.746C98.2666 126.625 62.3183 130.287 48.7359 131.58C33.2504 133.053 17.1128 127.017 17.1128 127.017C19.2355 128.898 28.4368 133.259 47.6214 134.896C59.496 135.907 71.7899 133.601 83.9728 131.315C91.4711 129.909 98.9273 128.51 106.218 127.897L107.863 126.393L107.497 125.685L106.898 125.746Z" fill="#B1D387"/>
<path d="M104.305 149.806C104.706 147.097 105.219 144.067 105.754 141.091C105.81 141.781 105.916 142.336 106.08 142.696C107.446 151.044 112.474 156.494 115.295 159.552C115.652 159.939 115.975 160.289 116.249 160.6C118.366 163.006 122.115 165.183 123.076 165.72C123.152 165.766 123.228 165.809 123.306 165.848C123.306 165.848 123.226 165.804 123.076 165.72C121.841 164.965 120.931 163.16 119.904 161.121C119.37 160.061 118.804 158.937 118.143 157.866C116.139 154.609 111.861 143.233 109.725 137.223C108.215 132.975 108.364 129.47 108.58 127.776L107.878 126.424L105.289 128.924C105.289 128.924 98.2301 148.613 98.3353 157.202C98.5351 173.385 102.564 180.041 104.289 182.89C104.325 182.95 104.361 183.009 104.395 183.066C104.451 183.159 104.505 183.248 104.555 183.332C107.085 187.599 111.792 191.232 111.792 191.232C111.792 191.232 100.319 176.787 104.305 149.806Z" fill="#B1D387"/>
<path d="M91.6196 173.519C90.0561 178.893 89.972 185.615 90.0542 189.047C90.0885 190.439 90.1497 191.292 90.1497 191.292C85.443 173.354 92.1423 149.482 94.2235 145.657C94.7099 144.763 95.31 143.636 95.9643 142.407C98.1081 138.38 100.833 133.262 102.045 131.674C102.045 131.674 96.1637 157.903 91.6196 173.519Z" fill="#B1D387"/>
<path d="M104.057 225.179C101.46 221.821 97.3241 216.473 95.1307 212.306C82.3265 187.974 84.8754 152.272 84.8754 152.272C84.759 152.541 84.5733 152.909 84.3397 153.373L84.3395 153.374C82.5781 156.87 78.0878 165.785 79.9237 178.305C79.9804 178.691 80.0361 179.073 80.0911 179.449L80.0911 179.45C82.0508 192.87 83.0605 199.784 90.6269 211.386C96.9036 221.013 100.025 223.674 101.764 225.157C102.18 225.512 102.517 225.799 102.799 226.098C102.922 226.228 103.055 226.369 103.197 226.518L103.201 226.522C104.743 228.147 107.25 230.788 107.96 232.401C108.733 234.164 107.579 229.984 106.024 227.774C105.632 227.216 104.932 226.311 104.057 225.179Z" fill="#B1D387"/>
<path d="M83.8582 219.219L83.8583 219.22L83.9611 219.727C85.4293 226.985 87.5804 233.333 89.7957 237.434C92.4195 242.291 94.7263 244.832 94.7263 244.832C85.4621 237.361 76.4522 211.317 73.9212 192.467C73.1157 186.463 73.3402 171.295 75.0084 167.882C75.0084 167.882 77.7251 187.691 78.2969 191.127C78.856 194.504 81.7891 208.996 83.8567 219.212L83.8576 219.216L83.8582 219.219Z" fill="#B1D387"/>
<path d="M77.8073 227.55C77.0598 223.388 73.0097 202.53 71.4682 196.449C69.6203 189.138 69.3774 182.395 69.3774 182.395C68.23 187.245 68.1992 205.433 71.6765 222.479C75.1512 239.522 78.1381 243.781 79.599 245.519C79.599 245.519 79.5712 244.907 79.5139 243.873C79.329 240.622 78.8226 233.202 77.8073 227.55Z" fill="#B1D387"/>
<path d="M65.389 218.343C68.6264 229.76 71.7747 241.947 73.4057 253.21C74.0247 257.485 74.8544 260.78 75.708 263.295C77.2457 267.818 78.8616 269.819 79.4813 270.466C78.622 269.6 75.7154 266.343 71.694 258.378C66.8652 248.816 62.9219 231.248 62.1157 225.02C61.3078 218.793 62.0155 212.294 62.3644 210.129C62.612 208.593 62.9149 204.777 63.198 201.209L63.1981 201.208C63.3138 199.75 63.4262 198.334 63.5301 197.132C63.5301 197.132 62.8823 209.508 65.389 218.343Z" fill="#B1D387"/>
<path d="M79.7431 270.718C79.7431 270.718 79.6544 270.64 79.4813 270.466C79.6498 270.642 79.7431 270.718 79.7431 270.718Z" fill="#B1D387"/>
<path d="M60.1605 239.672C65.5176 258.864 77.6375 274.007 81.9792 278.592C86.3225 283.179 86.4398 287.537 86.4398 287.537C76.9931 286.203 63.8435 269.62 59.1909 257.875C53.5906 243.734 56.0341 231.407 57.5284 225.539C55.3582 228.539 50.2422 235.337 43.9527 241.853C21.4222 265.198 1.89423 269.899 1.89423 269.899C1.69579 269.612 4.05896 268.14 7.50868 265.991L7.71956 265.86C13.1234 262.489 21.0593 257.521 26.0534 252.834C27.2595 251.702 28.4576 250.39 29.7768 248.945C33.2477 245.144 37.5564 240.426 45.0521 235.656C52.1579 231.135 55.9192 227.304 57.5772 225.348C57.7097 224.833 57.8337 224.37 57.9426 223.964L57.9507 223.934C57.9507 223.934 57.9775 224.251 58.0281 224.799C58.2083 224.572 58.3463 224.388 58.4461 224.251C58.3443 224.396 58.2054 224.593 58.0317 224.838C58.2867 227.596 59.1186 235.943 60.1605 239.672Z" fill="#B1D387"/>
<path d="M58.652 223.955C58.652 223.955 58.5873 224.057 58.4461 224.251C58.5833 224.057 58.652 223.955 58.652 223.955Z" fill="#B1D387"/>
<path d="M45.875 267.025C46.9498 262.282 48.2948 256.346 49.7025 251.382C51.9022 243.615 54.3493 238.52 54.3493 238.52C53.2023 239.787 48.5377 249.926 45.5863 256.34C44.3587 259.009 43.4275 261.032 43.169 261.506C42.0409 263.585 39.9066 267.877 36.5047 276.607C36.5047 276.607 27.4433 298.641 25.1462 309.607C25.1462 309.607 30.8897 303.818 33.7699 299.95C36.6454 296.08 42.153 280.852 44.0499 274.612C44.4661 273.242 45.1004 270.443 45.875 267.025Z" fill="#B1D387"/>
<path d="M27.8353 209.65C56.1867 205.755 63.5301 197.132 63.5301 197.132C63.5301 197.132 63.3678 198.882 63.1796 199.418C58.6942 212.238 40.5715 212.746 33.4551 212.946C32.1671 212.982 31.2396 213.008 30.8188 213.095C28.0748 213.667 19.12 211.616 19.12 211.616C15.9451 211.18 14.1187 209.791 10.8404 205.927C10.8404 205.927 17.2312 211.107 27.8353 209.65Z" fill="#B1D387"/>
<path d="M17.2581 177.909C50.5853 185.137 70.9878 175.793 70.9878 175.793L70.4251 177.149C70.4251 177.149 69.2431 181.741 59.3104 184.255C54.362 185.508 46.4171 186.02 37.0009 185.638C20.306 184.957 4.12538 174.079 4.12538 174.079C5.77817 174.094 7.80481 174.837 10.1921 175.712C12.2757 176.475 14.6339 177.34 17.2581 177.909Z" fill="#B1D387"/>
<path d="M43.5571 191.7C41.2573 192.073 39.2294 192.402 37.8708 192.656C32.9351 193.581 22.269 198.915 22.269 198.915C24.5172 198.414 28.917 197.973 28.917 197.973C28.917 197.973 36.2234 196.728 44.0776 196.104C60.5218 194.798 66.4548 185.552 66.4548 185.552C66.4548 185.552 68.1993 183.146 67.1574 183.814C66.8868 183.988 66.5227 184.284 66.0697 184.652L66.0692 184.653L66.0686 184.653C64.7747 185.706 62.7565 187.348 60.1249 188.401C57.5487 189.431 49.6108 190.718 43.5571 191.7Z" fill="#B1D387"/>
<path d="M96.1288 138.198C96.1288 138.198 93.2411 142.111 92.4563 142.687C88.9378 142.934 85.1393 143.392 81.1147 144.149C73.1003 145.653 66.139 147.983 60.3652 150.424C60.3959 150.404 60.4269 150.385 60.4579 150.365C60.5231 150.323 60.5886 150.281 60.6531 150.24C77.7002 139.474 96.1288 138.198 96.1288 138.198Z" fill="#B1D387"/>
<path d="M11.7322 164.67C11.2257 164.58 10.7441 164.494 10.2891 164.422C10.0442 164.386 9.87422 164.383 9.81331 164.421C9.52489 164.605 11.6465 165.653 19.5867 167.62C29.2168 170.008 46.4861 171.614 55.7177 169.964C72.2027 167.021 78.5942 161.531 78.5942 161.531L79.3015 160.307C75.7275 162.768 53.2453 163.686 46.2365 163.25C40.2958 162.881 28.9849 164.255 23.1694 164.961L23.169 164.961L23.1677 164.961C22.1248 165.088 21.2588 165.193 20.6323 165.263C17.2178 165.645 14.1833 165.106 11.7322 164.67Z" fill="#B1D387"/>
<path d="M51.7409 225.8C49.0326 228.083 30.5989 242.476 17.2535 248.701C11.92 251.19 1.7681 257.715 1.7681 257.715C3.7093 255.672 15.5052 246.28 20.8095 243.148C26.1153 240.017 52.1368 222.917 54.857 221.063C57.5237 219.244 59.0789 216.443 59.1372 216.338L59.1378 216.337C59.0701 216.461 55.861 222.332 51.7409 225.8Z" fill="#B1D387"/>
<path d="M105.118 129.407C101.509 132.683 98.0468 136.168 94.7772 139.982C94.0413 140.931 93.1814 142.001 92.6816 142.49C89.7578 146.068 86.983 149.8 84.3738 153.669C83.1264 157.588 80.3083 169.675 84.959 188.881C86.8019 196.499 88.5691 202.139 90.3359 206.512C90.0362 200.658 90.1493 191.292 90.1493 191.292C90.1493 191.292 90.0887 190.44 90.0544 189.047C90.0544 189.047 91.187 193.966 92.3343 199.787C93.1376 203.863 93.8414 209.287 94.3084 214.46C96.5857 218.091 98.9511 220.548 101.555 223.254L101.59 223.291C101.813 223.522 102.038 223.756 102.264 223.992C106.331 228.234 107.96 232.402 107.96 232.402C107.251 230.791 104.748 228.153 103.206 226.528L103.201 226.522C103.058 226.372 102.923 226.23 102.799 226.098C102.517 225.8 102.18 225.513 101.765 225.158C100.431 224.021 98.2841 222.191 94.5245 217.057C94.6235 218.36 94.705 219.628 94.7669 220.833C95.1062 227.491 95.3497 234.571 95.3497 234.571C95.3497 234.571 93.9986 231.495 93.5982 227.213C93.4168 225.271 92.9371 222.904 92.3914 220.21C91.873 217.652 91.2951 214.799 90.8569 211.739C90.7806 211.623 90.7039 211.505 90.6266 211.387C83.0604 199.785 82.0506 192.87 80.091 179.451C80.0359 179.074 79.9802 178.692 79.9235 178.305C78.2882 167.154 81.6718 158.863 83.6759 154.713C80.562 159.412 77.6916 164.307 75.0937 169.369C70.3566 178.593 66.5028 188.382 63.5793 198.487C63.6458 200.822 63.7101 205.85 63.2714 211.01C62.9034 215.339 63.75 219.266 65.0856 225.461C65.9287 229.372 66.9668 234.187 68.0172 240.578C70.7306 257.092 79.743 270.718 79.743 270.718C79.743 270.718 76.5238 267.942 71.6939 258.379C66.8651 248.816 62.9219 231.249 62.1156 225.021C61.3078 218.793 62.0154 212.295 62.3643 210.129C62.612 208.593 62.9149 204.776 63.1981 201.207C63.2501 200.552 63.3015 199.904 63.3517 199.281C63.0436 200.366 62.7462 201.454 62.4596 202.546C60.0941 211.556 59.0566 220.55 58.003 229.684C57.8039 231.41 57.6042 233.142 57.3948 234.879C57.7368 241.844 59.4295 251.272 64.954 260.551C75.6857 278.58 86.4398 287.537 86.4398 287.537C76.9926 286.203 63.8436 269.62 59.1909 257.875C56.3638 250.737 55.5864 244.062 55.702 238.446C53.9454 248.915 51.5381 269.753 52.037 274.94C52.3116 277.791 52.5732 279.878 52.7858 281.574C52.8103 281.769 52.8342 281.96 52.8573 282.145C53.1551 284.505 53.3463 286.12 53.3303 288.164C53.3303 288.164 46.3918 276.826 49.9079 255.728C50.1231 254.437 50.3263 253.159 50.5231 251.921L50.5233 251.919L50.524 251.915L50.5241 251.915C50.9159 249.449 51.2827 247.142 51.6696 245.199C51.0395 246.978 50.3597 249.061 49.7023 251.383C48.2946 256.346 46.9496 262.282 45.8748 267.025C45.1002 270.443 44.4659 273.242 44.0497 274.612C42.1534 280.852 36.6452 296.081 33.7697 299.95C30.8901 303.818 25.146 309.608 25.146 309.608C25.146 309.608 31.3002 299.907 35.294 290.502C38.3518 283.304 43.3674 267.508 45.8632 259.648C46.6279 257.24 47.1561 255.576 47.3189 255.134C48.7904 251.126 50.5799 246.905 51.9856 243.721C52.2534 242.563 52.5356 241.593 52.8457 240.872C53.5408 239.258 54.9422 236.499 55.9222 234.607C56.0532 233.212 56.2307 231.908 56.4308 230.707C56.4654 230.065 56.5074 229.421 56.5564 228.777C54.5434 232.993 51.2263 238.958 47.2505 242.352C43.8033 245.293 40.7851 248.315 37.9655 251.138L37.9652 251.138C35.3762 253.731 32.9546 256.155 30.5218 258.196C22.5301 264.902 2.7563 271.158 1.89422 269.899C1.69577 269.611 4.05933 268.139 7.50951 265.991L7.71954 265.86C13.1234 262.489 21.0593 257.522 26.0534 252.835C27.259 251.703 28.4567 250.391 29.7754 248.947C33.2463 245.145 37.5553 240.426 45.0521 235.656C51.1945 231.747 54.8377 228.354 56.7838 226.243C57.0469 223.691 57.4104 221.131 57.8474 218.585C56.1839 221.422 53.2749 226.163 51.3349 228.11C49.8854 229.564 47.2366 231.418 44.437 233.377C41.7237 235.276 38.8688 237.273 36.8269 239.102C32.6778 242.821 20.1265 249.933 15.3412 252.2C10.557 254.469 1.47099 258.025 1.76801 257.715C3.70921 255.672 15.5051 246.28 20.8094 243.148C26.1152 240.017 52.1367 222.917 54.8569 221.064C56.1618 220.174 57.2007 219.049 57.9282 218.119C58.9265 212.422 60.2848 206.803 61.6988 201.519C63.8178 193.607 66.5126 185.895 69.7335 178.458C68.636 180.007 65.8974 182.588 59.3102 184.255C54.3619 185.509 46.417 186.021 37.0012 185.639C20.3059 184.958 4.12524 174.08 4.12524 174.08C4.12524 174.08 29.0275 186.688 52.4128 183.263C63.2652 181.674 69.2013 177.973 70.2545 177.267C71.6176 174.186 73.0713 171.153 74.6119 168.174C75.6763 166.115 76.7891 164.061 77.9488 162.02C75.9607 163.429 69.2299 167.552 55.7176 169.965C46.486 171.614 29.2167 170.009 19.5866 167.621C11.6464 165.654 9.5248 164.606 9.81322 164.422C9.87413 164.384 10.0441 164.386 10.2891 164.423C10.2891 164.423 16.6804 165.669 24.781 166.777C31.2873 167.667 39.1195 167.144 45.5319 166.716C47.7331 166.569 49.7674 166.433 51.5229 166.369C67.0616 165.806 76.0099 162.581 78.1113 161.735C81.4121 155.951 85.0899 150.274 89.1104 144.875C86.4338 146.503 82.7636 148.463 80.3077 148.706C78.4651 148.888 76.0516 149.37 73.3775 149.904C70.1884 150.54 66.6287 151.251 63.2252 151.616C56.968 152.292 53.1776 154.445 50.825 156.029C50.825 156.029 51.3347 154.984 53.7006 153.489C53.8209 153.414 53.9443 153.337 54.0737 153.261C57.7634 151.042 60.3653 150.425 60.3653 150.425C74.2075 141.587 89.0368 139.048 94.2151 138.399C97.2335 134.785 100.414 131.344 103.746 128.133C97.2459 128.825 90.6269 130.067 83.9749 131.315C71.7912 133.601 59.4966 135.907 47.621 134.896C28.4369 133.259 19.2356 128.899 17.1129 127.017C17.1129 127.017 24.0428 128.33 32.1188 128.468C39.4567 128.595 47.7666 127.608 52.2356 126.602C63.4774 124.071 82.2874 122.338 90.2399 124.312C95.8714 125.706 102.822 125.75 106.4 125.654C111.027 121.468 115.925 117.738 121.066 114.612C121.876 114.118 122.528 115.416 121.773 115.978C116.363 119.992 111.102 124.068 106.109 128.516C105.595 131.428 103.385 143.928 102.08 151.004C100.596 159.052 100.927 164.5 103.211 174.393C105.497 184.293 111.792 191.233 111.792 191.233C111.792 191.233 107.084 187.599 104.555 183.332C104.474 183.196 104.385 183.05 104.289 182.891C102.565 180.043 98.5352 173.387 98.3354 157.203C98.2399 149.409 104.043 132.476 105.118 129.407Z" fill="#B1D387"/>
<path d="M73.1092 215.441C76.0877 231.108 79.5986 245.52 79.5986 245.52C78.1382 243.781 75.1508 239.522 71.6766 222.48C68.1988 205.434 68.2296 187.246 69.377 182.396C69.377 182.396 70.2191 200.241 73.1092 215.441Z" fill="#B1D387"/>
<path d="M91.878 255.059L91.8766 255.058L91.8762 255.058L91.8756 255.057C89.4721 253.393 87.0778 251.736 85.2412 250.351C80.0832 246.462 79.5137 243.873 79.5137 243.873C79.571 244.907 79.5986 245.52 79.5986 245.52C79.5986 245.52 83.6126 254.02 90.7293 258.162C95.0502 260.677 101.765 262.573 101.765 262.573C100.602 261.099 96.2252 258.069 91.8784 255.059L91.878 255.059Z" fill="#B1D387"/>
<path d="M95.0993 241.774C98.192 243.91 110.96 253.769 113.183 256.523C113.183 256.523 109.887 254.101 106.08 252.755C102.271 251.412 97.1985 248.485 94.7259 244.833C94.7259 244.833 92.4191 242.291 89.7953 237.435C89.7953 237.435 92.0066 239.638 95.0993 241.774Z" fill="#B1D387"/>
<path d="M115.379 120.062C115.903 124.43 118.088 142.623 118.868 149.498C119.756 157.336 116.799 165.569 116.799 165.569C117.745 164.477 119.902 159.775 120.578 150.035C120.994 144.006 119.707 137.793 118.43 131.636C117.645 127.847 116.864 124.079 116.487 120.388L115.702 119.567L115.342 119.759L115.379 120.062Z" fill="#99BD6E"/>
<path d="M127.737 121.17C126.345 120.99 124.787 120.756 123.257 120.51C123.61 120.476 123.894 120.417 124.077 120.331C128.345 119.567 131.097 116.971 132.641 115.515C132.836 115.33 133.013 115.164 133.17 115.022C134.386 113.928 135.47 112.009 135.737 111.517C135.76 111.478 135.781 111.439 135.8 111.399C135.8 111.399 135.779 111.44 135.737 111.517C135.36 112.15 134.443 112.626 133.406 113.164C132.867 113.444 132.296 113.741 131.752 114.085C130.099 115.129 124.302 117.395 121.239 118.53C119.074 119.332 117.275 119.287 116.405 119.191L115.718 119.559L117.022 120.85C117.022 120.85 127.178 124.26 131.581 124.133C139.877 123.893 143.255 121.793 144.701 120.894C144.732 120.875 144.762 120.857 144.79 120.839C144.838 120.81 144.883 120.782 144.926 120.756C147.092 119.436 148.915 117.019 148.915 117.019C148.915 117.019 141.606 122.959 127.737 121.17Z" fill="#99BD6E"/>
<path d="M140.005 127.398C142.774 128.144 146.221 128.129 147.98 128.058C148.694 128.029 149.13 127.99 149.13 127.99C139.973 130.53 127.675 127.339 125.697 126.316C125.234 126.078 124.651 125.783 124.015 125.462C121.932 124.41 119.284 123.072 118.46 122.471C118.46 122.471 131.959 125.228 140.005 127.398Z" fill="#99BD6E"/>
<path d="M166.387 120.649C164.688 121.994 161.98 124.137 159.863 125.285C147.496 131.985 129.168 130.999 129.168 130.999C129.307 131.056 129.498 131.147 129.738 131.261L129.738 131.261C131.546 132.124 136.155 134.324 142.559 133.286C142.757 133.254 142.952 133.222 143.144 133.191L143.145 133.191C150.009 132.083 153.546 131.511 159.43 127.576C164.312 124.311 165.65 122.706 166.395 121.811C166.574 121.598 166.718 121.424 166.869 121.279C166.935 121.215 167.005 121.147 167.081 121.074L167.083 121.071C167.903 120.276 169.236 118.982 170.057 118.608C170.954 118.201 168.82 118.822 167.701 119.629C167.418 119.833 166.96 120.196 166.387 120.649Z" fill="#99BD6E"/>
<path d="M163.504 130.94L163.504 130.94L163.764 130.884C167.472 130.077 170.709 128.932 172.793 127.774C175.261 126.402 176.544 125.211 176.544 125.211C172.792 129.971 159.515 134.763 149.872 136.208C146.8 136.667 139.021 136.684 137.257 135.867C137.257 135.867 147.39 134.32 149.148 134.001C150.874 133.688 158.28 132.077 163.5 130.941L163.502 130.941L163.504 130.94Z" fill="#99BD6E"/>
<path d="M167.827 133.936C165.699 134.351 155.039 136.583 151.935 137.417C148.202 138.417 144.746 138.598 144.746 138.598C147.243 139.138 156.569 138.997 165.28 137.088C173.988 135.18 176.147 133.629 177.026 132.874C177.026 132.874 176.712 132.893 176.182 132.931C174.517 133.053 170.717 133.373 167.827 133.936Z" fill="#99BD6E"/>
<path d="M163.213 140.311C169.039 138.572 175.261 136.871 181.022 135.948C183.209 135.597 184.891 135.148 186.173 134.694C188.48 133.876 189.492 133.039 189.818 132.72C189.381 133.163 187.736 134.664 183.687 136.771C178.825 139.301 169.851 141.451 166.664 141.913C163.478 142.376 160.14 142.073 159.027 141.915C158.237 141.803 156.278 141.682 154.446 141.569L154.445 141.569C153.697 141.523 152.97 141.478 152.353 141.435C152.353 141.435 158.704 141.658 163.213 140.311Z" fill="#99BD6E"/>
<path d="M189.945 132.585C189.945 132.585 189.906 132.63 189.818 132.72C189.907 132.633 189.945 132.585 189.945 132.585Z" fill="#99BD6E"/>
<path d="M174.194 142.779C183.988 139.898 191.649 133.624 193.963 131.383C196.278 129.142 198.512 129.045 198.512 129.045C197.908 133.846 189.518 140.655 183.536 143.114C176.333 146.075 169.991 144.942 166.97 144.234C168.527 145.309 172.056 147.844 175.451 150.977C187.614 162.199 190.191 172.059 190.191 172.059C190.046 172.162 189.271 170.976 188.14 169.246L188.071 169.14C186.296 166.43 183.681 162.449 181.235 159.957C180.644 159.355 179.961 158.759 179.209 158.103C177.23 156.376 174.774 154.232 172.264 150.473C169.885 146.909 167.888 145.035 166.871 144.211C166.606 144.149 166.368 144.09 166.158 144.038L166.143 144.034C166.143 144.034 166.305 144.018 166.586 143.987C166.468 143.898 166.373 143.83 166.301 143.78C166.377 143.831 166.479 143.899 166.606 143.985C168.018 143.832 172.291 143.339 174.194 142.779Z" fill="#99BD6E"/>
<path d="M166.148 143.678C166.148 143.678 166.201 143.71 166.301 143.78C166.201 143.712 166.148 143.678 166.148 143.678Z" fill="#99BD6E"/>
<path d="M188.341 149.786C185.9 149.282 182.845 148.651 180.288 147.98C176.286 146.932 173.653 145.735 173.653 145.735C174.313 146.305 179.551 148.583 182.865 150.025C184.244 150.624 185.29 151.079 185.535 151.206C186.61 151.76 188.829 152.805 193.335 154.455C193.335 154.455 204.71 158.86 210.353 159.93C210.353 159.93 207.335 157.068 205.327 155.641C203.318 154.216 195.463 151.555 192.247 150.647C191.541 150.447 190.101 150.15 188.341 149.786Z" fill="#99BD6E"/>
<path d="M159.077 159.424C156.837 145.084 152.353 141.435 152.353 141.435C152.353 141.435 153.251 141.503 153.528 141.594C160.14 143.758 160.555 152.941 160.719 156.547C160.748 157.2 160.77 157.67 160.818 157.882C161.134 159.268 160.159 163.826 160.159 163.826C159.963 165.439 159.267 166.377 157.314 168.072C157.314 168.072 159.915 164.788 159.077 159.424Z" fill="#99BD6E"/>
<path d="M142.892 165.059C146.313 148.101 141.348 137.838 141.348 137.838L142.048 138.111C142.048 138.111 144.412 138.671 145.786 143.685C146.471 146.183 146.802 150.207 146.686 154.984C146.48 163.453 141.041 171.75 141.041 171.75C141.034 170.912 141.398 169.878 141.826 168.66C142.2 167.597 142.623 166.394 142.892 165.059Z" fill="#99BD6E"/>
<path d="M149.739 151.608C149.95 152.771 150.136 153.796 150.277 154.482C150.794 156.977 153.62 162.338 153.62 162.338C153.344 161.203 153.08 158.976 153.08 158.976C153.08 158.976 152.38 155.283 151.992 151.306C151.182 142.981 146.39 140.052 146.39 140.052C146.39 140.052 145.142 139.188 145.493 139.711C145.584 139.847 145.739 140.029 145.932 140.255L145.932 140.255L145.933 140.256C146.483 140.903 147.343 141.912 147.905 143.237C148.455 144.534 149.183 148.547 149.739 151.608Z" fill="#99BD6E"/>
<path d="M121.856 125.415C121.856 125.415 123.886 126.845 124.189 127.238C124.346 129.02 124.613 130.941 125.035 132.975C125.875 137.025 127.13 140.535 128.431 143.441C128.42 143.425 128.41 143.41 128.399 143.394C128.377 143.362 128.355 143.329 128.334 143.296C122.668 134.746 121.856 125.415 121.856 125.415Z" fill="#99BD6E"/>
<path d="M136.151 167.974C136.109 168.232 136.07 168.477 136.037 168.708C136.02 168.832 136.02 168.918 136.04 168.949C136.137 169.094 136.656 168.009 137.597 163.967C138.739 159.064 139.414 150.295 138.489 145.629C136.839 137.297 133.97 134.104 133.97 134.104L133.336 133.756C134.629 135.547 135.292 146.937 135.128 150.494C134.99 153.509 135.791 159.231 136.203 162.173L136.203 162.173L136.203 162.174C136.277 162.702 136.338 163.14 136.379 163.457C136.604 165.185 136.354 166.728 136.151 167.974Z" fill="#99BD6E"/>
<path d="M167.153 147.166C168.347 148.52 175.885 157.742 179.191 164.454C180.513 167.137 183.945 172.227 183.945 172.227C182.881 171.261 177.964 165.361 176.313 162.699C174.662 160.036 165.671 146.99 164.698 145.627C163.742 144.291 162.292 143.526 162.238 143.498L162.238 143.497C162.302 143.531 165.34 145.107 167.153 147.166Z" fill="#99BD6E"/>
<path d="M117.271 120.932C118.982 122.734 120.798 124.46 122.782 126.084C123.275 126.449 123.831 126.876 124.086 127.125C125.946 128.577 127.883 129.952 129.889 131.241C131.909 131.84 138.131 133.165 147.939 130.642C151.829 129.643 154.706 128.698 156.933 127.765C153.934 127.967 149.131 127.99 149.131 127.99C149.131 127.99 148.694 128.028 147.981 128.058C147.981 128.058 150.493 127.441 153.468 126.81C155.551 126.368 158.326 125.964 160.975 125.683C162.816 124.497 164.057 123.277 165.422 121.934L165.44 121.916C165.557 121.801 165.675 121.685 165.794 121.568C167.934 119.47 170.057 118.608 170.057 118.608C169.237 118.981 167.906 120.273 167.086 121.069L167.083 121.071C167.007 121.145 166.936 121.215 166.869 121.279C166.719 121.424 166.574 121.597 166.396 121.811C165.824 122.497 164.904 123.601 162.304 125.551C162.971 125.49 163.621 125.438 164.238 125.396C167.649 125.167 171.277 124.983 171.277 124.983C171.277 124.983 169.712 125.694 167.52 125.934C166.526 126.042 165.316 126.306 163.939 126.606C162.632 126.89 161.174 127.208 159.609 127.456C159.55 127.496 159.49 127.536 159.43 127.576C153.546 131.511 150.009 132.083 143.145 133.191C142.953 133.222 142.757 133.254 142.559 133.286C136.855 134.211 132.575 132.567 130.43 131.586C132.866 133.124 135.401 134.538 138.018 135.811C142.789 138.134 147.841 140.004 153.047 141.399C154.244 141.345 156.822 141.269 159.471 141.448C161.694 141.597 163.7 141.134 166.866 140.404C168.864 139.943 171.323 139.375 174.591 138.788C183.036 137.271 189.945 132.585 189.945 132.585C189.945 132.585 188.549 134.241 183.687 136.771C178.825 139.301 169.852 141.451 166.665 141.913C163.479 142.376 160.141 142.073 159.027 141.915C158.237 141.803 156.278 141.682 154.445 141.569C154.109 141.548 153.776 141.528 153.456 141.507C154.015 141.654 154.576 141.796 155.138 141.932C159.778 143.054 164.399 143.503 169.091 143.958C169.978 144.044 170.867 144.131 171.76 144.222C175.329 143.989 180.148 143.05 184.859 140.17C194.011 134.574 198.512 129.045 198.512 129.045C197.909 133.846 189.518 140.655 183.536 143.114C179.9 144.609 176.484 145.06 173.603 145.05C178.986 145.85 189.692 146.892 192.347 146.595C193.807 146.431 194.874 146.28 195.742 146.158C195.842 146.144 195.94 146.13 196.035 146.117C197.242 145.946 198.069 145.835 199.117 145.825C199.117 145.825 193.363 149.44 182.515 147.839C181.85 147.741 181.194 147.649 180.557 147.56L180.556 147.56L180.554 147.559L180.554 147.559C179.286 147.382 178.1 147.216 177.101 147.036C178.018 147.34 179.092 147.667 180.288 147.98C182.845 148.651 185.9 149.282 188.342 149.787C190.101 150.15 191.541 150.447 192.247 150.647C195.463 151.555 203.319 154.216 205.328 155.641C207.335 157.068 210.353 159.93 210.353 159.93C210.353 159.93 205.326 156.893 200.47 154.949C196.753 153.461 188.611 151.054 184.559 149.856C183.318 149.489 182.46 149.235 182.232 149.156C180.164 148.445 177.985 147.574 176.34 146.889C175.744 146.763 175.244 146.628 174.872 146.477C174.038 146.138 172.612 145.452 171.633 144.971C170.917 144.917 170.247 144.838 169.629 144.747C169.3 144.735 168.969 144.719 168.638 144.699C170.817 145.684 173.904 147.314 175.679 149.301C177.216 151.023 178.792 152.527 180.263 153.933L180.263 153.933C181.615 155.223 182.879 156.43 183.946 157.646C187.453 161.64 190.83 171.611 190.192 172.059C190.046 172.162 189.271 170.976 188.139 169.246L188.071 169.14C186.296 166.43 183.681 162.449 181.235 159.957C180.644 159.356 179.962 158.76 179.21 158.104C177.231 156.377 174.774 154.233 172.264 150.473C170.207 147.392 168.437 145.574 167.337 144.606C166.027 144.494 164.711 144.332 163.401 144.132C164.87 144.951 167.326 146.386 168.341 147.352C169.099 148.075 170.072 149.402 171.101 150.804C172.098 152.163 173.146 153.594 174.102 154.613C176.044 156.685 179.798 162.987 181.001 165.393C182.206 167.799 184.107 172.375 183.945 172.227C182.881 171.261 177.964 165.361 176.313 162.699C174.662 160.036 165.672 146.99 164.698 145.627C164.231 144.973 163.645 144.456 163.162 144.095C160.232 143.638 157.34 142.998 154.618 142.326C150.543 141.32 146.566 140.02 142.725 138.451C143.529 138.994 144.875 140.36 145.786 143.685C146.472 146.183 146.802 150.207 146.687 154.983C146.481 163.453 141.042 171.75 141.042 171.75C141.042 171.75 147.293 159.017 145.337 147.191C144.429 141.702 142.481 138.725 142.11 138.197C140.518 137.532 138.951 136.821 137.41 136.066C136.345 135.544 135.282 134.997 134.226 134.427C134.965 135.423 137.137 138.8 138.49 145.629C139.415 150.295 138.739 159.064 137.597 163.967C136.657 168.009 136.138 169.094 136.041 168.949C136.021 168.919 136.021 168.832 136.037 168.708C136.037 168.708 136.622 165.457 137.12 161.341C137.521 158.034 137.186 154.068 136.911 150.821C136.817 149.706 136.73 148.676 136.682 147.787C136.26 139.914 134.53 135.405 134.078 134.347C131.085 132.723 128.142 130.907 125.339 128.915C126.197 130.258 127.233 132.102 127.379 133.345C127.488 134.278 127.756 135.497 128.053 136.848C128.406 138.46 128.801 140.258 129.018 141.981C129.417 145.147 130.554 147.05 131.386 148.229C131.386 148.229 130.846 147.98 130.059 146.793C130.02 146.733 129.979 146.671 129.939 146.606C128.77 144.755 128.431 143.441 128.431 143.441C123.781 136.499 122.352 129.003 121.975 126.383C120.097 124.884 118.304 123.301 116.63 121.639C117.04 124.929 117.734 128.274 118.431 131.635C119.707 137.792 120.995 144.006 120.578 150.035C119.903 159.775 117.746 164.477 116.799 165.569C116.799 165.569 117.413 162.045 117.415 157.949C117.417 154.228 116.84 150.024 116.285 147.767C114.891 142.089 113.842 132.568 114.786 128.519C115.453 125.652 115.416 122.128 115.336 120.315C113.15 118.005 111.195 115.554 109.548 112.975C109.288 112.568 109.949 112.226 110.243 112.604C112.347 115.312 114.482 117.945 116.806 120.438C118.304 120.674 124.732 121.686 128.371 122.287C132.51 122.971 135.301 122.756 140.354 121.514C145.411 120.27 148.915 117.019 148.915 117.019C148.915 117.019 147.092 119.437 144.926 120.756C144.857 120.798 144.783 120.844 144.702 120.894C143.256 121.793 139.878 123.893 131.582 124.133C127.586 124.248 118.854 121.451 117.271 120.932Z" fill="#99BD6E"/>
<path d="M161.659 136.422C169.667 134.778 177.026 132.874 177.026 132.874C176.147 133.629 173.989 135.18 165.28 137.088C156.57 138.997 147.244 139.138 144.747 138.598C144.747 138.598 153.89 138.018 161.659 136.422Z" fill="#99BD6E"/>
<path d="M181.812 126.567L181.812 126.568L181.812 126.568L181.811 126.568C180.979 127.801 180.149 129.029 179.455 129.972C177.505 132.62 176.183 132.931 176.183 132.931C176.712 132.893 177.026 132.874 177.026 132.874C177.026 132.874 181.35 130.766 183.413 127.123C184.666 124.911 185.58 121.49 185.58 121.49C184.835 122.092 183.318 124.337 181.812 126.567L181.812 126.567Z" fill="#99BD6E"/>
<path d="M174.973 125.048C176.042 123.462 180.987 116.904 182.381 115.754C182.381 115.754 181.167 117.445 180.509 119.387C179.853 121.329 178.396 123.926 176.544 125.211C176.544 125.211 175.261 126.402 172.793 127.774C172.793 127.774 173.904 126.634 174.973 125.048Z" fill="#99BD6E"/>
<rect x="69.9312" y="142.333" width="225.214" height="359.579" fill="#FF0000"/>
<path fill-rule="evenodd" clip-rule="evenodd" d="M319.06 377.384L317.733 376.923C319.425 380.762 320.405 385.342 321.174 388.936C321.67 391.255 322.079 393.164 322.534 394.196C313.003 395.704 308.299 391.233 304.594 387.71C303.578 386.744 302.636 385.849 301.691 385.169C310.282 401.035 319.2 398.536 322.585 395.304C322.792 396.152 323.266 398.127 323.508 399.241C313.809 401.811 305.191 397.341 301.135 395.236C300.185 394.744 299.485 394.381 299.08 394.268C313.427 411.858 321.306 405.395 323.452 399.965C323.736 403.35 324.356 410.494 324.568 411.995C318.461 416.178 308.371 413.285 303.219 411.808C302.179 411.509 301.339 411.269 300.775 411.156C315.821 425.342 322.723 418.818 324.294 413.782C324.025 417.85 323.454 426.42 323.32 428.157C311.597 428.961 304.759 424.885 301.359 422.858C300.029 422.065 299.225 421.586 298.86 421.835C310.79 435.414 319.834 433.286 322.865 430.525C322.336 433.248 321.207 438.926 320.917 439.855C309.749 432.654 298.158 429.17 295.084 430.133C308.9 447.538 317.663 445.511 320.318 442.322C319.462 444.584 317.673 449.389 317.368 450.511C302.152 439.228 292.779 438.794 290.801 439.692C305.822 458.758 311.506 455.887 315.773 453.731C316.056 453.588 316.333 453.448 316.606 453.318C315.583 455.39 313.345 459.893 312.579 461.331C302.029 451.422 287.823 451.785 285.232 453.56C296.664 470.77 306.217 469.572 309.565 466.822C308.477 468.558 305.969 472.439 304.642 474.078C288.87 464.144 283.455 464.091 279.561 464.053C279.122 464.049 278.702 464.045 278.289 464.027C289.791 477.999 295.274 477.548 299.98 477.162C300.883 477.087 301.758 477.015 302.641 477.048C300.768 478.94 296.986 482.841 296.841 483.306C282.674 473.269 273.085 471.399 270.061 471.719C270.92 472.959 273.55 476.32 277.204 479.849C270.855 476.907 269.542 476.807 267.416 476.645C266.678 476.589 265.841 476.525 264.661 476.332C274.076 489.988 284.252 492.157 288.162 491.535L282.98 495.084C272.092 484.265 264.056 480.63 258.458 478.981C262.014 486.598 274.694 493.525 280.589 496.036L276.703 498.698C265.604 486.065 259.08 484.16 254.172 482.727C253.729 482.598 253.3 482.473 252.881 482.344C257.503 491.344 267.732 496.246 272.194 498.384C273.681 499.097 274.528 499.503 274.312 499.651C273.638 500.112 272.223 500.526 270.771 500.951C270.361 501.071 269.948 501.191 269.548 501.314C254.029 485.455 250.549 485.832 247.433 486.171C247.378 486.177 247.323 486.183 247.268 486.189C252.083 495.868 261.97 501.174 266.312 502.617C265.605 502.949 263.716 503.756 261.818 504.324C251.347 491.619 244.997 489.115 240.633 489.134C244.961 498.05 254.536 503.296 258.782 504.805C257.53 505.129 254.566 505.728 252.728 505.524C246.374 497.768 237.949 492.115 233.241 493.055C235.721 500.495 245.012 505.402 249.348 506.926C248.329 507.166 245.37 507.594 241.678 507.381C235.719 499.811 227.595 495.551 225.005 497.325C227.789 503.643 234.705 507.055 237.815 507.971L232.076 508.341C232.008 508.342 231.958 508.346 231.924 508.35L232.076 508.341C232.536 508.328 233.804 508.39 236.317 508.714C232.762 508.621 210.874 514.874 199.949 518.143C218.719 520.822 236.191 516.619 239.663 508.761L248.697 508.285C239.408 514.419 219.724 527.582 215.303 531.158C230.605 530.73 245.044 515.586 250.35 508.067L258.294 505.824C247.921 514.224 227.209 531.274 227.35 532.274C243.217 530.179 255.5 513.754 259.659 505.803L267.189 503.615C256.632 513.817 234.835 534.915 232.112 537.694C236.736 538.548 248.764 529.792 254.199 525.307C251.132 528.551 244.739 535.534 243.714 537.515C261.082 532.931 273.611 510.488 277.705 499.839L282.455 496.586C276.516 509.945 264.551 538.139 264.204 544.043C280.125 527.728 283.069 500.73 283.587 495.978C283.594 495.914 283.601 495.853 283.607 495.797L290.228 491.262C285.021 503.967 273.464 533.588 274.67 539.159C288.176 528.08 291.533 502.02 291.524 490.375L298.707 483.855C294.22 496.068 285.086 526.085 286.254 532.138C297.539 524.409 299.884 495.691 299.645 482.299L302.636 478.88C297.976 514.514 306.148 526.965 312.29 526.871C307.977 517.762 304.44 490.819 303.211 478.485C303.445 478.401 304.472 477.348 306.708 473.805C303.821 511.195 312.905 518.91 317.139 520.58C314.57 514.297 309.657 485.646 307.521 472.106C307.984 471.409 309.519 469.184 311.956 465.87C306.715 503.73 322.981 512.009 326.662 512.001C312.053 489.336 312.769 464.171 313.995 462.417C314.525 497.924 328.567 504.984 335.216 503.629C323.661 491.848 318.258 471.352 316.396 464.287C316.119 463.238 315.921 462.485 315.792 462.101C314.956 459.612 316.022 457.263 317.462 454.088C317.742 453.47 318.036 452.822 318.333 452.135C322.655 493.269 336.011 495.087 339.962 495.123C334.504 491.22 331.356 482.019 329.38 476.242C329.111 475.455 328.863 474.732 328.635 474.094C327.109 469.839 321.878 456.256 319.453 449.997C319.954 448.207 321.153 444.217 321.933 442.586C330.164 484.213 346.978 483.45 353.416 483.158L353.428 483.158C349.821 482.201 337.926 464.989 335.996 461.741C334.451 459.144 326.34 446.727 322.477 440.843L324.336 430.888C333.429 461.444 349.308 472.957 356.239 473.236C352.656 470.207 333.84 442.58 324.88 429.145C325.204 426.714 325.772 420.766 325.454 416.414C331.206 433.722 354.827 457.982 360.095 462.142C356.1 457.384 335.615 428.417 325.872 414.529C325.798 413.132 325.461 408.55 324.705 401.391C326.616 412.726 350.92 440.02 358.32 448.329C358.942 449.028 359.445 449.593 359.805 450.003C359.202 446.518 342.534 423.554 332.298 409.452C328.136 403.717 325.037 399.448 324.515 398.551C325.095 396.692 321.12 383.665 319.06 377.384ZM276.159 500.442L268.591 503.112C268.033 507.515 262.668 515.089 260.055 518.326L276.159 500.442Z" fill="#588521"/>
<path fill-rule="evenodd" clip-rule="evenodd" d="M317.075 377.232L315.748 376.77C317.44 380.61 318.42 385.19 319.189 388.783C319.685 391.103 320.094 393.011 320.549 394.044C311.018 395.552 306.315 391.08 302.609 387.558C301.593 386.591 300.651 385.697 299.706 385.016C308.297 400.882 317.215 398.384 320.6 395.151C320.807 395.999 321.282 397.974 321.523 399.089C311.824 401.659 303.206 397.188 299.15 395.084C298.2 394.591 297.5 394.228 297.095 394.116C311.442 411.705 319.321 405.242 321.467 399.812C321.751 403.197 322.372 410.342 322.583 411.842C316.476 416.025 306.386 413.132 301.235 411.655C300.194 411.357 299.355 411.116 298.79 411.003C313.836 425.19 320.738 418.665 322.309 413.629C322.04 417.697 321.469 426.267 321.335 428.004C309.613 428.808 302.774 424.732 299.374 422.705C298.044 421.912 297.24 421.433 296.875 421.682C308.805 435.261 317.849 433.134 320.88 430.372C320.351 433.095 319.222 438.773 318.932 439.703C307.764 432.502 296.173 429.018 293.099 429.981C306.915 447.386 315.678 445.359 318.333 442.169C317.477 444.431 315.688 449.236 315.383 450.359C300.168 439.076 290.795 438.642 288.817 439.54C303.837 458.605 309.521 455.734 313.788 453.578C314.071 453.435 314.348 453.295 314.621 453.165C313.598 455.237 311.36 459.74 310.594 461.178C300.044 451.269 285.838 451.632 283.247 453.407C294.679 470.617 304.232 469.42 307.58 466.67C306.492 468.405 303.984 472.286 302.657 473.926C286.885 463.992 281.47 463.939 277.576 463.901C277.137 463.896 276.717 463.892 276.304 463.874C287.806 477.847 293.289 477.396 297.995 477.009C298.898 476.935 299.773 476.863 300.656 476.896C298.783 478.788 295.001 482.688 294.856 483.153C280.689 473.117 271.1 471.247 268.076 471.566C268.935 472.806 271.565 476.168 275.219 479.697C268.87 476.754 267.557 476.654 265.431 476.492C264.693 476.436 263.856 476.372 262.676 476.179C272.091 489.835 282.267 492.005 286.177 491.382L280.995 494.931C270.107 484.112 262.071 480.477 256.473 478.829C260.029 486.445 272.709 493.372 278.604 495.884L274.718 498.546C263.619 485.912 257.096 484.008 252.187 482.575C251.744 482.446 251.315 482.32 250.896 482.191C255.518 491.191 265.747 496.093 270.209 498.232C271.696 498.945 272.543 499.35 272.327 499.498C271.654 499.959 270.238 500.373 268.786 500.798C268.376 500.918 267.963 501.039 267.563 501.162C252.044 485.302 248.564 485.68 245.448 486.018C245.393 486.024 245.338 486.03 245.283 486.036C250.098 495.715 259.985 501.021 264.327 502.464C263.62 502.796 261.731 503.603 259.833 504.172C249.362 491.467 243.012 488.962 238.648 488.981C242.977 497.897 252.551 503.144 256.797 504.652C255.545 504.977 252.581 505.575 250.743 505.372C244.389 497.615 235.964 491.962 231.256 492.902C233.736 500.343 243.027 505.25 247.363 506.773C246.344 507.014 243.385 507.442 239.693 507.229C233.734 499.658 225.611 495.398 223.02 497.173C225.804 503.491 232.72 506.902 235.831 507.818L230.091 508.188C230.023 508.19 229.973 508.193 229.939 508.198L230.091 508.188C230.551 508.175 231.82 508.238 234.332 508.561C230.777 508.469 208.889 514.722 197.964 517.99C216.734 520.67 234.206 516.466 237.678 508.609L246.712 508.132C237.423 514.267 217.739 527.429 213.319 531.005C228.62 530.577 243.059 515.433 248.365 507.914L256.309 505.672C245.936 514.072 225.225 531.121 225.366 532.121C241.232 530.027 253.516 513.602 257.674 505.651L265.204 503.463C254.647 513.664 232.85 534.762 230.127 537.541C234.751 538.395 246.779 529.639 252.215 525.154C249.147 528.398 242.755 535.381 241.729 537.363C259.097 532.778 271.627 510.335 275.721 499.687L280.471 496.433C274.531 509.793 262.566 537.987 262.22 543.89C278.14 527.575 281.084 500.578 281.602 495.826C281.609 495.761 281.616 495.701 281.622 495.645L288.243 491.11C283.036 503.815 271.479 533.436 272.685 539.007C286.191 527.928 289.548 501.867 289.539 490.222L296.722 483.703C292.235 495.915 283.101 525.932 284.269 531.986C295.554 524.256 297.899 495.539 297.66 482.146L300.651 478.727C295.991 514.361 304.164 526.813 310.306 526.718C305.992 517.61 302.456 490.666 301.227 478.333C301.46 478.249 302.487 477.195 304.723 473.653C301.837 511.043 310.92 518.758 315.154 520.427C312.585 514.145 307.672 485.494 305.536 471.954C305.999 471.256 307.534 469.032 309.971 465.717C304.731 503.577 320.996 511.856 324.677 511.848C310.068 489.183 310.784 464.018 312.01 462.265C312.541 497.771 326.582 504.831 333.231 503.476C321.677 491.696 316.273 471.199 314.411 464.134C314.134 463.085 313.936 462.332 313.807 461.948C312.972 459.459 314.037 457.111 315.477 453.935C315.757 453.318 316.051 452.669 316.348 451.982C320.671 493.116 334.027 494.935 337.977 494.97C332.519 491.068 329.371 481.866 327.395 476.09C327.126 475.303 326.878 474.58 326.65 473.942C325.124 469.686 319.893 456.104 317.468 449.845C317.969 448.054 319.168 444.065 319.948 442.434C328.179 484.061 344.993 483.298 351.432 483.006L351.443 483.005C347.836 482.049 335.941 464.836 334.011 461.589C332.466 458.991 324.355 446.574 320.492 440.691L322.351 430.735C331.444 461.291 347.323 472.805 354.254 473.083C350.671 470.055 331.855 442.427 322.895 428.992C323.219 426.562 323.787 420.613 323.469 416.262C329.221 433.569 352.842 457.83 358.11 461.989C354.115 457.232 333.63 428.265 323.887 414.376C323.813 412.98 323.476 408.397 322.72 401.239C324.632 412.574 348.935 439.867 356.335 448.177C356.957 448.876 357.46 449.441 357.82 449.85C357.217 446.365 340.549 423.401 330.313 409.299C326.151 403.565 323.052 399.296 322.53 398.398C323.11 396.539 319.135 383.512 317.075 377.232ZM274.174 500.289L266.607 502.959C266.049 507.363 260.683 514.937 258.07 518.174L274.174 500.289Z" fill="#87C141"/>
<path fill-rule="evenodd" clip-rule="evenodd" d="M83.1593 137.604C83.1299 137.956 83.2553 138.173 83.4505 138.303C83.7313 135.738 84.0417 130.953 83.2382 126.081C83.1336 125.447 83.0251 124.729 82.9066 123.944L82.9066 123.944C81.8001 116.62 79.82 103.513 72.0222 98.6894L72.5068 97.9453C80.5812 102.94 82.627 116.381 83.7629 123.844C83.8773 124.595 83.9825 125.286 84.0837 125.902C84.9139 130.955 84.5711 135.909 84.2816 138.48C84.6173 138.471 84.8975 138.402 84.8975 138.402C86.0646 138.383 89.6549 135.131 91.6976 133.061C91.8394 132.918 91.9823 132.769 92.1277 132.619C94.0769 130.595 96.4827 128.098 102.981 129.558C111.503 131.476 114.456 139.545 117.767 148.592L117.875 148.887C116.551 146.17 112.438 142.003 106.206 140.011C102.506 138.828 99.0606 139.9 98.9644 141.433C98.9551 141.581 98.9773 141.734 99.0336 141.89C99.3755 142.833 100.976 143.876 104.464 144.655C113.37 146.643 118.092 153.36 118.454 156.707C118.461 156.766 118.466 156.824 118.47 156.88C118.492 157.22 118.465 157.521 118.39 157.773C117.81 159.735 117.404 161.121 116.963 163.922C116.963 163.922 116.963 163.922 116.963 163.922C116.8 164.963 116.632 166.2 116.448 167.736C115.97 171.742 114.742 173.498 112.583 176.587C112.212 177.117 111.814 177.685 111.388 178.312L111.388 178.313C110.829 179.134 110.223 180.052 109.564 181.11C109.506 181.203 109.448 181.297 109.39 181.393C106.903 185.431 103.99 186.838 101.029 188.268C98.9877 189.254 96.9239 190.252 94.9618 192.129C90.1534 196.728 83.4349 196.285 79.0069 195.864C85.6435 189.887 84.9024 175.803 81.5357 173.112C78.1662 170.421 74.537 174.396 78.3749 180.053C82.212 185.711 78.9354 197.856 74.2876 198.845C71.2935 199.482 68.7931 199.364 66.3762 199.105C65.8088 199.045 65.2458 198.977 64.6823 198.91L64.6813 198.91L64.6236 198.903C64.5124 198.889 64.4011 198.876 64.2899 198.863L64.2906 198.861C63.6585 198.786 63.0239 198.713 62.3795 198.653C58.5755 198.304 56.3683 199.661 58.0638 202.169C56.6035 201.537 54.1547 199.45 53.8657 195.286C53.6357 191.975 50.5739 189.287 48.0825 187.1C47.4417 186.538 46.8386 186.008 46.3312 185.51C44.4908 183.702 44.4903 182.571 44.4894 180.772C44.4892 180.147 44.4888 179.44 44.411 178.596C44.2965 177.356 43.8445 176.788 43.2585 176.053C42.2991 174.848 40.9806 173.192 40.1974 167.394C38.9363 158.054 47.4845 154.598 56.3667 151.917C65.2501 149.234 66.2288 143.967 60.1581 143.009C54.0886 142.052 46.2331 147.608 41.7132 154.571C40.8748 152.368 42.5459 146.859 45.0365 141.723C46.3703 138.971 48.0301 137.593 49.6514 136.247C51.0564 135.081 52.4326 133.939 53.5425 131.947C54.947 129.427 56.7292 128.66 59.0392 127.666C60.6622 126.967 62.5458 126.157 64.7419 124.547C70.0608 120.648 73.5754 121.226 77.8851 124.194C84.7937 128.948 83.6641 134.878 83.2594 137.002L83.2593 137.002C83.2096 137.263 83.1708 137.467 83.1593 137.604ZM58.2093 134.394C58.2093 134.394 62.9224 129.849 68.957 130.541C74.9918 131.233 80.0365 135.202 79.2774 137.681C78.5194 140.158 75.812 139.693 72.3388 137.308C68.8665 134.92 66.3115 134.715 63.4084 135.468C62.1236 135.802 60.0759 136.926 58.1831 137.965C55.7994 139.273 53.6614 140.446 53.6028 139.737C53.5008 138.464 56.503 135.727 58.2093 134.394ZM63.7882 154.785C65.1997 155.264 66.5255 155.002 67.6002 154.791C69.2845 154.459 70.3521 154.248 70.1668 157.2C69.8637 162.035 68.6822 164.947 62.7379 164.916C56.795 164.884 52.3122 166.587 50.6639 169.051C49.0161 171.514 48.4364 171.713 48.0135 169.618C48.0135 169.618 48.0504 164.36 52.5518 160.267C57.052 156.175 60.1641 153.554 63.7882 154.785ZM85.3159 157.111C88.7954 160.119 92.4482 167.45 93.1733 171.634C93.4459 173.207 94.345 174.704 95.2872 176.273C96.8512 178.878 98.5339 181.68 97.6657 185.352C96.2748 191.235 91.7056 187.234 89.4206 183.973C87.6273 181.412 87.2476 177.163 86.8669 172.903C86.7628 171.737 86.6585 170.57 86.5252 169.437C85.9042 164.163 82.4986 159.006 82.4986 159.006C79.9054 156.49 81.8368 154.103 85.3159 157.111Z" fill="#4D8348"/>
<path fill-rule="evenodd" clip-rule="evenodd" d="M82.0777 135.161C82.0484 135.513 82.1738 135.73 82.369 135.86C82.6498 133.295 82.9602 128.511 82.1566 123.638C82.0521 123.004 81.9436 122.286 81.8251 121.501L81.825 121.501C80.7186 114.177 78.7385 101.07 70.9407 96.2465L71.4253 95.5025C79.4996 100.497 81.5455 113.938 82.6813 121.401C82.7957 122.152 82.9009 122.844 83.0021 123.459C83.8324 128.512 83.4895 133.466 83.2001 136.037C83.5358 136.028 83.816 135.959 83.816 135.959C84.983 135.94 88.5733 132.689 90.6161 130.619C90.7579 130.475 90.9007 130.327 91.0461 130.176C92.9954 128.153 95.4012 125.656 101.9 127.116C110.421 129.033 113.374 137.102 116.685 146.149L116.793 146.444C115.47 143.728 111.357 139.56 105.125 137.568C101.425 136.385 97.979 137.457 97.8829 138.99C97.8736 139.138 97.8957 139.291 97.9521 139.447C98.294 140.39 99.8948 141.433 103.382 142.212C112.288 144.201 117.011 150.917 117.373 154.264C117.379 154.323 117.384 154.381 117.388 154.437C117.41 154.777 117.384 155.078 117.309 155.33C116.728 157.292 116.323 158.678 115.882 161.479C115.882 161.479 115.882 161.479 115.882 161.479C115.718 162.52 115.55 163.757 115.367 165.293C114.888 169.299 113.661 171.055 111.501 174.144C111.131 174.674 110.733 175.243 110.307 175.869L110.307 175.87C109.748 176.691 109.141 177.609 108.483 178.667C108.425 178.76 108.367 178.855 108.308 178.95C105.822 182.988 102.908 184.395 99.9475 185.826C97.9062 186.812 95.8423 187.809 93.8802 189.686C89.0719 194.285 82.3534 193.842 77.9253 193.422C84.562 187.444 83.8209 173.36 80.4542 170.669C77.0846 167.978 73.4554 171.953 77.2934 177.611C81.1305 183.268 77.8539 195.413 73.2061 196.402C70.212 197.039 67.7116 196.921 65.2946 196.662C64.7272 196.602 64.1642 196.535 63.6007 196.467L63.5998 196.467L63.542 196.46C63.4308 196.446 63.3196 196.433 63.2083 196.42L63.2091 196.418C62.577 196.343 61.9424 196.27 61.2979 196.211C57.494 195.861 55.2868 197.218 56.9822 199.727C55.522 199.094 53.0731 197.007 52.7841 192.843C52.5541 189.532 49.4923 186.844 47.0009 184.657C46.3601 184.095 45.7571 183.565 45.2496 183.067C43.4093 181.259 43.4087 180.128 43.4079 178.33C43.4076 177.704 43.4073 176.997 43.3295 176.153C43.215 174.913 42.7629 174.345 42.177 173.61C41.2175 172.405 39.8991 170.75 39.1158 164.951C37.8548 155.611 46.403 152.156 55.2851 149.474C64.1685 146.791 65.1473 141.524 59.0766 140.566C53.007 139.609 45.1515 145.165 40.6317 152.128C39.7932 149.925 41.4643 144.416 43.955 139.28C45.2887 136.528 46.9485 135.15 48.5698 133.804C49.9749 132.638 51.351 131.496 52.461 129.504C53.8654 126.984 55.6477 126.217 57.9576 125.223C59.5807 124.524 61.4643 123.714 63.6603 122.104C68.9792 118.205 72.4939 118.784 76.8035 121.751C83.7122 126.505 82.5826 132.435 82.1779 134.559L82.1778 134.559C82.128 134.821 82.0892 135.024 82.0777 135.161ZM57.1277 131.952C57.1277 131.952 61.8409 127.406 67.8755 128.098C73.9103 128.79 78.9549 132.759 78.1959 135.238C77.4379 137.715 74.7305 137.25 71.2573 134.865C67.785 132.477 65.23 132.272 62.3268 133.025C61.042 133.359 58.9943 134.483 57.1016 135.522C54.7178 136.83 52.5799 138.003 52.5213 137.294C52.4192 136.021 55.4215 133.284 57.1277 131.952ZM62.7067 152.342C64.1182 152.821 65.4439 152.56 66.5186 152.348C68.2029 152.016 69.2706 151.805 69.0852 154.757C68.7822 159.593 67.6007 162.504 61.6564 162.473C55.7134 162.441 51.2306 164.144 49.5823 166.608C47.9345 169.071 47.3549 169.27 46.932 167.175C46.932 167.175 46.9688 161.917 51.4703 157.824C55.9705 153.732 59.0825 151.111 62.7067 152.342ZM84.2344 154.668C87.7139 157.677 91.3667 165.007 92.0917 169.191C92.3643 170.764 93.2635 172.261 94.2056 173.83C95.7697 176.435 97.4523 179.238 96.5842 182.909C95.1933 188.792 90.6241 184.791 88.3391 181.53C86.5458 178.97 86.1661 174.72 85.7854 170.46C85.6812 169.294 85.577 168.128 85.4437 166.995C84.8227 161.72 81.4171 156.563 81.4171 156.563C78.8239 154.047 80.7552 151.66 84.2344 154.668Z" fill="#69B263"/>
<path d="M86.5228 164.741C86.4541 164.796 86.3798 164.853 86.2888 164.867C86.1244 164.894 85.9778 164.78 85.8615 164.675C85.3135 164.177 84.7862 163.662 84.2796 163.132C84.0299 162.869 83.7821 162.6 83.6244 162.286C83.4359 161.912 83.3916 161.502 83.4539 161.097C82.9584 162.48 81.9598 163.7 80.5541 164.529C80.4631 164.583 80.3595 164.635 80.2518 164.62C80.1856 164.61 80.1269 164.575 80.0718 164.54C79.3458 164.076 78.7953 163.414 78.4692 162.678C78.042 161.714 77.8291 160.357 78.4156 159.409C79.1295 158.254 80.3428 157.178 81.5258 156.404C81.6169 156.344 81.7195 156.283 81.8317 156.292C81.9485 156.3 82.0405 156.379 82.1214 156.454L82.1313 156.463C82.9744 157.239 83.8296 158.027 83.808 159.169C83.7999 159.598 83.7463 160.022 83.6494 160.435C83.7449 160.216 83.868 160.006 84.0117 159.813C84.5511 159.088 85.3444 158.546 86.1219 158.017C86.1962 157.967 86.2842 157.913 86.3762 157.93C86.446 157.943 86.497 157.994 86.5425 158.043C87.0375 158.567 87.4657 159.14 87.8186 159.747C87.8749 159.844 87.9399 159.949 88.0083 160.059L88.0085 160.06C88.2666 160.476 88.5717 160.969 88.6321 161.381C88.7974 162.514 87.3863 164.039 86.5228 164.741Z" fill="#715D20"/>
<path d="M93.4826 158.924C94.7809 160.411 94.3522 161.986 93.5903 163.543C93.5544 163.617 93.515 163.695 93.4427 163.744C93.3547 163.804 93.2364 163.812 93.1257 163.816C92.4437 163.845 91.7263 163.868 91.117 163.594C90.1646 163.167 89.7677 162.168 89.4568 161.263C89.1413 160.343 88.8223 159.39 88.9689 158.438C89.0119 158.158 89.1115 157.861 89.3678 157.694C89.5564 157.571 89.8011 157.537 90.0356 157.526C91.3476 157.464 92.6782 158.003 93.4826 158.924Z" fill="#715D20"/>
<path d="M97.753 160.185C98.9709 160.259 100.14 159.797 101.25 159.345C101.465 159.258 101.701 159.151 101.783 158.955C101.886 158.711 101.708 158.451 101.538 158.239C101.021 157.59 100.492 156.931 99.7803 156.449C98.6271 155.668 97.1205 155.434 95.6721 155.367C95.6031 155.363 95.5339 155.361 95.4647 155.358C95.5147 155.348 95.5645 155.337 95.6142 155.326C95.7158 155.301 95.821 155.274 95.8983 155.21C95.9767 155.146 96.0176 155.055 96.0454 154.963C96.2588 154.255 95.8179 153.535 95.3933 152.906C94.8154 152.049 94.1465 151.126 93.0717 150.826C92.421 150.644 91.7056 150.726 91.0661 150.937C90.4266 151.147 89.8497 151.481 89.2804 151.814C89.1975 151.863 89.109 151.917 89.0752 152C89.0448 152.074 89.0651 152.157 89.0898 152.233C89.4109 153.219 90.6182 154.314 91.6015 154.816C92.2531 155.148 92.9845 155.362 93.7322 155.438C93.4577 155.482 93.1879 155.545 92.9258 155.633C92.7307 155.698 92.5209 155.797 92.4597 155.974C92.4081 156.124 92.4794 156.283 92.5537 156.426C93.5497 158.354 95.1786 160.03 97.753 160.185Z" fill="#715D20"/>
<path d="M104.056 154.127C104.155 154.096 104.258 154.061 104.328 153.991C104.465 153.852 104.414 153.638 104.345 153.464C103.72 151.88 102.113 150.523 100.226 150.239C99.1952 150.084 97.0268 150.109 96.2983 150.937C95.5915 151.739 96.5474 152.843 97.1211 153.506C97.1457 153.535 97.1696 153.562 97.1927 153.589C98.6457 155.277 102.12 154.723 104.056 154.127Z" fill="#715D20"/>
<path d="M73.0437 158.267C72.9371 158.731 73.0372 159.213 73.1767 159.671C73.3061 160.095 73.4689 160.51 73.6317 160.925C73.7925 161.337 74.0432 161.815 74.5301 161.871C74.8466 161.907 75.1439 161.742 75.4037 161.578C76.2566 161.04 77.0554 160.435 77.787 159.771C78.2819 159.322 78.7551 158.835 79.0216 158.253C79.4452 157.327 79.2991 156.284 79.1464 155.295C79.1313 155.194 79.1065 155.08 79.0094 155.025C78.9366 154.984 78.8446 154.989 78.7592 154.996C77.5524 155.097 76.0994 155.417 75.1545 156.124C75 156.239 74.8358 156.352 74.6697 156.467C73.9668 156.951 73.229 157.46 73.0437 158.267Z" fill="#715D20"/>
<path d="M70.5585 153.44C71.055 153.017 71.738 152.816 72.4049 152.663C73.9706 152.302 75.2482 152.155 76.8372 152.496C77 152.531 77.1704 152.573 77.2902 152.677C77.6208 152.963 77.3589 153.454 77.0844 153.784C76.1339 154.925 74.9939 156.118 73.417 156.36C72.8887 156.441 72.3483 156.406 71.8134 156.372C71.0985 156.326 70.3548 156.272 69.7375 155.95C69.6334 155.896 69.5282 155.828 69.4883 155.727C69.4519 155.633 69.4797 155.53 69.508 155.434C69.7183 154.714 69.9529 153.955 70.5585 153.44Z" fill="#715D20"/>
<path d="M70.6399 148.79C69.4053 149.027 68.2491 149.702 67.6652 150.694C67.6126 150.783 67.5635 150.884 67.5863 150.983C67.607 151.07 67.6803 151.14 67.7551 151.201C68.4164 151.743 69.3214 151.976 70.2001 152.151C71.4433 152.4 72.8048 152.564 74.0464 152.221C74.8619 151.996 75.64 151.381 75.729 150.593C75.8149 149.837 74.8825 149.412 74.1914 149.097C74.1507 149.079 74.1109 149.061 74.0722 149.043C73.1015 148.597 71.6829 148.589 70.6399 148.79Z" fill="#715D20"/>
<path d="M76.9857 147.333C76.9649 147.377 76.9427 147.419 76.9184 147.458C76.655 147.881 76.1727 148.019 75.6814 148.159C75.4938 148.213 75.3047 148.267 75.1262 148.337C74.2086 148.7 72.9755 148.851 72.0619 148.404C71.5867 148.171 71.2267 147.79 70.9168 147.396C70.3673 146.697 69.933 145.921 69.6999 145.095C69.6347 144.863 69.5993 144.583 69.7945 144.418C69.8951 144.332 70.0382 144.299 70.1741 144.272C71.6747 143.974 73.2748 144.14 74.6777 144.687C75.7991 145.125 77.603 145.996 76.9857 147.333Z" fill="#715D20"/>
<path d="M77.6082 140.123C76.6335 139.568 75.4226 139.411 74.2689 139.503C74.1805 139.51 74.0884 139.519 74.0116 139.559C73.9201 139.605 73.8599 139.687 73.8089 139.769C73.3028 140.588 73.4413 141.627 73.9176 142.461C74.3943 143.294 75.1653 143.962 75.9403 144.595C76.4894 145.043 77.0925 145.503 77.8312 145.598C78.1239 145.636 78.4404 145.609 78.6815 145.457C78.9313 145.299 79.0627 145.034 79.1598 144.776C79.766 143.166 79.3115 141.092 77.6082 140.123Z" fill="#715D20"/>
<path d="M80.2944 136.056C81.5012 136.488 82.8263 137.022 83.3157 138.091C83.5379 138.577 83.6819 139.166 83.6864 139.749C83.7111 139.603 83.7419 139.457 83.7746 139.313C83.9546 138.52 84.1912 137.736 84.4824 136.969C84.7584 136.242 85.1356 135.475 85.8894 135.096C86.1412 134.97 86.4475 134.895 86.7195 134.982C86.9627 135.059 87.1341 135.25 87.2837 135.437C87.992 136.319 88.5234 137.333 88.6705 138.407C88.9263 140.274 87.8677 141.865 86.1523 142.887C85.9627 143 85.7367 143.109 85.5173 143.054C85.3767 143.019 85.268 142.923 85.1659 142.831C84.5365 142.262 83.8792 141.648 83.6902 140.869C83.6515 140.71 83.6338 140.549 83.6313 140.387C83.5152 141 83.208 141.559 82.6311 141.924C82.4244 142.055 82.1883 142.159 81.935 142.18C81.6468 142.205 81.3627 142.124 81.0902 142.04C80.2176 141.771 79.3126 141.43 78.7757 140.765C78.2883 140.161 78.1806 139.367 78.3111 138.634C78.441 137.9 78.7878 137.213 79.1463 136.542C79.2812 136.289 79.4632 136.005 79.7752 135.961C79.9521 135.936 80.1286 135.996 80.2944 136.056Z" fill="#715D20"/>
<path d="M95.2097 139.398C95.3962 139.94 95.013 140.498 94.607 140.935C93.9665 141.624 93.2713 142.287 92.3234 142.612C92.1749 142.663 92.0248 142.72 91.8734 142.777C91.514 142.913 91.1472 143.051 90.7764 143.124C91.1639 143.212 91.5126 143.423 91.7854 143.822C92.0114 144.152 92.2071 144.52 92.1894 144.906C92.1656 145.434 91.7536 145.879 91.336 146.256C90.0822 147.387 88.7697 147.862 86.9906 147.729C86.8865 147.721 86.7773 147.71 86.6918 147.656C86.6054 147.602 86.5563 147.512 86.5184 147.424C86.3551 147.042 86.4053 146.661 86.4567 146.271C86.4684 146.181 86.4803 146.091 86.4896 146.001C86.5538 145.375 86.6377 144.705 87.0988 144.227C87.4006 143.914 87.8293 143.724 88.2576 143.565C88.7341 143.39 89.2641 143.202 89.7811 143.119C89.6481 143.085 89.515 143.035 89.382 142.967C88.6747 142.603 88.3784 141.781 88.5463 141.071C88.7146 140.362 89.2677 139.764 89.9164 139.321C91.0377 138.557 92.5408 138.189 93.9114 138.501C94.4675 138.628 95.0423 138.912 95.2097 139.398Z" fill="#715D20"/>
<path d="M100.085 142.178C100.23 141.875 100.372 141.516 100.181 141.234C100.074 141.075 99.88 140.979 99.6874 140.905C99.1672 140.705 98.5974 140.618 98.0302 140.603C96.4634 140.561 94.7763 141.171 94.0751 142.413C93.814 142.876 93.7081 143.381 93.6024 143.885L93.6023 143.885C93.5632 144.072 93.524 144.259 93.477 144.443C93.4518 144.542 93.4166 144.638 93.3822 144.732C93.2571 145.074 93.1439 145.383 93.57 145.642C94.0703 145.946 94.817 145.877 95.478 145.815C95.7215 145.792 95.9534 145.771 96.157 145.769C98.3694 145.752 99.2734 143.869 100.037 142.278L100.085 142.178Z" fill="#715D20"/>
<path d="M103.686 145.575C104.077 145.965 104.212 146.351 104.177 146.718C104.078 147.749 102.63 148.639 101.659 149.096C100.338 149.718 98.7024 149.598 97.2777 149.409C96.9456 149.365 96.5442 149.259 96.4789 148.968C96.4527 148.85 96.4926 148.728 96.5346 148.613C96.8515 147.743 97.3177 146.875 98.1286 146.309C98.7009 145.91 99.4036 145.691 100.1 145.501C100.213 145.47 100.329 145.437 100.446 145.403C101.551 145.088 102.834 144.722 103.686 145.575Z" fill="#715D20"/>
<path d="M95.8442 148.481C95.9053 148.901 95.4534 149.227 95.0423 149.442C94.1707 149.899 93.3001 150.338 92.2642 150.331C91.2662 150.326 90.3163 149.847 89.5979 149.264C89.4169 149.117 89.2328 148.94 89.2248 148.722C89.2177 148.515 89.3719 148.335 89.524 148.179C89.8906 147.8 90.289 147.445 90.7142 147.119C91.1024 146.82 91.5362 146.537 92.0428 146.464C92.7359 146.364 93.4109 146.672 94.0266 146.97C94.6525 147.274 95.3052 147.6 95.6854 148.134C95.7612 148.24 95.826 148.356 95.8442 148.481Z" fill="#715D20"/>
<path d="M82.2278 142.926C83.157 143.305 84.157 143.744 84.5934 144.564C85.0008 145.328 85.5797 147.475 84.5327 148.027C84.2819 148.159 83.9705 148.147 83.6788 148.131C83.2622 148.107 82.84 148.082 82.4432 147.968C81.4164 147.671 80.7071 146.8 80.4098 145.88C80.112 144.96 80.159 143.984 80.2091 143.028C80.2217 142.792 80.2642 142.511 80.5033 142.406C80.704 142.317 80.9426 142.401 81.1464 142.484C81.2868 142.541 81.427 142.598 81.5672 142.656C81.7874 142.746 82.0075 142.836 82.2278 142.926Z" fill="#715D20"/>
<path d="M79.7736 151.878C78.5516 152.032 77.2574 151.631 76.409 150.838C76.1861 150.63 75.9818 150.362 76.0304 150.078C76.0769 149.803 76.3448 149.604 76.6017 149.443C77.5001 148.881 78.5223 148.444 79.6143 148.326C80.4475 148.236 83.395 148.545 83.0583 149.777C82.9405 150.21 82.1357 150.797 81.7372 151.088L81.7023 151.114C81.1528 151.516 80.4804 151.789 79.7736 151.878Z" fill="#715D20"/>
<path d="M83.4674 148.701C83.521 148.645 83.6065 148.62 83.6868 148.598C85.4366 148.134 87.2112 148.028 88.6394 149.198C89.6222 150.004 89.6167 151.756 88.0367 151.911C87.0155 152.011 85.9553 151.768 85.1166 151.242C84.2773 150.716 83.6671 149.91 83.4346 149.023C83.4057 148.915 83.387 148.788 83.4674 148.701Z" fill="#715D20"/>
<path d="M83.7787 151.55C84.08 151.945 84.4829 152.758 84.5279 153.233C84.6331 154.339 83.5926 155.409 82.5224 155.835C81.9142 156.076 81.2564 156.198 80.6042 156.317C80.5431 156.329 80.4738 156.338 80.4232 156.305C80.3757 156.274 80.3636 156.216 80.3555 156.164C80.2154 155.23 80.2109 154.281 80.3413 153.345C80.3798 153.07 80.4313 152.792 80.5587 152.539C80.6932 152.27 80.9081 152.041 81.1204 151.815C81.5122 151.397 81.9819 150.944 82.5946 150.931C83.0729 150.922 83.5112 151.2 83.7787 151.55Z" fill="#715D20"/>
<path d="M89.5106 157.382C89.4095 157.452 89.2695 157.449 89.142 157.439C88.0303 157.351 86.5935 156.856 85.8943 156.036C85.1612 155.177 84.9868 153.683 84.9039 152.647C84.8938 152.517 84.8963 152.365 85.0116 152.283C85.096 152.223 85.2138 152.223 85.322 152.225C86.2992 152.246 87.3331 152.282 88.1532 152.753C89.1865 153.346 89.6314 154.495 89.7442 155.581C89.7978 156.092 89.7927 156.612 89.6643 157.112C89.6385 157.212 89.6026 157.319 89.5106 157.382Z" fill="#715D20"/>
<path d="M87.1337 162.145C87.0649 162.2 86.9906 162.257 86.8996 162.272C86.7353 162.299 86.5887 162.185 86.4724 162.079C85.9244 161.581 85.397 161.067 84.8905 160.536C84.6407 160.274 84.393 160.004 84.2352 159.691C84.0468 159.316 84.0024 158.906 84.0647 158.501C83.5693 159.885 82.5706 161.104 81.165 161.934C81.074 161.987 80.9703 162.039 80.8627 162.024C80.7964 162.014 80.7378 161.979 80.6827 161.944C79.9567 161.48 79.4061 160.818 79.08 160.082C78.6528 159.118 78.44 157.761 79.0264 156.814C79.7403 155.658 80.9537 154.582 82.1367 153.808C82.2277 153.749 82.3303 153.688 82.4426 153.696C82.5593 153.704 82.6514 153.783 82.7322 153.858L82.7421 153.867C83.5853 154.644 84.4405 155.431 84.4188 156.574C84.4107 157.003 84.3571 157.426 84.2602 157.839C84.3558 157.621 84.4788 157.411 84.6225 157.217C85.162 156.492 85.9552 155.95 86.7328 155.422C86.8071 155.371 86.895 155.318 86.9871 155.335C87.0568 155.348 87.1079 155.399 87.1534 155.447C87.6483 155.971 88.0766 156.544 88.4294 157.152C88.4857 157.248 88.5508 157.353 88.6191 157.464L88.6193 157.464C88.8774 157.881 89.1826 158.373 89.2429 158.786C89.4082 159.919 87.9972 161.443 87.1337 162.145Z" fill="#FFDD74"/>
<path d="M94.0934 156.328C95.3917 157.815 94.963 159.39 94.2011 160.947C94.1652 161.021 94.1258 161.099 94.0535 161.149C93.9655 161.209 93.8472 161.216 93.7365 161.22C93.0545 161.249 92.3371 161.272 91.7279 160.999C90.7754 160.572 90.3785 159.572 90.0676 158.667C89.7521 157.748 89.4331 156.794 89.5797 155.843C89.6227 155.563 89.7223 155.266 89.9786 155.098C90.1672 154.975 90.4119 154.942 90.6465 154.931C91.9584 154.868 93.2891 155.408 94.0934 156.328Z" fill="#FFDD74"/>
<path d="M98.3638 157.59C99.5818 157.663 100.751 157.201 101.86 156.75C102.076 156.662 102.312 156.556 102.394 156.359C102.496 156.115 102.318 155.856 102.149 155.643C101.632 154.995 101.103 154.336 100.391 153.853C99.238 153.072 97.7314 152.839 96.2829 152.771C96.2139 152.768 96.1448 152.765 96.0755 152.762C96.1255 152.752 96.1754 152.741 96.225 152.73C96.3267 152.706 96.4318 152.678 96.5092 152.614C96.5875 152.551 96.6285 152.459 96.6563 152.367C96.8696 151.659 96.4288 150.939 96.0041 150.31C95.4262 149.454 94.7574 148.531 93.6825 148.231C93.0319 148.049 92.3165 148.13 91.6769 148.341C91.0374 148.552 90.4605 148.885 89.8913 149.218C89.8084 149.267 89.7199 149.321 89.686 149.404C89.6557 149.479 89.6759 149.561 89.7007 149.637C90.0217 150.623 91.229 151.718 92.2123 152.22C92.8639 152.553 93.5953 152.767 94.343 152.843C94.0685 152.887 93.7987 152.95 93.5367 153.037C93.3415 153.102 93.1317 153.201 93.0705 153.378C93.019 153.528 93.0903 153.687 93.1646 153.83C94.1605 155.758 95.7895 157.434 98.3638 157.59Z" fill="#FFDD74"/>
<path d="M104.667 151.531C104.766 151.5 104.869 151.465 104.939 151.396C105.076 151.256 105.025 151.042 104.956 150.868C104.331 149.284 102.724 147.927 100.837 147.643C99.8061 147.488 97.6377 147.514 96.9092 148.341C96.2024 149.143 97.1583 150.248 97.732 150.91C97.7566 150.939 97.7805 150.967 97.8035 150.993C99.2565 152.682 102.731 152.127 104.667 151.531Z" fill="#FFDD74"/>
<path d="M73.6546 155.671C73.5479 156.135 73.648 156.617 73.7875 157.075C73.917 157.499 74.0798 157.915 74.2425 158.33C74.4033 158.741 74.6541 159.22 75.1409 159.276C75.4574 159.311 75.7547 159.147 76.0146 158.983C76.8675 158.445 77.6663 157.839 78.3978 157.176C78.8928 156.726 79.366 156.239 79.6324 155.657C80.0561 154.732 79.91 153.689 79.7573 152.7C79.7421 152.598 79.7173 152.484 79.6203 152.429C79.5475 152.389 79.4555 152.393 79.37 152.4C78.1632 152.501 76.7102 152.821 75.7653 153.528C75.6108 153.643 75.4467 153.757 75.2805 153.871C74.5777 154.356 73.8398 154.864 73.6546 155.671Z" fill="#FFDD74"/>
<path d="M71.1694 150.844C71.6659 150.421 72.3489 150.221 73.0157 150.067C74.5815 149.707 75.859 149.559 77.448 149.9C77.6108 149.935 77.7812 149.977 77.901 150.081C78.2317 150.368 77.9698 150.858 77.6953 151.188C76.7448 152.329 75.6047 153.522 74.0279 153.764C73.4995 153.845 72.9591 153.811 72.4242 153.776C71.7093 153.73 70.9656 153.676 70.3483 153.355C70.2442 153.3 70.139 153.232 70.0991 153.132C70.0627 153.038 70.0905 152.934 70.1188 152.838C70.3291 152.118 70.5637 151.359 71.1694 150.844Z" fill="#FFDD74"/>
<path d="M71.2508 146.194C70.0162 146.431 68.8599 147.106 68.276 148.099C68.2234 148.188 68.1744 148.288 68.1971 148.387C68.2178 148.474 68.2912 148.544 68.366 148.605C69.0273 149.147 69.9322 149.38 70.8109 149.556C72.0541 149.804 73.4156 149.969 74.6573 149.626C75.4728 149.4 76.2508 148.786 76.3398 147.998C76.4257 147.241 75.4934 146.816 74.8022 146.502C74.7616 146.483 74.7218 146.465 74.6831 146.447C73.7124 146.001 72.2937 145.994 71.2508 146.194Z" fill="#FFDD74"/>
<path d="M77.5965 144.737C77.5758 144.781 77.5535 144.823 77.5293 144.862C77.2659 145.285 76.7836 145.423 76.2923 145.563C76.1046 145.617 75.9156 145.671 75.737 145.742C74.8194 146.104 73.5863 146.255 72.6728 145.808C72.1975 145.575 71.8376 145.195 71.5277 144.8C70.9781 144.102 70.5438 143.326 70.3108 142.5C70.2455 142.268 70.2102 141.988 70.4053 141.822C70.5059 141.736 70.649 141.703 70.785 141.676C72.2855 141.378 73.8856 141.544 75.2886 142.092C76.4099 142.53 78.2138 143.401 77.5965 144.737Z" fill="#FFDD74"/>
<path d="M78.219 137.527C77.2443 136.973 76.0335 136.815 74.8798 136.907C74.7913 136.915 74.6993 136.923 74.6224 136.963C74.5309 137.009 74.4708 137.091 74.4197 137.173C73.9136 137.993 74.0522 139.031 74.5284 139.865C75.0052 140.698 75.7761 141.366 76.5512 141.999C77.1002 142.447 77.7034 142.907 78.442 143.003C78.7347 143.04 79.0512 143.013 79.2924 142.861C79.5421 142.703 79.6736 142.439 79.7706 142.181C80.3768 140.57 79.9223 138.496 78.219 137.527Z" fill="#FFDD74"/>
<path d="M80.9052 133.46C82.112 133.893 83.4371 134.426 83.9265 135.495C84.1487 135.981 84.2928 136.57 84.2973 137.154C84.3219 137.007 84.3527 136.861 84.3854 136.717C84.5654 135.924 84.802 135.141 85.0932 134.374C85.3693 133.646 85.7464 132.879 86.5002 132.5C86.752 132.375 87.0584 132.299 87.3304 132.387C87.5735 132.464 87.7449 132.654 87.8946 132.841C88.6029 133.724 89.1342 134.737 89.2814 135.812C89.5372 137.678 88.4785 139.269 86.7631 140.291C86.5735 140.404 86.3475 140.513 86.1281 140.458C85.9876 140.423 85.8789 140.328 85.7768 140.235C85.1473 139.666 84.4901 139.053 84.301 138.274C84.2623 138.115 84.2446 137.954 84.2421 137.792C84.126 138.404 83.8188 138.963 83.242 139.329C83.0352 139.46 82.7991 139.563 82.5458 139.585C82.2576 139.609 81.9735 139.528 81.701 139.444C80.8284 139.176 79.9234 138.834 79.3865 138.169C78.8991 137.565 78.7915 136.771 78.9219 136.038C79.0518 135.305 79.3986 134.617 79.7571 133.946C79.8921 133.693 80.0741 133.41 80.386 133.365C80.563 133.34 80.7394 133.4 80.9052 133.46Z" fill="#FFDD74"/>
<path d="M95.8205 136.802C96.007 137.344 95.6238 137.903 95.2179 138.34C94.5773 139.029 93.8821 139.691 92.9342 140.016C92.7857 140.068 92.6356 140.124 92.4842 140.181C92.1249 140.317 91.758 140.455 91.3873 140.529C91.7747 140.616 92.1234 140.827 92.3963 141.226C92.6222 141.557 92.8179 141.924 92.8002 142.31C92.7764 142.838 92.3644 143.283 91.9468 143.66C90.693 144.792 89.3805 145.266 87.6014 145.133C87.4973 145.125 87.3881 145.114 87.3027 145.06C87.2162 145.006 87.1672 144.916 87.1292 144.828C86.966 144.447 87.0162 144.065 87.0675 143.675C87.0793 143.586 87.0911 143.496 87.1004 143.405C87.1646 142.779 87.2486 142.109 87.7096 141.631C88.0115 141.319 88.4402 141.128 88.8684 140.97C89.3449 140.794 89.8749 140.606 90.3919 140.523C90.2589 140.489 90.1258 140.439 89.9928 140.371C89.2855 140.007 88.9893 139.185 89.1571 138.476C89.3255 137.766 89.8786 137.168 90.5272 136.726C91.6485 135.962 93.1516 135.593 94.5222 135.905C95.0783 136.032 95.6531 136.316 95.8205 136.802Z" fill="#FFDD74"/>
<path d="M100.696 139.582C100.841 139.28 100.983 138.92 100.792 138.639C100.685 138.48 100.491 138.383 100.298 138.31C99.778 138.11 99.2082 138.022 98.641 138.007C97.0742 137.965 95.3872 138.576 94.6859 139.818C94.4249 140.28 94.319 140.785 94.2133 141.289L94.2132 141.29C94.174 141.476 94.1349 141.663 94.0879 141.847C94.0626 141.946 94.0274 142.042 93.9931 142.136C93.8679 142.478 93.7547 142.787 94.1809 143.046C94.6811 143.351 95.4279 143.281 96.0888 143.219C96.3324 143.197 96.5642 143.175 96.7679 143.173C98.9803 143.156 99.8842 141.273 100.648 139.682L100.696 139.582Z" fill="#FFDD74"/>
<path d="M104.297 142.979C104.687 143.369 104.823 143.755 104.788 144.122C104.688 145.153 103.241 146.043 102.27 146.5C100.949 147.122 99.3133 147.002 97.8886 146.813C97.5564 146.769 97.155 146.664 97.0898 146.372C97.0635 146.254 97.1034 146.132 97.1454 146.017C97.4624 145.147 97.9285 144.279 98.7394 143.713C99.3118 143.314 100.014 143.095 100.711 142.905C100.824 142.874 100.939 142.841 101.057 142.807C102.162 142.492 103.445 142.126 104.297 142.979Z" fill="#FFDD74"/>
<path d="M96.455 145.885C96.5162 146.305 96.0642 146.631 95.6532 146.847C94.7816 147.303 93.911 147.742 92.8751 147.736C91.8771 147.73 90.9271 147.251 90.2087 146.669C90.0277 146.521 89.8437 146.344 89.8356 146.126C89.8285 145.92 89.9827 145.739 90.1349 145.583C90.5014 145.204 90.8998 144.85 91.325 144.523C91.7133 144.225 92.1471 143.942 92.6536 143.868C93.3468 143.768 94.0217 144.076 94.6375 144.375C95.2634 144.678 95.9161 145.004 96.2962 145.539C96.3721 145.645 96.4368 145.761 96.455 145.885Z" fill="#FFDD74"/>
<path d="M82.8386 140.33C83.7679 140.709 84.7679 141.149 85.2042 141.968C85.6117 142.732 86.1906 144.879 85.1435 145.432C84.8928 145.564 84.5813 145.552 84.2896 145.535C83.873 145.511 83.4509 145.487 83.054 145.372C82.0272 145.075 81.3179 144.204 81.0206 143.284C80.7228 142.364 80.7699 141.388 80.8199 140.432C80.8325 140.196 80.875 139.915 81.1141 139.811C81.3149 139.722 81.5535 139.805 81.7572 139.888C81.8976 139.945 82.0378 140.003 82.178 140.06C82.3982 140.15 82.6184 140.24 82.8386 140.33Z" fill="#FFDD74"/>
<path d="M80.3844 149.282C79.1625 149.436 77.8682 149.035 77.0199 148.242C76.7969 148.034 76.5927 147.766 76.6412 147.482C76.6877 147.207 76.9557 147.008 77.2125 146.847C78.1109 146.285 79.1332 145.848 80.2252 145.73C81.0584 145.64 84.0058 145.95 83.6691 147.181C83.5513 147.614 82.7465 148.202 82.3481 148.493L82.3132 148.518C81.7636 148.92 81.0912 149.193 80.3844 149.282Z" fill="#FFDD74"/>
<path d="M84.0783 146.106C84.1319 146.049 84.2173 146.024 84.2977 146.003C86.0475 145.538 87.822 145.432 89.2502 146.603C90.2331 147.408 90.2275 149.16 88.6476 149.315C87.6263 149.415 86.5662 149.172 85.7274 148.646C84.8882 148.12 84.278 147.315 84.0454 146.427C84.0166 146.319 83.9979 146.192 84.0783 146.106Z" fill="#FFDD74"/>
<path d="M84.3895 148.955C84.6908 149.35 85.0938 150.162 85.1388 150.637C85.2439 151.744 84.2035 152.813 83.1332 153.239C82.525 153.481 81.8673 153.602 81.2151 153.722C81.1539 153.733 81.0846 153.742 81.0341 153.71C80.9866 153.679 80.9744 153.621 80.9663 153.569C80.8263 152.635 80.8217 151.685 80.9522 150.75C80.9906 150.475 81.0422 150.196 81.1696 149.943C81.304 149.674 81.5189 149.445 81.7313 149.219C82.1231 148.801 82.5927 148.348 83.2055 148.336C83.6838 148.326 84.1221 148.604 84.3895 148.955Z" fill="#FFDD74"/>
<path d="M90.1214 154.786C90.0203 154.856 89.8803 154.853 89.7529 154.843C88.6411 154.755 87.2043 154.26 86.5051 153.44C85.772 152.582 85.5976 151.087 85.5147 150.051C85.5046 149.921 85.5071 149.769 85.6224 149.687C85.7068 149.628 85.8246 149.627 85.9328 149.629C86.9101 149.651 87.944 149.686 88.764 150.158C89.7974 150.75 90.2423 151.899 90.355 152.986C90.4086 153.496 90.4036 154.016 90.2751 154.517C90.2494 154.617 90.2135 154.723 90.1214 154.786Z" fill="#FFDD74"/>
<path d="M124.761 149.753C125.079 148.518 125.877 148.196 126.614 149.346C126.88 149.845 127.329 152.121 127.293 152.609C126.776 155.215 124.296 151.562 124.761 149.753ZM130.566 146.561C129.098 145.394 132.163 144.72 133.15 145.596C133.824 146.195 133.682 147.056 132.741 147.141C132.347 147.144 130.859 146.742 130.566 146.561V146.561ZM112.565 141.582C112.938 142.638 113.434 147.96 110.859 146.125C109.201 144.974 111.605 139.646 112.565 141.582ZM120.996 137.126L121.003 137.112C121.607 135.815 124.15 134.356 125.426 133.613C126.53 133.011 129.405 133.246 128.979 135.205C128.708 136.378 125.663 137.088 124.597 137.293C123.93 137.541 123.025 137.652 122.387 137.693C121.517 137.748 120.807 137.748 120.996 137.126V137.126ZM116.151 128.287L116.171 128.266C117.453 126.959 118.833 125.107 120.558 124.234C121.955 123.36 124.46 123.46 123.415 125.745C122.785 126.944 120.413 128.145 119.334 128.583C117.606 129.349 113.288 131.142 116.151 128.287V128.287ZM122.038 166.709C125.3 168.403 134.028 166.403 134.764 165.873C135.5 165.341 126.636 150.609 129.292 150.399C131.946 150.186 135.589 162.434 136.451 163.948C137.973 166.621 142.778 167.27 144.284 167.221C147.353 167.119 152.459 165.544 153.395 165.469C154.333 165.394 154.474 156.375 153.344 154.421C152.211 152.466 148.063 150.226 146.969 150.312C145.877 150.401 139.622 148.158 141.906 147.346C144.188 146.535 154.163 150.461 154.662 150.736C155.161 151.011 154.049 143.036 153.664 140.747C153.36 138.941 150.909 135.076 145.605 136.058C138.625 137.352 134.282 138.348 131.738 136.298C128.352 133.572 142.733 132.963 144.667 133.439C146.601 133.914 148.758 133.428 151.176 134.022C153.593 134.615 145.278 111.227 139.187 115.015C133.096 118.804 131.967 123.457 129.111 123.213C126.255 122.968 125.966 120.535 128.923 119.609C132.38 118.527 136.682 115.329 139.194 113.442C141.395 111.788 131.566 101.757 128.442 102.006C125.318 102.256 122.326 112.118 120.451 113.906C118.576 115.694 114.766 115.073 116.697 113.189C118.628 111.304 124.756 106.698 125.395 100.805C125.395 100.805 119.907 96.3934 115.337 98.9596C110.768 101.527 107.334 108.408 107.784 116.397C108.233 124.385 104.988 123.457 103.058 123.438C103.058 123.438 84.9629 124.131 84.2111 133.222C83.2146 145.264 94.0081 154.502 95.529 155.817C98.4943 158.383 100.228 156.39 100.228 156.39C100.228 156.39 97.8248 143.057 102.045 136.779C103.241 135 104.979 136.444 104.645 137.887C104.31 139.33 100.892 146.367 101.763 150.546C102.635 154.724 106.49 161.837 108.334 163.147C112.714 166.26 117.965 165.212 117.965 165.212C117.965 165.212 116.879 157.208 115.71 153.21C114.541 149.214 114.664 143.866 115.908 143.754C116.893 143.666 117.199 145.133 117.601 148.248C117.826 149.988 118.65 164.949 122.038 166.709" fill="#688E11"/>
<path d="M125.701 149.031C126.027 147.796 126.836 147.472 127.578 148.617C127.845 149.115 128.29 151.385 128.252 151.872C127.719 154.475 125.224 150.838 125.701 149.031ZM131.586 145.823C130.105 144.664 133.208 143.98 134.203 144.85C134.883 145.445 134.736 146.305 133.783 146.394C133.386 146.399 131.881 146.002 131.586 145.823V145.823ZM113.395 140.918C113.769 141.971 114.25 147.281 111.652 145.46C109.979 144.316 112.431 138.99 113.395 140.918ZM121.941 136.44L121.948 136.426C122.565 135.129 125.142 133.663 126.436 132.917C127.555 132.312 130.462 132.536 130.024 134.493C129.746 135.666 126.662 136.385 125.583 136.593C124.907 136.843 123.992 136.958 123.346 137.001C122.466 137.059 121.748 137.061 121.941 136.44V136.44ZM117.074 127.635L117.095 127.614C118.396 126.305 119.8 124.451 121.547 123.573C122.965 122.695 125.498 122.787 124.432 125.071C123.79 126.27 121.386 127.478 120.292 127.918C118.541 128.689 114.167 130.495 117.074 127.635V127.635ZM122.881 165.965C126.174 167.644 135.011 165.616 135.758 165.085C136.505 164.551 127.595 149.878 130.282 149.658C132.968 149.437 136.606 161.649 137.472 163.157C139.001 165.82 143.859 166.45 145.384 166.396C148.489 166.283 153.659 164.692 154.607 164.614C155.555 164.536 155.733 155.533 154.597 153.586C153.459 151.638 149.271 149.418 148.165 149.508C147.059 149.6 140.741 147.385 143.054 146.566C145.366 145.748 155.441 149.63 155.945 149.903C156.448 150.175 155.354 142.219 154.974 139.936C154.673 138.135 152.209 134.285 146.84 135.285C139.773 136.601 135.376 137.612 132.81 135.574C129.396 132.866 143.946 132.206 145.901 132.674C147.856 133.141 150.039 132.648 152.483 133.232C154.926 133.815 146.604 110.5 140.428 114.303C134.252 118.108 133.092 122.756 130.204 122.523C127.315 122.289 127.033 119.861 130.028 118.926C133.528 117.833 137.893 114.626 140.441 112.733C142.675 111.074 132.77 101.097 129.608 101.357C126.448 101.618 123.383 111.473 121.479 113.265C119.575 115.056 115.724 114.45 117.685 112.562C119.645 110.674 125.862 106.054 126.531 100.169C126.531 100.169 120.996 95.7855 116.363 98.3635C111.732 100.943 108.232 107.824 108.655 115.796C109.079 123.768 105.801 122.854 103.848 122.842C103.848 122.842 85.5404 123.599 84.745 132.676C83.6906 144.7 94.5736 153.882 96.1071 155.189C99.0968 157.739 100.858 155.745 100.858 155.745C100.858 155.745 98.4785 142.444 102.772 136.162C103.989 134.382 105.741 135.818 105.398 137.259C105.054 138.7 101.568 145.737 102.433 149.905C103.3 154.072 107.172 161.158 109.032 162.46C113.451 165.55 118.767 164.486 118.767 164.486C118.767 164.486 117.699 156.5 116.532 152.514C115.364 148.529 115.51 143.191 116.768 143.075C117.766 142.983 118.069 144.446 118.464 147.554C118.685 149.29 119.461 164.221 122.881 165.965" fill="#B8D96A"/>
</svg>
