<svg width="730" height="596" viewBox="0 0 730 596" fill="none" xmlns="http://www.w3.org/2000/svg">
<path fill="currentColor" fill-rule="evenodd" clip-rule="evenodd" d="M113.319 414.813C119.959 402.64 135.12 374.974 142.645 361.695L173.077 311.344C173.766 310.237 175.29 304.704 171.416 297.511C166.105 288.216 154.817 284.047 149.837 283.125C145.78 281.834 135.009 280.58 124.385 285.892C113.762 291.203 105.573 302.491 102.806 307.471C101.884 308.762 99.3755 313.668 96.7196 322.963C93.3998 334.583 95.0597 345.649 96.1663 350.076C97.7312 357.9 95.3621 357.856 93.6949 357.826C93.5936 357.824 93.4949 357.822 93.3998 357.822C82.7762 358.265 77.1694 343.62 75.6939 336.243C73.8495 328.681 73.8126 309.684 88.42 294.191C103.027 278.699 126.598 274.825 136.558 274.825C154.264 274.825 170.31 278.699 182.483 292.531C192.83 304.289 192.811 317.984 191.336 324.623L185.802 345.649C177.345 371.655 160.083 428.645 158.69 448.565C158.137 452.622 156.809 462.176 155.924 467.93C154.817 474.201 152.936 490.727 154.264 506.662C154.633 508.691 155.481 513.966 155.924 518.835C155.924 523.261 154.633 523.815 154.264 523.815C150.575 525.106 141.538 522.487 134.898 501.682C127.514 478.545 128.889 471.613 130.452 463.741C130.645 462.765 130.842 461.775 131.025 460.737C131.357 458.856 131.733 456.909 132.109 454.961C133.614 447.17 135.119 439.38 133.791 435.839C132.463 432.297 125.492 430.674 122.172 430.305C116.222 429.679 114.26 433.815 112.25 438.052C111.419 439.805 110.579 441.574 109.446 443.032L96.1663 467.93L87.3134 481.763C85.2846 485.452 78.1284 495.043 65.7343 503.896C53.3402 512.749 37.7 509.798 31.4291 507.215C25.7116 505.187 12.6167 496.481 5.97701 477.89C-0.662708 459.299 0.628347 442.109 2.10384 435.839C2.47271 431.228 5.53436 418.575 14.83 404.853C28.6269 387.342 39.8793 385.946 47.1227 385.048C47.432 385.009 47.734 384.972 48.0285 384.934C57.4348 383.827 69.3002 387.147 77.9072 398.213C84.1043 406.181 81.9648 416.657 80.1205 420.899C77.3539 427.539 71.2675 430.859 69.6076 430.859C67.2239 430.859 67.5788 429.014 67.9477 427.539V414.259C68.501 405.406 56.3282 392.127 39.7289 397.107C22.9083 403.304 18.5189 426.063 18.1501 436.945C15.3834 467.377 25.8961 483.976 29.7696 487.296C46.3686 504.449 66.4419 485.636 76.2476 473.464C92.1095 453.773 104.007 431.919 113.008 415.385L113.319 414.813ZM152.051 360.035C153.526 357.822 156.809 353.617 158.137 354.502C159.465 355.387 156.477 364.093 154.817 368.335L141.538 412.6C140.984 415.366 139.324 418.686 136.558 418.133C136.504 418.133 136.404 418.138 136.264 418.145L136.262 418.145L136.256 418.146C134.93 418.215 130.09 418.468 126.598 416.473C123.5 414.702 126.414 409.095 128.258 406.513L141.538 380.508L152.051 360.035Z"/>
<path fill="currentColor" fill-rule="evenodd" clip-rule="evenodd" d="M254.201 466.479C249.195 473.834 241.925 482.259 236.626 486.743C234.412 488.772 228.769 493.161 223.9 494.489C219.03 495.817 214.124 493.198 212.28 491.723C210.815 490.432 207.768 487.186 207.3 484.53C206.415 481.578 205.813 473.927 208.782 463.504C208.311 463.504 207.622 463.359 206.78 463.182C202.999 462.388 196.128 460.943 191.953 469.037C190.907 474.802 190.148 481.438 190.148 488.403C187.381 497.256 168.347 501.572 165.249 478.997C164.696 474.386 167.462 463.504 174.102 445.798C179.413 433.404 179.635 424.403 179.081 421.452C178.897 420.161 178.307 417.247 177.422 415.919C176.315 414.259 175.208 407.62 180.188 405.406C185.168 403.193 192.914 401.533 196.234 404.3C199.554 407.066 200.567 410.012 201.767 414.813C204.456 425.569 200.899 437.514 197.74 448.123L197.739 448.125C197.368 449.371 197.002 450.599 196.653 451.805L196.65 451.813L196.65 451.815C196.098 453.719 195.519 455.714 200.107 455.204C201.955 454.999 203.933 455.269 205.766 455.519C208.243 455.856 210.455 456.158 211.727 455.204C217.924 440.597 217.998 427.723 217.26 423.112C215.969 419.608 214.604 412.046 219.473 409.833C224.342 407.62 229.617 408.911 231.646 409.833C234.228 411.677 239.392 417.69 239.392 426.986C239.392 436.281 234.228 449.671 231.646 455.204C229.617 460.737 225.449 474.902 227.219 478.443C227.773 479.55 229.765 480.878 233.306 477.337C233.605 477.037 233.922 476.723 234.256 476.392C238.86 471.824 246.668 464.079 255.438 449.118C257.469 445.654 258.981 443.428 260.092 442.097C262.248 433.389 265.589 421.634 273.697 417.579C278.124 414.997 289.743 410.94 297.49 418.686C299.703 420.899 303.576 425.326 304.129 426.432C304.683 427.539 306.343 429.199 307.449 428.092C308.002 426.432 309.662 421.453 311.322 421.453C312.982 421.453 314.642 421.453 316.302 424.219C317.962 426.986 321.835 435.839 321.835 453.545C321.835 467.506 316.818 490.855 314.202 501.236C321.086 498.666 326.838 493.347 329.821 487.044C333.414 471.335 337.143 457.947 338.988 451.884L345.074 424.219C345.812 421.268 346.845 414.37 345.074 410.386C343.304 406.402 343.968 403.193 344.521 402.086C346.734 401.533 352.046 401.422 355.587 405.406C360.014 410.386 363.887 417.579 364.44 426.432C364.44 429.752 364.993 429.752 365.547 429.752C366.1 429.752 369.973 429.752 373.293 427.539C376.613 425.326 382.146 424.219 384.359 424.772C384.543 424.818 384.754 424.864 384.987 424.915C387.568 425.479 392.981 426.66 396.532 435.285C397.612 437.907 398.476 440.83 399.306 443.634L399.307 443.638L399.307 443.639C401.453 450.893 403.364 457.354 408.152 455.758C412.778 454.215 418.3 449.483 421.354 446.46C422.086 441.62 422.755 436.72 423.182 433.593L423.183 433.585L423.187 433.551L423.189 433.538C423.431 431.763 423.594 430.571 423.644 430.302C424.013 428.274 424.862 423.884 425.304 422.556C425.373 422.351 425.433 422.154 425.489 421.968C425.891 420.649 426.131 419.861 428.071 420.346C430.284 420.9 433.604 422.559 439.137 432.519C443.563 440.486 440.981 451.194 439.137 455.551L436.246 464.313C436.986 464.519 437.734 464.755 438.488 464.993C441.848 466.053 445.325 467.15 448.744 465.851C449.773 455.803 453.122 444.247 461.269 435.837C474.991 421.673 491.332 419.976 497.788 420.898C502.03 422.005 510.403 427.539 509.961 440.818C509.532 453.673 513.044 453.047 521.801 451.487L522.687 451.33C525.383 449.789 529.548 445.996 533.039 442.219C535.239 432.745 538.338 422.825 540.946 421.26C543.159 419.932 547.032 424.027 548.692 426.24C550.905 429.006 554.779 436.863 552.565 446.159C550.352 455.455 546.11 468.107 544.266 473.271C543.159 476.96 541.167 485.112 542.053 488.21C541.868 489.317 541.721 491.53 542.606 491.53C545.372 491.53 545.926 491.53 549.246 487.104C554.429 482.392 556.643 476.717 558.006 473.222L558.007 473.22L558.008 473.217L558.008 473.216L558.009 473.213C558.245 472.608 558.456 472.069 558.652 471.611C561.418 463.68 567.394 446.27 569.165 440.073C569.404 439.234 569.65 438.357 569.902 437.459L569.904 437.454L569.904 437.452C571.978 430.055 574.445 421.26 576.911 421.26C579.124 421.26 582.075 423.473 582.998 424.58C585.948 427.531 590.191 433.986 587.977 446.159C586.899 452.088 584.199 460.278 581.828 467.472L581.826 467.476L581.826 467.478L581.825 467.48L581.824 467.481L581.824 467.483C580.181 472.465 578.697 476.968 578.018 479.911C577.916 481.034 577.795 482.138 577.679 483.192C577.169 487.85 576.766 491.53 578.571 491.53C580.958 491.53 582.201 490.1 584.15 487.857C584.912 486.98 585.782 485.979 586.871 484.891C589.637 482.124 593.51 473.271 595.17 469.398L601.257 451.139L606.79 432.326C607.896 428.453 610.11 420.817 612.323 421.26C614.536 421.26 616.934 423.104 617.856 424.027C619.7 426.055 623.5 431.441 623.942 436.753C624.385 442.064 623.389 447.45 622.836 449.479L618.409 463.312L615.089 473.271C613.983 477.144 611.991 485.997 612.876 490.424C612.876 490.793 613.097 491.53 613.983 491.53C615.089 491.53 616.196 490.977 618.409 488.764C620.623 486.551 625.049 481.571 627.262 478.804L634.455 467.738C635.193 462.758 637.664 450.807 641.648 442.839C645.632 434.871 649.948 429.929 651.608 428.453C654.006 426.055 660.35 421.149 666.547 420.707C668.576 420.338 673.187 419.932 675.4 421.26C675.779 421.487 676.126 421.704 676.453 421.908C678.511 423.192 679.728 423.951 682.593 423.473C683.008 423.335 683.423 423.127 683.855 422.911C685.152 422.263 686.605 421.537 688.68 422.367C691.077 422.92 696.205 426.24 697.532 435.093C698.86 443.946 697.348 450.585 696.426 452.799L691.446 467.185L688.126 478.251C687.573 481.017 686.577 487.325 687.02 490.424C687.462 493.522 690.155 492.084 691.446 490.977L694.766 487.657C697.717 484.337 704.062 476.812 705.832 473.271C705.993 473.031 706.199 472.732 706.448 472.373L706.449 472.372L706.45 472.37L706.451 472.369L706.452 472.368C707.918 470.251 710.823 466.055 714.132 459.438L721.325 445.052C722.616 442.101 725.419 436.089 726.305 435.646C727.19 435.203 728.518 435.462 729.071 435.646C729.624 435.646 730.51 436.753 729.624 441.179C728.739 445.606 727.411 449.294 726.858 450.585C724.276 456.672 717.562 470.947 711.365 479.358C705.168 487.768 698.086 495.404 695.319 498.17C692.368 500.752 685.36 506.027 680.933 506.47C676.507 506.912 673.556 504.81 672.634 503.703C671.343 502.228 668.207 499.387 665.994 499.83C663.781 500.273 661.752 500.752 661.014 500.937L656.588 503.15C654.19 504.072 648.509 505.252 644.968 502.597C640.542 499.277 638.882 496.51 637.222 492.637C635.894 489.538 635.193 483.968 635.009 481.571C632.426 484.891 626.377 492.305 622.836 495.404C618.409 499.277 609.556 507.023 602.363 505.363C596.609 504.035 593.326 497.063 592.404 493.744C592.219 493.006 591.74 491.53 591.297 491.53C586.317 497.063 578.571 502.818 576.358 503.703C573.407 505.179 566.619 507.244 563.078 503.703C559.537 500.162 557.545 495.219 556.992 493.19C556.807 492.637 556.328 491.53 555.885 491.53C553.488 493.928 547.696 499.387 543.712 502.043C540.54 504.158 536.805 505.834 534.857 506.708L534.855 506.709C534.358 506.932 533.978 507.103 533.753 507.215C531.355 507.953 522.687 508.875 519.92 502.789C519.849 502.633 519.78 502.484 519.712 502.337C519.19 501.21 518.718 500.192 517.984 497.256C515.978 489.234 518.101 483.972 521.027 477.144C521.949 474.992 524.751 468.056 527.438 460.608C524.218 462.146 520.524 463.504 517.707 463.504C517.036 463.504 516.398 463.491 515.792 463.478L515.79 463.478C510.895 463.374 507.995 463.313 505.534 470.697C502.767 478.997 496.128 497.809 485.062 504.449C476.209 509.761 468.093 508.875 465.142 507.769C460.532 507.215 450.867 501.459 449.097 482.869C448.726 480.686 448.443 477.84 448.381 474.577C445.945 475.418 442.465 474.774 438.402 474.021C438.021 473.951 437.652 473.871 437.297 473.794C435.086 473.314 433.398 472.947 432.497 475.677C431.575 479.55 430.284 487.296 430.284 489.51L430.284 496.703C430.284 497.809 430.173 500.354 429.731 501.682C429.177 503.342 426.964 505.239 424.751 505.556C418.554 506.441 415.16 504.449 414.238 503.342C412.209 501.867 408.816 496.26 411.471 485.636C414.127 475.013 418.111 462.397 418.664 460.737C418.729 460.545 418.794 460.327 418.862 460.085L410.918 464.057C408.52 464.795 403.504 467.598 402.618 472.91C401.512 479.55 397.639 495.043 387.679 502.789C379.711 508.986 370.711 509.06 367.207 508.322C362.78 507.4 353.927 502.568 353.927 490.616C353.927 478.665 356.694 474.017 360.567 469.037C363.665 465.053 371.08 460.369 374.4 458.524C377.166 457.233 382.699 454.43 382.699 453.544C382.699 452.438 379.379 439.712 373.293 439.158C368.424 438.716 364.625 443.769 363.333 446.351C359.645 453.176 351.382 470.254 347.841 483.976C343.414 501.129 339.541 524.368 338.435 537.094C337.328 549.82 336.775 560.333 339.541 572.506C342.308 584.679 342.308 591.318 338.988 594.638C336.332 597.294 332.717 594.638 331.242 592.978C328.475 589.29 322.721 578.15 321.835 563.1L321.806 562.603C320.719 544.139 320.224 535.728 325.708 506.662C326.16 504.269 326.631 501.882 327.115 499.517C322.573 503.982 316.969 507.888 311.633 510.579C307.963 523.178 302.164 540.494 296.936 548.161C295.702 549.97 294.554 551.768 293.437 553.516L293.436 553.518C287.039 563.532 281.659 571.953 267.058 571.953C253.336 571.953 252.118 556.091 253.225 548.161C254.331 540.23 259.865 522.376 273.144 514.409C278.504 511.192 282.768 509.592 286.104 508.34C293.097 505.715 296.008 504.622 296.383 493.383C296.383 491.612 291.219 495.596 288.637 497.809C284.21 500.576 273.587 504.228 266.504 496.703C259.422 489.178 256.176 475.493 255.438 469.591C255.578 468.469 255.441 466.686 254.201 466.479ZM274.804 452.438C275.542 443.585 279.009 425.658 286.977 424.773C295.225 423.856 296.263 429.012 297.004 432.696L297.005 432.697C297.158 433.461 297.3 434.162 297.49 434.732C298.375 437.388 296.383 444.692 295.276 448.012C293.801 451.147 289.079 457.528 281.997 457.971C274.915 458.414 274.251 454.467 274.804 452.438ZM286.977 486.743C280.337 487.186 277.202 477.706 276.464 472.91C277.612 470.615 284.58 466.996 289.868 464.25C292.227 463.025 294.252 461.974 295.276 461.291C297.932 459.52 300.441 456.127 301.363 454.651C302.469 452.622 304.904 449.007 305.789 450.778C305.347 459.188 301.547 470.513 299.703 475.124C298.227 478.812 293.616 486.301 286.977 486.743ZM286.977 522.155C281.444 533.221 268.496 554.8 260.971 552.587C257.873 551.259 258.942 545.763 259.865 543.181C261.156 537.832 266.504 525.586 277.57 519.388C288.637 513.191 288.452 518.651 286.977 522.155ZM383.806 470.144C384.544 479.919 382.921 499.912 370.527 501.682C363.444 502.125 361.674 494.12 361.674 490.063C361.674 484.714 363.997 473.021 373.293 469.037C381.039 465.717 383.639 467.93 383.806 470.144ZM492.808 433.624C487.828 432.518 476.541 439.6 471.229 476.782C469.901 489.619 473.627 493.197 475.655 493.382C478.606 494.304 485.726 493.935 490.595 485.082C495.464 476.229 498.525 468.114 499.448 465.163C500.185 462.949 501.218 457.084 499.448 451.33C498.787 449.183 498.324 446.987 497.881 444.889C496.84 439.957 495.914 435.565 492.808 433.624ZM675.4 433.986C669.646 431.773 664.518 440.441 662.674 445.052C661.752 446.897 659.575 451.692 658.247 456.119C654.706 468.955 654.559 480.649 654.928 484.891C654.928 487.657 656.145 492.858 661.014 491.53C665.883 490.202 670.051 478.804 671.527 473.271L677.06 449.479C678.904 445.237 681.155 436.199 675.4 433.986Z"/>
<path fill="currentColor" fill-rule="evenodd" clip-rule="evenodd" d="M322.447 299.204C322.001 301.186 338.529 308.021 358.247 303.673C361.89 308.579 369.215 312.367 369.215 312.367C357.338 314.815 350.98 316.126 342.968 320.888C331.495 327.705 323.099 338.04 320.829 351.63C318.441 365.934 331.982 375.749 337.949 378.749C342.689 381.014 362.597 384.547 372.635 380.561C385.182 375.579 390.144 368.502 392.765 357.009C394.862 347.814 390.256 339.024 387.691 335.778C388.732 334.249 394.093 326.946 407.208 309.961C420.324 292.976 429.96 287.975 433.139 287.598C438.671 286.602 443.622 294.845 443.846 299.148C443.846 301.639 449.422 300.789 448.976 299.148C448.887 293.577 443.548 288.183 440.89 286.183C437.972 283.899 428.767 282.469 415.294 295.015C401.822 307.561 389.382 325.38 384.847 332.721C382.207 330.532 375.345 325.236 369.01 328.814C361.091 333.287 367.894 341.158 374.809 341.326C380.386 341.462 383.23 340.024 383.955 339.288C393.457 356.001 383.23 369.615 376.928 374.333C373.508 377.617 363.177 382.418 349.214 375.352C331.76 366.52 336.221 346.308 339.12 339.288C342.02 332.268 347.632 324.785 362.855 319.18C373.794 315.152 376.912 315.293 380.006 315.482C380.358 315.503 380.936 315.563 381.599 315.632C383.221 315.801 385.343 316.021 385.845 315.852C387.852 315.172 387.189 312.094 386.353 311.66C374.575 311.297 366.649 305.552 364.158 302.724C380.817 298.288 390.118 291.66 392.821 288.674C395.758 286.409 402.167 279.728 404.309 271.123C406.45 262.517 400.554 256.252 397.338 254.195C394.215 252.138 383.104 248.448 371.639 253.385C360.173 258.322 354.887 270.877 353.028 276.501C351.336 281.465 351.178 290.708 355.947 299.148C350.838 299.887 336.901 301.693 325.659 295.08C325.659 295.08 322.893 297.223 322.447 299.204ZM391.344 278.832C383.314 294.503 370.373 297.676 361.786 299.148C361.786 299.148 352.879 292.354 358.247 276.501C365.698 257.297 377.356 257.459 383.955 257.798C390.814 258.931 399.374 263.16 391.344 278.832ZM381.278 335.778C378.638 333.042 374.988 329.301 373.248 335.099C372.356 338.133 375.125 338.269 377.653 338.099C379.252 337.835 382.215 337.001 381.278 335.778Z"/>
<path fill="currentColor" fill-rule="evenodd" clip-rule="evenodd" d="M265.681 36.5184C258.672 47.7691 242.774 73.5902 235.249 86.8696C227.724 100.149 212.563 127.814 205.924 139.987L205.612 140.56C196.611 157.093 184.714 178.947 168.852 198.638C159.046 210.811 138.973 229.623 122.374 212.471C118.5 209.151 107.988 192.552 110.754 162.12C111.123 151.238 115.513 128.478 132.333 122.281C148.932 117.302 161.105 130.581 160.552 139.434V152.713C160.183 154.189 159.828 156.033 162.212 156.033C163.872 156.033 169.958 152.713 172.725 146.074C174.569 141.832 176.709 131.356 170.511 123.388C161.904 112.322 150.039 109.002 140.633 110.109C133.44 111.031 121.82 111.769 107.434 130.028C98.1386 143.75 95.077 156.402 94.7081 161.013C93.2326 167.284 91.9415 184.473 98.5813 203.065C105.221 221.656 118.316 230.361 124.033 232.39C130.304 234.972 145.944 237.923 158.339 229.07C170.733 220.217 177.889 210.626 179.918 206.938L188.771 193.105L202.05 168.206C205.923 163.226 206.366 154.595 214.776 155.48C218.096 155.849 225.068 157.472 226.396 161.013C228.056 165.44 225.289 176.506 223.629 185.912C221.969 195.318 219.203 200.851 227.502 226.857C234.142 247.661 243.179 250.28 246.868 248.989C247.237 248.989 248.528 248.436 248.528 244.009C248.085 239.14 247.237 233.865 246.868 231.837C247.053 222.984 245.761 217.451 248.528 193.105C249.413 187.351 250.741 177.797 251.295 173.739C253.323 163.78 257.381 142.201 261.254 130.028C263.91 119.404 273.796 86.1318 278.407 70.8236L283.94 49.7979C285.415 43.1581 285.434 29.4639 275.087 17.7059C262.914 3.87317 246.868 0 229.162 0C219.203 0 195.632 3.87317 181.024 19.3658C166.417 34.8585 166.454 53.8555 168.298 61.4174C169.774 68.7948 175.38 83.4391 186.004 82.9964C187.664 82.9964 190.431 83.5497 188.771 75.2501C187.664 70.8236 186.004 59.7574 189.324 48.1379C191.98 38.8423 194.488 33.9363 195.41 32.6453C198.177 27.6655 206.366 16.378 216.989 11.0662C227.613 5.75442 238.384 7.00859 242.442 8.29964C247.421 9.22182 258.709 13.3901 264.021 22.6857C267.894 29.8787 266.37 35.4118 265.681 36.5184ZM250.741 79.6766C249.413 78.7913 246.13 82.9964 244.655 85.2097L234.142 105.682L220.863 131.688C219.018 134.27 216.104 139.877 219.203 141.647C223.076 143.86 228.609 143.307 229.162 143.307C231.929 143.86 233.589 140.541 234.142 137.774C234.585 135.561 238.753 122.466 240.782 116.195L247.421 93.5093C249.081 89.2673 252.069 80.5619 250.741 79.6766Z"/>
<path fill="currentColor" fill-rule="evenodd" clip-rule="evenodd" d="M277.3 114.535C273.418 114.048 274.903 120.255 275.641 122.284C276.969 131.582 275.087 142.387 273.98 146.628C271.951 155.665 267.009 176.949 263.467 189.786C259.926 202.622 255.721 224.644 254.061 234.05C252.77 243.272 250.631 264.593 252.401 276.102C254.614 290.488 256.274 299.341 261.254 305.427C265.238 310.296 269.185 308.194 270.661 306.534C273.778 301.19 272.952 297.639 271.07 289.534C270.613 287.568 270.094 285.334 269.554 282.742C266.183 266.562 269.369 246.408 270.661 238.477C272.136 228.702 276.304 205.057 281.173 188.679C287.26 168.207 295.559 157.14 298.879 153.267C301.535 150.169 305.888 152.345 307.732 153.821C308.654 154.743 310.831 157.583 312.159 161.567C313.487 165.551 313.081 166.916 312.712 167.1C312.896 167.284 311.827 168.317 306.072 170.973C291.465 178.056 285.969 188.679 285.047 193.106C284.124 196.794 283.387 206.164 287.813 214.131C292.24 222.099 301.093 222.247 304.966 221.324C308.101 221.324 315.921 219.554 322.118 212.471C328.315 205.389 332.447 191.446 333.738 185.359C334.058 180.881 339.405 178.252 344.644 175.676C346.654 174.688 348.649 173.707 350.337 172.633L345.357 201.405C344.804 206.016 345.025 216.013 350.337 219.111C356.977 222.984 363.617 219.664 367.49 216.898C370.552 214.71 376.037 208.717 378.745 205.757C379.462 204.974 379.984 204.403 380.216 204.172C381.101 203.286 382.06 205.278 382.429 206.385C383.167 209.889 387.409 217.323 391.835 218.004C398.674 219.057 406.514 215.107 410.122 213.289C410.309 213.195 410.484 213.106 410.648 213.025C420.607 209.152 427.8 206.385 430.014 206.385C430.176 206.385 430.321 206.382 430.451 206.379C430.852 206.371 431.114 206.366 431.333 206.46C431.746 206.637 432.008 207.166 432.764 208.692C433.248 209.671 433.935 211.058 434.993 213.025C438.092 218.779 443.662 218.742 446.06 218.004C446.982 218.004 449.822 217.34 453.806 214.685C457.79 212.029 463.581 206.569 465.979 204.172C466.421 204.172 466.901 205.278 467.085 205.832C467.639 207.86 469.631 212.803 473.172 216.345C476.713 219.886 483.5 217.82 486.451 216.345C488.664 215.459 496.411 209.705 501.391 204.172C501.833 204.172 502.313 205.647 502.497 206.385C503.419 209.705 506.702 216.677 512.457 218.004C519.65 219.664 528.503 211.918 532.929 208.045C536.47 204.946 542.52 197.532 545.102 194.212C545.286 196.61 545.987 202.18 547.315 205.278C548.975 209.152 550.635 211.918 555.062 215.238C558.603 217.894 564.283 216.713 566.681 215.791L571.108 213.578C571.845 213.394 573.874 212.914 576.087 212.471C578.301 212.029 581.436 214.869 582.727 216.345C583.649 217.451 586.6 219.554 591.027 219.111C595.453 218.668 602.462 213.394 605.413 210.811C608.179 208.045 615.262 200.409 621.459 191.999C627.656 183.589 634.369 169.313 636.951 163.227C637.505 161.936 638.833 158.247 639.718 153.821C640.603 149.394 639.718 148.287 639.165 148.287C638.611 148.103 637.283 147.845 636.398 148.287C635.513 148.73 632.709 154.743 631.418 157.694L624.225 172.08C620.915 178.7 618.009 182.896 616.543 185.012C616.294 185.372 616.086 185.671 615.926 185.913C614.155 189.454 607.81 196.979 604.859 200.299L601.54 203.618C600.249 204.725 597.556 206.164 597.113 203.065C596.67 199.967 597.666 193.659 598.22 190.892L601.54 179.826L606.519 165.44C607.442 163.227 608.954 156.587 607.626 147.734C606.298 138.881 601.171 135.561 598.773 135.008C596.698 134.178 595.246 134.904 593.949 135.553C593.517 135.769 593.102 135.976 592.687 136.115C589.821 136.592 588.605 135.833 586.546 134.549C586.22 134.346 585.872 134.129 585.494 133.901C583.28 132.573 578.669 132.979 576.641 133.348C570.444 133.791 564.099 138.697 561.701 141.094C560.041 142.57 555.726 147.513 551.742 155.481C547.758 163.448 545.286 175.4 544.549 180.379L537.356 191.446C535.142 194.212 530.716 199.192 528.503 201.405C526.29 203.618 525.183 204.172 524.076 204.172C523.191 204.172 522.97 203.434 522.97 203.065C522.084 198.639 524.076 189.786 525.183 185.913L528.503 175.953L532.929 162.12C533.483 160.091 534.478 154.706 534.036 149.394C533.593 144.082 529.794 138.697 527.949 136.668C527.027 135.746 524.63 133.901 522.416 133.901C520.203 133.459 517.99 141.094 516.883 144.968L511.35 163.78L505.264 182.039C503.604 185.913 499.731 194.765 496.964 197.532C495.876 198.62 495.006 199.622 494.244 200.498C492.294 202.742 491.051 204.172 488.664 204.172C486.86 204.172 487.263 200.492 487.773 195.833C487.888 194.779 488.009 193.675 488.111 192.552C488.79 189.609 490.275 185.105 491.918 180.123C494.291 172.926 496.992 164.732 498.071 158.8C500.284 146.628 496.042 140.172 493.091 137.221C492.169 136.115 489.218 133.901 487.005 133.901C484.538 133.901 482.072 142.697 479.997 150.094C479.745 150.994 479.498 151.874 479.258 152.714C477.488 158.911 471.512 176.322 468.745 184.253C468.548 184.712 468.337 185.255 468.099 185.864C466.736 189.358 464.522 195.033 459.339 199.745C456.019 204.172 455.466 204.172 452.699 204.172C451.814 204.172 451.962 201.958 452.146 200.852C451.261 197.753 453.253 189.601 454.359 185.913C456.204 180.748 460.446 168.096 462.659 158.8C464.872 149.505 460.999 141.648 458.786 138.881C457.126 136.668 453.253 132.573 451.039 133.901C448.273 135.561 444.953 146.628 442.74 156.587C440.527 166.547 432.78 185.913 431.12 189.786C429.46 193.659 427.8 195.872 427.247 196.425C421.161 201.405 407.328 205.278 404.561 205.278C402.519 205.278 402.588 204.072 402.763 200.99C402.826 199.898 402.901 198.571 402.901 196.979C402.901 192.11 406.221 181.67 407.881 177.06C410.095 171.526 413.414 163.227 413.968 153.267C414.521 140.541 405.668 134.455 402.901 133.901C400.688 133.459 399.397 136.299 399.028 137.775C397.922 140.91 395.155 149.283 392.942 157.694C390.729 166.104 386.487 177.797 384.642 182.593C382.982 186.835 378.667 196.647 374.683 201.958C370.699 207.27 366.752 207.492 365.276 206.938C362.847 206.938 365.702 191.438 367.556 181.375C367.728 180.438 367.893 179.546 368.043 178.72C368.781 174.662 370.478 164.776 371.363 157.694C372.248 150.611 370.625 145.89 369.703 144.414C368.043 141.094 365.193 137.691 363.617 136.115C362.731 135.229 361.944 134.824 361.661 134.731C361.206 134.639 359.965 134.51 358.637 134.731C356.806 134.96 356.616 136.135 356.5 136.848C356.476 136.997 356.455 137.126 356.424 137.221L353.657 153.267C353.104 158.247 352.55 159.354 350.89 161.014C350.782 161.122 350.638 161.275 350.459 161.464C349.123 162.881 345.878 166.324 341.484 168.207C337.139 170.069 335.582 168.575 334.844 167.653C334.476 167.284 333.185 164.555 330.971 156.587C327.43 143.75 320.274 139.066 317.139 138.328C312.04 136.938 309.272 138.265 305.58 140.034C304.865 140.377 304.115 140.736 303.306 141.096C301.093 142.203 295.56 144.416 295.56 141.649C295.56 139.436 295.006 133.239 292.793 128.37C286.635 115.54 282.381 115.085 278.264 114.644C277.942 114.609 277.621 114.575 277.3 114.535ZM314.925 183.699C315.479 188.495 314.815 200.741 307.732 211.365C303.748 216.677 297.957 214.316 295.56 212.471C293.347 209.152 290.248 199.967 295.56 189.786C300.871 179.605 309.576 179.642 313.265 180.933C313.777 181.302 314.825 182.371 314.925 183.699ZM585.494 146.628C579.739 144.414 574.612 153.083 572.767 157.694C571.845 159.538 569.669 164.333 568.341 168.76C564.8 181.597 564.652 193.29 565.021 197.532C565.021 200.299 566.238 205.5 571.108 204.172C575.977 202.844 580.145 191.446 581.62 185.913L587.153 162.12C588.998 157.878 591.248 148.841 585.494 146.628Z"/>
</svg>
